<?xml version="1.0" encoding="UTF-8"?>
<!-- Created with Inkscape (http://www.inkscape.org/) -->
<svg width="105.84mm" height="105.9mm" version="1.1" viewBox="0 0 105.84 105.9" xmlns="http://www.w3.org/2000/svg" xmlns:cc="http://creativecommons.org/ns#" xmlns:dc="http://purl.org/dc/elements/1.1/" xmlns:rdf="http://www.w3.org/1999/02/22-rdf-syntax-ns#">
 <metadata>
  <rdf:RDF>
   <cc:Work rdf:about="">
    <dc:format>image/svg+xml</dc:format>
    <dc:type rdf:resource="http://purl.org/dc/dcmitype/StillImage"/>
    <dc:title/>
   </cc:Work>
  </rdf:RDF>
 </metadata>
 <g transform="translate(-196.4 -113.35)">
  <g transform="matrix(.26458 0 0 .26458 15.983 74.192)">
   <g transform="translate(670.61 133.5)" stroke-width=".31822">
    <path d="m177.34 414.43c-1.5582-0.45258-3.6699-1.5187-4.413-2.2279-0.41515-0.3962-1.1093-1.5221-1.5425-2.502-1.9466-4.403-1.9788-4.3588 16.78-23.106l15.578-15.569v-18.064c0-10.703-0.11972-18.138-0.2938-18.246-0.16159-0.0999-41.853-0.19276-92.647-0.20629-50.794-0.0134-92.992-0.10428-93.773-0.20176-1.143-0.14265-1.7447-0.48461-3.0853-1.7534-2.3235-2.1991-2.421-2.8283-2.3781-15.344 0.03819-11.13 0.2239-12.577 1.865-14.529 0.47356-0.56321 1.6533-1.3964 2.6216-1.8516 1.7033-0.80065 1.9714-0.82902 8.241-0.87167 4.5195-0.0309 6.5492-0.15551 6.7078-0.41228 0.12506-0.20253 0.16459-7.5228 0.08784-16.267-0.09974-11.363-0.0366-16.195 0.22129-16.937 0.19846-0.57103 0.81857-1.7948 1.378-2.7194 0.88146-1.4569 1.3273-1.8285 3.3418-2.7855 1.2786-0.60733 2.6006-1.1042 2.9378-1.1042 1.1111 0 4.6381 2.1964 5.7508 3.5812l1.0872 1.3531 0.3181 35.28 8.9068-0.0351c33.109-0.13052 319.56-0.0378 319.93 0.10362 0.25228 0.0969 0.63667-0.0385 0.85425-0.30083 0.31368-0.37825 0.39591-23.541 0.39731-111.9 0-61.28-0.10052-111.58-0.2255-111.79-0.14563-0.2358-0.6731-0.29662-1.4686-0.16932-0.68274 0.10926-20.24 0.19309-43.46 0.18629s-96.829-0.01716-163.57-0.02302l-121.36-0.01063-0.3181 161.32-0.89183 1.1701c-1.1296 1.482-3.9965 3.331-5.5504 3.5797-0.98145 0.15707-1.5856-0.0175-3.4094-0.98592-2.3587-1.2522-2.5443-1.4266-3.8908-3.6543l-0.86582-1.4325-0.08803-79.724c-0.05648-51.152-0.199-79.835-0.39767-80.034-0.18337-0.1835-2.6821-0.28218-6.1271-0.24195-5.1767 0.06045-6.0272-5e-3 -7.7215-0.59384-2.6599-0.92445-4.1572-2.4664-4.9584-5.106l-0.62976-2.0749 0.6524-1.8977c0.80252-2.3343 2.1003-3.7181 4.6031-4.9082l1.9186-0.9123 52.619-0.02429c28.94-0.01337 52.737-0.14295 52.882-0.28798 0.14492-0.14504 0.3216-1.69 0.39261-3.4332 0.14858-3.6475 0.53136-5.154 1.6466-6.4803 1.0121-1.2037 4.5885-3.2151 5.7166-3.2151 0.90285 0 3.9383 1.5556 5.1373 2.6328 0.8288 0.74458 2.3473 3.7436 2.4722 4.8826 0.13258 1.2087 0.67378 1.614 1.3564 1.0159 0.50988-0.4468 1.3541-0.89969 4.8586-2.6064 0.61234-0.29822 1.4712-0.74596 1.9086-0.99498 0.43739-0.24902 1.2963-0.68686 1.9086-0.97298 0.61235-0.28612 1.4712-0.71607 1.9086-0.95546 0.43739-0.23938 1.1531-0.59803 1.5905-0.79699 1.4733-0.67018 2.6992-1.2674 3.4991-1.7048 0.43739-0.23914 1.2963-0.6689 1.9086-0.95502 0.61234-0.28612 1.4712-0.71588 1.9086-0.95502 0.43739-0.23914 1.2963-0.6689 1.9086-0.95502 0.61234-0.28612 1.4712-0.71588 1.9086-0.95502 0.43739-0.23914 1.2963-0.6689 1.9086-0.95502 0.61235-0.28612 1.4712-0.71588 1.9086-0.95502 0.43739-0.23914 1.2963-0.6689 1.9086-0.95502 0.61234-0.28612 1.4712-0.71588 1.9086-0.95502 0.43739-0.23914 1.2963-0.6689 1.9086-0.95502 0.61234-0.28612 1.4712-0.71588 1.9086-0.95502 0.43739-0.23914 1.2963-0.66341 1.9086-0.94282 0.61235-0.27941 1.3281-0.64576 1.5905-0.81411 0.26243-0.16835 1.1213-0.59543 1.9086-0.94905 0.7873-0.35363 1.6462-0.7863 1.9086-0.9615 0.26244-0.1752 0.97816-0.53944 1.5905-0.80942s1.4712-0.70206 1.9086-0.96017 1.2963-0.67751 1.9086-0.93201c0.61235-0.25449 1.4712-0.66783 1.9086-0.91853 0.43739-0.2507 1.2963-0.68232 1.9086-0.95915 0.61234-0.27683 1.4712-0.72036 1.9086-0.98563 0.43739-0.26526 1.2963-0.6981 1.9086-0.96185 0.61234-0.26375 1.3281-0.61929 1.5905-0.79008 0.26243-0.17079 1.1213-0.60801 1.9086-0.97161 1.3586-0.62743 2.7638-1.3209 3.8172-1.8838 0.32601-0.1742 0.52753-0.95044 0.6362-2.4506 0.33691-4.6509 3.6665-7.4572 8.3484-7.0365 2.2941 0.20617 3.5763 0.94899 5.0898 2.9486 1.0838 1.432 1.1914 1.7552 1.1929 3.5844 2e-3 2.3749 0.31654 3.0923 1.4848 3.3858 0.47507 0.11933 1.2304 0.47768 1.6784 0.79634 0.44806 0.31866 1.3157 0.71807 1.928 0.88758 0.61234 0.16951 1.6701 0.68715 2.3506 1.1503 0.68049 0.46316 1.4678 0.84472 1.7496 0.84791 0.28176 0.0032 1.1422 0.43294 1.9121 0.95502s1.6452 0.94922 1.9452 0.94922 0.91588 0.29161 1.3686 0.64803c0.45277 0.35642 1.2952 0.80949 1.872 1.0068 0.57682 0.19734 1.5472 0.69362 2.1564 1.1028s1.3392 0.74403 1.6222 0.74403 1.1444 0.42715 1.9143 0.94922c0.76989 0.52207 1.602 0.95183 1.8491 0.95502 0.24712 0.0032 1.106 0.41811 1.9086 0.92204 0.80262 0.50394 1.8492 1.0071 2.3258 1.1182 0.47659 0.11106 1.3912 0.55826 2.0325 0.99378 0.64129 0.43552 1.3965 0.79584 1.6783 0.80071 0.28176 0.0049 1.0746 0.43463 1.7618 0.95502 0.68725 0.52039 1.5054 0.94616 1.818 0.94616s1.2456 0.42976 2.0733 0.95502c0.82763 0.52526 1.701 0.95502 1.9409 0.95502 0.23985 0 0.89177 0.34698 1.4487 0.77106s1.442 0.87656 1.9669 1.0055c0.52487 0.12894 1.3837 0.55104 1.9086 0.938 0.52486 0.38697 1.3675 0.80166 1.8726 0.92153 0.50504 0.11987 1.3639 0.55071 1.9086 0.95741s1.5157 0.90777 2.1578 1.1135c0.64208 0.20571 1.333 0.57372 1.5355 0.8178 0.20241 0.24408 1.0617 0.67436 1.9096 0.95618 0.84785 0.28182 1.7072 0.7121 1.9096 0.95618 0.20242 0.24408 0.89337 0.61303 1.5355 0.81989 0.64209 0.20686 1.321 0.49717 1.5087 0.64514 0.92859 0.73202 5.2991 2.8234 5.5613 2.6612 0.16519-0.10217 0.30034-0.51762 0.30034-0.92321 0-0.88682 1.4346-4.2371 2.175-5.0791 0.60863-0.69225 4.7085-2.741 5.4852-2.741 0.74423 0 4.1107 1.8299 5.1344 2.7909 1.2818 1.2032 2.2688 4.4768 2.2382 7.4233-0.0137 1.3282 0.0926 2.6054 0.23638 2.8382 0.21605 0.34986 9.3592 0.41154 52.697 0.35545l52.435-0.06786 2.2267 1.0897c1.2247 0.59935 2.5964 1.5015 3.0483 2.0047 0.92344 1.0284 2.2003 3.9666 2.2003 5.0632 0 1.1903-1.8388 4.5225-2.9437 5.3344-2.3071 1.6953-3.7344 1.9746-10.3 2.0154-3.3475 0.02082-6.2309 0.12725-6.4076 0.23654-0.33611 0.20788-0.53489 222.03-0.19993 223.12 0.15575 0.50533 0.7408 0.55709 6.2955 0.55709 7.1885 0 8.8866 0.34212 10.783 2.1726 0.66229 0.63909 1.557 1.9332 1.9881 2.8757 0.78386 1.7135 0.78396 1.715 0.78396 12.449v10.736l-1.0338 2.0384c-0.6667 1.3146-1.4995 2.3883-2.3452 3.0238-1.1897 0.89392-1.5882 1.0013-4.2944 1.1569-1.6406 0.0943-16.473 0.15255-32.96 0.12941l-29.977-0.0421-3.628-3.6294-0.12527-2.8012c-0.16474-3.6842 0.50343-5.067 3.3916-7.0192l2.0016-1.3529h26.628c20.287 0 26.719-0.091 27.01-0.382 0.54694-0.54735 0.48157-2.9588-0.0931-3.4362-0.37567-0.31197-30.102-0.41636-142.27-0.49951-116.43-0.0863-222.48-0.15267-225.82-0.14137-1.1748 4e-3 -1.9108 3.3061-0.92019 4.1288 0.36024 0.29921 32.001 0.37618 142.72 0.34718l142.26-0.0372 1.7263 0.87409c0.94949 0.48076 2.3562 1.5752 3.1261 2.4321l1.3997 1.558v2.4916c0 1.3704-0.13675 2.8515-0.30391 3.2915-0.45212 1.19-2.5776 3.4184-3.7151 3.895-0.80794 0.33852-9.9119 0.41642-47.988 0.41065-25.845-4e-3 -47.061 0.0625-47.146 0.14755-0.2953 0.29552-0.0854 35.912 0.21496 36.473 0.16342 0.30558 7.1587 7.3464 15.545 15.646 16.34 16.172 17.547 17.57 17.547 20.34 0 1.3442-1.0177 3.526-2.3591 5.0575-0.76658 0.8753-4.3556 2.5857-5.4256 2.5857-0.39994 0-1.5067-0.35717-2.4595-0.79371-1.4431-0.66112-3.4932-2.5692-12.276-11.425-8.7167-8.7896-10.609-10.552-10.922-10.175-0.28258 0.34075-0.32679 2.4677-0.1745 8.395 0.12647 4.9224 0.0858 8.2496-0.10698 8.7571-0.64376 1.6945-2.3613 3.407-4.3416 4.329-2.4606 1.1456-3.1718 1.1414-5.4945-0.0319-2.0611-1.0412-3.9994-3.1285-4.4878-4.8328-0.16751-0.58453-0.30457-4.5291-0.30457-8.7658s-0.12172-7.7783-0.27049-7.8703-4.6936 4.2792-10.1 9.7138c-11.126 11.184-13.581 13.079-16.032 12.367zm3.3901-1.9146c0.4877-0.18556 5.7628-5.271 11.723-11.301 11.321-11.454 11.897-11.918 12.577-10.129 0.189 0.49746 0.28215 4.0646 0.2307 8.8339l-0.0863 7.9995 0.98672 1.7509c0.5427 0.96297 1.4731 2.0877 2.0676 2.4994 0.96203 0.66619 1.3244 0.72893 3.2939 0.57008 2.5919-0.20902 3.4146-0.71024 4.7852-2.9151l0.95431-1.5352 0.0942-8.7653c0.0608-5.6526 0.21581-8.9119 0.43657-9.1781 0.55063-0.66396 1.2169-0.48222 2.1222 0.57887 1.8559 2.1753 20.822 20.845 21.621 21.284 0.51864 0.28456 1.6889 0.4657 2.972 0.46 2.3913-0.0108 3.8821-0.76901 4.9275-2.5066 0.74008-1.2301 0.79004-4.7057 0.0862-5.9997-0.26676-0.49046-7.5629-7.9773-16.214-16.637l-15.729-15.746-0.0905-18.221c-0.0498-10.021-0.0141-18.532 0.0794-18.912 0.34791-1.4158-5.3353-1.329 90.066-1.3754 5.4649-3e-3 5.9803-0.18441 7.9861-2.8162 0.86119-1.1299 1.0472-1.6565 1.0472-2.9639 0-2.0245-1.1097-3.9977-2.9513-5.2481l-1.343-0.91185-24.653-3e-3c-13.559 0-30.235-0.0175-37.059-0.0362-18.954-0.0515-38.883-0.0678-58.53-0.048-9.7975 0.01-51.143 0.0335-91.879 0.0523l-74.065 0.0342-0.72737-0.8462c-0.65448-0.76141-0.71138-1.0804-0.56776-3.1834 0.19861-2.9082 0.42704-3.354 1.9122-3.732 1.6943-0.43126 367.48-0.46564 369.08-0.0347 1.4648 0.39471 1.8974 1.3847 1.8974 4.342 0 1.5973-0.13357 2.1554-0.63621 2.6584-0.34991 0.35017-0.81513 0.65632-1.0338 0.68032-0.2187 0.0239-12.066 7e-3 -26.328-0.0371l-25.93-0.0807-2.1062 0.95572c-2.8146 1.2772-3.7691 2.6259-3.7691 5.3261 0 2.3684 0.89377 3.8621 3.077 5.1425l1.4786 0.86719 31.19-0.0774c33.954-0.0842 32.024 0.0223 34.105-1.8805 1.5561-1.4223 1.7954-3.6455 1.6699-15.512-0.12098-11.439-0.0954-11.308-2.6018-13.336l-1.2216-0.98876-7.4362-0.15917c-6.0727-0.12998-7.5246-0.24777-7.918-0.64228-0.3062-0.30707-0.50272-1.1771-0.53931-2.3875-0.0511-1.6918-0.0437-42.486 0.0169-93.108 0.0115-9.7173 6e-3 -36.505-0.0118-59.529-0.0388-49.48-0.0394-43.499 5e-3 -58.328l0.036-12.01 0.75628-0.4959c0.7379-0.48386 1.8389-0.54733 13.116-0.75614 1.7031-0.03155 2.1127-0.1701 3.3131-1.1207 1.8292-1.4486 2.1942-2.2062 2.2076-4.5816 0.0121-2.1386-0.41155-3.2845-1.6376-4.4302-1.8614-1.7393 0.7595-1.6604-54.264-1.6337-27.946 0.01356-51.783 0.0082-52.972-0.01184-1.8435-0.03113-2.2766-0.15151-2.9424-0.81789-0.735-0.73556-0.78077-0.98814-0.78077-4.3078 0-5.0316-0.90526-6.6646-4.306-7.7675-1.4513-0.47067-1.7555-0.47402-3.2306-0.03563-2.5778 0.76608-4.226 3.1282-4.2314 6.0639-5e-3 2.59-1.2802 2.3424-9.7578-1.8948-3.9944-1.9956-8.4077-4.1544-9.8073-4.7966-1.3996-0.64225-2.7595-1.3012-3.022-1.4644-0.26244-0.1632-1.2644-0.7041-2.2267-1.202-0.96225-0.4979-2.179-1.1281-2.7038-1.4005-0.52487-0.27237-1.4553-0.72879-2.0677-1.0143-0.61234-0.28548-1.4712-0.7212-1.9086-0.96826-0.43739-0.24706-2.2267-1.1461-3.9763-1.9978-3.3821-1.6466-15.576-7.7296-17.177-8.5691-1.9757-1.0357-6.4881-3.3053-10.02-5.0398-4.579-2.2486-4.7707-2.4199-4.7746-4.267-2e-3 -0.85831-0.30962-2.1215-0.74485-3.0568-2.9447-6.3282-10.732-4.6241-11.435 2.5023-0.10108 1.0248-0.40059 2.103-0.66558 2.3961-0.26498 0.29302-1.4548 1.0191-2.6439 1.6135-1.1892 0.59443-2.52 1.2742-2.9574 1.5107-0.43739 0.23644-2.1551 1.0823-3.8172 1.8796-1.6621 0.79734-3.2367 1.5818-3.4991 1.7433-0.26243 0.16145-2.839 1.4495-5.7258 2.8623s-6.4654 3.2017-7.9525 3.9752c-1.4871 0.77352-6.4972 3.2779-11.134 5.5653-4.6363 2.2874-8.7875 4.364-9.2249 4.6148-0.43739 0.25078-1.2963 0.67718-1.9086 0.94755-0.61235 0.27037-1.4712 0.70672-1.9086 0.96965-0.43739 0.26293-2.012 1.0518-3.4991 1.753-1.4871 0.70122-3.2049 1.5577-3.8172 1.9034-1.5752 0.8891-6.0777 3.0499-6.8558 3.2902-1.132 0.34957-1.6985-0.43428-2.0301-2.809-0.33382-2.3906-0.9631-3.5108-2.4675-4.3927-1.1727-0.68736-3.4864-1.0278-5.0236-0.73926-1.179 0.22136-3.3918 1.954-4.0584 3.1779-0.19895 0.36528-0.44534 2.5046-0.54752 4.7541-0.16061 3.5355-0.26849 4.1505-0.79573 4.5363-0.72042 0.52717 3.9194 0.48193-59.496 0.58015-36.811 0.05701-47.61 0.16144-48.351 0.46755-1.1691 0.48284-2.6077 1.8116-3.2094 2.9641-0.25014 0.47917-0.44875 1.762-0.44875 2.8985v2.0388l1.7305 1.6379c1.9828 1.8767 1.5519 1.8036 9.8061 1.6635 6.2611-0.10627 7.1664 0.0593 7.732 1.4141 0.37153 0.88986 0.43743 13.444 0.42054 80.115-0.01883 74.316 0.01311 79.146 0.5321 80.486 0.68123 1.7593 1.5334 2.739 3.067 3.526 1.5686 0.80504 2.9299 0.75942 4.9131-0.16462 1.2631-0.58857 1.8446-1.1138 2.5314-2.2865l0.89152-1.5224 0.04256-80.178c0.03824-72.047 0.09269-80.228 0.53689-80.673 0.44544-0.44578 13.405-0.4947 131.03-0.49458 71.794 7e-5 135.54 0.0069 141.67 0.01512 6.1234 0.0082 21.638 0.02913 34.477 0.04644 13.82 0.01862 23.57 0.15298 23.9 0.32935 0.30592 0.16384 0.64651 0.53339 0.75686 0.8212 0.11038 0.28782 0.20072 36.499 0.20078 80.469 2.6e-4 153.94 0.0324 143.91-0.46242 144.59-0.4413 0.60401-1.8012 0.61586-78.966 0.68847-73.293 0.069-241.3 0.13736-248.93 0.10136-3.1807-0.015-3.4335-0.063-3.784-0.7184-0.27203-0.50867-0.39936-5.3908-0.4618-17.706l-0.08621-17.004-1.1636-1.6908c-0.92379-1.3423-1.4654-1.7937-2.628-2.1901-1.7219-0.58714-2.0772-0.60341-3.6474-0.167-1.5399 0.42801-2.9785 1.6608-3.7857 3.2441-0.62655 1.2291-0.64537 1.7741-0.61247 17.74 0.02014 9.7735-0.08949 16.797-0.26957 17.271-0.16694 0.4394-0.56499 0.90261-0.88456 1.0294-0.31957 0.12673-3.2292 0.21643-6.4659 0.19937-7.212-0.038-8.9198 0.20291-10.223 1.4423-1.8611 1.7706-1.8395 1.6096-1.903 14.175-0.03742 7.4126 0.06038 11.864 0.27194 12.377 0.42875 1.0406 3.0164 3.4239 3.9619 3.6491 0.40399 0.0962 42.564 0.20851 93.688 0.24955 88.786 0.0713 92.979 0.10012 93.522 0.64358 0.53314 0.53405 0.56425 1.654 0.50679 18.244-0.0439 12.671-0.16868 18.008-0.44074 18.85-0.29266 0.90568-3.9188 4.7248-15.844 16.687-13.426 13.468-15.536 15.712-16.007 17.031-0.68001 1.903-0.69213 2.5266-0.0827 4.2552 0.57556 1.6325 1.5325 2.7532 2.8522 3.3402 1.1564 0.51434 3.9237 0.57466 5.1397 0.11199zm-10.706-137.82c-73.926-0.14707-80.075-0.1995-80.957-0.69025-3.1146-1.7333-4.7767-4.9672-4.0288-7.8388 0.56769-2.1796 1.871-3.8721 3.7107-4.8186 1.5873-0.81673 1.6108-0.81868 11.716-0.97753 9.6301-0.15137 10.148-0.19004 10.586-0.79008 0.3971-0.54404 0.43109-4.1165 0.24681-25.945-0.24391-28.892-0.29324-28.139 2.0065-30.6 0.78563-0.84053 1.9519-1.714 2.5917-1.9411 1.5465-0.54882 42.211-0.48899 44.268 0.0651 1.7419 0.46939 3.8907 2.4818 4.7268 4.4267 0.65504 1.5238 0.66613 1.9438 0.72477 27.449 0.0328 14.246 0.18409 26.153 0.33631 26.459 0.25329 0.50985 1.0009 0.5571 8.8153 0.5571 6.5866 0 8.6165-0.0939 8.8793-0.41092 0.23694-0.28571 0.37305-12.385 0.44676-39.713 0.10089-37.405 0.13457-39.377 0.69785-40.859 0.81245-2.138 2.4889-3.7287 4.6382-4.4008 1.5408-0.48183 4.1216-0.57126 21.788-0.755l20.04-0.20843 1.8552 0.70806c2.4862 0.94892 3.7581 2.1408 4.8263 4.523l0.89118 1.9873-0.22689 39.007c-0.19361 33.284-0.16122 39.096 0.22068 39.612 0.42235 0.57091 0.92093 0.60131 8.8465 0.53902 6.4064-0.0504 8.4989-0.16455 8.8206-0.48127 0.34696-0.3417 0.40894-8.6419 0.34995-46.857-0.0394-25.543-0.086-48.304-0.10354-50.58l-0.0318-4.1384-7.1573-0.15917c-3.9365-0.0875-7.372-0.29094-7.6344-0.452-1.7659-1.0838-3.5125-2.9044-3.9922-4.1612-0.79701-2.0885-0.53463-5.1332 0.58124-6.7446 0.47167-0.68112 7.6947-8.4818 16.051-17.335 8.3565-8.853 17.004-18.036 19.217-20.406 5.9019-6.3218 6.5648-6.8818 8.6675-7.3232 1.3699-0.28755 2.2065-0.28672 3.6119 4e-3 1.7674 0.3651 1.9635 0.5149 5.8151 4.4429 2.1923 2.2358 6.3335 6.572 9.2028 9.636 2.8692 3.064 9.179 9.7969 14.022 14.962 11.209 11.954 14.704 15.896 15.403 17.369 0.39769 0.83873 0.52121 1.697 0.42705 2.9678-0.16726 2.258-1.2974 4.0377-3.5498 5.5902l-1.6422 1.1319h-6.4181c-3.5299 0-6.7831 0.13888-7.2292 0.30863l-0.81113 0.30863 0.19528 50.705c0.14213 36.905 0.29234 50.769 0.55188 50.939 0.1961 0.12864 3.5773 0.26536 7.5138 0.30388 12.686 0.12409 11.523 0.0204 13.889 1.2366 1.8701 0.96126 2.2473 1.3174 3.1786 3.0007 1.2732 2.3014 1.3396 3.5993 0.30334 5.9292-1.2233 2.7503-3.0272 3.9997-6.1498 4.2592-3.061 0.25439-76.085 0.32598-160.73 0.15758zm-19.118-14.824c0.33477-0.33476 0.4243-43.674 0.0914-44.269-0.28364-0.50723-1.2291-0.54335-12.351-0.47189-9.7909 0.0629-12.128 0.16038-12.497 0.5211-0.38344 0.37554-0.45103 3.7563-0.43991 22.003 0.0128 20.922 0.0313 21.574 0.62841 22.058 0.53786 0.43603 2.1101 0.48942 12.496 0.42432 6.5344-0.0409 11.967-0.16026 12.072-0.26512zm72.879 0.0185c0.52039-0.62751 0.28295-70.351-0.24137-70.876-0.21463-0.21479-4.5175-0.34588-12.307-0.37494-10.279-0.0384-12.019 0.0223-12.276 0.42798-0.18136 0.28705-0.30056 14.178-0.30352 35.371-4e-3 28.379 0.0729 34.963 0.41164 35.245 0.47396 0.39362 3.7878 0.52315 15.847 0.61942 7.2199 0.0576 8.529-3e-3 8.8686-0.41269zm72.457-0.10779c0.33057-0.20992 0.43363-10.87 0.53463-55.306 0.11267-49.568 0.17604-55.189 0.63668-56.474 1.0296-2.8742 3.8214-4.8434 6.9497-4.9019 1.1971-0.0224 1.9668-0.17398 1.9668-0.38732 0-0.19277-2.2317-2.6997-4.9593-5.5709-2.7276-2.8713-7.5675-8.0139-10.755-11.428-3.1879-3.4142-6.0498-6.2503-6.3599-6.3024-0.38924-0.0654-3.9044 3.469-11.353 11.415-5.9338 6.3303-10.789 11.673-10.789 11.873 0 0.2357 0.52438 0.32717 1.49 0.25993 2.5035-0.17434 5.8744 1.7981 7.1945 4.2098 0.50217 0.91745 0.54358 4.9145 0.58496 56.463 0.0349 43.438 0.12959 55.578 0.43657 55.948 0.33399 0.40273 2.1411 0.472 12.202 0.46786 6.4957-3e-3 11.995-0.12189 12.22-0.26489z" fill="#edf2f5"/>
    <path d="m102.7 274.05-13.091-0.15917-1.3827-0.98421c-2.028-1.4435-2.8974-3.2872-2.7166-5.7606 0.18105-2.476 1.0572-3.9547 3.0315-5.1161l1.4833-0.87263 10.444-0.15917c9.8716-0.15045 10.469-0.19304 10.895-0.7771 0.38075-0.52163 0.45105-4.7389 0.45105-27.061 0-16.45 0.11868-26.857 0.31407-27.539 0.50781-1.7719 2.6899-3.7506 4.5931-4.165 1.1132-0.24236 8.0768-0.3196 22.449-0.249 18.7 0.0918 20.933 0.15653 21.79 0.63101 1.3 0.7202 2.4909 2.0552 3.3621 3.7689l0.72828 1.4325 0.13743 26.422c0.0891 17.124 0.2506 26.562 0.45902 26.82 0.2433 0.30105 2.471 0.39792 9.1505 0.39792 7.8238 0 8.8786-0.0599 9.2655-0.52634 0.363-0.43762 0.46338-7.2375 0.59563-40.349l0.15905-39.823 0.74829-1.5208c0.80623-1.6385 2.1189-2.7956 3.8164-3.364 1.6334-0.54696 40.793-0.91303 42.858-0.40065 2.309 0.5729 3.8122 1.7003 4.8209 3.6156l0.8794 1.6698v39.822c0 33.284 0.0717 39.909 0.43658 40.349 0.38728 0.46776 1.437 0.52729 9.2971 0.52729h8.8605l0.51413-0.78524c0.46906-0.71642 0.50541-5.2127 0.41456-51.284-0.0988-50.103-0.10458-50.502-0.73664-50.945-0.49782-0.34896-2.1058-0.44654-7.3577-0.44654h-6.7206l-1.2406-0.91403c-3.3802-2.4903-4.426-5.4127-3.0339-8.477 0.69811-1.5366 1.0189-1.8903 20.063-22.125 19.924-21.169 21.629-22.919 22.834-23.436 1.3161-0.56488 4.5871-0.56545 5.9053-9.5e-4 1.1357 0.48627 2.2555 1.6238 17.095 17.364 16.794 17.814 24.471 26.197 25.369 27.705 1.5418 2.5883 1.038 5.4212-1.3824 7.7736-2.0719 2.0137-2.5241 2.1096-9.9431 2.1096-5.9206 0-6.7521 0.0633-7.24 0.55155-0.51497 0.51534-0.53737 1.7533-0.34113 18.862 0.1155 10.071 0.21233 32.85 0.21519 50.621 3e-3 19.77 0.12206 32.497 0.3063 32.789 0.25362 0.40216 1.8756 0.50262 10.278 0.63668l9.9766 0.15916 1.8506 0.95502c1.5104 0.77945 2.0274 1.2695 2.8126 2.6658 0.63993 1.1381 0.96197 2.1516 0.96197 3.0273 0 1.888-1.2968 4.2925-2.9385 5.4487l-1.3561 0.95502-11.504 0.20402c-13.178 0.2337-198.86 0.19559-218.64-0.0449zm121.26-13.504c0.60599-0.44348 0.61546-1.114 0.50901-36.052-0.0805-26.428-0.20345-35.698-0.47715-35.982-0.27252-0.28265-3.3971-0.3912-11.979-0.41616-6.3859-0.0186-11.923-0.0256-12.304-0.0155-1.7926 0.0472-1.6928-2.0933-1.6928 36.282 0 33.587 0.0273 35.288 0.57406 35.783 0.48264 0.43711 1.5846 0.53484 6.9187 0.61357 17.527 0.25871 17.811 0.2554 18.451-0.21335zm-72.716-0.48219c0.21793-0.40751 0.32929-8.1023 0.32929-22.754v-22.138l-0.71573-0.40526c-0.55878-0.3164-3.3546-0.37036-12.75-0.24609-11.447 0.15139-12.056 0.18934-12.485 0.7771-0.3791 0.51922-0.45118 4.1006-0.45118 22.418 0 19.838 0.0474 21.852 0.52646 22.382 0.49279 0.54493 1.3158 0.58214 12.872 0.58214 11.88 0 12.358-0.0232 12.675-0.61576zm145.52 0.11553c0.52643-0.52686 0.65892-17.932 0.65892-86.565 0-24.344 5e-3 -24.522 0.67793-25.979 1.1765-2.5459 3.8823-4.1039 7.1274-4.1039 1.7398 0 1.9304-0.0636 1.8393-0.61363-0.0559-0.3375-3.2571-3.9546-7.1136-8.038-3.8566-4.0834-8.8471-9.3941-11.09-11.802-2.2429-2.4074-4.3217-4.3772-4.6196-4.3772-0.63975 0-4.4014 3.8413-15.431 15.758-2.5929 2.8014-5.34 5.7146-6.1046 6.4739-0.76467 0.75927-1.3903 1.6546-1.3903 1.9896 0 0.5406 0.24492 0.60911 2.1774 0.60911 1.9893 0 2.3425 0.10682 4.0891 1.2365 1.4556 0.9415 2.0883 1.6016 2.6519 2.7666l0.74013 1.53 0.0218 55.281c0.0183 46.363 0.0922 55.366 0.45836 55.808 0.39232 0.47337 1.6718 0.52678 12.622 0.52678 10.653 0 12.248-0.0629 12.685-0.50023z" fill="#cbd8e4"/>
    <path d="m102.43 273.74c-8.8615-0.11142-12.917-0.27281-13.36-0.53175-1.0239-0.59838-2.637-2.4194-3.0024-3.3894-0.46684-1.2392-0.42244-3.537 0.09216-4.7696 0.56807-1.3606 2.4403-2.9723 3.9354-3.3878 0.71606-0.19899 5.0955-0.33464 10.839-0.33569l9.637-3e-3 0.7808-0.78136 0.78079-0.7814v-26.765c0-21.76 0.0804-26.958 0.42977-27.794 0.58019-1.3896 2.4629-2.9864 4.014-3.4044 0.86365-0.23273 8.0289-0.31356 22.351-0.25215 18.91 0.0811 21.178 0.14461 22.034 0.61725 1.3496 0.74509 2.2531 1.798 3.0077 3.5051 0.63681 1.4407 0.65679 2.1199 0.8052 27.373 0.0837 14.243 0.1547 26.136 0.15778 26.43 3e-3 0.29389 0.23053 0.75946 0.50547 1.0346 0.43088 0.43119 1.7426 0.50024 9.5041 0.50024 7.9867 0 9.0535-0.0595 9.4408-0.52631 0.36303-0.43765 0.46337-7.2618 0.59563-40.509 0.14354-36.085 0.20962-40.091 0.67779-41.096 0.65615-1.4093 2.3579-2.9966 3.6874-3.4394 0.65506-0.21818 8.2336-0.42186 20.995-0.56424 22.91-0.25562 22.955-0.25216 25.109 1.9015 2.5647 2.5649 2.4339-0.0375 2.1783 43.333-0.12408 21.058-0.12776 38.733-8e-3 39.278 0.11959 0.54493 0.51496 1.1501 0.87858 1.3449 0.44272 0.2371 3.5607 0.34629 9.4376 0.33046 8.5915-0.0232 8.7882-0.0381 9.3332-0.71034 0.52496-0.64762 0.55667-3.5739 0.55667-51.366 2e-5 -43.233-0.0662-50.768-0.45089-51.295-0.41735-0.57196-0.99354-0.62977-7.7442-0.7771l-7.2933-0.15917-1.5204-1.2476c-2.5558-2.0973-3.3498-4.9744-2.1156-7.6659 0.63789-1.3911 0.33108-1.0547 19.601-21.494 7.3486-7.7948 15.26-16.195 17.58-18.668s4.7038-4.726 5.2967-5.0076c1.3994-0.66455 4.69-0.66908 6.0814-8e-3 0.5832 0.27696 1.8154 1.3155 2.7383 2.308 3.5518 3.8196 11.07 11.806 14.129 15.009 12.077 12.645 23.989 25.605 25.101 27.307 1.9323 2.9596 0.97386 6.254-2.5 8.5925l-1.5368 1.0346h-6.7324c-5.5529 0-6.8552 0.0861-7.4332 0.49119l-0.70074 0.49118 0.16099 50.682c0.0885 27.875 0.23107 51.002 0.3167 51.393 0.0896 0.40935 0.45756 0.77378 0.8666 0.85836 0.39101 0.0808 5.0122 0.21224 10.269 0.29208 10.218 0.15516 11.09 0.28412 12.815 1.8938 1.0309 0.9623 1.9735 2.8924 2.0202 4.1365 0.0931 2.4786-1.5876 5.1764-3.8759 6.2217-1.0128 0.46264-10.9 0.50959-109.43 0.51994-59.572 6e-3 -114.04-0.0606-121.04-0.1486zm48.38-12.731c1.0113-0.0102 1.0849-1.5998 1.0806-23.337-3e-3 -11.941-0.0935-22.045-0.20254-22.452-0.109-0.40738-0.5007-0.83714-0.87043-0.95502s-6.1593-0.14271-12.866-0.0552c-11.604 0.15148-12.215 0.18903-12.644 0.7771-0.37913 0.51932-0.45113 4.1281-0.45113 22.611 0 23.797-0.041 23.222 1.6728 23.466 0.52859 0.0752 14.696 0.0435 24.281-0.0543zm73.453-0.31773c0.56254-0.62468 0.6362-1.1542 0.6362-4.5733 0-43.526-0.19909-67.308-0.56767-67.813-0.37727-0.51632-1.3701-0.56103-12.94-0.58266l-12.531-0.0234-0.57956 0.71626c-0.55288 0.68328-0.57956 2.3383-0.57956 35.946 0 38.907-0.1307 36.499 1.9923 36.704 0.56632 0.0547 6.1829 0.15188 12.481 0.21599l11.452 0.11655zm72.822-0.18604c0.5327-0.53309 0.65793-16.668 0.65955-84.974 0-21.101 0.0847-26.614 0.41786-27.377 1.073-2.456 4.0923-4.2892 7.0728-4.2945 1.6085-3e-3 2.5289-0.37118 2.5289-1.012 0-0.1347-0.82433-1.073-1.8318-2.0851s-6.1129-6.4243-11.345-12.027c-5.2323-5.6028-9.7044-10.301-9.9378-10.441-0.23349-0.14002-0.62502-0.14002-0.87007 0-0.24505 0.14001-3.4177 3.4061-7.0504 7.258s-8.7379 9.266-11.345 12.031c-3.0016 3.1839-4.7021 5.227-4.6368 5.5709 0.0828 0.43593 0.57346 0.5757 2.4859 0.70818 3.6745 0.25454 6.6844 2.291 7.1566 4.842 0.10603 0.57278 0.22045 25.838 0.25426 56.145 0.0515 46.17 0.13227 55.189 0.49806 55.63 0.39258 0.47343 1.6968 0.5265 12.94 0.5265 10.942 0 12.566-0.0625 13.003-0.50024z" fill="#b6c8d9"/>
    <path d="m93.602 273.44-4.3705-0.17977-1.5036-1.5055c-1.4578-1.4597-1.5073-1.572-1.627-3.6921-0.13744-2.4342 0.23646-3.4778 1.7435-4.8663 1.5681-1.4448 2.4477-1.5554 12.362-1.5554 5.1132 0 9.7503-0.0908 10.305-0.20173 2.0562-0.41155 1.9768 0.77919 1.9146-28.707-0.0431-20.433 0.0345-26.836 0.33289-27.477 0.214-0.45954 1.0526-1.3907 1.8637-2.0692l1.4746-1.2337 21.475-0.0902c23.734-0.0997 23.264-0.13552 24.977 1.9024 1.845 2.1943 1.7677 1.0214 1.9568 29.703 0.14535 22.05 0.24888 26.541 0.62565 27.138 0.45114 0.71575 0.45817 0.71626 9.6082 0.71626 7.4054 0 9.2749-0.0864 9.7743-0.45179 0.60415-0.44201 0.62091-1.3233 0.77653-40.827 0.11628-29.519 0.25768-40.589 0.52586-41.171 0.4882-1.0592 2.2863-2.7469 3.3568-3.1506 0.52862-0.19938 8.7523-0.40972 21.313-0.54512 23.094-0.24896 23.097-0.24872 25.022 1.9454 2.1198 2.4161 2.0362 0.49532 1.9077 43.809l-0.11593 39.098 0.68068 0.68239c0.66537 0.66702 0.88348 0.68169 9.7021 0.65288l9.0214-0.0293 0.71572-0.81981 0.71573-0.81979v-50.867c0-48.875-0.0228-50.888-0.58173-51.394-0.4986-0.45157-1.4645-0.52794-6.7596-0.53445-3.3978-4e-3 -6.7093-0.13113-7.3588-0.28211-0.64951-0.15099-1.7643-0.73691-2.4773-1.302-2.6555-2.1047-3.3215-5.3489-1.6373-7.9757 0.94103-1.4677 7.0971-8.1803 17.063-18.606 3.18-3.3266 9.7396-10.274 14.577-15.439 4.8372-5.165 9.2698-9.7121 9.8501-10.105 1.3151-0.88943 3.4961-1.2098 5.1682-0.75923 1.6689 0.44974 2.0905 0.86435 17.356 17.071 26.008 27.611 26.691 28.397 26.691 30.684 0 1.6358-1.1388 3.7034-2.7829 5.0528l-1.4506 1.1905-7.2347 0.15917c-6.5214 0.14347-7.3002 0.21861-7.8994 0.76198l-0.66474 0.60281 0.18873 51.127c0.17295 46.854 0.23244 51.172 0.71172 51.66 0.46182 0.47047 1.6956 0.5469 10.543 0.6531 8.6757 0.10416 10.191 0.19511 11.293 0.67784 1.8671 0.81816 2.9849 2.0492 3.5137 3.8695 0.4128 1.4211 0.41254 1.8006-3e-3 3.1978-0.65504 2.2074-2.3924 3.8572-4.4739 4.2485-1.6969 0.31898-230.46 0.36908-238.17 0.0521zm57.847-12.59c0.19919-0.27259 0.43162-1.0298 0.51651-1.6827 0.0849-0.65291 0.13849-10.87 0.11911-22.705-0.029-17.731-0.11206-21.61-0.4718-22.045-0.39288-0.47447-1.6919-0.52725-12.977-0.52725h-12.54l-1.5616 1.5628v22.237c0 17.734 0.0837 22.352 0.41317 22.803 0.22724 0.31102 0.87778 0.66071 1.4456 0.77713 0.56786 0.11638 6.3564 0.18097 12.863 0.14354 10.289-0.0593 11.878-0.13269 12.193-0.56378zm72.968 0.15436c0.62865-0.62913 0.6362-1.0611 0.6362-36.415 0-33.606-0.0338-35.819-0.55668-36.448-0.54803-0.66004-0.74924-0.67077-12.966-0.69126-6.825-0.0115-12.669 0.079-12.987 0.20109-0.3178 0.12204-0.71 0.56981-0.87155 0.99504-0.4625 1.2174-0.38606 70.533 0.0789 71.555 0.20494 0.45016 0.67017 0.88715 1.0338 0.97109 0.86575 0.19982 5.6807 0.31815 16.328 0.40117 8.2921 0.0647 8.6958 0.04 9.3044-0.56906zm72.845-0.31834c0.62659-0.62706 0.63741-1.1154 0.71572-32.391 0.0437-17.465 0.0795-42.498 0.0795-55.63 0-21.619 0.0498-23.966 0.52646-24.83 1.2554-2.2775 3.7924-3.6609 6.7136-3.6609 2.0122 0 2.7801-0.33678 2.7801-1.2193 0-0.25042-1.7552-2.2631-3.9005-4.4727-2.1452-2.2096-6.9043-7.2405-10.576-11.18-9.3434-10.025-8.8496-9.5464-9.6299-9.3423-0.37026 0.0969-1.4191 0.98509-2.3307 1.9738s-3.6893 3.9464-6.1726 6.5727c-11.272 11.921-15.106 16.106-15.106 16.49 0 0.83985 0.79731 1.1776 2.7802 1.1776 2.9211 0 5.4581 1.3834 6.7136 3.6609 0.48422 0.87839 0.52645 5.4153 0.52645 56.551 0 54.225 0.0149 55.613 0.60598 56.266 0.5965 0.65966 0.80169 0.67013 13.122 0.67013 12.092 0 12.537-0.0217 13.152-0.63668z" fill="#96b1c8"/>
    <path d="m90.186 273.09c-1.6178-0.38076-3.6606-2.6608-3.9377-4.3952-0.39442-2.4684 0.75913-5.011 2.8173-6.2097 0.43353-0.25247 4.0409-0.42122 11.324-0.52968 8.3861-0.12489 10.8-0.25286 11.211-0.59418 1.1459-0.95282 1.1956-2.362 0.96968-27.503-0.12153-13.523-0.11415-25.436 0.0164-26.473 0.21103-1.6763 0.40818-2.0646 1.7781-3.5017l1.5408-1.6164h44.464l1.2059 0.92048c2.2999 1.7555 2.3398 2.0059 2.5446 15.952 0.10029 6.8283 0.18096 18.87 0.17925 26.76-3e-3 13.998 0.0126 14.362 0.64551 15.042 0.63872 0.68612 0.7905 0.69672 9.9709 0.69672 9.0728 0 9.3385-0.0178 9.9282-0.67001 0.58743-0.64947 0.61085-1.9093 0.76503-41.145 0.11771-29.954 0.2553-40.641 0.5293-41.112 0.48206-0.82893 1.9637-2.1958 2.9698-2.7397 1.1078-0.59886 41.432-0.86327 43.575-0.28573 2.1393 0.57648 3.6509 2.2629 4.142 4.6209 0.31199 1.4982 0.3478 10.097 0.16732 40.17-0.24162 40.26-0.24555 40.121 1.155 40.871 0.84391 0.45198 18.236 0.39917 19.09-0.058 0.33586-0.17989 0.74695-0.68579 0.91353-1.1243 0.18717-0.49267 0.30288-20.182 0.30288-51.539v-50.742l-0.67836-0.63247c-0.62737-0.58491-1.2081-0.63969-7.7252-0.72866l-7.0468-0.0962-1.5438-1.1142c-1.9937-1.4389-2.7281-2.8224-2.7281-5.1395 0-1.6428 0.12184-1.9611 1.3422-3.5067 0.73819-0.93492 2.4285-2.8459 3.7562-4.2466s8.6193-9.1363 16.203-17.19c20.071-21.314 20.511-21.765 21.763-22.288 2.2953-0.95975 4.6898-0.51236 6.5185 1.2179 1.0482 0.99181 23.936 25.168 31.869 33.664 9.0476 9.6888 9.5289 10.327 9.5189 12.622-0.0102 2.3732-2.4645 5.2587-4.967 5.8397-0.67692 0.15717-4.0305 0.28919-7.4525 0.29336-4.8608 6e-3 -6.3567 0.1064-6.8392 0.45928-0.71248 0.5212-0.67574-3.8526-0.53794 64.031 0.0674 33.217 0.14811 39.268 0.53047 39.792 0.42603 0.5838 1.0278 0.62713 10.895 0.78429 11.495 0.18314 11.92 0.25187 13.552 2.1924 2.5917 3.0824 1.1323 8.1806-2.6527 9.2669-1.3401 0.38462-240.41 0.37128-242.05-0.0134zm61.466-12.115c0.51857-0.63531 0.55668-2.2329 0.55668-23.337 0-19.989-0.0583-22.738-0.49519-23.363l-0.49519-0.70751h-12.404c-13.365 0-13.97 0.0697-14.395 1.6585-0.10733 0.40096-0.1971 10.63-0.19949 22.731-4e-3 21.611 7e-3 22.017 0.63955 22.821 0.40326 0.51303 1.0274 0.85624 1.67 0.91834 0.56438 0.0546 6.3225 0.0679 12.796 0.0296 11.604-0.0685 11.778-0.0791 12.326-0.75154zm72.992 0.25263c0.53767-0.53777 0.57322-2.4667 0.65998-35.813 0.0504-19.385 9e-3 -35.706-0.092-36.269-0.3721-2.0748 0.15146-1.9998-13.97-1.9998-12.62 0-12.82 0.01-13.417 0.67008-0.58837 0.65061-0.60598 1.7141-0.60598 36.598 0 34.034 0.0299 35.957 0.56672 36.496 0.68965 0.69181 4.5673 0.88683 17.633 0.88683 7.8858 0 8.7072-0.0506 9.2249-0.56843zm72.491 0.16563c1.0752-0.71849 1.0814-1.0409 1.0832-56.479 0-38.602 0.10453-55.232 0.34857-56.128 0.70597-2.5919 3.3943-4.2976 6.7736-4.2976 2.1108 0 3.0553-0.45604 3.0553-1.4753 0-0.26113-1.6104-2.1566-3.5786-4.2121s-7.2288-7.6332-11.69-12.395c-6.6577-7.106-8.2625-8.6577-8.9537-8.6579-0.6846-1.6e-4 -2.0021 1.2355-7.0431 6.6053-3.4105 3.633-8.65 9.2121-11.643 12.398-3.0065 3.1998-5.4424 6.0566-5.4424 6.3827 0 1.0405 0.68042 1.3543 2.9371 1.3543 2.7962 0 4.941 1.0114 6.2068 2.9269l0.87623 1.3259 0.0453 34.88c0.10952 84.261 0.0359 76.664 0.74992 77.379 0.61503 0.61551 1.0569 0.63652 13.281 0.63181 6.9545-3e-3 12.802-0.11012 12.994-0.23876z" fill="#81a1be"/>
    <path d="m89.696 272.65c-3.5032-1.5276-4.3841-6.604-1.5743-9.0728 0.61311-0.53872 1.4342-1.0479 1.8246-1.1315 0.39044-0.0836 5.2905-0.20597 10.889-0.27196 5.5986-0.066 10.419-0.22564 10.711-0.35475 0.29264-0.12912 0.65051-0.47436 0.79525-0.76723s0.33474-12.897 0.42222-28.009l0.15905-27.477 1.6135-1.5402c1.5014-1.4332 1.7606-1.556 3.7325-1.7673 1.1654-0.1249 7.5966-0.14252 14.292-0.0391 6.6949 0.10337 15.623 0.19143 19.839 0.19569 7.4136 7e-3 7.7026 0.0314 8.7478 0.72447 0.59448 0.3942 1.3924 1.3612 1.7732 2.1488 0.63844 1.3206 0.70577 2.0637 0.86522 9.5497 0.0951 4.4647 0.17721 16.54 0.18247 26.835l0.01 18.717 1.5616 1.5628h9.2603c5.4321 0 9.5008-0.12883 9.8421-0.31162 0.32001-0.1714 0.74003-0.76577 0.93339-1.3209 0.24939-0.71594 0.35156-12.517 0.35156-40.605 0-32.914 0.0739-39.769 0.43797-40.62 0.65924-1.5419 2.1941-2.8165 3.7552-3.1185 0.75548-0.14614 10.535-0.26879 21.732-0.27258 19.147-6e-3 20.436 0.0282 21.656 0.58282 1.7274 0.78516 2.5637 1.9242 3.0181 4.1112 0.28172 1.3558 0.34636 11.641 0.25711 40.914l-0.11921 39.103 1.785 1.5382 9.2867-0.0102c9.9989-0.0108 10.065-0.0213 10.706-1.7078 0.22372-0.58887 0.33061-17.268 0.33061-51.589 0-49.444-0.0153-50.738-0.60746-51.471-0.59883-0.74086-0.71057-0.75378-7.873-0.91069l-7.2655-0.15911-1.3522-0.91793c-2.406-1.6333-3.4684-4.3899-2.5358-6.5796 0.64304-1.5097 1.474-2.426 21.346-23.541 19.425-20.639 19.612-20.832 21.003-21.681 1.1888-0.72546 3.9644-0.80668 5.2137-0.15257 0.81276 0.42553 3.8141 3.4196 9.9248 9.901 1.4871 1.5773 5.2822 5.5879 8.4334 8.9125 3.1513 3.3246 8.5192 9.0384 11.929 12.697 3.4095 3.659 7.2141 7.7417 8.4546 9.0727s2.6362 3.0259 3.1015 3.7666c1.6056 2.5556 0.81415 5.5964-1.9662 7.5536l-1.3754 0.96825-7.2797 0.15917c-7.9613 0.17408-8.1662 0.22513-8.3012 2.0692-0.0385 0.52526-0.0438 23.703-0.0118 51.506l0.0582 50.551 0.78078 0.78139 0.78081 0.78137 9.4779 0.014c5.2129 8e-3 10.102 0.13447 10.864 0.28189 1.8691 0.36135 2.917 1.1885 3.8388 3.0299 0.71451 1.4275 0.74435 1.6724 0.40246 3.3036-0.41074 1.9596-1.4992 3.3666-3.1521 4.0743-1.4926 0.6391-241.5 0.63381-242.97-5e-3zm135.11-11.265 0.72367-0.72619v-34.928c0-19.21-0.0899-35.633-0.19984-36.495-0.1234-0.96807-0.42039-1.729-0.77652-1.9896-0.45571-0.33346-3.1956-0.422-13.06-0.422-6.8659 0-12.831 0.13228-13.256 0.29396-0.42491 0.16167-0.86132 0.52541-0.9698 0.80831-0.14437 0.37648-0.3487 65.641-0.22505 71.88 0.0369 1.8628 0.50238 1.9689 9.4906 2.1646 4.4997 0.098 10.289 0.16961 12.865 0.15917 4.4401-0.0178 4.7217-0.0568 5.4077-0.74511zm-73.334 0.31688c0.98478-0.62665 1.0537-2.2231 1.0537-24.399 0-22.246-4e-3 -22.384-0.66737-23.228l-0.66736-0.84905-25.687 0.1798-0.72427 0.72499-0.72428 0.72499-0.0899 22.195c-0.0494 12.207-0.01 22.521 0.0876 22.92s0.46014 1.0072 0.8056 1.3529c0.60478 0.60522 1.1038 0.6284 13.432 0.62372 7.042-3e-3 12.974-0.11305 13.181-0.24525zm146.15-0.35839 0.75097-0.60853 0.15905-56.135c0.12447-43.935 0.24503-56.286 0.55467-56.827 1.0551-1.8444 3.5023-2.9693 6.4597-2.9693 2.3175 0 3.1649-0.43708 3.1649-1.6323 0-0.36887-1.4232-2.1228-3.4196-4.2144-1.8808-1.9704-7.2104-7.6208-11.844-12.556-6.9021-7.3526-8.5757-8.974-9.2629-8.974-0.68303 0-2.1909 1.4334-8.121 7.7197-16.12 17.088-16.34 17.333-16.34 18.185 0 1.1074 0.82372 1.4725 3.3226 1.4725 2.5788 0 4.5445 0.84446 5.8056 2.4941l0.89198 1.1668 0.15905 56.074c0.1548 54.576 0.17524 56.092 0.76503 56.744 0.59691 0.66001 0.79746 0.67004 13.404 0.67004 12.127 0 12.838-0.0319 13.55-0.60851z" fill="#6c92b3"/>
    <path d="m90.293 272.56c-0.37508-0.0738-1.2486-0.66339-1.9412-1.3102-2.1577-2.0152-2.1187-5.252 0.08929-7.3948l1.1365-1.103 11.106-0.15917c10.11-0.1449 11.157-0.21013 11.673-0.72749 0.5334-0.53415 0.57706-2.233 0.72655-28.273l0.15905-27.704 3.3062-3.156 43.897 0.172 1.1017 1.0688c0.67643 0.65619 1.2358 1.6015 1.449 2.4489 0.23685 0.94134 0.34727 9.6385 0.34727 27.353 0 29.058-0.0903 27.845 2.1225 28.502 0.82093 0.24346 4.142 0.32782 10.196 0.25893 8.8533-0.10075 8.9881-0.11224 9.7021-0.8272l0.72404-0.72502 0.15905-40.818c0.15225-39.072 0.18427-40.855 0.74864-41.688 0.32428-0.4784 1.0401-1.1485 1.5908-1.4891 0.96168-0.5948 1.857-0.62329 22.688-0.72187 21.487-0.10169 21.695-0.0966 22.565 0.55372 0.48315 0.36098 1.1736 1.0519 1.5343 1.5354 0.6524 0.87439 0.6567 1.0931 0.81491 41.524 0.12255 31.318 0.24875 40.801 0.54996 41.327 0.70102 1.2244 1.9815 1.3864 10.959 1.3864 9.2062 0 10.285-0.15939 11.129-1.6443 0.34728-0.61096 0.40881-9.8901 0.34578-52.144-0.0764-51.193-0.0793-51.403-0.72298-52.048-0.60184-0.60304-1.1454-0.65855-7.8996-0.80677-7.2156-0.15834-7.26-0.16361-8.5415-1.0132-1.4266-0.9458-2.4555-2.4227-2.7899-4.0051-0.47951-2.2686-1.3546-1.2473 25.703-29.999 15.39-16.354 16.478-17.428 17.925-17.699 1.6677-0.3131 3.4975 0.0458 4.4733 0.87735 0.48268 0.41132 3.661 3.6841 7.0629 7.2729s7.4956 7.8859 9.0971 9.5492 4.1735 4.3851 5.7156 6.0484 6.3234 6.7961 10.625 11.406c4.3017 4.6101 8.1434 8.9771 8.5371 9.7044 0.91772 1.6956 0.90267 2.7351-0.0674 4.6509-0.62771 1.2397-1.1136 1.7114-2.4482 2.377-1.6382 0.81696-1.7747 0.83036-8.4562 0.83036h-6.7912l-0.78533 0.78593-0.78536 0.78592 0.0841 51.501c0.0881 53.927 0.049 52.474 1.4272 53.127 0.31104 0.14746 5.4788 0.3434 11.484 0.4354l10.918 0.16728 1.249 1.3406c1.1698 1.2556 1.249 1.4635 1.249 3.2788 0 2.2566-0.4803 3.3495-1.9571 4.4533l-1.0648 0.79584-120.72 0.0369c-66.396 0.0204-121.03-0.0236-121.4-0.0973zm60.895-10.171c1.6761-0.4493 1.6573-0.16716 1.6573-24.886 0-22.765-4e-3 -22.898-0.66712-23.742l-0.66711-0.84874-13.318 0.0896c-12.29 0.0826-13.362 0.13341-13.886 0.6579-0.53294 0.53349-0.57301 1.9898-0.65332 23.745-0.0846 22.908-0.078 23.186 0.56302 24.002 0.35671 0.45382 0.96779 0.88686 1.358 0.96227 1.1273 0.2179 24.806 0.23627 25.613 0.0197zm73.769-0.56432 0.89251-0.76827v-36.603c0-35.548-0.0175-36.622-0.60598-37.273-0.59746-0.66066-0.79107-0.67008-13.779-0.67008-7.9842 0-13.402 0.12275-13.755 0.31162-0.32001 0.17139-0.74004 0.76578-0.93339 1.3209-0.50488 1.4494-0.49597 71.076 9e-3 72.526 0.64567 1.8536 0.98914 1.8979 14.811 1.9118l12.468 0.0124 0.89252-0.76831zm72.017 0.44724c0.73275-0.20371 1.2748-0.6086 1.5119-1.1294 0.27608-0.60637 0.37237-14.776 0.38051-55.99 7e-3 -33.582 0.12836-55.588 0.31095-56.225 0.70198-2.4495 3.3176-3.8007 7.3573-3.8007 1.8494 0 2.2076-0.0932 2.5066-0.65227 0.47633-0.89069-0.11397-2.61-1.2225-3.5605-0.7671-0.6578-9.7369-10.113-18.931-19.954-1.8946-2.0281-3.6535-3.805-3.9087-3.9487-0.94231-0.5306-2.1207 0.36321-6.2202 4.718-2.3075 2.4512-7.6768 8.1411-11.932 12.644-6.454 6.8305-7.7362 8.3409-7.7362 9.1133 0 1.4118 0.66925 1.7418 3.5947 1.7724 3.06 0.032 4.5793 0.63983 5.8867 2.3552l0.85682 1.1241 0.15905 56.052c0.0875 30.829 0.27872 56.295 0.42498 56.592 0.14627 0.29685 0.64728 0.67946 1.1134 0.85032 1.1433 0.41906 24.354 0.45477 25.847 0.0398z" fill="#5581a8"/>
   </g>
   <path d="m846.42 546.03c-1.2952-0.52396-3.1084-2.8164-3.447-4.358-0.64009-2.9144 0.11001-3.857 15.533-19.52 8.1187-8.2452 15.244-15.625 15.835-16.399l1.0738-1.4078 0.0311-18.222c0.0219-12.816-0.11109-18.31-0.44821-18.518-0.53296-0.3294-94.756-0.87533-151.12-0.87562l-36.324-1.8e-4 -3.8061-3.8061 6.7e-4 -11.711c6e-4 -10.276 0.094-11.897 0.76237-13.235 1.3016-2.6056 2.828-3.0471 10.564-3.0555 3.7138-4e-3 7.0465-0.19301 7.4059-0.41993 0.55688-0.35162 0.68566-2.9775 0.87128-17.766 0.19796-15.771 0.28948-17.462 1.0039-18.552 1.1671-1.7798 3.2845-2.8961 5.4965-2.898 1.7114-1e-3 2.1329 0.21416 3.7807 1.9338l1.8545 1.9355 0.14009 17.467c0.11977 14.933 0.2349 17.531 0.79356 17.907 0.43784 0.29476 55.002 0.39722 165.37 0.31052 138.83-0.10906 164.83-0.22335 165.43-0.72728 0.6667-0.55335 0.7199-8.944 0.7137-112.61 0-69.837-0.1622-112.26-0.4197-112.67-0.366-0.57898-19.254-0.65346-165.72-0.65346-90.918 0-165.47 0.16331-165.67 0.36292-0.19967 0.19961-0.42037 36.467-0.49044 80.593l-0.12741 80.23-1.047 1.5886c-1.2142 1.8423-4.2989 3.2598-6.1065 2.8061-0.6211-0.15589-1.8479-0.94196-2.7261-1.7468-1.5003-1.375-1.6157-1.6703-1.9081-4.8873-0.17119-1.8832-0.32736-37.633-0.34705-79.443-0.0197-41.811-0.15643-76.749-0.30389-77.641-0.18412-1.1138-0.55787-1.7248-1.1932-1.9506-0.50881-0.18087-3.596-0.27973-6.8605-0.21971-6.5521 0.12047-7.7199-0.14033-9.8565-2.2012-1.1714-1.1299-1.4158-1.6931-1.4158-3.2622 0-2.3432 0.87102-4.0974 2.671-5.3791l1.3772-0.98066 53.516-0.20199c42.464-0.16027 53.61-0.31596 53.974-0.75387 0.25191-0.30354 0.6175-2.442 0.81241-4.7521 0.31589-3.744 0.4851-4.3366 1.5577-5.4562 1.698-1.7723 3.3328-2.3468 5.6774-1.9952 2.8253 0.42368 4.0673 1.6829 4.9357 5.0043 0.40096 1.5335 0.95081 2.8622 1.2219 2.9525 0.54985 0.18328 63.986-31.383 65.155-32.422 0.40788-0.36226 0.96333-1.7267 1.2343-3.0322 0.82752-3.9862 3.9081-6.5368 7.147-5.9177 1.8144 0.34683 3.9968 2.686 4.5804 4.9093 0.28217 1.075 0.64701 2.4447 0.81075 3.0437 0.25488 0.93247 4.8398 3.3627 31.882 16.899 17.371 8.6953 32.306 15.923 33.188 16.062 1.5828 0.24903 1.6077 0.23002 1.8757-1.4335 0.842-5.2267 4.5182-7.5704 8.7357-5.5691 2.3533 1.1167 2.9673 2.4818 3.173 7.0537 0.15723 3.496 0.30542 4.1283 1.0975 4.6831 0.79291 0.55538 7.6943 0.64555 51.462 0.67239 27.8 0.017 52.088 0.17114 53.972 0.34242 3.1298 0.2845 3.5346 0.43307 4.6831 1.7184 1.0954 1.226 1.2572 1.7499 1.2572 4.0714 0 2.4686-0.1095 2.7677-1.4892 4.0689-1.8027 1.7001-3.1177 1.9545-10.136 1.9609-2.9195 3e-3 -5.8111 0.19598-6.4257 0.42965l-1.1175 0.42486 0.01 112.3c0 62.453 0.174 112.56 0.3837 112.89 0.2857 0.45099 2.2368 0.65089 8.0592 0.82571l7.6822 0.23067 1.4864 1.6453c1.9506 2.1591 2.0799 3.2227 1.9029 15.654-0.1567 11.002-0.3276 11.921-2.4893 13.39-1.0459 0.7107-3.5056 0.78756-32.715 1.0223l-31.584 0.2538-1.6231-1.0154c-2.2043-1.379-3.0238-2.7762-3.0238-5.1556 0-2.5772 0.879-3.8702 3.5511-5.2243l2.1559-1.0925 26.262-7e-3c15.789-4e-3 26.522-0.1714 26.915-0.41976 0.9914-0.62672 0.8989-5.3959-0.1245-6.4193-0.7444-0.74437-8.746-0.77793-185.46-0.77793-166.75 0-184.75 0.066-185.36 0.67976-0.89901 0.89903-1.3488 4.7823-0.6954 6.0033l0.50343 0.94067h286.32l1.494 1.1396c3.8483 2.9352 4.1392 6.6051 0.7731 9.7514l-1.1652 1.0891-44.074 0.267c-54.836 0.33221-50.173 0.23104-51.049 1.1076-0.65277 0.65277-0.70732 2.4418-0.57567 18.88l0.14543 18.159 15.901 16.222c8.7455 8.9223 16.064 16.648 16.264 17.169s0.2757 1.8956 0.16914 3.0551c-0.22988 2.501-1.5714 4.0927-3.89 4.6157-3.6352 0.81986-3.8563 0.66434-16.231-11.413-8.0487-7.8552-11.607-11.058-11.856-10.673-0.19589 0.30282-0.42032 4.458-0.49873 9.2338l-0.14257 8.6832-1.2817 1.8629c-0.91538 1.3304-1.7462 1.9919-2.9069 2.3143-3.3184 0.92159-4.7973 0.42104-6.7199-2.2744-0.9506-1.3328-1.0159-1.8892-1.2221-10.412-0.1198-4.9522-0.35873-9.1446-0.53095-9.3164-0.6031-0.60151-2.821 1.3537-13.459 11.864l-10.723 10.594-1.9109-0.0276c-1.051-0.0152-2.319-0.19269-2.8177-0.39445z" fill="#fff" stroke-width=".43564"/>
   <path d="m846.02 547.35c-2.1059-0.95076-3.4346-2.3238-4.3356-4.4803-0.97973-2.3449-0.84363-3.4138 0.74038-5.8145 0.77804-1.1792 8.2275-9.0258 16.554-17.437l15.14-15.293v-35.707l-17.715-0.28867c-9.7431-0.15877-51.853-0.28867-93.578-0.28867h-75.863l-1.4798-1.0918c-3.1311-2.31-3.2472-2.7809-3.4081-13.814-0.17127-11.746 0.22551-15.157 1.9773-17.001 2.2658-2.3842 3.2828-2.6651 10.583-2.9237l6.7524-0.23914 0.43564-33.544 1.1978-2.0375c0.9257-1.5747 1.7359-2.2921 3.567-3.1584 1.3031-0.61647 2.7073-1.1208 3.1205-1.1208 0.94377 0 4.4556 2.2321 5.8544 3.7211l1.0559 1.124 0.33476 35.234h329.16l0.2785-3.594c0.3918-5.0559 0.089-220.13-0.3092-220-0.1797 0.0599-74.309 0.10891-164.73 0.10891h-164.4l-0.17273 80.484c-0.16716 77.894-0.19909 80.524-0.99184 81.714-0.95969 1.4407-4.8132 3.7702-6.2463 3.7761-1.8558 8e-3 -5.2125-2.0756-6.6046-4.099l-1.3313-1.935-7.6e-4 -66.574c-4.2e-4 -36.616-0.13008-72.603-0.28812-79.97l-0.28736-13.396-5.7019-2e-3c-3.1361-1e-3 -6.4509-0.21041-7.3664-0.46462-2.4517-0.6808-4.7722-2.9863-5.5948-5.5588-0.65696-2.0544-0.64869-2.2776 0.15072-4.064 1.0421-2.3287 2.2882-3.7004 4.2769-4.7078 1.4242-0.72147 5.0143-0.79317 54.455-1.0876 34.245-0.20394 53.024-0.46802 53.197-0.74808 0.14714-0.23808 0.37584-2.0131 0.50822-3.9446 0.2778-4.053 0.83215-5.0528 3.9888-7.1941 2.5822-1.7517 3.7576-1.7673 6.6844-0.0888 1.8595 1.0664 2.5004 1.7535 3.3482 3.5899 0.57669 1.2491 1.1432 2.5887 1.259 2.9769 0.16873 0.56592 6.326-2.3556 31.067-14.741 16.971-8.4956 31.298-15.728 31.837-16.072 0.68003-0.43405 0.98312-1.0561 0.98976-2.0314 0.0131-1.9206 1.3721-4.7616 2.8242-5.9038 1.6381-1.2886 4.1424-1.8952 6.3964-1.5496 1.4395 0.22077 2.3058 0.72812 3.7065 2.1708 1.6132 1.6615 1.8633 2.1954 2.1292 4.5454l0.30126 2.6627 3.752 1.7483c2.0636 0.96154 16.453 8.0987 31.977 15.86 17.975 8.9873 28.286 13.917 28.392 13.576 0.0923-0.29487 0.3899-1.259 0.66135-2.1426 0.70522-2.2954 1.964-3.7116 4.3932-4.9426 2.6975-1.367 3.185-1.3472 5.9554 0.24165 2.9685 1.7025 4.0475 3.7507 4.3574 8.2722l0.22913 3.3431 14.516 0.29498c7.9839 0.16225 31.63 0.17754 52.546 0.034l38.03-0.26098 2.6138 1.4732c2.1565 1.2155 2.8235 1.8831 3.8119 3.8159 1.5036 2.9401 1.4935 3.6172-0.094 6.386-2.0046 3.495-3.7919 4.1655-11.788 4.4221l-6.4205 0.20608-0.2958 23.576c-0.1627 12.967-0.2347 63.176-0.1601 111.58l0.1357 87.999 6.9702 0.23764c8.7826 0.29942 9.9472 0.80785 11.947 5.2157 0.8126 1.7916 0.8861 2.8323 0.8911 12.626v10.673l-1.2712 2.2163c-2.4187 4.217 0.7885 3.8662-36.594 4.0023l-32.863 0.11963-3.7578-3.688v-3.361c0-2.9769 0.1284-3.5136 1.1235-4.6961 0.6179-0.73432 1.7451-1.7786 2.5049-2.3205l1.3815-0.98539 54.019-0.43564v-3.0495l-21.346-0.31848c-11.74-0.17516-94.762-0.27317-184.49-0.21782l-163.15 0.10066-0.26792 3.703h285.22l1.9368 1.2484c1.0652 0.6866 2.4988 1.8485 3.1857 2.582 1.1806 1.2606 1.2393 1.5047 1.0723 4.46-0.17359 3.072-0.21198 3.1598-2.2038 5.0417l-2.0271 1.9153-40.649 1e-3c-22.357 8.7e-4 -43.736 0.12951-47.51 0.28602l-6.8613 0.28457 2e-3 13.763c1e-3 7.5698 0.12645 15.724 0.27824 18.12l0.27599 4.3564 15.785 15.901c8.6819 8.7455 16.104 16.528 16.494 17.295 0.88387 1.739 0.89123 2.771 0.0344 4.8217-0.89945 2.1527-2.2267 3.5318-4.3356 4.5052-2.1645 0.99898-3.7744 1.0313-5.576 0.11188-0.76672-0.39118-6.197-5.4392-12.067-11.218l-10.673-10.506-0.21783 8.7128c-0.13542 5.4168-0.40868 9.0424-0.72237 9.5841-1.2673 2.1885-4.4703 4.1429-6.7708 4.1314-1.8904-9e-3 -4.5118-1.546-6.1881-3.6273l-1.3483-1.6741-0.15589-8.2367c-0.0857-4.5302-0.25792-8.2367-0.38261-8.2367-0.1247 0-4.5719 4.2675-9.8827 9.4834-12.74 12.512-13.9 13.254-17.895 11.45zm15.398-11.023c5.6362-5.5707 10.533-10.387 10.882-10.703 1.2702-1.151 2.7246-1.9321 3.0304-1.6275 0.17223 0.17159 0.41115 4.2659 0.53095 9.0985 0.20482 8.262 0.27885 8.8847 1.2401 10.431 1.3382 2.1524 3.0895 3.0528 5.1978 2.6723 2.2496-0.40596 2.9286-0.82231 4.3266-2.6528l1.2157-1.5918 0.21781-8.8222c0.1198-4.8522 0.35453-8.9585 0.52161-9.1252 0.4712-0.46995 2.0512 0.91678 12.081 10.603 11.796 11.392 11.821 11.412 14.359 11.41 2.8452-2e-3 4.6669-1.219 5.29-3.533 0.97228-3.6108 0.78915-3.8816-10.161-15.029-5.5601-5.6604-12.797-13.062-16.082-16.448l-5.9728-6.1562-0.0172-18.105c-0.0143-14.967 0.0899-18.251 0.60103-18.95 0.60418-0.82638 1.6431-0.84816 45.633-0.95663 24.758-0.0611 46.034-0.22093 47.28-0.35527 2.6111-0.28164 4.0745-1.268 5.1059-3.4416 1.0974-2.3127 0.54445-4.3365-1.8102-6.625l-1.9374-1.8829h-143.23c-126.85 0-143.29-0.0748-143.77-0.65412-0.76816-0.92557-0.34981-5.2812 0.59831-6.2293 0.69424-0.69425 12.217-0.74025 185.42-0.74025 173.2 0 184.73 0.046 185.42 0.74025 0.4437 0.44366 0.818 1.6776 0.9343 3.0798 0.3405 4.1064 2.5414 3.8036-27.645 3.8036h-26.375l-2.1625 1.177c-2.4131 1.3134-3.4009 2.8062-3.4009 5.1398 0 2.1081 0.9764 3.8632 2.7636 4.9678 1.4611 0.90301 1.7925 0.91309 29.307 0.89218 15.306-0.0116 29.754-0.17628 32.106-0.36589 5.9089-0.4763 6.3593-0.93667 6.9335-7.0869 0.6142-6.5776 0.2249-19.398-0.6394-21.061-1.5143-2.9137-1.8588-3.0247-10.211-3.2919-5.9556-0.19052-7.6977-0.38004-8.0085-0.87128-0.2365-0.37379-0.3999-46.053-0.4039-112.9-0.01-108.37 0.021-112.29 0.7909-112.7 0.4387-0.23477 3.0362-0.46324 5.7722-0.50772 7.9764-0.12968 9.4414-0.43045 11.144-2.2879 1.2049-1.3148 1.4548-1.929 1.4548-3.5759 0-1.0936-0.3071-2.5822-0.6824-3.308-1.4645-2.832 1.5659-2.6751-57.082-2.9563-44.165-0.21176-53.313-0.35649-53.91-0.85293-0.49035-0.40717-0.72831-1.3104-0.746-2.8316-0.0666-5.7241-1.2171-8.1049-4.3738-9.0506-3.7598-1.1265-6.3964 1.0641-7.5495 6.2723-0.37902 1.7118-1.2451 1.5648-7.3529-1.2485-9.1741-4.2256-56.299-27.998-58.128-29.323-1.3167-0.9538-1.8211-1.6704-2.0555-2.92-0.96767-5.1581-5.0858-7.6829-8.8187-5.4068-1.5757 0.96078-2.4683 2.4579-3.2017 5.3705-0.27689 1.0996-0.82627 2.2837-1.2208 2.6312-0.78638 0.69255-30.941 15.936-51.812 26.19-7.7301 3.7982-13.346 6.318-13.561 6.0847-0.202-0.21896-0.60141-1.1823-0.88759-2.1407-1.014-3.3959-1.4651-4.1874-2.7713-4.8628-1.9558-1.0114-5.1868-0.88382-6.8053 0.26866-1.8706 1.332-2.1518 2.039-2.6232 6.595-0.22851 2.2086-0.62989 4.2303-0.89196 4.4926-0.33592 0.33617-16.247 0.58489-53.93 0.84299-53.214 0.36449-53.459 0.37022-54.814 1.2776-1.8036 1.2081-2.3427 2.1524-2.6342 4.6138-0.20984 1.7718-0.0885 2.2361 0.88692 3.3954 1.6511 1.9622 2.8445 2.2532 10.078 2.4571 3.594 0.10135 6.8723 0.32854 7.2851 0.50488 0.41279 0.17634 0.84575 0.93881 0.96215 1.6944 0.11639 0.75557 0.2936 36.759 0.39379 80.007 0.2016 87.022-0.0183 80.929 2.9861 82.76 2.6776 1.6325 5.8335 0.89954 7.9225-1.8398l1.08-1.4163 0.1405-80.23c0.0773-44.127 0.30386-80.394 0.50352-80.593 0.47474-0.47464 330.76-0.47454 331.23 1e-4 0.1997 0.19967 0.3631 50.915 0.3631 112.7 0 91.588-0.1046 112.44-0.5663 112.9-0.4622 0.46226-30.841 0.58795-165.33 0.684-107.39 0.0767-164.99-0.0314-165.41-0.31049-0.55889-0.3662-0.67263-2.9297-0.7859-17.712l-0.13244-17.284-1.1369-1.4905c-2.0967-2.7489-4.7423-3.428-7.5357-1.9344-3.0308 1.6206-3.0487 1.7216-3.2934 18.641-0.12077 8.3492-0.32387 16.209-0.45135 17.467-0.28004 2.7628 0.13972 2.6246-8.6642 2.8543-7.1837 0.18745-8.3338 0.50171-9.6208 2.6288-0.75669 1.2506-0.84829 2.4849-0.98572 13.284l-0.15151 11.905 4.0209 3.8527 59.13 4.4e-4c63.571 4.3e-4 122.62 0.32903 126.33 0.7027l2.2871 0.23076v37.004l-2.0693 2.2618c-1.1381 1.244-8.0764 8.3835-15.418 15.866-14.355 14.629-15.513 16.117-14.735 18.935 0.87264 3.1604 2.8465 4.5866 6.4812 4.6826 1.3721 0.0363 2.2727-0.73807 11.734-10.089z" fill="#fff" stroke-width=".43564"/>
  </g>
 </g>
</svg>
