<?xml version="1.0" encoding="UTF-8"?>
<!-- Created with Inkscape (http://www.inkscape.org/) -->
<svg width="106.93mm" height="106.1mm" version="1.1" viewBox="0 0 106.93 106.1" xmlns="http://www.w3.org/2000/svg" xmlns:cc="http://creativecommons.org/ns#" xmlns:dc="http://purl.org/dc/elements/1.1/" xmlns:rdf="http://www.w3.org/1999/02/22-rdf-syntax-ns#">
 <metadata>
  <rdf:RDF>
   <cc:Work rdf:about="">
    <dc:format>image/svg+xml</dc:format>
    <dc:type rdf:resource="http://purl.org/dc/dcmitype/StillImage"/>
    <dc:title/>
   </cc:Work>
  </rdf:RDF>
 </metadata>
 <g transform="translate(.1284 3.2845)">
  <g transform="matrix(.26458 0 0 .26458 15.983 74.192)">
   <path d="m139.04 106.16c-1.6704-0.59497-3.9095-2.8317-4.369-4.3643-0.25472-0.84967-0.36835-6.4972-0.36835-18.308 0-10.314-0.12354-17.31-0.3119-17.662-0.17154-0.32033-0.79175-0.77309-1.3782-1.0061-3.6955-1.4684-8.0697-5.9334-9.979-10.186-1.3722-3.0566-2.0881-7.3248-1.6328-9.7348 0.20207-1.0695 0.47467-2.6738 0.60577-3.565 0.49823-3.387 4.4549-9.0719 8.0204-11.523 0.77417-0.53232 2.6172-1.4893 4.0956-2.1267l2.688-1.1588 5.0265-0.0146c4.8973-0.0143 5.0898 0.0113 7.488 0.9938 5.9036 2.4185 9.7135 6.3452 12.003 12.371 0.9698 2.5524 1.0482 3.0524 1.0672 6.8059 0.0177 3.5074-0.0707 4.2252-0.65845 5.3475-0.37339 0.713-0.86586 1.8734-1.0944 2.5787-0.45593 1.4073-3.2771 5.3722-4.7437 6.6668-1.7149 1.5138-3.5258 2.8138-4.8851 3.5068-0.74233 0.37847-1.4418 0.83703-1.5543 1.019-0.11254 0.18197-0.19132 8.0657-0.17508 17.519 0.028 16.303-3e-3 17.261-0.59542 18.6-1.674 3.7821-5.5484 5.5583-9.249 4.2403zm4.1157-53.846c1.9257-0.97299 3.2132-2.1482 3.8225-3.4891 0.78305-1.7233 0.77723-3.1592-0.0191-4.7192-0.73269-1.4353-1.6964-2.2708-3.7851-3.2812-1.2689-0.6139-1.6351-0.66161-2.6791-0.34899-2.7449 0.82187-5.2194 3.6869-5.2194 6.0432 0 1.4038 0.99543 3.3426 2.1961 4.2775 2.6867 2.0918 3.9045 2.4171 5.6841 1.5179zm-47.074-145.08c-3.9622-0.90492-6.5982-1.9909-9.4502-3.8931-1.8475-1.2322-5.9336-5.1813-7.1196-6.8807-1.5155-2.1716-3.5238-6.1647-3.7691-7.4941-0.37182-2.0148-1.0774-3.7716-1.8507-4.6078-0.58869-0.63662-6.7961-5.3567-13.366-10.164-7.6904-5.6266-9.8909-7.4287-9.8909-8.1002 0-0.35963-0.4637-1.239-1.0304-1.9541-0.77514-0.97808-1.0642-1.7123-1.1669-2.9635-0.12036-1.4669-8e-3 -1.8545 0.94937-3.2837 1.3117-1.9575 3.3018-3.0803 5.4514-3.0757 1.7263 4e-3 4.358 1.1446 5.5008 2.3846 0.46147 0.50075 1.134 0.85312 1.6284 0.85312 0.98989 0 4.7956 2.6071 10.29 7.049 1.1575 0.93581 2.3713 1.7015 2.6972 1.7015 0.37929 0 1.0893-0.78765 1.9719-2.1876 3.3666-5.3398 7.032-8.2723 12.403-9.9235l3.3008-1.0146h32.105l2.7565 0.92608c5.4606 1.8346 9.8228 5.3348 12.175 9.769 1.3043 2.4592 1.7232 3.0789 2.0811 3.0789 0.12751 0 0.80281-1.1226 1.5007-2.4948 1.5078-2.9646 4.8335-6.4559 7.8594-8.2508 1.0976-0.65106 3.5142-1.644 5.3702-2.2066l3.3746-1.0229 16.006 0.10055c15.517 0.0975 16.055 0.12174 17.627 0.79412 0.8918 0.38147 2.2781 0.92882 3.0808 1.2163 3.1207 1.1179 7.2123 4.8742 9.8467 9.0396 1.3226 2.0914 1.8795 2.4554 2.7646 1.8075 0.61849-0.45267 7.5777-5.6701 12.178-9.1304 4.9834-3.748 7.5007-4.3332 10.721-2.4921 1.4955 0.85513 1.9683 1.3571 2.7664 2.937 0.59699 1.182 0.96253 2.4063 0.96253 3.2241 0 1.4025-0.92108 3.5511-2.0634 4.8132-0.6503 0.71852-19.079 14.63-22.258 16.803-2.3086 1.5776-2.9289 2.4413-3.5961 5.0075-7.6641 24.999-47.944 26.998-61.891 8.8602-1.018-1.361-2.9679-5.2504-3.6964-7.3731-0.10706-0.31193-0.31176-0.56716-0.45488-0.56716-0.26879 0-2.6794 4.4811-2.679 4.98 2.8e-4 0.35859-1.9811 3.1195-3.7908 5.2824-2.6948 3.2206-8.9229 7.1375-12.496 7.8592-0.7625 0.15399-2.262 0.50793-3.3321 0.78653-1.4687 0.38236-4.0924 0.53287-10.702 0.61393-8.6342 0.10589-8.8116 0.0947-12.764-0.80798zm23.474-14.596c0.89677-0.2945 2.429-1.2121 3.405-2.0392 3.7244-3.156 4.8553-6.1223 4.8553-12.735 0-6.1982-0.9077-8.0696-4.491-9.259-1.3933-0.46251-3.3515-0.51685-15.657-0.4345-13.666 0.0914-14.101 0.11379-15.362 0.78884-2.7241 1.459-3.408 3.1934-3.4768 8.8185-0.0965 7.8842 1.8076 11.546 7.5304 14.482 1.9699 1.0106 2.869 1.0834 12.323 0.99785 7.5543-0.0684 9.5401-0.18144 10.873-0.61909zm65.445 0.25724c3.5985-0.9367 6.4744-3.3397 8.1997-6.8512 0.92598-1.8846 0.93321-1.9459 0.93321-7.8951 0-6.6499-0.15543-7.257-2.2197-8.6704-1.8634-1.2758-3.5904-1.4018-17.9-1.3058l-13.625 0.0914-1.5937 0.81997c-2.5087 1.2908-3.1188 2.8258-3.2598 8.2012-0.0929 3.5425 1e-3 4.6788 0.55479 6.696 1.2335 4.4951 4.1686 7.5007 8.6952 8.9041 2.1689 0.67244 17.641 0.67992 20.215 0.01z" fill="#fff"/>
   <path d="m138.85 105.3c-1.0505-0.41743-2.5102-1.8094-3.1875-3.0398-0.47785-0.86804-0.53808-2.8485-0.56183-18.473-0.0146-9.6255-0.13107-17.815-0.25877-18.2-0.13297-0.40028-0.77484-0.91591-1.5022-1.2068-1.4955-0.59802-4.5423-2.8704-6.2063-4.6287-1.7992-1.9012-3.5251-4.3098-3.5251-4.9195 0-0.30092-0.27224-1.0554-0.60497-1.6767-1.929-3.6017-1.749-10.01 0.40961-14.579 2.5703-5.4408 6.3823-8.788 12.156-10.674 2.5629-0.837 3.5344-0.99146 6.1615-0.97947 1.95 9e-3 3.6051 0.19676 4.4161 0.50124 0.71344 0.26783 1.9159 0.68426 2.6722 0.92535 4.7288 1.5076 9.936 6.9048 11.274 11.685 0.29927 1.0695 0.75978 2.6738 1.0234 3.565 0.57167 1.9331 0.37145 5.8475-0.37267 7.2856-0.26934 0.52052-0.64267 1.6464-0.82964 2.502-0.72331 3.3101-5.794 8.8794-9.8991 10.873-0.78779 0.3825-1.5225 0.97947-1.6328 1.3266-0.11024 0.3471-0.19681 8.2293-0.19239 17.516 9e-3 18.251 0.0436 17.85-1.7658 20.221-1.3226 1.733-2.584 2.3399-4.8168 2.3178-1.0702-0.0107-2.3106-0.16432-2.7565-0.34147zm5.3508-52.705c3.4038-1.6762 5.0942-5.3387 3.8066-8.2476-1.2437-2.8098-3.8942-4.6113-6.7421-4.5825-1.9105 0.0195-2.6524 0.36386-4.5522 2.1139-1.1341 1.0447-1.4637 1.6171-1.7641 3.0633-0.54303 2.6142-8e-3 4.5076 1.7657 6.2472 2.2143 2.1719 4.9046 2.677 7.4861 1.4057zm-47.671-146.11c-1.4269-0.23794-3.251-0.7257-4.0536-1.0839s-1.9701-0.87801-2.5943-1.1551c-6.1621-2.7351-12.368-10.464-13.741-17.115-0.25022-1.2116-0.72669-2.5067-1.0588-2.8779-0.5047-0.56406-3.1169-2.6168-7.539-5.9243-3.8804-2.9024-7.2189-5.3415-8.3051-6.0678-2.3841-1.5941-7.7829-5.8397-7.9034-6.2152-0.0654-0.20384-0.63255-1.13-1.2603-2.0581-1.3615-2.0128-1.4784-3.5007-0.43551-5.5436 0.74384-1.4572 2.0166-2.4287 3.9557-3.0198 1.702-0.51875 4.3126 0.31415 6.2065 1.9802 0.81444 0.71646 1.7583 1.3027 2.0974 1.3027 0.75707 0 2.9219 1.5188 11.226 7.8763 0.86087 0.65904 1.8319 1.1982 2.1577 1.1982 0.38019 0 1.1869-0.9001 2.2511-2.5117 2.5418-3.8492 3.4332-4.9107 5.2879-6.297 2.9894-2.2345 4.8226-3.0834 8.2396-3.8155 3.165-0.67816 3.8512-0.69962 18.485-0.57822 14.245 0.11819 15.35 0.16886 17.63 0.80816 3.4247 0.9604 5.8073 2.3668 8.5971 5.0747 2.0676 2.0068 2.65 2.8378 4.0674 5.8032 0.90986 1.9036 1.7711 3.461 1.9139 3.461 0.42975 0 0.92179-0.75549 1.1621-1.7843 0.41852-1.7917 2.5173-5.1664 4.5036-7.2414 2.6455-2.7637 5.6374-4.4663 9.5495-5.4344 3.0603-0.75734 3.4086-0.77221 18.084-0.77221 14.918 0 14.973 3e-3 18.088 0.81129 5.5607 1.4439 9.7121 4.7435 12.937 10.283 0.96185 1.652 1.9124 2.3616 2.7389 2.0446 0.28521-0.10938 1.6966-1.1399 3.1365-2.2901 6.3279-5.0548 12.923-9.625 14.806-10.261 1.8252-0.61599 1.9789-0.62035 3.545-0.10051 2.263 0.7512 3.4162 1.8211 4.0641 3.7708 0.63205 1.9017 0.49964 3.6082-0.41784 5.3858-0.59187 1.1467-1.732 2.093-9.5492 7.9254-1.1257 0.83989-2.9223 2.1802-3.9924 2.9786-1.0702 0.79831-2.9747 2.2413-4.2322 3.2067-1.2576 0.96539-3.2028 2.3803-4.3226 3.1442-3.465 2.3637-4.0965 3.1273-4.557 5.5101-0.22603 1.1694-1.144 3.6206-2.0633 5.5096-1.4064 2.8897-2.0907 3.852-4.5377 6.3806-2.7286 2.8196-6.062 5.2231-8.014 5.7782-0.4459 0.12681-1.2592 0.50162-1.8075 0.8329-1.7894 1.0813-6.8818 1.5924-15.866 1.5924-9.4376 0-13.794-0.4748-16.382-1.7853-0.87695-0.44411-1.7742-0.80747-1.9938-0.80747-0.88649 0-5.1329-3.2096-7.6564-5.787-2.2386-2.2864-2.9452-3.283-4.2628-6.012-0.86867-1.7992-1.685-3.7817-1.814-4.4056-0.28323-1.3698-0.72652-2.2686-1.1188-2.2686-0.15928 0-0.58027 0.76566-0.93556 1.7015-2.1448 5.6493-3.9528 8.5974-7.2367 11.8-2.1986 2.1441-6.0988 4.972-6.8571 4.972-0.17809 0-1.0675 0.34923-1.9765 0.77607-3.0126 1.4146-6.8314 1.8208-16.708 1.7772-5.7618-0.0255-9.8646-0.19337-11.536-0.47212zm21.911-12.76c2.5797-0.71444 4.0642-1.5401 6.0572-3.369 1.8014-1.653 2.4981-2.8256 3.518-5.9202 0.7145-2.168 0.84709-3.171 0.8734-6.6072 0.0306-3.992 0.0147-4.084-1.0846-6.3024-0.97896-1.9754-1.3342-2.3725-2.8993-3.2409l-1.7836-0.98969-29.628 0.0744-1.7 0.95982c-1.2868 0.72654-1.9424 1.387-2.6976 2.7176-0.95821 1.6883-1.0021 1.9336-1.1097 6.2074-0.1039 4.1273-0.0475 4.652 0.778 7.2431 1.5192 4.7681 4.1696 7.3786 9.3704 9.2292 1.4042 0.49964 2.8079 0.58625 9.8305 0.60655 7.1744 0.0207 8.4761-0.0549 10.475-0.60856zm66.781-0.0358c2.9504-0.92412 4.5243-1.9314 6.6007-4.2245 1.5045-1.6616 1.9426-2.44 2.6856-4.7717 0.76302-2.3948 0.88807-3.3345 0.89011-6.6888 4e-3 -5.921-0.92929-8.143-4.1262-9.8281l-1.6705-0.88051-13.296-0.10155c-7.3128-0.0558-14.039-0.0118-14.947 0.0979-2.3653 0.28575-4.594 1.8298-5.7513 3.9843-0.886 1.6495-0.91747 1.8705-0.94537 6.641-0.0283 4.8437-9e-3 4.9844 1.0345 7.6308 1.625 4.1201 4.4261 6.646 9.0601 8.1698 1.5714 0.51676 2.951 0.60082 10.09 0.61481 7.4394 0.0146 8.4808-0.05 10.376-0.6435z" fill="#6b92b4" stroke-width=".32419"/>
   <path d="m139.98 105.01c-0.53555-0.1623-1.703-1.0352-2.5943-1.9397l-1.6206-1.6446-0.0604-35.96-0.75602-0.80424c-0.41582-0.44235-0.9937-0.80426-1.2842-0.80426-1.9295 0-9.1748-7.2698-9.5982-9.6306-0.12097-0.6746-0.5856-2.0105-1.0325-2.9688-0.76059-1.6308-0.80245-1.9874-0.65457-5.5758 0.10813-2.6238 0.31081-4.0684 0.64225-4.5776 0.26634-0.40924 0.66369-1.2911 0.88298-1.9597 1.4212-4.3331 6.994-9.4514 11.212-10.297 1.0702-0.21468 2.3398-0.59241 2.8214-0.83943 1.1703-0.60025 6.3628-0.61082 7.2405-0.0146 0.35181 0.23892 1.5092 0.60476 2.5719 0.81292 1.0627 0.20817 2.4855 0.74188 3.1618 1.186 0.6763 0.44413 1.7987 1.1818 2.4941 1.6392 0.69548 0.45743 1.84 1.5148 2.5433 2.3497 1.6202 1.9233 3.6524 5.7317 3.6462 6.8333-3e-3 0.46333 0.31725 1.831 0.71075 3.0392 0.77727 2.3867 0.82349 1.7994-0.61791 7.85-0.33971 1.426-1.0048 3.1761-1.4779 3.8891-1.6589 2.4998-2.9604 4.2183-3.6198 4.7798-0.74333 0.63289-4.5256 3.1482-5.5298 3.6774-0.35672 0.18801-0.90076 0.8359-1.209 1.4398-0.50946 0.99807-0.55966 2.5868-0.55228 17.477 9e-3 18.633-0.0111 18.818-2.2952 20.88-0.71294 0.64371-1.4965 1.1704-1.7412 1.1704-0.24474 0-0.86452 0.065-1.3773 0.14454-0.51278 0.0795-1.3705 0.0117-1.906-0.15054zm4.0948-51.701c1.5189-0.53524 3.6133-2.3483 4.3644-3.7781 0.5977-1.1379 0.59868-4.8842 2e-3 -6.0381-0.25196-0.48695-1.1817-1.5618-2.066-2.3885-1.7745-1.6588-3.2675-2.0908-6.2389-1.8055-1.3141 0.1262-1.9027 0.41772-3.3661 1.6672-1.4514 1.2392-1.8656 1.831-2.2809 3.2584-0.63349 2.1778-0.63503 2.937-0.01 4.7712 0.60375 1.7708 2.7923 3.9943 4.3667 4.4363 1.7101 0.48021 3.6467 0.43471 5.229-0.12286zm-46.738-147.35c-1.5161-0.16603-3.0974-0.52271-3.514-0.79261-0.41667-0.26991-1.4684-0.7017-2.3372-0.95954-0.86878-0.25785-1.6749-0.62293-1.7914-0.8113-0.11648-0.18837-0.81593-0.60149-1.5543-0.91805-1.6771-0.71899-7.1488-5.8838-7.6919-7.2604-0.22195-0.56263-0.67756-1.3302-1.0125-1.7057-0.33492-0.3755-0.69449-1.2506-0.79906-1.9446-0.10679-0.70881-0.52754-1.5872-0.96003-2.0041-0.42345-0.40828-0.79033-1.1375-0.81528-1.6205-0.1738-3.3644-0.13767-3.2649-1.678-4.6199-0.82086-0.7221-2.3516-1.9257-3.4016-2.6747-3.734-2.6635-4.9281-3.5965-4.9281-3.8505 0-0.14155-0.47427-0.47739-1.0539-0.74631-1.0182-0.47239-2.6678-1.6351-6.6752-4.7052-1.047-0.80213-3.0893-2.3156-4.5383-3.3633-1.4491-1.0477-2.9292-2.3602-3.2892-2.9168-0.35997-0.55659-0.94636-1.4495-1.3031-1.9842-1.469-2.202-0.16668-5.7013 2.5428-6.8327 2.2321-0.93207 5.2128-0.25735 7.1825 1.6259 0.62426 0.59686 1.4998 1.194 1.9457 1.3269 0.9779 0.2915 3.0043 1.6346 5.8146 3.8537 1.1469 0.90566 2.4032 1.8654 2.7917 2.1328s1.6188 1.1789 2.7337 2.0256 2.1629 1.5394 2.3287 1.5394c0.60182 0 2.9603-2.7299 3.2432-3.754 0.37829-1.3692 5.154-6.2292 7.0868-7.2118 0.80196-0.40772 1.8229-0.93886 2.2688-1.1803 1.4925-0.80819 7.791-1.1416 21.541-1.1404 15.377 1e-3 17.783 0.22134 21.172 1.9352 3.1132 1.5743 6.4917 4.9279 8.1107 8.0508 0.74154 1.4304 1.5 3.1638 1.6854 3.8519 0.18542 0.68816 0.55718 1.5384 0.82614 1.8894 0.48204 0.62907 0.49768 0.62711 1.0965-0.13682 0.33413-0.42625 0.76657-1.4471 0.96098-2.2686 1.456-6.1528 8.0256-11.983 14.654-13.004 3.1791-0.48992 33.92-0.26059 35.848 0.26742 3.8255 1.0477 9.135 5.3106 10.976 8.8123 1.2294 2.3386 2.3946 3.565 3.3871 3.565 0.44259 0 1.4565-0.54107 2.2774-1.2153 2.4982-2.052 13.88-10.35 15.113-11.018 0.41-0.22221 1.6752-0.4285 2.8115-0.45844 3.7971-0.10005 5.4678 1.5098 5.4699 5.2708 3e-3 3.1626-0.70886 4.0258-6.8089 8.2708-1.1593 0.80678-2.9105 2.1113-3.8915 2.8989s-2.6592 2.0397-3.7294 2.7823-2.6754 1.9589-3.5672 2.7028c-0.8918 0.74387-2.643 2.0297-3.8915 2.8575-3.1153 2.0653-5.023 3.9734-5.0408 5.0419-8e-3 0.46968-0.2403 1.4373-0.5166 2.1503-0.27629 0.71301-0.7648 2.0256-1.0856 2.9168-1.22 3.3898-4.3498 7.6467-7.3423 9.9864-2.2185 1.7346-5.0317 3.4634-5.6359 3.4634-0.28044 0-1.088 0.30553-1.7946 0.67897-1.996 1.055-6.896 1.5749-14.905 1.5815-8.6258 7e-3 -14.071-0.44331-15.758-1.3036-0.66365-0.33836-1.7856-0.81456-2.4933-1.0582-3.5737-1.2305-9.8004-6.8086-11.467-10.272-1.9566-4.0675-2.2648-4.8859-2.5797-6.8507-0.18152-1.1326-0.5551-2.4043-0.83017-2.826-0.44421-0.68094-0.55442-0.71238-0.98581-0.28126-0.26712 0.26696-0.7548 1.487-1.0837 2.7112-0.60346 2.246-2.268 6.0032-3.7099 8.3738-2.1431 3.5236-7.7376 8.219-11.033 9.2603-0.71344 0.22541-1.8079 0.67212-2.4322 0.99268-0.66833 0.3432-2.5158 0.72249-4.4934 0.92247-4.0172 0.40626-17.576 0.37529-21.45-0.049zm21.079-11.338c0.4459-0.29467 1.4205-0.69628 2.1658-0.89248 1.4226-0.37452 3.1622-1.6644 5.6424-4.1838 1.0739-1.0909 1.5949-1.9494 1.8836-3.1042 0.21955-0.87791 0.7652-2.0309 1.2126-2.5622 0.80417-0.95511 0.81221-1.024 0.71068-6.0833-0.0931-4.6411-0.16359-5.1738-0.75723-5.7258-0.36-0.33474-0.92941-1.2178-1.2654-1.9623s-0.70955-1.3537-0.83024-1.3537-0.93553-0.47398-1.8108-1.0533l-1.5913-1.0533h-30.493l-1.6214 0.99774c-1.9474 1.1983-3.5782 3.2334-4.0783 5.0894-0.23134 0.8586-0.31005 3.0953-0.21335 6.0631 0.14249 4.3734 0.2247 4.8705 1.1745 7.1007 1.6435 3.8591 4.3018 6.3953 8.4679 8.0791 1.3377 0.54065 2.724 1.055 3.0808 1.143 0.35672 0.088 4.4428 0.13237 9.0802 0.0985 7.2295-0.0528 8.5472-0.1379 9.2423-0.59727zm66.966-0.17273c0.71335-0.35869 1.8222-0.82179 2.4642-1.0291 0.64194-0.20732 2.2171-1.3573 3.5004-2.5556 2.1355-1.994 2.4443-2.4524 3.6444-5.409l1.3112-3.2304-0.115-4.7099c-0.11363-4.6538-0.1278-4.732-1.1924-6.57-1.1566-1.9968-3.0509-3.5219-5.1486-4.1451-0.84614-0.25138-5.6589-0.33058-15.66-0.25771l-14.439 0.10519-1.6943 1.0869c-3.4866 2.2367-4.5011 5.1358-4.2126 12.039 0.14812 3.5447 0.22115 3.8648 1.4927 6.543 1.677 3.5322 4.1398 6.0858 6.8355 7.0872 0.99577 0.36991 2.1154 0.86978 2.4882 1.1108 1.0265 0.66382 1.8844 0.71439 10.997 0.64823 7.732-0.0561 8.5393-0.11534 9.7287-0.71339z" fill="#5582a9" stroke-width=".32419"/>
   <g fill="#fff" stroke-width=".24419">
    <path transform="translate(-60.895 -292.82)" d="m194.36 305.69c-1.8803-0.0985-4.078-0.30324-4.8838-0.45488-0.80583-0.15167-3.2233-0.49156-5.3722-0.75536-4.7194-0.57935-4.9897-0.63251-10.378-2.0413-6.9517-1.8175-7.8028-2.0854-10.744-3.3815-9.0543-3.9896-14.64-7.7152-20.767-13.852-7.5421-7.5543-14.105-17.501-22.082-33.471-2.4489-4.9022-4.7477-9.6822-5.1084-10.622-0.36072-0.94014-0.81246-1.9944-1.0039-2.3429-0.19141-0.34843-0.66351-1.4473-1.0491-2.4419s-0.99387-2.2358-1.3517-2.7582c-0.35783-0.52239-0.65059-1.1093-0.65059-1.3042 0-0.37927-1.0679-2.932-3.603-8.6126-2.4624-5.5177-4.4-10.082-5.8054-13.675-2.3-5.88-4.0325-9.8807-4.4593-10.298-0.22965-0.22436-1.1137-0.68749-1.9646-1.0292-3.6403-1.4619-8.7901-5.7639-10.118-8.4527-0.3649-0.73868-1.1202-2.4419-1.6784-3.785l-1.0149-2.4419-0.02433-16.117c-0.02167-14.359 0.02091-16.31 0.39036-17.889 0.87124-3.7244 2.7077-6.9815 5.557-9.8556 1.8192-1.8351 2.4152-2.2632 4.6507-3.3403 2.8163-1.357 6.8701-2.4911 8.9049-2.4911 2.4745 0 5.5968 2.5647 6.1962 5.0896 0.1166 0.4912 0.33156 1.5225 0.47767 2.2918 0.36199 1.9058 0.95746 3.0707 1.7897 3.5011 1.7471 0.90344 2.3907-0.10466 4.5042-7.0546 0.74236-2.4411 1.7749-5.757 2.2945-7.3687 0.51961-1.6117 1.1291-3.8643 1.3545-5.0059 0.22538-1.1416 0.72461-3.3742 1.1094-4.9614s0.81698-3.7849 0.96042-4.8838 0.46858-2.9321 0.72255-4.0737c0.56814-2.5539 0.68376-3.4633 1.0867-8.5477 0.24894-3.1409 0.43071-4.2483 0.8238-5.0189 0.66614-1.3057 1.8939-2.5044 3.1445-3.07 1.1486-0.51944 2.0026-0.57224 15.469-0.95646 9.7294-0.27759 16.566-0.62003 19.291-0.9663 1.0073-0.12798 4.139-0.40209 6.9595-0.60912 5.662-0.41562 10.757-0.95057 12.82-1.346 0.73868-0.14159 3.1012-0.42565 5.2501-0.63124s5.3356-0.64304 7.0816-0.97211 5.0426-0.87522 7.3258-1.2137c2.3062-0.34186 7.2217-1.3702 11.06-2.3137 8.4336-2.0733 10.166-2.5702 14.284-4.0985 1.7746-0.65846 4.0687-1.4957 5.0981-1.8606 4.027-1.4274 9.0489-4.8556 12.714-8.6792 2.6081-2.7208 3.9061-3.421 6.3485-3.4246l1.643-0.0024 1.3438 1.3438c2.1344 2.1344 2.3607 2.774 3.0673 8.6681 1.0542 8.7939 3.9075 16.229 9.9391 25.899 2.5554 4.0969 6.6183 9.8203 8.5245 12.008 0.78815 0.90471 2.501 2.8655 3.8063 4.3573s2.7063 3.3789 3.1134 4.1936c1.2876 2.5767 0.88172 4.9247-1.2133 7.0197-3.0474 3.0474-6.0895 2.5175-10.385-1.8087-1.9443-1.9582-7.2272-8.5444-9.322-11.622-0.41139-0.60437-1.6674-2.323-2.791-3.8192-1.1237-1.4962-2.5375-3.6319-3.1419-4.746-0.60438-1.1141-1.7344-3.1866-2.5111-4.6055-2.8375-5.1835-5.4851-11.118-6.5034-14.578-0.28202-0.95814-0.68643-1.8862-0.89869-2.0624-0.63446-0.52655-1.9665-0.33064-3.2197 0.47355-1.4902 0.95628-4.9365 2.5716-7.0647 3.3114-0.91168 0.3169-2.9762 1.0917-4.5879 1.7218-3.1347 1.2255-8.3642 2.8022-11.355 3.4235-1.0073 0.20926-2.3809 0.59976-3.0524 0.86778-1.378 0.55002-8.9636 2.1274-14.622 3.0406-2.07 0.33408-4.5168 0.76311-5.4374 0.9534-0.92057 0.19029-3.1023 0.47389-4.8483 0.63024-1.746 0.15634-5.0975 0.54876-7.4478 0.87204-6.9662 0.95817-6.7999 0.94282-26.268 2.4235-2.6959 0.20503-8.5042 0.53107-12.907 0.72453-9.0591 0.39803-8.6873 0.30051-9.2919 2.4375-0.43535 1.5389-1.0243 4.8747-1.2319 6.9775-0.24931 2.5254-2.3985 11.901-3.9184 17.093-0.7666 2.619-1.6378 5.6408-1.9359 6.7153-0.29817 1.0744-0.76027 2.448-1.0269 3.0524-0.26662 0.60437-0.77681 1.978-1.1338 3.0524-1.2651 3.8081-2.0903 4.4362-3.8905 2.961-3.6123-2.96-7.8674-2.9744-10.803-0.0366-1.4904 1.4915-1.9485 2.6124-1.9485 4.7676 0 1.6978 0.0674 1.9384 0.92317 3.2966l0.92317 1.4652-0.51635 0.42204c-0.45436 0.37138-0.60915 0.38252-1.2894 0.0928-1.6093-0.68543-2.7536-1.1922-3.5414-1.5685-1.3658-0.65221-4.3326-3.3544-5.5389-5.045-0.62719-0.87892-1.3742-1.7618-1.66-1.962-0.83439-0.58443-1.8022-0.45953-2.2978 0.29655-0.401 0.61175-0.43865 1.8167-0.50995 16.324l-0.07698 15.663 1.2536 1.3716c1.5054 1.6471 3.7574 2.8529 6.4452 3.4509 3.3569 0.74686 4.5963 2.2472 6.7686 8.1939 0.56419 1.5445 1.8192 4.6213 2.7888 6.8374 0.96966 2.216 1.8469 4.3039 1.9494 4.6396 0.10249 0.33577 0.87093 2.1544 1.7076 4.0414s2.0378 4.799 2.669 6.4711c0.63123 1.6721 1.5348 3.8093 2.0078 4.7495s1.294 2.8632 1.8243 4.2734c1.5882 4.2232 12.051 25.782 15.28 31.486 1.9552 3.4533 6.0222 9.4403 8.673 12.768 2.5553 3.2075 7.2896 8.0636 9.7579 10.009 5.081 4.0047 12.509 7.392 20.466 9.3332 9.5296 2.3247 21.259 3.2503 32.966 2.6015 5.2979-0.29364 11.83-1.0119 14.529-1.5976 3.4128-0.74051 10.136-2.648 12.19-3.4586 6.492-2.5618 13.674-7.3475 17.842-11.89 4.0975-4.4647 9.8371-12.619 13.612-19.338 5.3434-9.5111 14.106-28.26 18.66-39.925 0.86506-2.216 2.2693-5.5126 3.1204-7.3258s1.8514-4.0658 2.2227-5.0059 0.97727-2.4786 1.3466-3.4187c0.93227-2.3734 2.351-5.8418 3.059-7.4784 0.32681-0.75547 0.5942-1.5873 0.5942-1.8485 0-0.59951 1.4617-2.3235 2.5296-2.9835 0.44651-0.27595 2.1116-0.94993 3.7003-1.4977 1.5887-0.5478 3.1719-1.1446 3.5184-1.3262 0.89845-0.47097 2.0708-1.7798 2.739-3.058l0.57447-1.0989 0.1646-28.916-0.81362-1.5337c-1.5274-2.8791-3.3192-4.1645-6.605-4.7381-2.6316-0.45942-3.8084-1.133-5.0112-2.8684l-0.67437-0.97296-0.18287-21.632c-0.10058-11.898-0.28629-22.841-0.4127-24.318-0.3356-3.9223-1.6029-11.834-2.3468-14.652-0.97707-3.7002-2.2851-8.1029-2.9744-10.012-1.1539-3.1954-4.8672-10.481-6.8451-13.431-3.9376-5.8717-9.2707-11.414-14.343-14.907-3.1881-2.1951-10.382-5.7776-13.028-6.4877-1.0272-0.27568-2.5438-0.70494-3.3701-0.95392-0.82635-0.24898-3.0211-0.68437-4.8772-0.96753s-3.8722-0.62707-4.4802-0.76425-2.9735-0.34743-5.2567-0.46723-4.5359-0.34737-5.0059-0.50571c-1.2576-0.42363-2.4008-1.3596-3.2002-2.6201-0.59631-0.94027-0.70624-1.365-0.70271-2.7151 2e-3 -0.88027 0.22019-2.4246 0.4842-3.4319 0.264-1.0073 0.48148-2.1611 0.48328-2.564 8e-3 -1.6854-1.8748-3.3301-5.4076-4.725-2.2976-0.90721-3.7683-1.324-7.5294-2.1339-3.0112-0.64843-3.2054-0.65879-14.395-0.76806-11.968-0.11687-16.162 0.06249-21.038 0.89959-1.5311 0.26288-4.067 0.64382-5.6354 0.84655-1.5683 0.20272-4.4803 0.80513-6.4711 1.3387-1.9908 0.53355-5.158 1.3747-7.0383 1.8692-3.1274 0.82255-12.623 4.53-16.361 6.3878-4.182 2.0786-11.467 6.6187-14.407 8.9787-4.8826 3.9189-11.463 10.357-14.605 14.29-7.9292 9.9241-13.615 20.803-17.741 33.943-2.0609 6.5634-2.3558 7.7702-3.0666 12.549-0.34177 2.2978-0.88594 5.6159-1.2093 7.3735-0.32333 1.7576-0.70389 4.6146-0.84569 6.349s-0.31186 3.788-0.37791 4.5636c-0.13948 1.6379-0.53838 2.5062-1.7884 3.8926-1.2397 1.3751-2.4727 1.8888-4.5487 1.8954-2.2498 7e-3 -3.4358-0.57527-4.8183-2.3661l-1.0584-1.371-0.08423-2.5575c-0.0968-2.9389 0.17619-5.5624 1.1722-11.265 0.38866-2.2253 0.87282-5.1998 1.0759-6.61 0.53305-3.7015 1.7413-9.282 2.5907-11.965 4.4184-13.959 4.6962-14.671 9.1825-23.565 2.9205-5.7893 3.9611-7.5415 7.4931-12.617 3.1036-4.4603 4.604-6.3054 9.2358-11.358 3.7103-4.0472 5.5434-5.7681 10.358-9.7237 5.6496-4.6415 17.419-12.015 20.634-12.928 0.33577-0.09534 1.3797-0.53742 2.3198-0.98241 3.0718-1.454 9.8873-4.1047 11.599-4.5113 0.60438-0.14355 4.2856-1.0746 8.1804-2.0689 8.1031-2.0687 7.5443-1.9604 12.698-2.4619 2.1489-0.20909 4.896-0.5544 6.1048-0.76735 2.867-0.50511 13.536-0.75079 23.198-0.53418 6.109 0.13696 7.7314 0.25057 9.7677 0.68403 1.3431 0.28589 3.321 0.6895 4.3954 0.89693 7.0422 1.3595 12.712 4.0859 16.635 7.9984 2.5542 2.5478 3.5063 4.1842 4.2214 7.2555 0.67315 2.8909 0.91185 3.0711 4.6734 3.5279 1.6725 0.2031 4.1398 0.63374 5.4828 0.95698 1.3431 0.32324 3.1928 0.7593 4.1106 0.96904 3.8246 0.87404 10.128 3.4679 14.66 6.0328 5.4435 3.0806 9.0702 5.9109 14.324 11.178 4.4698 4.4817 6.499 7.1023 9.9405 12.837 2.7753 4.6247 3.314 5.6967 4.6022 9.1572 0.57495 1.5445 1.5415 4.017 2.1479 5.4943 2.0126 4.9034 4.0374 13.341 4.922 20.512 0.80308 6.5099 1.0603 13.633 1.0934 30.28 0.0141 7.1182 0.10278 13.382 0.19698 13.919 0.16023 0.91385 0.34415 1.0936 2.8552 2.7908 3.8819 2.6238 6.0728 4.9106 7.6198 7.9536 0.68281 1.3431 1.5823 3.4122 1.9988 4.5981l0.75734 2.1561v30.797l-0.75381 2.469c-1.3254 4.341-3.8695 8.3518-6.6319 10.455-0.8298 0.6318-2.7766 1.8234-4.3262 2.6481s-3.1066 1.7717-3.46 2.1047c-0.75535 0.71168-0.7609 0.72413-3.6289 8.1395-1.2207 3.1562-3.2518 8.1011-4.5136 10.989s-2.8598 6.6786-3.551 8.4246-1.5695 3.7239-1.9516 4.3954c-0.38219 0.67153-0.96582 1.9352-1.297 2.8082-2.2937 6.0467-11.556 25.138-13.996 28.847-0.58602 0.89103-1.0655 1.7262-1.0655 1.8558 0 0.12969-0.33292 0.69536-0.73982 1.2571-0.4069 0.56169-1.0707 1.6329-1.4751 2.3804-0.4044 0.74747-1.1978 1.9682-1.7632 2.7127-0.56532 0.74449-1.6178 2.1897-2.3388 3.2116-3.7339 5.2922-10.095 12.217-14.439 15.719-3.8506 3.1039-11.035 7.077-16.361 9.0483-2.586 0.95711-11.836 3.649-13.919 4.0506-0.73868 0.14241-2.6068 0.37766-4.1513 0.52276s-4.222 0.47981-5.9501 0.74381c-5.3886 0.82319-14.27 1.1057-22.01 0.70005z"/>
    <path transform="translate(-60.895 -292.82)" d="m234.58 398.21c-1.5056-0.25896-2.5395-0.98615-3.6083-2.538-0.78629-1.1417-0.94689-1.5923-1.0217-2.8666-0.13191-2.248 1.4564-11.417 3.3709-19.46 0.39962-1.6788 0.84189-3.8216 0.98282-4.7617 0.14094-0.94014 0.62552-3.4126 1.0769-5.4943 0.45134-2.0817 0.94862-4.6091 1.1051-5.6164 0.15644-1.0073 0.49267-2.6006 0.74717-3.5408 0.25449-0.94013 0.63346-2.8631 0.84214-4.2734s0.64702-3.553 0.97409-4.7617c0.32708-1.2088 0.7679-3.2966 0.97961-4.6396 0.21171-1.3431 0.64677-3.6507 0.96679-5.128s0.71027-3.5103 0.86722-4.5176c0.42915-2.7542 1.1784-5.5526 1.8321-6.8426 0.67446-1.331 1.6305-2.2042 3.3898-3.096l1.2472-0.63221 11.721 0.14278c6.5069 0.0793 14.057 0.31011 16.971 0.5189 2.8876 0.20686 9.0254 0.54511 13.64 0.75167 8.7209 0.39038 9.6801 0.46664 18.349 1.4588 2.8876 0.33048 6.9266 0.76512 8.9755 0.96586 3.4235 0.33541 5.2052 0.63377 12.513 2.0955 1.4102 0.28206 4.3774 0.82975 6.5939 1.2171 2.2164 0.38734 5.113 0.98568 6.4368 1.3296 1.3238 0.34396 2.5621 0.62537 2.7517 0.62537 0.18964 0 1.304 0.37225 2.4762 0.82722s4.1448 1.3982 6.6055 2.096c5.1759 1.4678 8.8044 2.9012 14.458 5.7116 7.9971 3.9752 11.291 6.2795 16.603 11.614 3.8105 3.8269 5.22 5.7024 7.0797 9.4202 1.6797 3.358 2.5927 6.1771 4.661 14.392 0.80943 3.2149 1.5634 6.017 1.6756 6.2269 0.11216 0.20988 0.54863 1.9971 0.96995 3.9715 0.42131 1.9745 0.98894 4.2271 1.2614 5.0059s0.55714 2.1886 0.63262 3.1329c0.12188 1.5247 0.0655 1.8586-0.50399 2.9823-0.83162 1.6411-2.0202 2.9813-3.0114 3.3954-1.0708 0.44739-4.539 0.4321-5.4208-0.0239-1.7204-0.88967-3.544-3.9977-3.926-6.6914-0.13164-0.92815-0.36113-2.0028-0.50999-2.3881-0.33231-0.86019-2.0244-7.3509-2.8246-10.835-0.98359-4.2824-2.0203-8.338-2.5594-10.012-1.9537-6.0669-6.1893-10.951-13.891-16.016-2.697-1.774-8.474-4.7398-9.2325-4.7398-0.15329 0-1.7924-0.649-3.6425-1.4422-1.8501-0.79322-4.2428-1.729-5.3173-2.0795-2.6621-0.86844-14.552-3.829-19.047-4.7426-5.2854-1.0743-15.282-2.6536-19.535-3.0865-2.0146-0.20501-5.5859-0.58752-7.9362-0.85002-5.9169-0.66083-9.2878-0.89251-23.32-1.6028-13.662-0.69149-24.7-1.0099-26.074-0.75217-0.72779 0.13653-1.0038 0.3529-1.3718 1.0754-0.48852 0.95904-1.7355 5.7286-1.7355 6.6382 0 0.29655-0.7593 4.0727-1.6873 8.3914-0.92803 4.3187-1.8716 9.061-2.0968 10.538-0.22518 1.4774-0.67091 3.73-0.99051 5.0059-0.31959 1.2759-0.75253 3.4081-0.9621 4.7383-0.20956 1.3302-0.65135 3.363-0.98175 4.5176-0.3304 1.1545-0.81969 3.3628-1.0873 4.9073-1.3852 7.9946-2.9789 15.041-3.7189 16.444-0.42653 0.80839-1.9755 2.3825-2.7422 2.7868-0.98145 0.51752-2.6846 0.73293-4.0025 0.50625z"/>
    <path transform="translate(-60.895 -292.82)" d="m167.62 398.25c-1.4289-0.17997-1.9389-0.47961-3.1414-1.8457-1.1829-1.3438-1.7937-2.8717-2.3349-5.8405-0.22031-1.2086-0.7779-3.9556-1.2391-6.1045-0.46119-2.1489-1.8302-8.852-3.0422-14.896-1.212-6.0438-2.8116-13.901-3.5546-17.46-0.74301-3.5591-1.6736-8.0644-2.068-10.012-1.2467-6.1561-1.8828-8.814-2.1805-9.1121-0.64549-0.64645-17.095-0.46309-29.568 0.32959-2.0817 0.13229-7.3563 0.46099-11.721 0.73044-4.3649 0.26944-10.409 0.76419-13.431 1.0994s-7.0327 0.77957-8.913 0.9874-4.3527 0.5818-5.4943 0.83104c-1.1416 0.24923-3.669 0.68857-5.6164 0.97631-5.9191 0.87455-10.379 1.8778-18.925 4.2571-4.6563 1.2964-6.538 1.9511-9.1572 3.1858-1.8131 0.85479-4.13 1.8965-5.1487 2.315-4.2064 1.728-10.753 6.0005-14.23 9.2866-2.8567 2.7-4.9827 5.9081-6.3852 9.6349-0.69226 1.8396-3.8102 13.281-4.2643 15.648-0.1546 0.80583-0.48505 2.1245-0.73434 2.9303-0.24929 0.80583-0.80186 2.8891-1.2279 4.6295-1.1683 4.7724-2.3608 6.8578-4.4877 7.8482-2.3072 1.0743-4.9881 0.69358-6.7036-0.95199-1.5781-1.5138-2.0895-3.3422-1.7069-6.103 0.20739-1.4965 3.9237-16.875 5.7364-23.737 1.3361-5.0582 3.6642-9.9364 6.5486-13.721 6.118-8.0285 15.462-14.544 27.842-19.414 2.2615-0.88966 7.6213-2.6456 8.0619-2.6411 0.25035 3e-3 8.4239-2.4212 10.28-3.0484 0.55256-0.1867 2.2558-0.51138 3.785-0.72151 1.5292-0.21014 3.9891-0.65198 5.4664-0.98187s3.785-0.8186 5.128-1.086c1.3431-0.26742 3.2111-0.64871 4.1513-0.84732 0.94014-0.1986 3.5774-0.53833 5.8606-0.75494 2.2832-0.21662 6.294-0.66116 8.913-0.98787 4.6747-0.58316 6.5315-0.72573 19.047-1.4624 3.4248-0.20159 7.6611-0.47021 9.414-0.59692 5.4961-0.39729 21.954-0.8027 28.444-0.70065 6.8266 0.10735 6.6588 0.0728 8.4724 1.7445 1.4207 1.3095 1.9242 2.3515 2.5286 5.233 1.7344 8.2675 2.5086 12.033 3.0508 14.835 0.33777 1.746 0.98843 4.9327 1.4459 7.0816 0.45748 2.1489 1.1199 5.3356 1.472 7.0816s1.7871 8.7787 3.1888 15.628c4.0586 19.832 4.1311 20.314 3.4184 22.682-0.87658 2.9127-3.5765 4.4795-6.98 4.0509z"/>
   </g>
   <g fill="#fff">
    <path transform="translate(-60.895 -292.82)" d="m174.66 245.89c-1.8873-0.15635-2.9282-0.83764-4.2827-2.8033-0.69058-1.0021-0.80613-1.378-0.80613-2.6222 0-2.9842 0.84598-4.5188 3.276-5.9429 0.91847-0.53826 1.7052-0.69666 5.5513-1.1177 7.4742-0.81821 13.648-2.4348 20.951-5.4856 2.4088-1.0064 4.0186-0.81528 8.8041 1.045 7.7442 3.0104 12.688 4.1913 19.549 4.6689 3.48 0.2423 4.477 0.61392 5.914 2.2046 1.1938 1.3214 1.8869 2.7433 1.884 3.865-5e-3 1.8304-1.7276 4.5643-3.6165 5.7389-0.81996 0.50987-1.1659 0.55616-3.951 0.52871-5.5147-0.0543-16.14-2.2044-21.664-4.3837-3.1918-1.2593-4.048-1.3209-6.3463-0.45634-5.491 2.0655-8.8796 2.9669-15.041 4.001-4.4597 0.74849-7.5686 0.97953-10.222 0.75967z"/>
    <path transform="translate(-60.895 -292.82)" d="m195.34 265.92c-1.0747-0.10471-2.3052-0.37201-2.7345-0.594-1.5996-0.8272-3.0695-3.5666-3.1004-5.7782-0.0226-1.6146 0.8004-3.2142 2.2304-4.3352 1.8566-1.4553 1.4461-1.4015 10.687-1.4015 9.5402 0 9.2306-0.0498 11.002 1.7708 1.2653 1.3007 1.589 2.0592 1.6173 3.79 0.0494 3.0224-0.34532 3.8174-2.6881 5.4141l-1.6283 1.1097-6.7153 0.1073c-3.6934 0.059-7.5946 0.0216-8.6693-0.0831z"/>
    <path transform="translate(-60.895 -292.82)" d="m174.54 245.9c-1.7631-0.17338-2.9004-0.94128-4.1736-2.8181-0.69463-1.024-0.79362-1.3686-0.79362-2.7623 0-2.1535 0.42326-3.4153 1.5102-4.5023 1.5795-1.5795 2.4977-1.8908 7.1179-2.4128 5.2695-0.59539 6.3764-0.79077 10.297-1.8177 3.5826-0.93841 7.0755-2.1072 10.134-3.391 3.428-1.439 3.8458-1.3804 11.948 1.6747 5.4981 2.0732 11.222 3.3283 17.119 3.7534 3.4917 0.25174 4.4864 0.62303 5.9199 2.2097 1.9391 2.1464 2.3118 3.8667 1.3057 6.0274-1.1593 2.4896-2.8781 3.8988-5.0696 4.1564-4.2147 0.49535-17.939-2.0963-23.767-4.4882-2.9327-1.2036-4.2766-1.1982-7.3732 0.0297-6.9932 2.773-18.715 4.8779-24.174 4.3411z"/>
    <path transform="translate(-60.895 -292.82)" d="m174.29 245.91c-1.5052-0.19457-2.7454-1.087-3.9232-2.8234-0.69872-1.03-0.79346-1.3637-0.79226-2.7906 2e-3 -2.2427 0.36084-3.326 1.4695-4.4346 1.6224-1.6224 2.5184-1.9296 7.1594-2.4548 7.2035-0.81506 12.827-2.2042 19.259-4.7572 4.7239-1.875 5.2852-1.8438 11.629 0.64724 6.1549 2.4167 12.377 3.8567 18.733 4.3354 3.3619 0.25321 4.3789 0.6405 5.7936 2.2064 1.1923 1.3197 1.8864 2.7421 1.8862 3.865-4.9e-4 1.8775-1.9807 4.9005-3.874 5.9138-2.596 1.3894-17.692-0.97955-25.346-3.9773-3.7184-1.4564-3.6232-1.4631-9.759 0.68671-6.8008 2.3828-17.805 4.1562-22.235 3.5834z"/>
    <path transform="translate(-60.895 -292.82)" d="m174.7 245.97c-0.47007-0.0552-1.1047-0.15584-1.4103-0.22372-0.78422-0.17422-2.4101-1.7076-3.1508-2.9715-0.57045-0.9734-0.6173-1.2543-0.51962-3.1153 0.12805-2.4396 0.70815-3.52 2.5423-4.735 1.4634-0.96932 1.9168-1.0756 7.3047-1.7114 6.3466-0.74903 11.752-2.1251 17.985-4.5784 4.159-1.637 5.119-1.6912 8.5055-0.47938 1.2759 0.45654 3.7483 1.3423 5.4943 1.9684 5.3357 1.9134 10.61 3.0296 16.625 3.5182 3.059 0.2485 4.0901 0.64971 5.51 2.1439 1.1655 1.2265 1.919 2.7673 1.916 3.918-5e-3 1.8552-1.9472 4.9044-3.7154 5.8325-1.049 0.5506-3.2974 0.67457-6.4438 0.35527-6.0624-0.61522-14.312-2.448-18.871-4.1922-3.5862-1.3722-4.1235-1.3514-9.064 0.34986-7.4459 2.564-18.299 4.438-22.707 3.9207z"/>
    <path transform="translate(-60.895 -292.82)" d="m195.21 265.92c-2.7085-0.28788-3.7681-0.9705-4.8486-3.1237-0.79131-1.5768-1.0833-3.2614-0.76807-4.4319 0.36577-1.3584 1.6234-2.9301 3.0506-3.8124l1.1935-0.73781h17.17l1.171 0.73258c2.3006 1.4392 3.2252 3.5777 2.8136 6.507-0.25279 1.7989-0.6743 2.3958-2.6404 3.7392l-1.6298 1.1136-6.8359 0.10449c-3.7597 0.0575-7.6638 0.0165-8.6758-0.0911z"/>
    <path transform="translate(-60.895 -292.82)" d="m195.08 265.91c-1.8707-0.21688-2.8563-0.6219-3.6923-1.5173-0.65782-0.70456-1.6954-2.9511-1.9097-4.1349-0.35207-1.9447 0.99023-4.3654 3.1669-5.7111l1.1934-0.73781h17.17l1.171 0.73258c2.313 1.447 3.2255 3.5762 2.8074 6.5507-0.25919 1.8441-0.5757 2.289-2.6247 3.689l-1.7015 1.1626-6.9269 0.0832c-3.8098 0.0458-7.704-7e-3 -8.6538-0.117z"/>
    <path transform="translate(-60.895 -292.82)" d="m174.46 245.97c-1.4703-0.26907-1.7491-0.39104-2.6024-1.1384-0.49608-0.43456-1.2124-1.2786-1.5917-1.8757-0.5769-0.90799-0.68954-1.3475-0.6884-2.6861 2e-3 -2.9298 0.84138-4.4591 3.1291-5.7042 1.0467-0.56966 1.9396-0.75797 6.0345-1.2725 7.3742-0.92664 11.998-2.0947 19.039-4.8095 4.2558-1.6409 4.9459-1.6027 10.867 0.6021 7.4267 2.7656 11.76 3.8068 18.471 4.4376 4.1173 0.38702 4.9817 0.68838 6.4716 2.2562 1.164 1.2249 1.9184 2.7659 1.9182 3.918-4.9e-4 2.202-2.5038 5.5867-4.5528 6.1557-3.4943 0.97026-17.486-1.4352-24.817-4.2665-3.103-1.1984-3.8331-1.15-9.1241 0.60454-4.4002 1.4592-8.0033 2.3238-13.252 3.1801-2.8691 0.46808-8.1557 0.80845-9.3012 0.59884z"/>
   </g>
  </g>
 </g>
</svg>
