<?xml version="1.0" encoding="UTF-8"?>
<svg id="svg" width="400" height="428.51" version="1.1" viewBox="0 0 400 428.51" xmlns="http://www.w3.org/2000/svg" xmlns:cc="http://creativecommons.org/ns#" xmlns:dc="http://purl.org/dc/elements/1.1/" xmlns:rdf="http://www.w3.org/1999/02/22-rdf-syntax-ns#">
 <metadata>
  <rdf:RDF>
   <cc:Work rdf:about="">
    <dc:format>image/svg+xml</dc:format>
    <dc:type rdf:resource="http://purl.org/dc/dcmitype/StillImage"/>
    <dc:title/>
   </cc:Work>
  </rdf:RDF>
 </metadata>
 <g id="svgg" fill-rule="evenodd">
  <path d="m166.4 98.4c-0.55 0.176-2.53 0.341-4.4 0.366-1.91 0.026-4.781 0.394-6.551 0.84-1.733 0.437-3.569 0.794-4.08 0.794-0.512 0-1.974 0.289-3.249 0.642-1.276 0.353-3.04 0.775-3.92 0.936-0.88 0.162-2.297 0.593-3.149 0.958s-1.966 0.664-2.476 0.664-1.024 0.155-1.141 0.345-1.073 0.578-2.124 0.862c-1.05 0.285-2.09 0.64-2.31 0.791-0.22 0.15-1.93 0.874-3.8 1.609-3.011 1.182-8.704 3.979-13.4 6.581-3.783 2.097-9.951 6.519-16.188 11.606-2.558 2.086-10.761 10.322-12.955 13.006-1.348 1.65-2.861 3.466-3.363 4.035-0.501 0.57-1.582 2.031-2.402 3.248-0.821 1.217-2.232 3.271-3.137 4.565-2.336 3.341-6.78 11.62-8.725 16.252-2.725 6.49-3.273 7.938-4.2 11.1-0.483 1.65-1.163 3.81-1.51 4.8-0.348 0.99-0.759 2.7-0.913 3.8-0.155 1.1-0.566 3.26-0.914 4.8-1.128 4.994-1.46 7.481-1.959 14.671-0.666 9.625-0.06 18.609 1.913 28.329 0.335 1.65 0.751 3.9 0.925 5s0.6 2.81 0.948 3.8c0.347 0.99 1.032 3.15 1.522 4.8s1.221 3.763 1.625 4.696c0.403 0.932 0.733 1.85 0.733 2.038 0 0.189 0.25 0.866 0.556 1.505 0.306 0.638 0.829 1.791 1.161 2.561 1.138 2.634 2.684 5.8 3.614 7.4 0.512 0.88 1.484 2.614 2.161 3.854 5.25 9.618 16.702 23.399 24.908 29.973 1.21 0.969 2.29 1.858 2.4 1.976 1.343 1.438 12.704 9.292 14.278 9.87 0.397 0.146 2.393 1.225 4.436 2.396 2.043 1.172 3.883 2.131 4.089 2.131 0.207 0 1.235 0.389 2.286 0.864 6.434 2.91 7.397 3.291 10.911 4.319 1.65 0.483 3.54 1.064 4.2 1.292 1.389 0.48 7.171 1.833 9.8 2.295 0.99 0.173 3.51 0.64 5.6 1.037 6.428 1.221 26.799 1.016 34-0.341 7.45-1.405 11.121-2.213 13-2.863 0.88-0.304 2.95-0.946 4.6-1.426 1.65-0.479 3.54-1.094 4.2-1.366 0.66-0.271 2.19-0.906 3.4-1.411s2.83-1.178 3.6-1.496c15.062-6.224 32.147-19.693 43.537-34.322 1.363-1.75 2.635-3.378 2.826-3.618 0.647-0.809 5.006-7.554 5.663-8.764 2.099-3.86 5.882-11.319 6.087-12 0.132-0.44 0.707-1.88 1.277-3.2 1.117-2.587 1.983-5.079 3.408-9.8 0.497-1.65 1.152-3.797 1.453-4.771 0.302-0.974 0.549-2.229 0.549-2.787 0-0.559 0.348-2.462 0.774-4.229 1.8-7.475 2.584-21.948 1.628-30.051-0.231-1.959-0.52-4.732-0.641-6.162-0.203-2.375-0.596-4.402-2.444-12.6-1.89-8.387-5.865-18.376-11.19-28.122-1.404-2.568-7.578-12.064-8.115-12.478-0.142-0.11-0.538-0.609-0.879-1.109-0.341-0.499-1.237-1.579-1.991-2.4-0.754-0.82-1.683-1.941-2.064-2.491-2.352-3.394-15.195-15.277-19.925-18.438-6.172-4.123-8.384-5.511-10.753-6.746-1.43-0.746-3.16-1.668-3.845-2.048-2.493-1.387-4.54-2.362-7.855-3.743-0.825-0.344-2.085-0.876-2.8-1.183-3.897-1.672-15.309-4.928-19.1-5.449-1.21-0.166-3.159-0.57-4.332-0.897-1.173-0.328-3.814-0.627-5.87-0.665s-4.336-0.241-5.066-0.45c-1.582-0.454-12.903-0.439-14.332 0.019m14.62 10.763c0.209 0.2 1.91 0.466 3.78 0.592 4.888 0.328 7.345 0.67 7.78 1.084 0.209 0.198 1.323 0.361 2.476 0.361s2.208 0.18 2.344 0.4 0.777 0.4 1.424 0.4 1.176 0.18 1.176 0.4 0.542 0.4 1.205 0.4 1.608 0.208 2.1 0.462c1.979 1.023 2.331 1.138 3.49 1.138 0.663 0 1.205 0.18 1.205 0.4s0.349 0.4 0.776 0.4 0.888 0.18 1.024 0.4 0.687 0.4 1.224 0.4 0.976 0.18 0.976 0.4 0.349 0.4 0.776 0.4 0.888 0.18 1.024 0.4 0.687 0.4 1.224 0.4 0.976 0.18 0.976 0.4 0.36 0.4 0.8 0.4 0.8 0.18 0.8 0.4 0.36 0.4 0.8 0.4 0.8 0.18 0.8 0.4 0.36 0.4 0.8 0.4 0.8 0.18 0.8 0.4 0.36 0.4 0.8 0.4 0.8 0.18 0.8 0.4 0.36 0.4 0.8 0.4 0.8 0.15 0.8 0.332c0 0.183 0.495 0.584 1.1 0.892 3.335 1.695 12.896 8.571 16.351 11.76 0.248 0.229 0.859 0.686 1.357 1.016 1.27 0.841 7.992 7.495 7.992 7.912 0 0.188 0.99 1.406 2.2 2.706s2.2 2.495 2.2 2.655 0.45 0.741 1 1.291 1 1.143 1.001 1.318c0 0.175 0.54 0.948 1.199 1.718s1.199 1.585 1.199 1.812c1e-3 0.226 0.361 0.671 0.801 0.988s0.8 0.857 0.8 1.2 0.36 0.883 0.8 1.2 0.8 0.897 0.8 1.288c0 0.392 0.135 0.713 0.3 0.715 0.351 4e-3 1.3 1.934 1.3 2.643 0 0.268 0.135 0.547 0.3 0.621 0.341 0.151 4.1 7.702 4.1 8.235 0 0.191 0.36 1.093 0.8 2.004 0.44 0.91 0.8 1.934 0.8 2.275 0 0.34 0.18 0.619 0.4 0.619s0.4 0.363 0.4 0.806c0 1.127 0.931 3.994 1.297 3.994 0.167 0 0.303 0.542 0.303 1.205s0.159 1.518 0.353 1.9c0.881 1.732 1.218 2.822 1.39 4.495 0.102 0.99 0.399 2.61 0.66 3.6 1.443 5.476 2.368 19.243 1.725 25.676-1.252 12.531-1.601 14.999-2.172 15.351-0.196 0.121-0.356 1.076-0.356 2.121 0 1.083-0.344 2.615-0.8 3.558-0.44 0.91-0.8 2.084-0.8 2.608s-0.123 1.076-0.274 1.227c-0.444 0.444-1.313 3.183-1.32 4.159-3e-3 0.495-0.186 0.9-0.406 0.9s-0.4 0.265-0.4 0.589c0 0.659-0.868 2.686-3.449 8.051-0.963 2.003-1.751 3.848-1.751 4.1 0 0.253-0.18 0.46-0.4 0.46s-0.4 0.36-0.4 0.8-0.18 0.8-0.4 0.8-0.4 0.27-0.4 0.6-0.18 0.6-0.4 0.6-0.4 0.36-0.4 0.8-0.18 0.8-0.4 0.8-0.4 0.27-0.4 0.6-0.15 0.6-0.332 0.6c-0.183 0-0.588 0.495-0.9 1.1-0.313 0.605-0.883 1.449-1.268 1.875-0.385 0.427-0.7 0.972-0.7 1.212s-0.36 0.696-0.8 1.013-0.8 0.768-0.8 1.003c0 0.234-0.715 1.229-1.589 2.211-0.873 0.983-1.593 1.92-1.6 2.085-0.012 0.312-8.166 8.865-10.166 10.663-0.636 0.571-1.831 1.668-2.656 2.438-1.993 1.859-3.147 2.8-3.433 2.8-0.129 0-0.739 0.54-1.356 1.2s-1.319 1.2-1.56 1.2c-0.242 0-0.44 0.18-0.44 0.4s-0.199 0.4-0.442 0.4c-0.438 0-1.806 0.87-5.854 3.723-1.153 0.812-2.368 1.477-2.7 1.477s-0.605 0.135-0.607 0.3c-4e-3 0.359-1.941 1.3-2.677 1.3-0.286 0-0.52 0.149-0.52 0.332 0 0.436-4.853 2.868-5.724 2.868-0.372 0-0.676 0.18-0.676 0.4s-0.272 0.4-0.604 0.4c-0.333 0-1.458 0.378-2.5 0.84-1.043 0.462-2.346 1.023-2.896 1.247-0.55 0.223-1.313 0.565-1.695 0.76-0.382 0.194-1.012 0.356-1.4 0.359-0.822 7e-3 -3.564 0.92-3.964 1.32-0.151 0.151-0.864 0.274-1.584 0.274s-1.421 0.18-1.557 0.4-0.856 0.4-1.6 0.4-1.464 0.18-1.6 0.4-1.101 0.4-2.144 0.4-2.067 0.163-2.276 0.361c-1.861 1.769-33.288 1.767-35.16-2e-3 -0.209-0.197-1.323-0.359-2.476-0.359s-2.208-0.18-2.344-0.4-0.867-0.4-1.624-0.4-1.376-0.18-1.376-0.4-0.632-0.4-1.405-0.4-1.763-0.18-2.2-0.4-1.153-0.58-1.59-0.8-1.165-0.4-1.619-0.4-1.57-0.36-2.48-0.8c-0.911-0.44-1.875-0.8-2.143-0.8s-1.269-0.386-2.225-0.857-2.098-0.98-2.538-1.13c-1.37-0.469-4.75-2.137-5.862-2.892-0.584-0.397-1.349-0.721-1.7-0.721s-0.638-0.158-0.638-0.351c0-0.194-0.585-0.585-1.3-0.871-0.715-0.285-2.984-1.657-5.041-3.048-2.058-1.392-3.927-2.53-4.153-2.53-0.227 0-0.703-0.324-1.059-0.719s-1.277-1.16-2.047-1.698-2.097-1.655-2.948-2.481c-0.852-0.826-1.715-1.502-1.92-1.502-0.584 0-10.33-10.105-10.334-10.714-1e-3 -0.157-0.822-1.186-1.825-2.286-1.995-2.189-8.173-11.087-8.173-11.773 0-0.235-0.18-0.427-0.4-0.427s-0.4-0.27-0.4-0.6-0.146-0.6-0.325-0.6-0.573-0.63-0.875-1.4-0.696-1.4-0.875-1.4-0.325-0.36-0.325-0.8-0.18-0.8-0.4-0.8-0.4-0.36-0.4-0.8-0.136-0.8-0.302-0.8c-0.29 0-0.589-0.617-1.696-3.5-0.274-0.715-0.657-1.3-0.851-1.3-0.193 0-0.351-0.54-0.351-1.2s-0.18-1.2-0.4-1.2-0.4-0.36-0.4-0.8-0.18-0.8-0.4-0.8-0.4-0.529-0.4-1.176-0.18-1.288-0.4-1.424-0.4-0.687-0.4-1.224-0.18-0.976-0.4-0.976-0.4-0.542-0.4-1.205c0-1.159-0.115-1.511-1.138-3.49-0.254-0.492-0.462-1.491-0.462-2.22s-0.163-1.496-0.361-1.705c-0.199-0.209-0.461-1.19-0.582-2.18-0.422-3.454-0.709-5.006-1.072-5.8-1.507-3.302-0.777-32.652 0.856-34.38 0.197-0.209 0.359-1.233 0.359-2.276s0.18-2.008 0.4-2.144 0.4-0.957 0.4-1.824 0.18-1.576 0.4-1.576 0.4-0.439 0.4-0.976 0.18-1.088 0.4-1.224 0.4-0.599 0.4-1.03c0-1.108 0.935-3.97 1.297-3.97 0.167 0 0.303-0.414 0.303-0.92 0-1.054 0.853-3.072 1.3-3.077 0.165-2e-3 0.3-0.543 0.3-1.203s0.136-1.2 0.302-1.2c0.167 0 0.543-0.585 0.836-1.3 0.735-1.792 3-6.456 3.254-6.7 0.114-0.11 0.613-0.965 1.108-1.9 2.102-3.971 2.666-4.9 2.974-4.9 0.179 0 0.326-0.236 0.326-0.525 0-0.288 0.36-0.911 0.8-1.383s0.8-1.001 0.8-1.175c1e-3 -0.174 0.451-0.84 1-1.479 0.55-0.639 1-1.271 1-1.404s0.407-0.69 0.904-1.238 1.531-1.806 2.298-2.796c2.079-2.685 3.426-4.165 7.432-8.168 3.772-3.769 4.368-4.305 7.367-6.621 0.99-0.763 2.069-1.665 2.399-2.002 0.33-0.338 1.095-0.869 1.7-1.179 0.605-0.311 1.1-0.693 1.1-0.849s0.54-0.508 1.2-0.781 1.2-0.643 1.2-0.822c0-0.178 0.359-0.438 0.798-0.577 0.438-0.139 1.028-0.467 1.31-0.727 1.015-0.937 3.068-2.274 3.493-2.274 0.238 0 0.819-0.36 1.291-0.8s1.149-0.8 1.503-0.8c0.355 0 0.816-0.168 1.025-0.373 0.63-0.619 5.02-2.827 5.621-2.827 0.307 0 0.559-0.18 0.559-0.4s0.45-0.4 1-0.4 1-0.18 1-0.4 0.36-0.4 0.8-0.4 0.8-0.18 0.8-0.4 0.439-0.4 0.976-0.4 1.088-0.18 1.224-0.4 0.597-0.4 1.024-0.4 0.776-0.18 0.776-0.4 0.542-0.4 1.205-0.4 1.563-0.18 2-0.4 1.153-0.58 1.59-0.8 1.326-0.4 1.976-0.4 1.293-0.18 1.429-0.4 0.777-0.4 1.424-0.4 1.176-0.18 1.176-0.4 0.954-0.4 2.12-0.4 2.291-0.163 2.5-0.361c0.435-0.414 2.892-0.756 7.78-1.084 1.87-0.126 3.571-0.392 3.78-0.592s3.548-0.363 7.42-0.363 7.211 0.163 7.42 0.363m-9.82 4.358c-3.081 2.092-3 1.81-3 10.479 0 7.83 1e-3 7.837 1 8.819 3.662 3.598 7.359 3.033 9.9-1.514 0.884-1.581 0.678-12.993-0.268-14.821-1.683-3.255-5.194-4.618-7.632-2.963m-0.176 41.803c-0.428 0.262-1.193 0.873-1.7 1.358l-0.924 0.882v13.638c0 14.219-0.199 15.998-1.786 15.998-0.628 0-4.665 2.139-5.946 3.151-1.913 1.511-5.864 5.924-5.867 6.553 0 0.168-0.344 1.068-0.764 2-2.166 4.813-1.979 12.717 0.421 17.817 1.185 2.518 6.453 8.479 7.493 8.479 0.265 0 0.869 0.36 1.341 0.8s1.275 0.8 1.783 0.8c0.509 0 0.925 0.18 0.925 0.4s0.349 0.4 0.776 0.4 0.888 0.18 1.024 0.4c0.144 0.233 2.406 0.4 5.429 0.4 2.85 0 5.539-0.18 5.976-0.4s1.153-0.58 1.59-0.8 1.157-0.4 1.6-0.4 0.805-0.18 0.805-0.4c0-1.024 2.043 0.906 21.904 20.7 22.393 22.317 22.584 22.5 23.477 22.5 0.314 0 0.683 0.18 0.819 0.4s0.867 0.4 1.624 0.4 1.376-0.18 1.376-0.4 0.315-0.406 0.7-0.413c2.235-0.04 5.119-7.587 2.9-7.587-0.22 0-0.4-0.248-0.4-0.552 0-0.303-6.219-6.738-13.82-14.3-30.824-30.663-28.98-28.74-28.98-30.212 0-0.735 0.18-1.336 0.4-1.336s0.4-0.439 0.4-0.976 0.18-1.088 0.4-1.224 0.4-1.126 0.4-2.2 0.18-2.064 0.4-2.2 0.4-0.946 0.4-1.8-0.18-1.664-0.4-1.8-0.4-1.227-0.4-2.424-0.18-2.176-0.4-2.176-0.4-0.349-0.4-0.776-0.18-0.888-0.4-1.024-0.4-0.687-0.4-1.224-0.15-0.976-0.332-0.976c-0.183 0-0.588-0.495-0.9-1.1-0.625-1.21-5.006-5.7-5.562-5.7-0.192 0-0.587-0.225-0.877-0.5-0.734-0.694-3.893-2.3-4.524-2.3-0.93 0-1.005-1.092-1.005-14.554v-13.289l-1.191-1.879c-0.655-1.033-1.465-1.878-1.8-1.878s-0.609-0.18-0.609-0.4c0-0.557-4.03-0.457-4.976 0.124m5.376 42.676c0 0.22 0.421 0.4 0.936 0.4 1.112 0 4.214 2.848 5.011 4.6 0.301 0.66 0.705 1.513 0.9 1.895 0.484 0.952 0.447 4.705-0.047 4.705-0.22 0-0.4 0.492-0.4 1.093 0 1.714-4.763 6.107-6.621 6.107-0.758 0-1.379 0.18-1.379 0.4s-0.439 0.4-0.976 0.4-1.088-0.18-1.224-0.4-0.777-0.4-1.424-0.4-1.176-0.18-1.176-0.4-0.275-0.4-0.611-0.4c-0.793 0-4.189-3.396-4.189-4.189 0-0.336-0.18-0.611-0.4-0.611s-0.4-0.349-0.4-0.776-0.18-0.888-0.4-1.024c-0.681-0.421-0.441-3.303 0.4-4.8 0.44-0.783 0.8-1.649 0.8-1.924 0-0.71 2.503-3.196 3.858-3.832 0.628-0.295 1.412-0.685 1.742-0.867 0.865-0.476 5.6-0.456 5.6 0.023m-96.8 8.805c-0.33 0.21-1.005 0.386-1.5 0.389s-0.9 0.186-0.9 0.406-0.262 0.4-0.583 0.4c-0.777 0-2.617 3.192-2.617 4.541 0 1.366 0.657 2.528 2.35 4.159l1.351 1.3h7.576 7.576l1.383-1.305c2.504-2.362 2.079-8.695-0.583-8.695-0.249 0-0.453-0.156-0.453-0.348 0-0.836-12.407-1.609-13.6-0.847m176.94 0.095c-0.102 0.165-0.607 0.3-1.122 0.3-0.541 0-1.543 0.607-2.376 1.44s-1.44 1.835-1.44 2.376c0 0.515-0.176 1.046-0.392 1.179-0.233 0.144-0.252 0.518-0.046 0.924 0.189 0.374 0.59 1.221 0.889 1.881 1.306 2.881 1.707 2.999 10.209 3h7.66l1.44-1.44c3.177-3.177 1.383-8.795-3.047-9.543-2.347-0.396-11.546-0.488-11.775-0.117m-86.938 85.016-1.4 1.462v7.65 7.651l1.46 1.461c0.803 0.803 1.66 1.46 1.905 1.46s0.803 0.223 1.24 0.496c0.633 0.395 0.957 0.395 1.59 0 0.437-0.273 1.067-0.496 1.4-0.496s0.605-0.159 0.605-0.353c0-0.195 0.346-0.444 0.769-0.555 3.504-0.916 3.562-16.375 0.072-19.392-1.838-1.588-5.838-1.265-7.641 0.616" fill="#fff"/>
  <path d="m159.9 55.432c-0.393 0.393-4.744 1.03-8.902 1.304-2.57 0.17-4.487 0.514-5.361 0.964-0.798 0.41-2.249 0.7-3.506 0.7-1.179 0-2.456 0.173-2.838 0.384s-2 0.587-3.595 0.836-2.9 0.591-2.9 0.761c0 0.171-1.085 0.54-2.412 0.821-1.326 0.282-2.507 0.667-2.623 0.855-0.117 0.189-0.706 0.343-1.309 0.343s-1.267 0.16-1.476 0.355-1.636 0.664-3.172 1.042c-1.536 0.377-3.151 0.938-3.589 1.245s-1.117 0.558-1.508 0.558-0.711 0.151-0.711 0.336-0.765 0.576-1.7 0.87c-0.935 0.293-2.15 0.744-2.7 1.002-1.54 0.723-4.489 2.065-5.6 2.55-0.55 0.24-1.27 0.589-1.6 0.776-1.736 0.983-2.459 1.372-5.357 2.884-3.852 2.009-4.784 2.523-5.043 2.782-0.11 0.11-0.605 0.425-1.1 0.7l-1.8 1c-0.495 0.275-0.99 0.606-1.1 0.736s-2.63 1.871-5.6 3.868c-2.97 1.998-5.879 4.051-6.464 4.564s-1.843 1.562-2.794 2.332c-4.794 3.878-7.423 6.275-12.93 11.787-3.307 3.31-7.181 7.457-8.611 9.215-3.563 4.385-3.677 4.524-4.732 5.732-0.512 0.586-2.21 2.953-3.772 5.26-1.563 2.307-3.169 4.546-3.569 4.976-0.4 0.429-0.728 1.002-0.728 1.272s-0.141 0.551-0.313 0.625c-0.398 0.169-1.731 2.409-4.008 6.733-0.985 1.87-2.417 4.45-3.184 5.733-1.322 2.214-4.095 8.436-4.095 9.189 0 0.193-0.36 0.809-0.8 1.369-0.44 0.559-0.8 1.308-0.799 1.663s-0.347 1.366-0.772 2.246c-1.305 2.698-2.429 5.859-2.429 6.83 0 0.507-0.162 1.023-0.36 1.145s-0.586 1.168-0.862 2.324c-0.276 1.155-0.636 2.371-0.801 2.701-0.164 0.33-0.514 1.41-0.777 2.4s-0.618 2.077-0.79 2.416-0.446 1.779-0.61 3.2c-0.165 1.421-0.487 3.034-0.718 3.584-0.23 0.55-0.548 2.17-0.707 3.6s-0.505 3.32-0.77 4.2c-0.888 2.949-2.038 26.038-1.323 26.565 0.176 0.129 0.562 0.706 0.858 1.282 1.125 2.188 5.59 3.487 7.743 2.253 1.357-0.778 2.717-2.203 2.717-2.848 0-0.322 0.163-0.645 0.363-0.719 0.579-0.212 0.896-2.838 1.247-10.333 0.18-3.85 0.517-7.99 0.749-9.2 0.231-1.21 0.532-3.55 0.668-5.2 0.135-1.65 0.534-3.63 0.884-4.4 0.351-0.77 0.716-2.48 0.811-3.8s0.301-2.58 0.458-2.8 0.515-1.48 0.795-2.8 0.658-2.76 0.841-3.2c0.675-1.628 1.954-5.635 2.141-6.709 0.106-0.61 0.474-1.672 0.818-2.361s0.625-1.49 0.625-1.779c0-0.29 0.36-1.168 0.8-1.951s0.8-1.644 0.799-1.912c-1e-3 -0.454 0.684-1.991 2.47-5.542 0.402-0.8 0.731-1.668 0.731-1.929s0.27-0.744 0.599-1.074c0.33-0.329 0.718-1.081 0.862-1.671s0.389-1.162 0.544-1.272 1.129-1.82 2.166-3.8c3.134-5.988 7.961-13.489 11.601-18.03 0.896-1.117 2.078-2.625 2.628-3.353 0.55-0.727 1.535-1.973 2.189-2.77 1.814-2.207 14.628-14.93 16.17-16.055 0.748-0.546 1.846-1.442 2.441-1.992s1.68-1.45 2.412-2 1.794-1.373 2.359-1.829c0.566-0.456 2.649-1.914 4.629-3.24s4.474-3.003 5.541-3.727c1.795-1.217 7.357-4.306 10.659-5.92 0.77-0.376 1.46-0.819 1.533-0.984 0.074-0.165 0.332-0.3 0.574-0.3 0.443 0 2.773-1.007 5.631-2.433 0.846-0.422 1.836-0.771 2.2-0.776s1.112-0.361 1.662-0.791 1.322-0.786 1.716-0.791 1.422-0.369 2.284-0.809 2.115-0.8 2.784-0.8 1.216-0.136 1.216-0.303c0-0.362 2.862-1.297 3.97-1.297 0.431 0 0.875-0.149 0.988-0.332 0.112-0.182 1.211-0.573 2.442-0.868s2.33-0.686 2.442-0.868c0.113-0.183 0.732-0.332 1.376-0.332 1.344 0 4.652-0.727 5.677-1.247 0.382-0.194 1.282-0.359 2-0.367s2.385-0.306 3.705-0.661c1.32-0.356 4.47-0.772 7-0.925 2.53-0.152 6.31-0.527 8.4-0.833 4.447-0.651 13.714-0.656 18-9e-3 1.65 0.249 4.8 0.6 7 0.781 2.2 0.182 4.9 0.627 6 0.991s2.999 0.663 4.22 0.666c1.221 2e-3 2.391 0.155 2.6 0.34 0.209 0.184 1.46 0.563 2.78 0.841 1.32 0.279 2.76 0.661 3.2 0.849s1.929 0.554 3.31 0.812c1.38 0.259 2.606 0.626 2.723 0.816 0.118 0.19 0.572 0.346 1.01 0.346s1.541 0.36 2.451 0.8c0.911 0.44 2.068 0.8 2.571 0.8 0.504 0 1.505 0.359 2.225 0.799 0.721 0.439 1.67 0.798 2.11 0.798 0.44 1e-3 1.561 0.369 2.491 0.819s2.46 1.165 3.4 1.589c9.811 4.422 15.91 7.717 22.206 11.995l5.592 3.8-3.645 0.255c-2.004 0.141-7.487 0.276-12.184 0.3-9.565 0.05-10.364 0.229-12.474 2.788-2.506 3.041-1.16 7.854 2.64 9.442 2.163 0.904 49.094 1.06 49.991 0.166 1.411-1.404 1.036-47.438-0.409-50.252-0.902-1.758-3.788-3.699-5.5-3.699-1.402 0-3.499 0.778-3.505 1.3-2e-3 0.165-0.261 0.3-0.576 0.3s-0.687 0.36-0.827 0.8-0.393 0.8-0.563 0.8c-1.044 0-1.237 2.559-1.237 16.438v14.4l-1.7-1.319c-0.935-0.726-1.76-1.454-1.833-1.619-0.074-0.165-0.389-0.3-0.7-0.3-0.312 0-0.567-0.15-0.567-0.332 0-0.183-0.495-0.588-1.1-0.9s-1.19-0.671-1.3-0.799c-0.335-0.389-8.498-5.825-10.1-6.726-0.825-0.464-2.105-1.186-2.845-1.605-0.74-0.42-1.775-1.005-2.3-1.3-0.525-0.296-1.045-0.641-1.155-0.768-0.296-0.34-9.774-4.872-12.918-6.177-1.495-0.621-2.811-1.278-2.924-1.461-0.113-0.182-0.662-0.332-1.22-0.332s-1.492-0.336-2.076-0.746c-0.584-0.411-1.602-0.837-2.262-0.948-1.18-0.197-4.605-1.323-5.82-1.912-0.341-0.165-1.691-0.517-3-0.782-1.309-0.264-2.693-0.645-3.075-0.846-0.382-0.202-1.089-0.366-1.571-0.366-0.925 0-3.259-0.658-4.429-1.249-0.382-0.193-1.831-0.351-3.22-0.351s-2.699-0.174-2.912-0.387c-0.212-0.212-0.968-0.43-1.68-0.485-0.711-0.054-1.293-0.24-1.293-0.413s-1.764-0.315-3.92-0.315-4.091-0.165-4.3-0.368c-0.762-0.737-30.388-1.691-31.078-1m161.74 157.42c-6.551 3.841-3.161 12.924 4.368 11.703 4.033-0.655 6.283-6.119 3.932-9.549-1.986-2.899-5.481-3.806-8.3-2.154m-300.68 9.515c-2.589 1.123-5.481 8.035-3.362 8.035 0.22 0 0.4 0.186 0.4 0.413 0 0.851 2.661 3.023 4.304 3.513 5.558 1.658 9.775-5.841 5.796-10.306-1.595-1.79-5.004-2.58-7.138-1.655m299.12 5.9c-3.722 1.835-4.437 7.466-1.302 10.259 4.977 4.434 11.802 0.44 10.496-6.143-0.778-3.927-5.389-5.991-9.194-4.116m-295.28 8.84c-1.69 0.298-4.405 2.42-4.405 3.443 0 0.333-0.18 0.716-0.4 0.852-0.71 0.439-0.438 3.654 0.45 5.317 2.727 5.109 9.617 4.064 11.931-1.809 1.429-3.627-3.35-8.549-7.576-7.803m291.29 7.195c-3.679 3.297-2.49 10.9 1.704 10.9 0.462 0 1.05 0.211 1.308 0.469 0.359 0.359 0.711 0.359 1.499 0 0.566-0.258 1.395-0.469 1.842-0.469s1.493-0.687 2.325-1.528c5.694-5.751-2.656-14.768-8.678-9.372m-287.1 7.7c-0.136 0.22-0.601 0.4-1.034 0.4-2.291 0-4.973 4.416-4.49 7.394 0.461 2.838 5.979 6.911 7.416 5.474 0.257-0.257 0.71-0.468 1.005-0.468 1.259 0 3.794-2.73 4.405-4.744 0.791-2.611-0.917-5.934-3.702-7.203-0.66-0.3-1.513-0.705-1.895-0.9-0.904-0.46-1.4-0.446-1.705 0.047m283.76 6.195c-6.099 3.177-4.031 12.224 2.818 12.327 5.191 0.079 8.455-6.272 5.233-10.181-2.379-2.886-5.191-3.636-8.051-2.146m-280.16 9.027c-5.007 3.184-4.72 9.486 0.545 11.952 2.562 1.2 4.607 0.695 6.947-1.717 4.744-4.888-1.813-13.847-7.492-10.235m273.39 5.678c-1.884 1.276-2.725 2.93-2.76 5.426-0.115 8.351 11.652 8.863 12.637 0.55 0.607-5.13-5.589-8.879-9.877-5.976m-266.59 8.386c-4.179 2.413-4.52 8.272-0.632 10.845 6.898 4.565 14.044-5.036 7.466-10.031-1.857-1.41-5.127-1.799-6.834-0.814m259.73 4.614c-0.073 0.165-0.808 0.804-1.633 1.42-1.002 0.749-1.5 1.438-1.5 2.077 0 0.526-0.18 1.067-0.4 1.203s-0.4 0.766-0.4 1.4 0.18 1.264 0.4 1.4 0.4 0.617 0.4 1.07c0 0.971 2.649 3.53 3.655 3.53 0.384 0 0.809 0.18 0.945 0.4s0.676 0.4 1.2 0.4 1.064-0.18 1.2-0.4 0.615-0.4 1.064-0.4c0.838 0 2.946-1.925 3.836-3.503 0.741-1.313 0.628-4.33-0.2-5.353-2.369-2.925-3.428-3.544-6.071-3.544-1.299 0-2.422 0.135-2.496 0.3m-249.53 8.373c-3.422 0.549-5.732 4.368-4.763 7.875 0.358 1.298 1.581 3.052 2.127 3.052 0.148 0 0.656 0.36 1.128 0.8 2.801 2.61 8.659-0.526 9.39-5.026 0.412-2.543-2.498-6.572-4.749-6.574-0.587 0-1.307-0.065-1.6-0.144s-0.983-0.071-1.533 0.017m240.49 4.974c-3.082 1.526-4.518 5.368-3.082 8.246 2.599 5.212 9.165 5.224 11.832 0.023 2.729-5.323-3.262-10.985-8.75-8.269m-232.49 7.609c-5.942 3.621-3.653 11.944 3.285 11.944 3.85 0 5.884-2.123 5.902-6.162 0.025-5.404-4.812-8.448-9.187-5.782m221.35 4.675c-5.332 3.884-1.888 12.437 4.655 11.559 1.676-0.225 3.664-1.524 4.662-3.047 3.752-5.726-3.742-12.573-9.317-8.512m-210.14 6.317c-3.791 2.202-4.746 4.883-3.016 8.469 2.384 4.941 8.055 5.272 11.291 0.659 3.69-5.262-2.733-12.347-8.275-9.128m200.01 3.656c-6.219 3.086-4.282 12.096 2.602 12.096 2.319 0 2.559-0.093 4.316-1.672l1.861-1.672v-2.708c0-4.784-4.741-8.048-8.779-6.044m-188.51 6.622c-4.226 2.85-3.729 11.074 0.668 11.074 0.316 0 0.685 0.18 0.821 0.4 0.306 0.495 2.367 0.524 3.305 0.047 0.382-0.195 1.216-0.599 1.852-0.898 4.11-1.935 3.836-9.104-0.412-10.771-0.74-0.29-1.345-0.674-1.345-0.853 0-0.84-3.101-0.206-4.889 1.001m177.29 2.517c-2.452 0.881-4.399 2.577-4.4 3.833 0 0.372-0.18 0.788-0.4 0.924-1.544 0.954 0.522 5.726 3.04 7.021 1.742 0.895 5.211 1.17 5.751 0.455 0.115-0.152 0.704-0.532 1.309-0.844s1.104-0.762 1.109-1c5e-3 -0.237 0.361-0.882 0.791-1.432 2.898-3.705-2.641-10.595-7.2-8.957m-161.97 5.253c-1.55 0.284-3.793 1.895-4.383 3.147-0.299 0.636-0.703 1.47-0.898 1.852-0.475 0.933-0.448 2.599 0.047 2.905 0.22 0.136 0.4 0.525 0.4 0.864 0 1.884 5.235 4.806 6.828 3.811 0.419-0.261 1.042-0.475 1.385-0.475 0.7 0 2.587-1.737 2.587-2.382 0-0.23 0.135-0.419 0.3-0.421s0.525-0.488 0.8-1.08c1.693-3.646-2.896-8.986-7.066-8.221m148.17 2.823c-3.79 1.33-5.605 5.743-3.809 9.263 2.89 5.666 11.439 4.034 12.295-2.347 0.548-4.085-4.599-8.279-8.486-6.916m-135.1 4.599c-5.61 1.351-6.18 9.859-0.813 12.136 4.014 1.703 8.913-1.311 8.913-5.484 0-4.551-3.815-7.684-8.1-6.652m122.28 2.122c-0.206 0.049-0.862 0.197-1.458 0.328s-1.498 0.642-2.004 1.135c-3.287 3.199-3.128 7.505 0.371 10.072 6.301 4.622 13.789-3.533 8.606-9.373-1.414-1.594-3.87-2.557-5.515-2.162m-109.58 4.239c-4.775 3.588-3.765 10.631 1.701 11.855 7.2 1.613 11.463-7.206 5.586-11.555-1.881-1.392-5.629-1.546-7.287-0.3m92.8 1.469c-5.395 3.347-4.937 9.544 0.896 12.133 4.556 2.023 9.695-3.318 7.95-8.262-1.344-3.804-5.807-5.758-8.846-3.871m-77.142 2.507c-5.839 3.394-4.034 12.345 2.49 12.345 3.984 0 6.452-2.463 6.452-6.44 0-1.573-0.172-2.76-0.4-2.76-0.22 0-0.4-0.178-0.4-0.395 0-2.235-5.71-4.163-8.142-2.75m61.438 1.543c-4.902 2.989-3.89 10.156 1.696 11.999 4.511 1.489 9.152-3.405 7.842-8.271-1.037-3.85-6.095-5.827-9.538-3.728m-47.715 2.783c-3.665 3.665-2.17 9.075 2.882 10.436 4.456 1.2 7.955-2.339 7.607-7.693-0.295-4.534-6.956-6.276-10.489-2.743m33.819-1.309c-0.44 0.121-0.89 0.339-1 0.484-0.11 0.144-0.695 0.577-1.3 0.962s-1.1 0.966-1.1 1.291-0.151 0.591-0.336 0.591c-1.761 0-1.272 4.689 0.724 6.941 4.621 5.212 14.045-0.045 10.841-6.046-0.204-0.382-0.461-0.991-0.571-1.353-0.584-1.916-4.745-3.561-7.258-2.87m-15.2 0.528c-0.136 0.22-0.508 0.4-0.827 0.4-3.555 0-5.253 6.43-2.573 9.741 5.075 6.27 14.712-1.088 9.813-7.492-1.643-2.149-5.689-3.82-6.413-2.649" fill="#5682a8"/>
  <path d="m163.6 98.4c-0.751 0.486 1.284 0.486 2.8 0 0.868-0.278 0.788-0.325-0.6-0.354-0.88-0.019-1.87 0.141-2.2 0.354m17.2 0c1.44 0.461 4.073 0.461 3 0-0.44-0.189-1.52-0.338-2.4-0.332-1.375 0.01-1.459 0.057-0.6 0.332m-25.6 0.8c0 0.458 0.57 0.458 2 0 0.892-0.286 0.839-0.325-0.5-0.36-0.825-0.022-1.5 0.14-1.5 0.36m35.4 0c1.111 0.478 1.895 0.478 1.6 0-0.136-0.22-0.732-0.387-1.324-0.372-0.961 0.025-0.99 0.065-0.276 0.372m-38.6 0.8c-0.787 0.509 0.616 0.509 1.8 0 0.733-0.315 0.716-0.346-0.2-0.366-0.55-0.012-1.27 0.153-1.6 0.366m41.6 0c0.79 0.511 2.116 0.511 1.8 0-0.136-0.22-0.732-0.397-1.324-0.394-0.842 5e-3 -0.945 0.091-0.476 0.394m-45.8 0.8c-0.292 0.473 0.099 0.473 1.2 0 0.771-0.331 0.769-0.345-0.076-0.372-0.482-0.015-0.988 0.152-1.124 0.372m49.833-0.256c0.472 0.406 2.41 0.649 2.177 0.272-0.142-0.229-0.727-0.416-1.3-0.416-0.574 0-0.968 0.065-0.877 0.144m-53.233 1.056c-0.497 0.321-0.462 0.388 0.2 0.388 0.44 0 1.07-0.175 1.4-0.388 0.497-0.321 0.462-0.388-0.2-0.388-0.44 0-1.07 0.175-1.4 0.388m57 0c1.111 0.478 1.895 0.478 1.6 0-0.136-0.22-0.732-0.387-1.324-0.372-0.961 0.025-0.99 0.065-0.276 0.372m3 0.568c0 0.092 0.945 0.458 2.1 0.814 1.155 0.355 3.233 1.022 4.617 1.482 1.384 0.459 2.603 0.75 2.708 0.644 0.163-0.163-1.925-0.905-7.653-2.719-1.342-0.425-1.772-0.478-1.772-0.221m-65.8 1.032c-0.733 0.315-0.716 0.346 0.2 0.366 0.55 0.012 1.27-0.153 1.6-0.366 0.787-0.509-0.616-0.509-1.8 0m-2.8 0.897c-0.66 0.227-1.451 0.482-1.757 0.567-0.307 0.085-0.454 0.259-0.327 0.385 0.269 0.269 3.106-0.581 3.664-1.097 0.478-0.443 7e-3 -0.4-1.58 0.145m-6.2 2.503c-0.55 0.314-1.22 0.578-1.489 0.586-1.34 0.039-12.071 5.824-17.193 9.269-2.244 1.51-4.188 2.745-4.318 2.745s-0.686 0.45-1.236 1-1.127 1-1.282 1-1.07 0.72-2.033 1.6c-2.504 2.289-1.672 1.975 1.472-0.556 2.93-2.358 9.744-7.051 12.279-8.456 4.599-2.549 10.327-5.384 12.9-6.386 1.595-0.62 2.9-1.19 2.9-1.265 0-0.316-1.071-0.068-2 0.463m88 0.244c5.272 2.356 5.743 2.583 8.155 3.924 0.685 0.38 2.415 1.302 3.845 2.048 2.369 1.235 4.581 2.623 10.753 6.746 3.208 2.144 10.475 8.492 15.4 13.453 2.393 2.412 3.888 3.755 3.321 2.985-1.198-1.628-8.705-8.977-11.849-11.6-1.187-0.99-2.353-1.99-2.591-2.222-0.568-0.552-5.138-3.751-6.845-4.791-0.734-0.448-1.676-1.123-2.093-1.5-0.418-0.378-0.955-0.687-1.194-0.687-0.24 0-0.495-0.152-0.569-0.337-0.073-0.186-2.023-1.311-4.333-2.5-2.31-1.19-4.29-2.269-4.4-2.398-0.193-0.227-3.802-1.953-6.914-3.307-0.832-0.362-1.732-0.649-2-0.638-0.267 0.011 0.324 0.382 1.314 0.824m-119.05 18.85c-1.671 1.293-12.554 12.335-12.554 12.736 0 0.187 2.7-2.399 5.999-5.745 3.3-3.347 6.583-6.49 7.295-6.985s1.097-0.9 0.854-0.9c-0.242 0-0.959 0.402-1.594 0.894m161.9 12.601c1.272 1.612 3.292 3.696 3.439 3.549 0.087-0.088-0.257-0.586-0.766-1.108-0.508-0.522-1.282-1.442-1.719-2.043s-0.954-1.093-1.149-1.093-0.107 0.313 0.195 0.695m-175.46 1.42c-2.646 3.139-7.478 9.822-9.426 13.037-1.52 2.507-5.964 11.025-5.958 11.417 8e-3 0.444 0.963-1.215 4.473-7.769 1.119-2.09 2.774-4.858 3.678-6.152 0.903-1.294 2.313-3.348 3.134-4.565 1.38-2.047 2.339-3.254 4.437-5.583 0.446-0.495 0.644-0.893 0.441-0.885-0.204 9e-3 -0.554 0.234-0.779 0.5m179.46 3.38c1.19 1.506 1.949 2.238 1.949 1.88-1e-3 -0.475-1.791-2.575-2.196-2.575-0.166 0-0.055 0.313 0.247 0.695m2.594 3.517c0.365 0.557 0.741 0.935 0.837 0.839 0.237-0.237-0.798-1.851-1.187-1.851-0.173 0-0.015 0.456 0.35 1.012m2.814 4.193c1.025 1.542 1.94 2.73 2.031 2.638 0.226-0.225-3.211-5.424-3.593-5.435-0.167-4e-3 0.536 1.254 1.562 2.797m2.76 4.432c0.352 0.681 0.715 1.163 0.806 1.071 0.244-0.243-0.77-2.301-1.135-2.305-0.171-2e-3 -0.023 0.554 0.329 1.234m0.99 1.653c-5e-3 0.16 0.35 0.88 0.79 1.6 0.439 0.721 0.795 1.04 0.791 0.71-8e-3 -0.594-1.564-2.868-1.581-2.31m2.909 5.71c0.754 1.54 1.471 3.07 1.594 3.4 0.181 0.483 0.231 0.465 0.256-0.088 0.018-0.378-0.328-1.329-0.768-2.112s-0.8-1.606-0.8-1.829c0-0.222-0.372-0.802-0.826-1.288-0.609-0.652-0.467-0.149 0.544 1.917m-207.82 3.441c-0.385 0.673-0.693 1.524-0.684 1.891 9e-3 0.368 0.371-0.044 0.806-0.915 0.956-1.917 0.86-2.691-0.122-0.976m210.43 2.341c0.368 0.869 0.73 1.409 0.803 1.199 0.167-0.475-0.829-2.781-1.201-2.781-0.15 0 0.029 0.712 0.398 1.582m-212.55 2.661c-0.133 0.416-0.414 1.185-0.625 1.709-0.656 1.634-0.115 1.34 0.648-0.352 0.399-0.884 0.611-1.722 0.472-1.861-0.139-0.14-0.362 0.087-0.495 0.504m214.25 1.233c0.09 1.039 0.716 1.92 0.744 1.048 0.015-0.482-0.152-0.988-0.372-1.124s-0.387-0.102-0.372 0.076m-215.83 3.324c-0.152 0.691-0.186 1.347-0.076 1.457s0.324-0.366 0.476-1.057 0.186-1.347 0.076-1.457-0.324 0.366-0.476 1.057m216.61-1.167c0.025 0.718 1.554 4.786 1.566 4.167 0.017-0.876-0.861-3.622-1.298-4.059-0.151-0.151-0.271-0.199-0.268-0.108m-218.21 6.767c-0.15 0.473-0.183 0.95-0.073 1.06s0.323-0.187 0.473-0.66 0.183-0.95 0.073-1.06-0.323 0.187-0.473 0.66m220.6 0.768c0 0.275 0.262 1.61 0.583 2.966 1.602 6.771 1.988 8.672 2.247 11.066l0.281 2.6-0.109-2.8c-0.059-1.54-0.312-3.61-0.562-4.6-0.249-0.99-0.62-2.7-0.824-3.8-0.859-4.64-1.616-7.184-1.616-5.432m-221.59 1.732c5e-3 0.728 0.08 0.785 0.394 0.3 0.501-0.776 0.501-1.2 0-1.2-0.22 0-0.397 0.405-0.394 0.9m-0.533 3.653c-0.15 0.392-0.262 1.013-0.248 1.38 0.017 0.442 0.156 0.341 0.412-0.299 0.212-0.531 0.324-1.152 0.248-1.38-0.076-0.227-0.261-0.093-0.412 0.299m-1.045 3.947c0.024 1.089 0.084 1.17 0.372 0.5 0.475-1.105 0.475-1.8 0-1.8-0.22 0-0.387 0.585-0.372 1.3m-0.536 3.342c-0.161 0.16-0.276 0.936-0.256 1.725l0.036 1.433 0.385-1.337c0.406-1.411 0.325-2.311-0.165-1.821m226.91 4.591c2e-3 0.312 0.191 2.187 0.419 4.167 0.542 4.695 0.55 14.448 0.016 18-0.232 1.54-0.405 3.43-0.383 4.2 0.032 1.169 0.089 1.07 0.344-0.6 1.37-8.975 1.467-14.363 0.4-22.4-0.433-3.261-0.804-4.832-0.796-3.367m-227.75 0.982c-0.137 0.358-0.224 2.121-0.194 3.918l0.055 3.267 0.335-3.776c0.333-3.754 0.282-4.652-0.196-3.409m-0.243 21.018c3e-3 1.852 0.181 3.637 0.396 3.967 0.258 0.398 0.304-0.679 0.138-3.2-0.317-4.798-0.542-5.12-0.534-0.767m0.84 7.167c-0.019 0.77 0.141 1.67 0.354 2 0.487 0.754 0.487-0.878 0-2.4-0.293-0.916-0.323-0.883-0.354 0.4m226.83 0.311c-0.04 0.94-0.417 3.1-0.839 4.8-0.915 3.689-1.347 6.914-0.812 6.068 0.202-0.318 0.37-1.123 0.373-1.787s0.375-2.538 0.825-4.165c0.477-1.72 0.758-3.724 0.672-4.792l-0.147-1.835-0.072 1.711m-226.03 5.165c-0.022 0.702 0.14 1.388 0.36 1.524 0.46 0.284 0.46-0.364 0-1.8-0.306-0.955-0.322-0.943-0.36 0.276m0.772 2.924c0 0.33 0.175 0.87 0.388 1.2 0.345 0.533 0.388 0.533 0.388 0 0-0.33-0.175-0.87-0.388-1.2-0.345-0.533-0.388-0.533-0.388 0m222.61 4.729c-0.164 0.73-0.2 1.427-0.08 1.547 0.301 0.301 0.778-1.72 0.557-2.359-0.098-0.284-0.313 0.081-0.477 0.812m-221.82-0.029c-3e-3 0.495 0.174 0.9 0.394 0.9 0.501 0 0.501-0.424 0-1.2-0.314-0.485-0.389-0.428-0.394 0.3m0.806 1.9c0 0.44 0.175 1.07 0.388 1.4 0.321 0.497 0.388 0.462 0.388-0.2 0-0.44-0.175-1.07-0.388-1.4-0.321-0.497-0.388-0.462-0.388 0.2m219.88 2.146c-0.796 2.462-0.856 3.001-0.294 2.654 0.22-0.136 0.4-0.741 0.4-1.344s0.197-1.293 0.438-1.534c0.24-0.24 0.372-0.771 0.293-1.18-0.087-0.451-0.416 0.1-0.837 1.404m-218.07 3.736c0.211 1.52 2.111 6.122 2.153 5.214 0.013-0.278-0.316-1.268-0.73-2.2-0.414-0.933-0.95-2.326-1.191-3.096l-0.438-1.4 0.206 1.482m216.22 2.038c-0.025 0.396-0.321 1.251-0.656 1.9-0.336 0.649-0.47 1.18-0.298 1.18 0.499 0 1.387-2.318 1.185-3.093-0.173-0.665-0.187-0.664-0.231 0.013m-1.738 4.263c-0.277 0.984-0.111 1.554 0.324 1.118 0.128-0.128 0.169-0.653 0.092-1.167l-0.14-0.934-0.276 0.983m-2.691 6.184c-0.761 1.558-1.459 2.993-1.552 3.189-0.093 0.195-2e-3 0.252 0.201 0.127 0.525-0.325 3.032-5.402 2.869-5.81-0.074-0.187-0.757 0.936-1.518 2.494m-207.22-0.967c0 1.36 10.215 18.675 11.288 19.133 0.172 0.074 0.312 0.313 0.312 0.532 0 0.309 3.315 4.474 4.405 5.535 0.114 0.11 1.014 1.186 2 2.392 2.307 2.818 7.593 8.102 10.403 10.401 1.206 0.986 2.462 2.074 2.792 2.419 0.33 0.344 1.23 1.059 2 1.588s1.67 1.257 2 1.618c0.638 0.698 2.4 1.74 2.4 1.419 0-0.104-1.125-1.047-2.5-2.095s-2.59-2.006-2.7-2.129-1.19-1.017-2.4-1.986c-8.003-6.411-19.501-20.161-24.608-29.427-0.546-0.99-1.473-2.655-2.061-3.7-0.587-1.045-1.577-2.878-2.2-4.073-0.622-1.195-1.131-1.928-1.131-1.627m204.66 6.012c-0.386 0.654-0.556 1.187-0.379 1.185 0.329-3e-3 1.411-2.042 1.198-2.256-0.064-0.064-0.433 0.418-0.819 1.071m-1.6 2.801c-0.404 0.683-0.631 1.346-0.504 1.472 0.126 0.126 0.355-0.111 0.509-0.528 0.155-0.416 0.451-0.871 0.659-1.011 0.207-0.139 0.308-0.461 0.224-0.715-0.085-0.253-0.484 0.098-0.888 0.782m-1.337 2.477c-0.778 1.005-0.959 1.51-0.543 1.51 0.233 0 0.424-0.255 0.424-0.567 0-0.311 0.225-0.647 0.5-0.745s0.391-0.297 0.257-0.443c-0.134-0.145-0.421-0.035-0.638 0.245m-1.6 2.4c-0.778 1.005-0.959 1.51-0.543 1.51 0.233 0 0.424-0.255 0.424-0.567 0-0.311 0.225-0.647 0.5-0.745s0.391-0.297 0.257-0.443c-0.134-0.145-0.421-0.035-0.638 0.245m-4.001 5.727c-0.882 1.384-0.876 1.837 0.011 0.868 0.746-0.817 1.508-2.287 1.174-2.268-0.166 9e-3 -0.7 0.639-1.185 1.4m-1.916 2.581c-0.399 0.441-0.595 0.802-0.435 0.802 0.421 0 1.561-1.205 1.345-1.421-0.101-0.101-0.51 0.177-0.91 0.619m-3.002 3.587c0 1.259-14.251 14.671-19.523 18.373-0.728 0.511-1.234 1.019-1.125 1.128s1.168-0.586 2.353-1.544c1.186-0.958 2.745-2.188 3.465-2.732 4.792-3.624 16.524-15.61 15.279-15.61-0.247 0-0.449 0.173-0.449 0.385m-153.2 19.938c0 0.188 0.495 0.597 1.1 0.909 0.605 0.313 1.449 0.883 1.875 1.268 0.427 0.385 1.012 0.7 1.3 0.7 0.289 0 0.525 0.15 0.525 0.332 0 0.183 0.495 0.588 1.1 0.9s1.19 0.665 1.3 0.786 1.19 0.713 2.4 1.317c2.531 1.262 4.295 2.242 5.75 3.195 0.562 0.369 1.319 0.67 1.681 0.67 0.363 0 1.315 0.331 2.115 0.735 1.469 0.742 3.47 1.667 6.965 3.217 1.051 0.467 2.196 0.848 2.546 0.848 0.664 0 3.746 0.933 6.143 1.86 0.77 0.298 2.84 0.826 4.6 1.175 7.936 1.571 11.272 2.149 12.2 2.115 0.905-0.033-1.542-0.573-7-1.544-2.866-0.511-8.593-1.845-10-2.331-0.66-0.228-2.55-0.809-4.2-1.292-3.514-1.028-4.477-1.409-10.911-4.319-1.051-0.475-2.079-0.864-2.286-0.864-0.206 0-2.089-0.99-4.185-2.2s-3.956-2.2-4.134-2.2-1.757-0.945-3.509-2.1c-5.217-3.439-5.375-3.532-5.375-3.177m128 2.245c-4.559 3.031-11.276 6.715-15.2 8.336-0.77 0.318-2.39 0.991-3.6 1.496s-2.74 1.14-3.4 1.411c-0.66 0.272-2.55 0.887-4.2 1.366-1.65 0.48-3.72 1.122-4.6 1.426-2.055 0.71-6.309 1.631-12.6 2.726-2.75 0.479-4.56 0.933-4.022 1.009s2.068-0.072 3.4-0.328c5.588-1.076 12.077-2.492 12.822-2.798 1.496-0.616 6.214-2.012 6.798-2.012 0.319 0 1.44-0.387 2.491-0.859 2.542-1.143 4.649-2.046 7.311-3.134 2.408-0.983 2.685-1.121 6.2-3.087 1.32-0.739 3.075-1.65 3.9-2.026 0.825-0.375 1.5-0.82 1.5-0.988s0.193-0.306 0.428-0.306c0.386 0 3.883-2.219 4.372-2.774 0.11-0.125 0.695-0.482 1.3-0.794s1.1-0.717 1.1-0.9c0-0.45 0.254-0.592-4 2.236m-71.8 18.282c1.54 0.138 5.95 0.251 9.8 0.251s8.26-0.113 9.8-0.251c1.54-0.137-2.87-0.25-9.8-0.25s-11.34 0.113-9.8 0.25" fill="#aec3d5"/>
 </g>
</svg>
