<?xml version="1.0" encoding="UTF-8"?>
<!-- Created with Inkscape (http://www.inkscape.org/) -->
<svg width="100.08mm" height="111.6mm" version="1.1" viewBox="0 0 100.08 111.6" xmlns="http://www.w3.org/2000/svg" xmlns:cc="http://creativecommons.org/ns#" xmlns:dc="http://purl.org/dc/elements/1.1/" xmlns:rdf="http://www.w3.org/1999/02/22-rdf-syntax-ns#">
 <metadata>
  <rdf:RDF>
   <cc:Work rdf:about="">
    <dc:format>image/svg+xml</dc:format>
    <dc:type rdf:resource="http://purl.org/dc/dcmitype/StillImage"/>
    <dc:title/>
   </cc:Work>
  </rdf:RDF>
 </metadata>
 <g transform="translate(-48.418 31.221)">
  <g transform="matrix(.26458 0 0 .26458 15.983 74.192)">
   <path d="m303.59 23.161c-3.0416-0.19421-6.2002-0.54455-7.0191-0.77853-0.8189-0.23397-2.2546-0.64432-3.1905-0.91187-6.8147-1.9482-16.129-6.3288-21.764-10.236-6.4489-4.4714-11.598-9.096-12.572-11.291-1.1098-2.5014-0.92845-6.7397 0.36275-8.4774 1.6821-2.2637 3.4131-3.0794 6.5347-3.0794 3.2282 0 3.2495 0.0116 9.0169 4.9068 12.134 10.299 25.745 15.451 40.822 15.451 15.651 0 30.186-5.9654 42.815-17.572 4.7537-4.3689 5.5497-4.7333 9.6076-4.3978 2.6655 0.22038 4.5385 1.3967 5.5254 3.4703 0.87743 1.8435 0.91888 6.6502 0.0714 8.284-0.34051 0.6565-2.3984 2.8656-4.573 4.9091-10.03 9.4254-23.074 16.437-35.564 19.117-3.3452 0.71775-22.331 1.1003-30.073 0.60597zm-39.207-62.521c-3.1409-0.75944-6.7723-2.7038-8.3956-4.4952-4.0906-4.5142-5.7683-12.87-4.4843-22.333 1.1179-8.2385 6.5738-14.046 14.464-15.397 1.9236-0.32931 17.44-0.43196 52.086-0.34457l49.346 0.12446 2.7651 0.94727c5.0268 1.7221 8.3074 4.9365 10.288 10.08 0.889 2.3091 0.97925 3.2319 0.97487 9.9668-4e-3 6.4904-0.12449 7.8047-0.95814 10.47-1.8049 5.7699-5.6388 9.4824-11.368 11.008-3.0128 0.80236-101.39 0.77715-104.72-0.0268zm100.35-16.692c0.84786-0.84632 0.9689-1.3941 0.9689-4.3849 0-5.6305 5.7106-5.0392-48.649-5.0374-45.011 2e-3 -46.687 0.0297-47.961 0.80444-0.87321 0.53087-1.4136 1.2667-1.5952 2.172-0.66874 3.3337 0.0468 6.5853 1.5866 7.2102 0.49714 0.20175 22.004 0.32991 47.792 0.28478l46.889-0.082zm-108.71-40.243c-0.15598-0.15551-0.2836-0.90603-0.2836-1.6678 0-1.7518-2.178-10.216-3.794-14.744-3.7643-10.548-7.8163-17.851-21.799-39.289-9.9269-15.219-16.328-32.051-18.708-49.198-0.74746-5.3836-0.75315-23.084-9e-3 -28.628 1.5978-11.909 4.3245-22.611 7.9467-31.191 4.856-11.503 10.002-19.962 17.444-28.676 15.906-18.624 35.75-30.483 59.12-35.333 8.3015-1.7228 15.11-2.2488 25.949-2.005 9.8171 0.22083 13.003 0.55665 20.419 2.1521 18.939 4.0745 37.303 14.283 51.923 28.864 17.469 17.422 28.298 40.029 31.504 65.765 1.0989 8.8232 1.0029 22.315-0.2157 30.325-2.9626 19.473-8.563 33.072-21.157 51.376-11.955 17.375-19.326 32.658-22.259 46.152-0.47929 2.2051-0.87143 4.5431-0.87143 5.1955v1.1862h-16.293l0.27055-3.7111c1.0922-14.982 10.069-36.282 23.193-55.03 13.885-19.835 19.016-32.013 21.532-51.107 1.9228-14.588-0.64589-32.27-6.8696-47.29-9.8443-23.757-30.504-43.71-54.376-52.517-22.62-8.3448-48.179-6.86-69.766 4.0529-21.057 10.645-38.595 30.042-46.503 51.433-6.7726 18.319-7.9906 40.447-3.1868 57.893 3.1508 11.443 9.5829 24.676 15.813 32.534 2.2226 2.8034 8.6797 12.847 12.131 18.87 6.0229 10.509 11.207 22.895 13.273 31.712 1.0461 4.464 1.8619 9.4173 1.8704 11.357l8e-3 1.8025h-8.0117c-4.4064 0-8.1393-0.12724-8.2953-0.28275zm-11.769-112.84c-4.291-1.6075-5.4839-6.1868-4.2322-16.246 2.8755-23.107 14.424-42.584 32.317-54.505 4.4051-2.9348 10.931-6.3257 15.315-7.9582 6.5059-2.4225 17.345-4.2769 25.17-4.3062l4.973-0.0186 1.5185 1.4656c3.0006 2.896 3.2666 8.8925 0.52471 11.828-1.6074 1.7212-3.0843 2.1839-10.398 3.258-11.039 1.6211-15.154 2.7801-21.307 6.0006-6.72 3.5173-12.436 7.9762-16.892 13.176-9.8717 11.521-14.832 23.606-15.694 38.231-0.3966 6.7335-2.6433 9.4088-7.8494 9.3467-1.5447-0.0184-3.0957-0.14105-3.4466-0.27253zm-95.077-28.101c-4.2115-1.598-11.365-4.295-15.896-5.9932-5.8749-2.2017-8.591-3.4385-9.4652-4.31-1.1907-1.1872-1.2259-1.3465-1.2259-5.5485 0-4.9888 0.37946-5.8463 3.1405-7.0963 2.3094-1.0456 5.1955-1.0169 8.223 0.0818 4.4996 1.6329 22.861 8.5203 24.157 9.0616 0.70191 0.29303 2.1376 0.8803 3.1905 1.305 3.8892 1.569 5.1048 3.4408 5.1048 7.8603 0 3.6551-0.93241 5.4943-3.4291 6.7642-2.9156 1.4829-5.231 1.1264-13.8-2.1249zm311.97 2.1041c-2.4185-1.2739-3.3385-3.1321-3.3385-6.7434 0-4.3438 1.2297-6.2979 4.8921-7.7737 1.8342-0.73913 23.932-8.9975 27.986-10.459 3.0305-1.0925 5.5006-1.1158 7.8023-0.0738 1.4888 0.67404 1.8037 1.044 2.0677 2.4294 0.39764 2.0869 0.4015 7.1059 7e-3 9.1461-0.3722 1.9251-0.56764 2.0263-12.552 6.5007-4.7964 1.7908-11.462 4.2851-14.813 5.5428-6.8307 2.5638-9.336 2.8613-12.051 1.431zm-254.81-82.976c-2.3044-0.39304-4.0516-2.7232-9.9662-13.292-12.343-22.056-11.028-19.349-11.028-22.69 0-3.5904 0.94104-5.481 3.4269-6.8848 2.95-1.6659 7.314-1.1032 9.3892 1.2105 0.4977 0.55491 3.1522 5.0169 5.899 9.9155s6.5031 11.596 8.3476 14.882l3.3535 5.9756v3.1863c0 3.4442-0.75447 5.1559-2.9778 6.7558-1.0963 0.78889-4.4584 1.28-6.4444 0.94124zm230.2-0.0282c-1.5928-0.28856-3.8418-2.1644-4.5118-3.7633-0.85179-2.0325-0.75769-6.2389 0.18216-8.1425 1.0506-2.1278 14.738-26.464 16.047-28.531 1.2875-2.0334 3.786-3.3636 6.3178-3.3636 4.7879 0 7.4891 2.8648 7.4891 7.9425 0 2.6493-0.13835 2.9582-5.9392 13.264-2.1665 3.8489-5.4791 9.7654-7.3613 13.148-1.8822 3.3824-4.0061 6.7719-4.7198 7.5323-1.7843 1.901-4.1898 2.5146-7.5038 1.9143zm-118.82-33.388c-2.0091-0.71439-3.0138-1.5985-3.8767-3.4113-0.57635-1.2109-0.66822-4.0072-0.66822-20.34 0-16.617 0.0844-19.103 0.6894-20.294 1.4133-2.7826 1.5538-2.8418 6.7469-2.8418 4.3861 0 4.8191 0.0735 5.6238 0.95428 1.8211 1.9934 1.8289 2.0883 1.8289 22.154 0 15.789-0.1099 19.557-0.59768 20.492-1.7417 3.3374-5.7776 4.6988-9.7464 3.2876z" stroke-width=".42476"/>
  </g>
 </g>
</svg>
