<?xml version="1.0" encoding="UTF-8"?>
<!-- Created with Inkscape (http://www.inkscape.org/) -->
<svg width="91.602mm" height="112.27mm" version="1.1" viewBox="0 0 91.602 112.27" xmlns="http://www.w3.org/2000/svg" xmlns:cc="http://creativecommons.org/ns#" xmlns:dc="http://purl.org/dc/elements/1.1/" xmlns:rdf="http://www.w3.org/1999/02/22-rdf-syntax-ns#">
 <metadata>
  <rdf:RDF>
   <cc:Work rdf:about="">
    <dc:format>image/svg+xml</dc:format>
    <dc:type rdf:resource="http://purl.org/dc/dcmitype/StillImage"/>
    <dc:title/>
   </cc:Work>
  </rdf:RDF>
 </metadata>
 <g transform="translate(-126.15 -32.466)">
  <g transform="matrix(.26458 0 0 .26458 15.983 74.192)">
   <g transform="translate(385.05 -158.25)" stroke-width=".34028">
    <path d="m77.403 424.07c-28.035-4.4282-49.484-32.502-45.624-60.791 0.12227-53.49-0.8706-107.05 0.54917-160.5 4.4583-28.787 34.303-48.479 62.56-45.543 72.9-0.27925 145.82 0.42027 218.7-0.70277 0.11326-27.445 4.5834-57.112-9.4332-82.257-27.521-53.001-99.989-71.785-151.95-44.878-33.336 15.615-57.342 50.032-57.458 87.241-11.873 18.036-21.426-7.8237-15.282-19.555 9.4472-57.947 67.87-99.104 125.15-96.406 58.638-2.8776 118.62 40.855 125.85 100.64 1.6364 18.757 0.17687 37.662 1.4092 56.439 25.399 5.2804 47.972 28.81 45.418 55.819-0.0749 55.699 0.85615 111.46-0.49328 167.12-4.8553 27.437-33.229 47.334-60.716 43.77-79.557 1e-3 -159.14 0.51715-238.68-0.40121zm242.33-18.139c22.357 2.2083 42.297-19.945 39.191-41.974 0.85618-52.678 0.19255-105.36-0.0598-158.04-4.6315-18.587-23.261-32.051-42.491-29.167-79.298-0.64773-158.71-1.8061-237.95 0.40143-19.556 5.0561-31.069 25.627-28.786 44.926-0.05524 50.116-0.11048 100.23-0.16571 150.35 3.3295 17.825 18.794 34.388 37.876 33.548 77.452 0.7702 154.93 0.38844 232.38-0.0412z" fill="#fefefe"/>
    <path d="m85.407 409.26c-1.5923-0.1265-3.4315-0.40646-4.0871-0.62217-0.65564-0.21567-2.2649-0.59881-3.5762-0.85133-2.8678-0.55234-6.9999-2.3316-11.393-4.9055-2.3449-1.374-4.1981-2.8406-6.6964-5.2994-1.8998-1.8698-3.818-3.9539-4.2627-4.6312-0.44468-0.67738-1.4398-2.131-2.2114-3.2304-2.6194-3.7319-5.1615-10.503-5.9188-15.766-0.25661-1.7831-0.33324-27.132-0.25489-84.31 0.1058-77.207 0.14588-81.884 0.71964-83.971 2.3648-8.6004 5.8431-14.864 11.234-20.228 4.0372-4.0178 9.2383-7.6668 12.372-8.6798 0.71667-0.23168 2.026-0.78281 2.9095-1.2247 0.88357-0.44192 1.978-0.80349 2.432-0.80349 0.45403 0 2.3366-0.39543 4.1836-0.87873l3.3581-0.87873 120.06-2e-4c108.46-2e-4 120.27 0.0519 122.27 0.53898 1.2176 0.29656 3.2771 0.704 4.5765 0.90542 1.2995 0.20143 3.0849 0.73154 3.9676 1.178 0.88273 0.44649 2.3764 1.1044 3.3192 1.4619 1.5102 0.57277 3.3307 1.6536 7.9602 4.7258 0.69372 0.46038 2.6156 2.2363 4.2709 3.9465 7.2021 7.441 10.602 15.36 11.701 27.25 0.18478 2.0004 0.27262 35.622 0.21315 81.591-0.0794 61.373-0.19249 78.444-0.52583 79.378-0.23356 0.65443-0.64785 2.3297-0.92065 3.7228-0.84802 4.3307-3.413 9.915-6.6282 14.431-1.8993 2.6675-6.9794 7.8112-8.8606 8.9714-0.78131 0.48193-2.7447 1.7312-5.7901 3.6842-0.65564 0.42047-1.6519 0.8703-2.2138 0.99963-0.56198 0.12932-1.4979 0.52034-2.0798 0.86897-0.58193 0.3486-2.6141 0.9452-4.5159 1.3258-1.9018 0.38052-3.8779 0.87826-4.3914 1.1061-0.72804 0.32299-27.067 0.41553-119.63 0.42022-65.283 3e-3 -120-0.0975-121.59-0.22396zm128.06-2.0263c75.841-0.0133 108.37-0.26813 115.65-0.906 2.3378-0.20513 3.3361-0.45239 4.1436-1.0263 0.58508-0.41584 1.573-0.85775 2.1954-0.98201 3.4724-0.69318 10.455-5.3773 14.252-9.5609 3.2698-3.6023 6.101-7.5084 6.1219-8.446 5e-3 -0.21472 0.46852-1.2629 1.0305-2.3292s1.0218-2.2916 1.0218-2.7228c0-0.43121 0.42149-1.5946 0.93663-2.5853l0.93663-1.8014 0.1703-19.733c0.0937-10.853 0.12326-49.148 0.0658-85.1-0.0872-54.523-0.18267-65.606-0.57561-66.802-1.3357-4.0677-2.1871-6.3254-2.8468-7.5489-0.40177-0.74515-0.73048-1.487-0.73048-1.6486 0-0.90313-3.7239-6.2863-6.1191-8.8455-2.182-2.3315-8.4208-6.9935-9.3839-7.0123-0.19067-4e-3 -0.90512-0.38554-1.5877-0.84849-0.68255-0.46295-1.967-1.0041-2.8543-1.2026-0.8873-0.19848-2.0653-0.68217-2.6179-1.0749-0.72403-0.5146-1.8752-0.80258-4.1218-1.0312-4.7287-0.48112-72.291-0.85684-161.66-0.89901-68.858-0.0325-80.667 0.0326-83.445 0.4599-1.7796 0.27376-3.9253 0.50189-4.7683 0.50696-0.92328 6e-3 -2.2098 0.34166-3.2356 0.84537-0.93663 0.45989-1.9275 0.84094-2.2019 0.84679-0.65162 0.0139-6.0519 2.6487-6.3216 3.0843-0.1143 0.18459-0.83737 0.65621-1.6068 1.048-2.1117 1.0753-8.1844 7.1533-9.8707 9.8794-0.80092 1.2947-1.8777 2.9022-2.3928 3.5722s-0.93663 1.5992-0.93663 2.0649-0.4405 1.6303-0.97889 2.588c-0.56564 1.0061-1.0631 2.503-1.1784 3.5458-0.10972 0.99254-0.58826 2.9289-1.0634 4.303l-0.86394 2.4984-0.0481 162.16 0.84604 2.1546c0.46532 1.1851 0.95471 2.9961 1.0875 4.0245 0.13281 1.0284 0.68196 2.6945 1.2203 3.7024 0.53836 1.008 0.97884 2.1319 0.97884 2.4976 0 2.1288 8.2459 12.191 11.921 14.547 0.84297 0.54033 2.1457 1.4298 2.895 1.9766 0.7493 0.54682 1.7455 1.1097 2.2138 1.2509 0.46831 0.14119 1.2008 0.52892 1.6278 0.86164 0.427 0.33275 1.4232 0.7128 2.2138 0.8446 0.79062 0.1318 1.8785 0.55121 2.4175 0.93204 0.73624 0.52021 1.8375 0.76379 4.4277 0.97932 1.8963 0.15781 3.6776 0.39664 3.9586 0.53072 0.53154 0.25364 37.416 0.67676 44.277 0.50794 2.1542-0.053 40.318-0.10274 84.807-0.11049z" fill="#f6f8f9"/>
    <path d="m82.768 408.12c-1.5154-0.37396-2.8698-0.79466-3.0099-0.9349-0.35228-0.35278 2.6399-0.30739 5.3084 0.0805 1.2176 0.17702 8.651 0.33065 16.519 0.34142 16.347 0.0224 22.871 0.25776 22.322 0.80547-0.24654 0.2461-6.423 0.36543-19.373 0.37434-17.891 0.0122-19.174-0.0272-21.766-0.66687zm44.021 0.60282c-1.8455-0.26225-1.6057-0.66833 0.52608-0.89074 2.1177-0.22094 3.7313-0.0255 3.7313 0.45226 0 0.28723-1.8082 0.71507-2.6822 0.63464-0.30441-0.0279-1.0133-0.11631-1.5752-0.19616zm10.223 4e-3c-2.2449-0.066-4.2074-0.24559-4.3613-0.39912-0.3813-0.38062 12.462-0.71327 28.708-0.74363 41.428-0.0774 91.651 0.0961 104.9 0.36254 1.0771 0.0217 1.1264 0.0626 0.51089 0.42437-0.51567 0.30311-13.26 0.38769-52.451 0.34809-28.474-0.0289-52.843-0.0885-54.154-0.13272-1.3113-0.0443-6.1392-4e-3 -10.729 0.09-4.5895 0.0937-10.181 0.11644-12.426 0.0505zm132.91-0.0815c-3.9864-0.77695-0.0768-1.0153 16.778-1.023 17.128-8e-3 34.977-0.27254 38.317-0.56841 1.3113-0.11613 3.3804-0.24046 4.598-0.27625 1.7436-0.0513 2.5032-0.25426 3.5762-0.9556 0.7493-0.48975 1.8222-0.99619 2.3842-1.1254 1.2847-0.29536 5.705-2.3785 7.3059-3.4431 2.7425-1.8236 7.5698-6.3594 9.7237-9.1366 1.8904-2.4373 3.9168-5.6809 3.9168-6.2692 0-0.32102 0.31529-0.98375 0.70065-1.4728s0.81872-1.6346 0.96301-2.5457c0.1443-0.91113 0.57474-2.0998 0.95653-2.6414 0.38179-0.54163 0.79376-1.6732 0.91549-2.5146 0.17479-1.2082 0.73172-57.781 0.69278-70.372-5e-3 -1.5893-0.10649-23.992-0.22573-49.784-0.11925-25.792-0.13294-47.029-0.0304-47.195 0.1025-0.16555 0.40944 0.12819 0.68209 0.65275 0.41725 0.80276 0.49694 4.1301 0.50339 21.018 4e-3 11.035-0.0254 20.676-0.0659 21.424-0.0404 0.74791 0.019 6.1023 0.13213 11.899 0.1131 5.7964 0.20734 10.768 0.20943 11.049 2e-3 0.28047-0.0672 7.0117-0.15392 14.958-0.0867 7.9466-0.14087 15.443-0.1203 16.658 0.0605 3.5717 0.0503 9.8678-0.0194 12.069-0.0356 1.1219 3e-3 13.055 0.0851 26.517 0.12857 21.02 0.0756 24.885-0.37485 27.367-0.92786 5.1112-2.0686 9.0202-3.5343 12.111-1.8082 3.8129-5.4584 9.3265-7.1229 10.759-0.70128 0.60353-2.1566 1.8623-3.2341 2.7972-1.0775 0.93489-2.1278 1.7585-2.3341 1.8303-0.20628 0.0718-0.99577 0.6306-1.7544 1.2419-0.75864 0.61125-1.9428 1.3464-2.6316 1.6336s-1.5913 0.83753-2.0056 1.2229c-0.41438 0.38531-0.97794 0.70059-1.2524 0.70059s-1.329 0.39194-2.3434 0.87098c-1.0145 0.47901-3.186 1.071-4.8256 1.3155-1.6396 0.24447-3.3533 0.65096-3.8082 0.90332-0.67056 0.37202-4.6925 0.45184-21.263 0.42199-11.24-0.0204-21.239-0.14965-22.222-0.28754-1.0195-0.14309-1.9699-0.11345-2.2138 0.0691-0.51061 0.38198-9.0785 0.47771-10.904 0.12181zm-195.07-2.4147c-0.65272-0.36321-1.3726-0.66041-1.5998-0.66041-0.46619 0-3.5122-1.5636-4.0083-2.0576-0.57798-0.57552 0.53303-0.35329 1.6457 0.32919 0.58409 0.35828 1.6079 0.75233 2.2751 0.87574 0.6672 0.1234 1.97 0.66908 2.895 1.2126 1.401 0.82321 1.5397 0.98599 0.83046 0.97456-0.46831-7e-3 -1.3855-0.31092-2.0382-0.67414zm-8.3644-4.0074c-3.6262-1.9056-10.722-8.6576-9.929-9.4487 0.08753-0.0874 1.441 1.1645 3.0078 2.7819 1.5667 1.6174 3.8449 3.6061 5.0625 4.4194 2.5216 1.6842 4.4203 3.226 3.9168 3.1807-0.18733-0.017-1.1135-0.43682-2.0581-0.93323zm-12.364-12.265c-2.4361-3.0762-4.6874-8.6532-6.0491-14.985-0.55052-2.5598-0.64118-5.2079-0.15187-4.4358 0.1721 0.27152 0.23929 0.61257 0.14931 0.75791-0.20854 0.3368 0.54618 2.9544 1.1096 3.8484 0.23589 0.3743 0.60188 1.8276 0.81333 3.2296 0.24072 1.5961 0.69242 3.0229 1.2083 3.8166 0.45311 0.69716 0.82383 1.5668 0.82383 1.9326 0 0.93364 0.57238 2.3298 1.3869 3.383 1.355 1.7519 2.3891 3.5273 2.2672 3.8924-0.06804 0.20374-0.76892-0.4443-1.5575-1.4401zm-6.5921-25.864c-0.17927-3.7604-0.1601-11.69 0.03164-13.089 0.02563-0.18698 0.16229-0.15835 0.30369 0.0636 0.348 0.54628 0.44057 10.756 0.13198 14.555l-0.24852 3.0597zm-0.01031-20.653c-0.19413-2.1665-0.01562-8.2638 0.2497-8.5287 0.09295-0.0928 0.16901 2.228 0.16901 5.1574s-0.0548 5.3261-0.12178 5.3261-0.2006-0.87965-0.29693-1.9548zm-0.0589-54.714c-0.11998-0.37732-0.07811-1.0524 0.09305-1.5002l0.31119-0.81419 0.23772 0.91027c0.13074 0.50065 0.08887 1.1758-0.09305 1.5002-0.30501 0.54401-0.34775 0.53653-0.5489-0.0961zm0.16897-4.6941c-0.0086-1.0369 0.06722-1.2257 0.31913-0.79487 0.20827 0.35618 0.21242 0.85874 0.01123 1.3598-0.27912 0.69522-0.32054 0.62439-0.33036-0.56498zm0.09245-5.7794c8.85e-4 -1.8698 0.05808-2.5913 0.1271-1.6034s0.06829 2.5177-0.0016 3.3996c-0.06992 0.88188-0.12639 0.0736-0.1255-1.7962zm-0.13101-7.6775c-0.0456-8.0105-0.06445-35.831-0.02497-36.858 0.04086-1.0625 0.12519-1.2352 0.38565-0.78955 0.38072 0.65135 0.26659 38.189-0.11728 38.572-0.13023 0.12999-0.23976-0.28635-0.2434-0.92519zm0.0066-50.53c0-8.6048 0.11145-11.624 0.47589-12.89 0.26174-0.90962 0.80405-2.8562 1.2051-4.3257 0.64169-2.3511 1.3984-4.1042 3.8875-9.0061 2.8001-5.5144 9.929-12.332 16.225-15.517 0.92673-0.46873 1.8816-0.85419 2.122-0.85656 0.24038-2e-3 1.3157-0.44913 2.3897-0.9928 1.1066-0.56019 3.0251-1.1513 4.4277-1.3642 1.3613-0.20663 3.3076-0.61364 4.3251-0.90446 1.3827-0.39518 3.1896-0.50983 7.1524-0.45383 7.7109 0.10896 50.501 0.11384 63.033 7e-3 6.1537-0.0524 11.086 0.0455 11.566 0.22955 0.81594 0.31257 0.80714 0.32585-0.3406 0.51427-0.64799 0.10638-17.935 0.16729-38.417 0.13537-27.639-0.0431-37.955 0.048-40.02 0.3533-1.5297 0.22624-3.8664 0.41783-5.1928 0.42575-1.8774 0.0112-2.7827 0.20242-4.0871 0.86316-0.92154 0.46681-2.212 0.94336-2.8676 1.059s-1.8952 0.65159-2.7546 1.191c-0.85936 0.53943-1.7057 0.98078-1.8808 0.98078-0.17508 0-0.85136 0.43732-1.5029 0.97182-0.65149 0.53449-1.5595 1.0898-2.0177 1.234-1.3141 0.41344-7.8147 7.1792-10.066 10.476-2.592 3.7965-3.2344 4.9757-3.2351 5.9381-2.91e-4 0.42471-0.37236 1.3426-0.82682 2.0398-0.50444 0.77383-0.92175 2.0621-1.0714 3.3073-0.13479 1.1219-0.61644 3.1106-1.0703 4.4195-0.79011 2.2784-0.83022 2.819-0.94143 12.69-0.06389 5.6704-0.20664 10.4-0.31722 10.51-0.11058 0.11038-0.20106-4.8557-0.20106-11.036zm312.44-14.544c-0.21807-0.56094-0.8144-2.2438-1.3252-3.7396-1.0807-3.1649-4.4245-9.7161-6.028-11.81-1.6888-2.2052-4.6226-5.081-6.8959-6.7593-2.5904-1.9125-4.8381-3.3584-5.2208-3.3584-0.16323 0-0.95593-0.47659-1.7616-1.0591-0.8122-0.58726-2.0792-1.1414-2.8438-1.2437-0.7585-0.10155-2.206-0.61882-3.2167-1.1495-1.452-0.76237-2.1082-0.92169-3.1267-0.75911-0.709 0.11316-2.1121 0.025-3.1181-0.19591-1.3073-0.28709-11.933-0.45777-37.251-0.59838-19.482-0.10819-36.341-0.16386-37.465-0.12369-2.8194 0.10074-11.155-0.33818-10.917-0.57491 0.33285-0.33223 21.22-0.62658 35.44-0.49943 3.1845 0.0285 14.909 0.0406 26.055 0.0271 17.686-0.0216 20.677 0.0492 23.501 0.55545 1.7796 0.31909 4.1929 0.7051 5.3629 0.85781 1.206 0.15742 2.7548 0.64239 3.5762 1.1199 0.79691 0.46324 2.6751 1.3297 4.1737 1.9255s3.0313 1.3528 3.4059 1.6822c0.37466 0.32943 1.661 1.2533 2.8585 2.053 3.738 2.4963 8.6853 7.8863 11.348 12.364 0.7227 1.2152 2.3121 5.3924 2.3121 6.0765 0 0.4376 0.39215 1.5309 0.87143 2.4296 0.54429 1.0206 0.83198 2.0405 0.76633 2.717l-0.10509 1.0831zm-193.3-31.149c-0.2145-0.13232-0.17012-0.322 0.11765-0.5028 0.52666-0.33089 66.422-0.59818 69.706-0.28275 1.4109 0.1355 2.102 0.34201 2.015 0.60213-0.0996 0.29786-8.968 0.3959-35.813 0.3959-19.625 0-35.836-0.0956-36.025-0.21248z" fill="#f3f6f8"/>
    <path d="m198.11 328.08c-1.4986-0.24627-3.4787-0.84067-4.4003-1.3209-0.92154-0.48021-1.8875-0.87311-2.1466-0.87311-0.97188 0-6.1435-3.7669-8.4741-6.1723-2.6904-2.7768-5.4055-6.7709-6.1977-9.1171-0.28573-0.84627-0.71667-1.8446-0.95764-2.2186-1.1052-1.7151-1.2461-4.728-1.3994-29.917-0.17588-28.896 0.0135-33.182 1.6366-37.056 2.1887-5.2231 3.3976-7.1439 6.7828-10.777 3.4561-3.709 7.2668-6.0639 12.911-7.9788 3.5305-1.1978 3.7208-1.224 8.887-1.2241 5.1982-1.3e-4 5.3393 0.0197 9.196 1.2913 5.055 1.6668 7.9485 3.3883 11.697 6.9597 4.8096 4.5821 7.2204 8.876 8.8755 15.808l0.89281 3.7396-4e-3 25.886c-4e-3 24.518-0.0386 26-0.6563 28.047-0.35872 1.1883-0.7547 2.849-0.87995 3.6904-0.12524 0.84141-0.57741 2.2182-1.0048 3.0597-0.4274 0.8414-0.89219 1.8975-1.0329 2.347-0.51156 1.6343-3.578 5.7213-6.0537 8.0687-2.7096 2.5691-6.8093 5.4065-8.3436 5.7746-0.51462 0.12345-1.5487 0.53503-2.298 0.91461-2.8566 1.4471-11.444 1.9853-17.03 1.0674zm10.899-13.275c0.56198-0.29614 1.8151-0.83739 2.7847-1.2028 1.1392-0.4293 2.6227-1.459 4.1932-2.9103 1.9646-1.8156 2.7037-2.8062 3.8569-5.1694l1.4265-2.9234v-55.074l-1.3624-2.6771c-2.484-4.8812-5.7788-7.734-10.692-9.2576-3.3064-1.0254-5.7421-1.0266-8.9682-5e-3 -3.2574 1.0319-5.7928 2.6562-7.9937 5.121-1.9009 2.1288-3.6954 5.9205-4.2255 8.9283-0.17548 0.99573-0.27364 12.67-0.22439 26.687 0.0801 22.798 0.13752 25.018 0.67504 26.107 0.32312 0.65443 0.82424 1.8678 1.1136 2.6964 0.28936 0.82857 0.92605 2.0524 1.4149 2.7197 1.3069 1.7841 4.4852 4.7014 5.6646 5.1994 0.5643 0.23831 1.8848 0.84226 2.9346 1.3421 1.6364 0.77925 2.3698 0.91224 5.1442 0.9328 2.333 0.0173 3.5206-0.12624 4.2574-0.51447z" fill="#5581a8"/>
   </g>
  </g>
 </g>
</svg>
