<?xml version="1.0" encoding="UTF-8"?>
<svg width="12.513mm" height="22.83mm" version="1.1" viewBox="0 0 12.513 22.83" xmlns="http://www.w3.org/2000/svg" xmlns:cc="http://creativecommons.org/ns#" xmlns:dc="http://purl.org/dc/elements/1.1/" xmlns:rdf="http://www.w3.org/1999/02/22-rdf-syntax-ns#">
 <metadata>
  <rdf:RDF>
   <cc:Work rdf:about="">
    <dc:format>image/svg+xml</dc:format>
    <dc:type rdf:resource="http://purl.org/dc/dcmitype/StillImage"/>
    <dc:title/>
   </cc:Work>
  </rdf:RDF>
 </metadata>
 <g transform="translate(147.62 .16521)">
  <path d="m-141.49 22.603c-0.0212-0.03445-0.1002-0.06264-0.17565-0.06264-0.20333 0-5.8456-6.1158-5.907-6.4028-0.0963-0.44994-0.26323-0.42122 2.5537-0.43941l2.5329-0.01635 0.0311-7.6212c0.0309-7.5753 0.0319-7.6223 0.15949-7.7942 0.25506-0.34368 0.43755-0.43123 0.89885-0.43123 0.46129 0 0.64378 0.087548 0.89885 0.43123 0.12758 0.17191 0.12854 0.21886 0.15948 7.7942l0.0311 7.6212 5.2054 0.0327-0.0191 0.24745c-0.0179 0.23124-0.21079 0.45488-2.9443 3.4129-2.1535 2.3303-2.9614 3.1655-3.0624 3.1655-0.0754 0-0.15447 0.02819-0.17563 0.06264-0.0212 0.03445-0.0632 0.06264-0.0934 0.06264s-0.0722-0.02819-0.0934-0.06264z" fill="#fff" stroke-width=".062445"/>
 </g>
</svg>
