<?xml version="1.0" encoding="UTF-8" standalone="no"?>
<svg
   xmlns:dc="http://purl.org/dc/elements/1.1/"
   xmlns:cc="http://creativecommons.org/ns#"
   xmlns:rdf="http://www.w3.org/1999/02/22-rdf-syntax-ns#"
   xmlns:svg="http://www.w3.org/2000/svg"
   xmlns="http://www.w3.org/2000/svg"
   id="svg3741"
   version="1.1"
   viewBox="0 0 12.512648 22.830423"
   height="22.830423mm"
   width="12.512648mm">
  <defs
     id="defs3735" />
  <metadata
     id="metadata3738">
    <rdf:RDF>
      <cc:Work
         rdf:about="">
        <dc:format>image/svg+xml</dc:format>
        <dc:type
           rdf:resource="http://purl.org/dc/dcmitype/StillImage" />
        <dc:title></dc:title>
      </cc:Work>
    </rdf:RDF>
  </metadata>
  <g
     transform="translate(147.61945,0.165212)"
     id="layer1">
    <path
       id="path3724"
       d="m -141.49497,22.60256 c -0.0212,-0.03445 -0.1002,-0.06264 -0.17565,-0.06264 -0.20333,0 -5.84558,-6.115773 -5.907,-6.40275 -0.0963,-0.449943 -0.26323,-0.42122 2.55366,-0.439412 l 2.53292,-0.01635 0.0311,-7.6212193 c 0.0309,-7.57530622 0.0319,-7.62225653 0.15949,-7.79416955 0.25506,-0.34368053 0.43755,-0.43123115 0.89885,-0.43123115 0.46129,0 0.64378,0.08754798 0.89885,0.4312285 0.12758,0.17191037 0.12854,0.21885804 0.15948,7.7941726 l 0.0311,7.6212219 2.60268,0.01635 2.60269,0.01635 -0.0191,0.247454 c -0.0179,0.231241 -0.21079,0.454877 -2.94434,3.412911 -2.15347,2.33032 -2.96141,3.165456 -3.06237,3.165456 -0.0754,0 -0.15447,0.02819 -0.17563,0.06264 -0.0212,0.03445 -0.0632,0.06264 -0.0934,0.06264 -0.0302,0 -0.0722,-0.02819 -0.0934,-0.06264 z"
       style="fill:#000000;stroke-width:0.0624446" />
  </g>
</svg>
