<?xml version="1.0" encoding="UTF-8"?>
<svg id="svg" width="400" height="282.08" version="1.1" viewBox="0 0 400 282.08" xmlns="http://www.w3.org/2000/svg" xmlns:cc="http://creativecommons.org/ns#" xmlns:dc="http://purl.org/dc/elements/1.1/" xmlns:rdf="http://www.w3.org/1999/02/22-rdf-syntax-ns#">
 <metadata>
  <rdf:RDF>
   <cc:Work rdf:about="">
    <dc:format>image/svg+xml</dc:format>
    <dc:type rdf:resource="http://purl.org/dc/dcmitype/StillImage"/>
    <dc:title/>
   </cc:Work>
  </rdf:RDF>
 </metadata>
 <g id="svgg" fill="#fff" fill-rule="evenodd">
  <path d="m60.085 0.564c-0.489 0.489-0.565 0.94-0.565 3.385v2.821l-1.198 2e-3c-0.66 1e-3 -1.563 0.191-2.007 0.423-0.445 0.232-1.464 0.421-2.265 0.421s-1.707 0.172-2.013 0.381c-0.306 0.21-0.937 0.474-1.402 0.587-0.466 0.112-1.037 0.37-1.27 0.572-0.232 0.203-0.708 0.455-1.058 0.562-0.349 0.106-0.634 0.311-0.634 0.456s-0.127 0.263-0.282 0.263c-0.325 0-3.667 2.546-3.669 2.796-1e-3 0.091-0.413 0.622-0.917 1.179-1.336 1.479-2.184 2.715-2.184 3.184 0 0.226-0.1 0.453-0.221 0.505-0.244 0.104-1.474 2.645-2.025 4.184-1.109 3.098-1.114 11.675-9e-3 14.668 0.201 0.543 0.488 1.337 0.639 1.764 0.15 0.426 0.385 0.775 0.521 0.775 0.137 0 0.248 0.192 0.248 0.426 0 0.427 1.451 2.647 2.762 4.226 1.368 1.647 6.169 4.939 7.203 4.939 0.222 0 0.562 0.191 0.755 0.423 0.193 0.233 0.637 0.423 0.987 0.423s0.791 0.188 0.981 0.416c0.19 0.229 0.797 0.501 1.348 0.604 0.552 0.104 1.333 0.36 1.735 0.57s1.07 0.382 1.484 0.383 1.144 0.224 1.621 0.496l0.867 0.493 2e-3 9.514 1e-3 9.513-0.916-0.176c-3.153-0.605-5.829-4.476-5.866-8.485-8e-3 -0.862-0.243-1.74-0.66-2.467l-0.647-1.129-7.355-0.075c-9.097-0.093-8.354-0.51-8.204 4.605 0.066 2.292 0.236 3.877 0.441 4.124 0.184 0.221 0.418 0.966 0.52 1.657 0.103 0.69 0.362 1.536 0.577 1.88 0.214 0.343 0.397 0.851 0.406 1.128 0.033 1.022 2.974 5.561 4.545 7.014 1.282 1.186 3.816 2.939 4.251 2.942 0.196 1e-3 0.736 0.254 1.202 0.562 0.465 0.308 1.185 0.561 1.598 0.562 0.414 1e-3 0.798 0.137 0.853 0.302 0.055 0.166 0.668 0.376 1.363 0.467 0.695 0.092 1.517 0.326 1.828 0.52 0.31 0.194 1.485 0.441 2.61 0.549s2.117 0.31 2.203 0.45c0.086 0.139 0.403 0.253 0.704 0.253 0.519 0 0.547 0.233 0.547 4.472 0 5.912 0.079 6.025 4.15 5.905 3.531-0.104 3.457 0.021 3.463-5.878l4e-3 -4.386 0.917-0.329c0.504-0.182 1.678-0.413 2.609-0.514 0.931-0.1 1.974-0.358 2.317-0.573 0.344-0.214 0.923-0.39 1.286-0.39 0.364 0 0.908-0.186 1.209-0.414s0.816-0.418 1.144-0.423 0.92-0.263 1.314-0.573c0.395-0.31 0.904-0.564 1.132-0.564s0.573-0.191 0.766-0.423c0.193-0.233 0.5-0.424 0.682-0.424 1.263 0 6.293-5.407 7.48-8.039 0.349-0.776 0.877-1.88 1.173-2.454 0.296-0.573 0.538-1.416 0.538-1.872 0-0.455 0.189-1.192 0.421-1.636 0.327-0.627 0.422-1.914 0.422-5.745 0-3.83-0.095-5.117-0.422-5.744-0.232-0.445-0.421-1.065-0.421-1.38 0-0.509-0.776-2.446-1.44-3.595-0.134-0.233-0.428-0.831-0.653-1.33-0.667-1.479-4.746-5.286-6.726-6.277-1.767-0.885-2.327-1.179-3.24-1.703-0.272-0.155-0.811-0.41-1.199-0.566s-1.042-0.473-1.454-0.704c-0.412-0.232-1.063-0.421-1.447-0.421-0.383 0-0.855-0.191-1.049-0.424-0.193-0.232-0.621-0.424-0.951-0.425s-0.981-0.254-1.446-0.562c-0.466-0.308-1.1-0.565-1.411-0.571-1.547-0.03-1.551-0.056-1.551-9.262 0-8.969 7e-3 -9.013 1.253-8.07 0.301 0.227 0.711 0.414 0.911 0.414 1.21 0 3.478 3.756 3.478 5.759 0 3.51 0.711 3.832 8.49 3.832 7.854 0 8.278-0.122 8.055-2.324-0.39-3.853-0.817-6.334-1.188-6.905-0.224-0.343-0.407-0.876-0.407-1.184 0-0.684-1.225-3.028-2.593-4.961-1.318-1.862-4.667-4.835-6.198-5.501-0.362-0.157-1.293-0.658-2.069-1.112s-1.749-0.833-2.163-0.844c-0.414-0.01-0.802-0.167-0.862-0.349-0.063-0.188-0.895-0.387-1.928-0.46-0.999-0.071-2.068-0.303-2.374-0.516-0.306-0.212-0.972-0.386-1.481-0.386h-0.924v-2.758c0-3.912-0.092-4.012-3.683-4.012-2.429-0-2.881 0.076-3.369 0.564m137.11 0.255c-0.487 0.684-0.583 1.244-0.583 3.385v2.566l-1.199 2e-3c-0.659 1e-3 -1.562 0.191-2.007 0.423-0.444 0.232-1.467 0.421-2.273 0.421-0.852 0-1.695 0.174-2.013 0.415-0.301 0.227-0.816 0.418-1.144 0.423s-0.9 0.241-1.27 0.525-0.863 0.606-1.095 0.716c-1.429 0.676-3.661 2.403-4.97 3.845-0.493 0.543-1.195 1.311-1.56 1.706s-0.918 1.218-1.228 1.829-0.723 1.281-0.917 1.488-0.357 0.527-0.362 0.71c-5e-3 0.182-0.255 0.84-0.554 1.46-0.3 0.621-0.55 1.527-0.555 2.013-5e-3 0.487-0.199 1.248-0.431 1.693-0.323 0.618-0.421 1.866-0.421 5.321s0.098 4.703 0.421 5.322c0.232 0.444 0.421 1.079 0.421 1.41-1e-3 0.761 1.414 4.129 1.735 4.129 0.132 0 0.24 0.19 0.24 0.422 0 0.793 2.522 3.673 4.577 5.226 2.305 1.743 8.231 4.789 9.314 4.789 0.237 0 0.795 0.189 1.239 0.421s1.147 0.422 1.561 0.423 1.143 0.224 1.62 0.496l0.867 0.493 2e-3 9.514 2e-3 9.513-0.917-0.177c-2.163-0.419-4.711-2.838-5.145-4.886-0.115-0.543-0.324-1.131-0.465-1.306-0.14-0.175-0.337-1.37-0.436-2.655-0.274-3.562 0.2-3.374-8.498-3.374-9.037 0-8.393-0.307-8.325 3.982 0.028 1.746 0.179 3.437 0.334 3.758 0.156 0.32 0.363 1.303 0.461 2.184 0.098 0.882 0.36 1.754 0.583 1.939s0.405 0.575 0.405 0.867c0 0.54 1.802 4.195 2.498 5.068 0.82 1.028 3.622 3.804 4.245 4.205 0.361 0.233 0.948 0.646 1.303 0.917 0.356 0.272 0.833 0.494 1.061 0.494s0.57 0.187 0.76 0.415c0.19 0.229 0.796 0.501 1.348 0.604 0.552 0.104 1.333 0.36 1.735 0.57s1.09 0.383 1.527 0.384c0.438 1e-3 0.967 0.172 1.176 0.381 0.212 0.213 1.347 0.462 2.576 0.566 1.208 0.102 2.323 0.312 2.478 0.466 0.154 0.154 0.509 0.281 0.788 0.281 0.466 0 0.508 0.344 0.508 4.215 0 3.775 0.062 4.32 0.592 5.219l0.592 1.003h2.666c3.931 0 4.028-0.142 4.039-5.926 0.011-5.11-0.102-4.919 3.093-5.234 1.117-0.11 2.203-0.373 2.415-0.585 0.212-0.211 0.747-0.385 1.189-0.385s1.054-0.174 1.36-0.387 0.969-0.477 1.473-0.586c0.504-0.11 0.917-0.314 0.917-0.454s0.336-0.339 0.747-0.442c2.102-0.528 7.233-4.987 8.42-7.319 0.311-0.609 0.635-1.171 0.72-1.249 0.439-0.398 1.678-3.182 1.678-3.771 0-0.373 0.19-1.041 0.422-1.486 0.584-1.119 0.617-12.562 0.039-13.669-0.21-0.402-0.466-1.183-0.57-1.735-0.103-0.551-0.375-1.158-0.603-1.348-0.229-0.19-0.416-0.531-0.416-0.76 0-0.228-0.222-0.705-0.494-1.061-0.271-0.355-0.684-0.935-0.917-1.289-1.191-1.809-6.205-5.911-7.226-5.911-0.177 0-0.479-0.19-0.672-0.423-0.193-0.232-0.574-0.423-0.846-0.423-0.273 0-0.651-0.187-0.84-0.415-0.19-0.229-0.777-0.497-1.304-0.596-0.528-0.099-0.959-0.283-0.959-0.408 0-0.126-0.413-0.31-0.917-0.41-0.936-0.185-2.08-0.648-3.935-1.59-0.573-0.291-1.278-0.53-1.565-0.53-1.157 0-1.2-0.329-1.2-9.224 0-4.701 0.037-8.548 0.082-8.548 0.177 0 2.069 1.022 2.621 1.416 1.056 0.753 2.375 2.853 2.375 3.783 0 0.485 0.182 1.142 0.404 1.459 0.223 0.318 0.445 1.137 0.494 1.82 0.139 1.936 0.35 1.984 8.363 1.895 8.226-0.091 7.771 0.127 7.602-3.648-0.06-1.344-0.249-2.613-0.42-2.821-0.171-0.207-0.4-0.976-0.509-1.708s-0.375-1.478-0.591-1.657-0.4-0.596-0.409-0.926c-8e-3 -0.33-0.384-1.235-0.834-2.01-0.449-0.776-0.944-1.69-1.099-2.032-0.334-0.735-4.33-4.879-4.705-4.879-0.142 0-0.883-0.445-1.647-0.988s-1.568-0.987-1.788-0.987-0.722-0.254-1.117-0.564c-0.394-0.31-1.049-0.568-1.455-0.573s-0.984-0.196-1.285-0.423c-0.301-0.228-1.144-0.415-1.872-0.415s-1.688-0.189-2.132-0.421c-0.445-0.232-1.094-0.422-1.443-0.423-0.617-2e-3 -0.635-0.081-0.635-2.948 0-3.75-0.077-3.824-3.992-3.824-2.702 0-2.747 0.011-3.323 0.819m137.09-0.273c-0.161 0.3-0.292 1.823-0.292 3.385v2.839h-1.498c-0.88 0-1.723 0.171-2.045 0.414-0.325 0.246-1.187 0.418-2.116 0.423-0.929 6e-3 -1.791 0.178-2.115 0.424-0.302 0.227-0.805 0.418-1.119 0.423-0.313 5e-3 -1.23 0.443-2.037 0.974-0.806 0.531-1.716 1.045-2.022 1.142-0.835 0.266-5.043 4.57-5.672 5.803-0.303 0.593-0.679 1.158-0.836 1.255-0.158 0.097-0.287 0.398-0.287 0.668s-0.142 0.633-0.316 0.807c-0.528 0.529-1.655 3.55-1.66 4.451-2e-3 0.466-0.193 1.47-0.424 2.231-0.541 1.784-0.54 5.796 3e-3 7.879 0.232 0.893 0.423 1.971 0.423 2.394 0 0.424 0.171 1.02 0.381 1.326 0.209 0.306 0.471 0.928 0.582 1.381 0.11 0.453 0.446 1.137 0.747 1.519 0.3 0.382 0.547 0.818 0.547 0.969 0 0.795 3.945 4.928 5.5 5.762 0.466 0.25 0.91 0.532 0.988 0.627 0.139 0.17 3.165 1.675 5.672 2.821 0.715 0.327 1.494 0.595 1.731 0.595s0.794 0.189 1.238 0.421c0.445 0.232 1.116 0.422 1.492 0.423s1.166 0.224 1.756 0.496l1.072 0.493 7e-3 9.543 8e-3 9.543-0.917-0.181c-2.016-0.399-4.448-2.188-4.877-3.587-0.11-0.357-0.299-0.776-0.421-0.931-0.121-0.155-0.314-0.917-0.427-1.693-0.113-0.775-0.379-1.66-0.591-1.967-0.211-0.306-0.384-1.153-0.384-1.883 0-2.252 0.14-2.215-8.138-2.215-8.92 0-8.615-0.111-8.401 3.063 0.296 4.403 0.648 6.765 1.113 7.475 0.262 0.4 0.476 1.06 0.476 1.468s0.171 1.079 0.38 1.491c0.208 0.412 0.685 1.384 1.057 2.159 0.785 1.634 0.836 1.701 2.996 3.972 1.678 1.765 4.314 3.784 4.943 3.788 0.196 1e-3 0.736 0.254 1.202 0.562 0.465 0.308 1.1 0.565 1.41 0.571 0.311 6e-3 0.811 0.197 1.112 0.425s0.885 0.414 1.297 0.414 1.117 0.179 1.568 0.397c0.45 0.219 1.74 0.485 2.865 0.593s2.117 0.31 2.203 0.45c0.086 0.139 0.466 0.253 0.845 0.253h0.689v4.5c0 6.085-0.085 5.937 3.381 5.937 4.005 0 4.066-0.085 4.185-5.859 0.106-5.121 0.038-4.998 2.913-5.287 1.031-0.104 2.22-0.368 2.641-0.586 0.422-0.219 1.041-0.398 1.377-0.398 0.335 0 0.86-0.174 1.166-0.387s0.96-0.475 1.454-0.582c0.493-0.107 1.048-0.378 1.233-0.6 0.185-0.223 0.566-0.405 0.846-0.405s0.677-0.159 0.882-0.353 0.934-0.733 1.619-1.199c2.568-1.744 4.731-4.059 6.28-6.722 0.567-0.977 1.361-2.977 1.369-3.451 5e-3 -0.301 0.195-0.793 0.423-1.094 0.286-0.378 0.414-1.263 0.414-2.859 0-1.502 0.148-2.594 0.421-3.119 0.232-0.445 0.422-1.316 0.422-1.937 0-0.62-0.19-1.492-0.422-1.936-0.256-0.492-0.421-1.579-0.421-2.778 0-1.171-0.181-2.389-0.445-3-0.789-1.828-1.906-4.129-2.074-4.274-0.089-0.078-0.533-0.687-0.985-1.354-0.868-1.279-3.261-3.442-3.808-3.442-0.177 0-0.385-0.163-0.461-0.362-0.077-0.199-0.737-0.675-1.467-1.058-0.731-0.383-1.498-0.854-1.706-1.048s-0.607-0.353-0.887-0.353c-0.281 0-0.668-0.19-0.861-0.423s-0.494-0.427-0.669-0.433c-0.175-5e-3 -0.826-0.254-1.447-0.554-0.62-0.3-1.398-0.55-1.728-0.555s-0.758-0.2-0.952-0.433c-0.193-0.232-0.624-0.423-0.959-0.423-0.334 0-0.913-0.214-1.287-0.476s-1.132-0.549-1.685-0.639l-1.005-0.163-0.075-8.811c-0.041-4.846-0.036-8.811 0.011-8.811 0.167 0 2.049 1.016 2.764 1.492 0.796 0.529 1.954 2.611 1.954 3.512 0 0.313 0.191 0.727 0.424 0.92 0.278 0.232 0.423 0.862 0.423 1.848 0 2.628 0.415 2.746 9.261 2.614 7.356-0.109 6.921 0.163 6.752-4.231-0.064-1.658-0.254-3.181-0.423-3.385-0.169-0.205-0.402-0.88-0.518-1.5-0.7-3.745-7.076-11.707-9.376-11.707-0.147 0-0.426-0.19-0.619-0.423s-0.538-0.423-0.766-0.423-0.737-0.254-1.131-0.564c-0.395-0.31-1.05-0.568-1.455-0.573-0.406-5e-3 -0.984-0.196-1.286-0.423-0.301-0.228-1.143-0.415-1.871-0.415-0.729 0-1.688-0.189-2.133-0.421-0.444-0.232-1.093-0.422-1.442-0.423-0.608-2e-3 -0.635-0.103-0.635-2.358 0-4.196-0.209-4.404-4.433-4.41-2.284-4e-3 -2.635 0.062-2.891 0.542m-274.76 27.82v7.491l-0.626-0.439c-0.345-0.242-0.781-0.439-0.968-0.439-1.489 0-3.909-3.052-4.208-5.305-0.483-3.646 1.254-7.94 3.219-7.957 0.257-3e-3 0.785-0.181 1.173-0.396 1.445-0.802 1.41-0.972 1.41 7.045m137.1 0v7.491l-0.627-0.439c-0.345-0.242-0.856-0.439-1.137-0.439-0.651 0-3.015-2.369-3.689-3.697-1.574-3.102 0.374-9.502 2.914-9.57 0.233-6e-3 0.741-0.193 1.129-0.414 1.436-0.822 1.41-0.953 1.41 7.068m137.38-0.016c0 7.594-0.062 8.018-1.028 7.052-0.233-0.233-0.668-0.423-0.967-0.423s-0.784-0.222-1.077-0.494c-2.132-1.974-2.57-2.454-2.57-2.818 0-0.226-0.202-0.837-0.449-1.357-1.227-2.585 1.041-8.589 3.244-8.589 0.265 0 0.728-0.187 1.03-0.414 0.301-0.228 0.833-0.419 1.182-0.424l0.635-9e-3v7.476m-265.45 27.633c0.188 0.227 0.607 0.497 0.93 0.599 1.208 0.384 2.629 1.843 3.663 3.761 0.667 1.237 0.72 6.537 0.071 7.076-0.233 0.193-0.423 0.534-0.423 0.758 0 1.286-2.45 3.252-4.452 3.572l-1.19 0.19v-8.184c0-8.691 0.114-9.323 1.401-7.772m136.91-3e-3c0.226 0.225 0.734 0.491 1.131 0.591 0.683 0.171 3.014 2.262 3.014 2.703 0 0.113 0.198 0.405 0.441 0.647 0.355 0.355 0.439 1.152 0.434 4.094l-6e-3 3.653-1.01 1.406c-1.136 1.581-2.337 2.401-3.885 2.652l-1.052 0.171v-8.163c0-8.077 0.066-8.621 0.933-7.754m137.5 0.155c0.395 0.311 0.859 0.569 1.032 0.574 3.029 0.09 5.215 9.449 2.776 11.887-0.19 0.191-0.348 0.479-0.35 0.642-0.013 0.756-2.264 2.257-3.733 2.491l-1.058 0.168v-8.163c0-8.657-2e-3 -8.649 1.333-7.599m-14.332 73.614c-0.245 0.148-1.324 0.352-2.398 0.454-1.073 0.103-2.233 0.363-2.576 0.577-0.344 0.215-1.046 0.391-1.559 0.391-0.514 0-1.185 0.174-1.491 0.387-0.306 0.214-1.096 0.479-1.756 0.589-0.659 0.111-1.199 0.315-1.199 0.454 0 0.138-0.349 0.339-0.775 0.446-2.412 0.604-11.918 6.587-11.918 7.5 0 0.118-0.111 0.215-0.246 0.215-0.218 0-3.119 2.816-3.845 3.733-0.155 0.196-0.6 0.752-0.987 1.234-0.388 0.483-0.896 1.165-1.128 1.516-0.233 0.351-0.555 0.781-0.715 0.956-0.647 0.705-2.67 4.005-2.67 4.356 0 0.206-0.191 0.565-0.424 0.798-0.232 0.233-0.423 0.652-0.423 0.932 0 0.281-0.19 0.668-0.423 0.861s-0.427 0.494-0.433 0.669c-5e-3 0.175-0.254 0.826-0.554 1.447-0.3 0.62-0.549 1.398-0.555 1.728-5e-3 0.33-0.194 0.753-0.419 0.94s-0.485 0.932-0.578 1.657c-0.093 0.724-0.311 1.57-0.485 1.881-0.173 0.31-0.414 1.389-0.537 2.397-0.122 1.009-0.345 2.532-0.496 3.385-0.151 0.854-0.274 2.885-0.274 4.514s0.123 3.66 0.274 4.513c0.151 0.854 0.374 2.377 0.496 3.385 0.122 1.009 0.354 2.088 0.515 2.398 0.162 0.31 0.38 1.157 0.485 1.881s0.375 1.47 0.6 1.657c0.225 0.186 0.41 0.653 0.41 1.037s0.177 1.035 0.393 1.446c0.216 0.412 0.934 1.892 1.597 3.288 1.253 2.644 3.692 6.545 4.916 7.866 0.39 0.422 0.71 0.842 0.71 0.935 0 0.744 8.482 8.265 9.321 8.265 0.149 0 0.271 0.095 0.272 0.212 3e-3 0.383 7.906 4.573 8.64 4.581 0.176 1e-3 0.684 0.192 1.128 0.424 0.445 0.232 1.147 0.422 1.561 0.423s1.112 0.182 1.552 0.401c0.439 0.22 1.687 0.547 2.773 0.726s2.673 0.455 3.526 0.614c2.055 0.38 11.219 0.159 12.061-0.292 0.35-0.187 1.46-0.417 2.467-0.511s1.974-0.343 2.149-0.554c0.174-0.21 0.714-0.383 1.2-0.384 0.485-1e-3 1.245-0.191 1.69-0.423 0.444-0.232 0.954-0.421 1.132-0.421 0.179 0 0.799-0.254 1.377-0.564 0.579-0.311 1.228-0.565 1.443-0.565 0.214 0 0.541-0.182 0.725-0.405 0.185-0.222 0.709-0.486 1.163-0.586 0.455-0.1 0.827-0.286 0.827-0.414s0.349-0.372 0.776-0.544c1.19-0.479 3.714-2.139 5.163-3.396 0.717-0.621 1.647-1.4 2.066-1.73 1.378-1.084 3.698-3.529 5.958-6.278 0.75-0.911 1.552-2.169 1.552-2.432 0-0.162 0.126-0.294 0.28-0.294s0.503-0.439 0.776-0.975c0.272-0.536 1.035-2 1.694-3.253 0.66-1.253 1.199-2.512 1.199-2.798 0-0.287 0.191-0.679 0.423-0.872 0.233-0.193 0.423-0.626 0.423-0.962s0.254-1.109 0.565-1.718c0.31-0.609 0.564-1.446 0.564-1.861s0.189-1.118 0.421-1.562c0.243-0.466 0.422-1.561 0.423-2.589 1e-3 -0.979 0.205-2.401 0.453-3.16 0.558-1.706 0.484-8.765-0.098-9.347-0.214-0.214-0.353-1.118-0.353-2.299 0-1.07-0.179-2.346-0.397-2.835-0.218-0.488-0.462-1.438-0.54-2.109-0.079-0.672-0.345-1.443-0.591-1.715-0.245-0.272-0.447-0.745-0.447-1.053 0-0.307-0.186-0.805-0.414-1.106s-0.418-0.879-0.423-1.285-0.263-1.06-0.573-1.455c-0.31-0.394-0.564-0.904-0.564-1.132s-0.191-0.572-0.423-0.766c-0.233-0.193-0.423-0.537-0.423-0.765s-0.254-0.738-0.565-1.132c-0.31-0.395-0.564-0.862-0.564-1.04 0-0.177-0.349-0.707-0.776-1.177-0.426-0.47-1.156-1.417-1.622-2.104-1.151-1.699-5.239-6.193-5.634-6.193-0.055 0-0.542-0.413-1.082-0.917-0.541-0.504-1.639-1.361-2.442-1.904s-1.61-1.125-1.794-1.292c-0.366-0.332-1.515-0.984-2.921-1.656-0.494-0.236-0.977-0.558-1.075-0.715-0.097-0.158-0.432-0.286-0.744-0.286s-0.758-0.191-0.991-0.424c-0.233-0.232-0.652-0.423-0.933-0.423-0.28 0-0.659-0.18-0.842-0.401-0.183-0.22-0.865-0.49-1.516-0.599-0.65-0.109-1.433-0.373-1.739-0.587-0.306-0.213-0.947-0.387-1.424-0.387-0.478 0-1.003-0.135-1.168-0.301-0.876-0.875-14.978-1.851-16.197-1.121m-134.53 2.461c-0.542 0.074-1.113 0.238-1.269 0.363s-1.108 0.317-2.117 0.427c-1.008 0.109-2.115 0.377-2.458 0.595-0.344 0.218-0.915 0.397-1.27 0.398-0.354 1e-3 -1.008 0.192-1.452 0.423-0.445 0.232-0.938 0.422-1.098 0.422-0.288 0-2.506 0.968-3.313 1.445-0.233 0.138-0.613 0.324-0.846 0.413-0.855 0.328-1.572 0.7-2.398 1.245-0.465 0.307-1.132 0.707-1.481 0.888-0.349 0.182-0.635 0.437-0.635 0.567 0 0.131-0.132 0.237-0.293 0.237-2.573 0-14.939 14.56-14.939 17.59 0 0.193-0.143 0.493-0.316 0.667-0.438 0.438-1.654 3.481-1.667 4.169-5e-3 0.311-0.196 0.811-0.424 1.112s-0.415 0.936-0.416 1.41c-1e-3 0.475-0.204 1.244-0.452 1.71-0.265 0.498-0.504 1.832-0.583 3.244-0.073 1.318-0.258 2.658-0.411 2.976-0.51 1.054 0.224 12.449 0.85 13.203 0.16 0.193 0.375 0.916 0.478 1.606 0.102 0.691 0.362 1.537 0.576 1.88 0.215 0.344 0.39 0.982 0.39 1.418 0 0.437 0.174 1.044 0.387 1.35s0.475 0.96 0.583 1.454c0.107 0.493 0.377 1.049 0.6 1.233 0.223 0.185 0.405 0.559 0.405 0.832 0 0.272 0.19 0.653 0.423 0.846s0.424 0.494 0.425 0.669c2e-3 0.345 2.808 4.846 3.451 5.537 0.217 0.233 0.973 1.185 1.682 2.115 1.323 1.74 4.147 4.542 5.83 5.786 0.523 0.386 1.154 0.925 1.403 1.196 0.248 0.272 0.618 0.494 0.821 0.494s0.44 0.185 0.527 0.412 0.412 0.493 0.723 0.592c0.311 0.098 1.092 0.53 1.737 0.959 1.285 0.855 2.887 1.709 4.416 2.355 0.543 0.229 1.573 0.684 2.288 1.011s1.604 0.599 1.975 0.604c0.37 5e-3 0.92 0.195 1.222 0.423 0.301 0.227 1.035 0.414 1.631 0.414 0.597 0 1.366 0.183 1.71 0.406 2.028 1.319 16.992 1.319 19.021 0 0.343-0.223 1.112-0.406 1.709-0.406 0.596 0 1.331-0.187 1.632-0.414 0.301-0.228 0.866-0.418 1.257-0.423 0.39-5e-3 1.151-0.244 1.692-0.53 0.541-0.287 1.332-0.607 1.759-0.711s0.776-0.314 0.776-0.466 0.31-0.277 0.688-0.277c0.379 0 0.775-0.14 0.881-0.311s0.589-0.492 1.075-0.714c0.485-0.222 1.263-0.651 1.728-0.954 0.466-0.303 1.12-0.672 1.454-0.82s0.696-0.413 0.804-0.588c0.109-0.176 0.422-0.406 0.696-0.511 1.189-0.458 7.149-6.125 8.901-8.465 0.543-0.725 1.184-1.572 1.426-1.882 0.779-1.004 2.375-3.569 2.375-3.819 0-0.134 0.382-0.809 0.848-1.5s0.933-1.68 1.036-2.199c0.104-0.518 0.357-1.111 0.563-1.317 0.206-0.205 0.374-0.73 0.374-1.165 0-0.436 0.187-0.947 0.416-1.137 0.228-0.189 0.493-0.808 0.588-1.374 0.096-0.566 0.353-1.43 0.572-1.919 0.219-0.488 0.398-1.511 0.398-2.273 0-0.78 0.181-1.623 0.415-1.932 0.61-0.806 0.625-12.736 0.018-13.54-0.249-0.329-0.418-1.192-0.424-2.16-4e-3 -0.887-0.187-2.029-0.406-2.539-0.218-0.509-0.54-1.466-0.716-2.125s-0.441-1.199-0.59-1.199-0.271-0.313-0.271-0.696c0-0.382-0.208-1.176-0.462-1.763-1.022-2.365-1.93-4.175-2.139-4.264-0.121-0.052-0.22-0.245-0.22-0.43 0-0.184-0.444-1.01-0.987-1.834-0.543-0.825-0.988-1.587-0.988-1.694s-0.222-0.398-0.493-0.647c-0.272-0.248-0.811-0.872-1.199-1.385-3.183-4.214-8.622-9.138-11.072-10.023-0.272-0.098-0.494-0.28-0.494-0.404 0-0.125-0.793-0.623-1.763-1.109-0.969-0.485-1.953-0.989-2.186-1.118-0.936-0.522-3.041-1.431-3.313-1.431-0.159 0-0.653-0.19-1.098-0.422-0.444-0.231-1.161-0.422-1.593-0.423s-1.067-0.18-1.411-0.398c-0.343-0.218-1.323-0.486-2.176-0.596-0.853-0.109-1.725-0.339-1.937-0.511-0.394-0.319-11.878-0.55-13.859-0.278m-134.25 0.892c-1.04 0.109-1.861 0.339-1.927 0.54-0.071 0.211-0.638 0.35-1.433 0.351-0.725 1e-3 -1.68 0.192-2.125 0.423-0.444 0.232-1.079 0.426-1.41 0.431-0.332 6e-3 -1.111 0.255-1.731 0.555-0.621 0.3-1.335 0.549-1.588 0.555-0.252 5e-3 -0.617 0.2-0.81 0.432-0.193 0.233-0.558 0.424-0.81 0.425-0.253 1e-3 -0.84 0.254-1.306 0.563-0.465 0.308-1.068 0.561-1.339 0.562-0.272 1e-3 -0.494 0.132-0.494 0.291s-0.286 0.418-0.635 0.576c-1.002 0.454-1.857 0.979-2.418 1.487-0.285 0.258-0.613 0.469-0.73 0.469-2.252 0-14.553 14.878-14.553 17.602 0 0.21-0.177 0.529-0.393 0.709-0.217 0.18-0.481 0.792-0.588 1.36s-0.374 1.29-0.594 1.604c-0.219 0.314-0.399 0.85-0.399 1.19 0 0.341-0.18 0.979-0.4 1.419-0.384 0.768-0.757 2.311-1.286 5.312-0.325 1.849-0.327 12.614-3e-3 14.245 0.775 3.888 1.097 5.163 1.377 5.443 0.172 0.172 0.312 0.715 0.312 1.208s0.18 1.046 0.401 1.229c0.22 0.183 0.484 0.826 0.586 1.429s0.366 1.246 0.586 1.429c0.221 0.183 0.401 0.562 0.401 0.842s0.191 0.7 0.423 0.933c0.233 0.232 0.423 0.552 0.423 0.71 0 0.343 1.2 2.64 1.661 3.181 1.117 1.31 1.443 1.771 1.444 2.045 3e-3 0.979 8.585 9.558 10.425 10.421 0.382 0.179 1 0.609 1.373 0.954 0.374 0.345 1.488 1.021 2.476 1.503 0.989 0.481 1.87 0.992 1.958 1.135s0.398 0.26 0.688 0.26 0.703 0.175 0.916 0.389c0.214 0.214 0.826 0.484 1.36 0.6 0.535 0.117 1.222 0.386 1.528 0.599s0.852 0.387 1.213 0.387 0.999 0.175 1.418 0.39c0.419 0.214 1.333 0.482 2.031 0.596 0.698 0.113 1.448 0.35 1.666 0.527 0.562 0.455 17.272 0.45 17.826-6e-3 0.217-0.179 1.03-0.415 1.806-0.524s1.692-0.375 2.035-0.591c0.344-0.215 0.918-0.392 1.277-0.392s0.903-0.174 1.209-0.387 1.001-0.481 1.544-0.596c0.543-0.114 1.178-0.368 1.41-0.562 0.233-0.195 0.772-0.437 1.199-0.538 0.427-0.102 0.776-0.309 0.776-0.461s0.245-0.277 0.544-0.277 0.734-0.19 0.966-0.422 0.717-0.548 1.078-0.702c0.361-0.153 1.417-0.844 2.348-1.533 0.931-0.69 1.777-1.263 1.88-1.273 0.103-0.011 0.621-0.432 1.151-0.936s1.334-1.243 1.787-1.642c1.837-1.618 5.271-5.617 6.67-7.768 0.819-1.258 1.645-2.527 1.837-2.821 0.191-0.293 0.521-0.914 0.732-1.38 0.211-0.465 0.703-1.544 1.093-2.397 1.683-3.683 1.917-4.282 1.917-4.912 0-0.366 0.189-1.029 0.421-1.474 0.232-0.444 0.422-1.328 0.423-1.963 1e-3 -0.636 0.191-1.535 0.422-1.998 0.905-1.814 0.807-15.338-0.118-16.263-0.166-0.166-0.303-0.816-0.304-1.444s-0.191-1.506-0.423-1.951c-0.232-0.444-0.422-1.142-0.422-1.551-1e-3 -0.409-0.255-1.159-0.565-1.667-0.309-0.508-0.563-1.159-0.563-1.447 0-0.287-0.19-0.68-0.423-0.874-0.233-0.193-0.423-0.516-0.423-0.717 0-0.657-3.486-7.045-4.226-7.745-0.082-0.078-0.68-0.855-1.329-1.727-2.427-3.265-8.616-8.871-10.861-9.839-0.962-0.415-1.749-0.941-2.004-1.34-0.124-0.194-0.38-0.352-0.569-0.352-0.188 0-0.816-0.254-1.395-0.564-0.579-0.311-1.243-0.565-1.477-0.565-0.233 0-0.424-0.122-0.424-0.271s-0.502-0.406-1.116-0.572c-0.614-0.165-1.186-0.413-1.271-0.55-0.085-0.138-0.693-0.34-1.352-0.449s-1.54-0.374-1.959-0.589c-0.419-0.214-1.28-0.389-1.914-0.389s-1.474-0.211-1.866-0.468c-0.785-0.514-11.34-0.81-15.041-0.422m279.68 9.611c0.148 0.143 1.016 0.396 1.929 0.562 0.913 0.167 1.802 0.416 1.975 0.555 0.172 0.138 0.751 0.345 1.285 0.46 0.534 0.114 1.146 0.382 1.36 0.596s0.627 0.389 0.919 0.389c0.291 0 1.094 0.381 1.783 0.846 0.69 0.466 1.385 0.847 1.546 0.847 0.16 0 0.459 0.158 0.664 0.352s0.911 0.718 1.57 1.165c2.836 1.926 7.63 7.322 8.741 9.837 0.257 0.581 0.569 1.057 0.694 1.057 0.126 0 0.228 0.161 0.228 0.357s0.254 0.831 0.564 1.41c0.311 0.579 0.565 1.282 0.565 1.564 0 0.281 0.186 0.757 0.414 1.058 0.228 0.302 0.419 0.929 0.425 1.394 6e-3 0.466 0.218 1.227 0.472 1.693 0.388 0.709 0.462 1.825 0.462 6.911 0 5.085-0.074 6.201-0.462 6.911-0.254 0.465-0.466 1.227-0.472 1.693-6e-3 0.465-0.197 1.092-0.425 1.393-0.228 0.302-0.414 0.783-0.414 1.07 0 0.288-0.445 1.345-0.988 2.351s-0.987 2.016-0.987 2.245-0.095 0.416-0.212 0.416c-0.116 1e-3 -0.59 0.604-1.053 1.34-1.592 2.534-6.708 7.686-8.055 8.113-0.304 0.097-0.553 0.265-0.553 0.374s-0.603 0.513-1.34 0.898-1.441 0.858-1.565 1.052c-0.125 0.194-0.422 0.353-0.662 0.353s-0.773 0.171-1.185 0.38c-1.735 0.881-2.789 1.279-3.852 1.455-0.62 0.103-1.333 0.371-1.584 0.596-0.67 0.601-13.935 0.599-14.605-2e-3 -0.25-0.224-0.95-0.499-1.556-0.612-0.606-0.112-1.431-0.376-1.834-0.586-0.402-0.21-0.921-0.386-1.154-0.392s-0.67-0.197-0.971-0.425-0.763-0.414-1.027-0.414c-0.265 0-0.554-0.191-0.643-0.424-0.089-0.232-0.334-0.423-0.545-0.423-0.21 0-1.007-0.444-1.771-0.987-0.763-0.543-1.484-0.987-1.601-0.987s-0.444-0.222-0.727-0.494c-0.284-0.271-1.077-1.015-1.763-1.653-3.146-2.924-5.5-6.027-6.893-9.089-0.4-0.88-0.912-1.936-1.138-2.348s-0.411-0.999-0.411-1.305c0-0.307-0.19-0.715-0.423-0.908-0.244-0.203-0.423-0.819-0.423-1.459 0-0.609-0.21-1.514-0.467-2.011-0.582-1.123-0.702-11.175-0.142-11.85 0.179-0.216 0.411-1.009 0.514-1.761s0.356-1.692 0.563-2.087c0.206-0.396 0.376-0.89 0.377-1.099s0.177-0.716 0.391-1.128c0.215-0.412 0.733-1.447 1.151-2.301 1.878-3.83 5.693-8.643 8.048-10.155 0.363-0.232 0.893-0.645 1.177-0.916 0.285-0.272 0.575-0.494 0.645-0.494s0.684-0.377 1.366-0.837 1.545-0.967 1.918-1.127c0.374-0.16 0.87-0.397 1.102-0.527 1.18-0.655 2.338-1.177 2.633-1.186 0.181-5e-3 0.837-0.255 1.458-0.554 0.62-0.3 1.509-0.552 1.974-0.559 0.466-8e-3 1.164-0.19 1.552-0.405 0.825-0.458 10.987-0.625 11.438-0.188m-137.25 2.139c1.008 0.222 2.611 0.408 3.562 0.413 1.112 7e-3 1.843 0.148 2.05 0.398 0.177 0.213 0.811 0.466 1.408 0.562 0.597 0.095 1.451 0.364 1.899 0.597 0.447 0.233 1.003 0.429 1.236 0.435s0.669 0.197 0.971 0.425c0.301 0.228 0.777 0.414 1.057 0.414 0.281 0 0.511 0.133 0.511 0.297 0 0.163 0.38 0.429 0.846 0.591 0.465 0.163 0.846 0.41 0.846 0.55s0.171 0.254 0.38 0.254 0.644 0.223 0.967 0.494c0.323 0.272 1.064 0.875 1.647 1.34 2.182 1.741 3.265 2.808 4.693 4.623 0.807 1.026 1.562 1.933 1.676 2.017 0.263 0.191 2.293 3.913 2.61 4.785 0.084 0.232 0.26 0.613 0.39 0.846 0.771 1.381 1.177 2.371 1.177 2.871 0 0.313 0.179 0.97 0.397 1.459 0.218 0.488 0.469 1.955 0.559 3.258 0.104 1.53 0.313 2.537 0.59 2.843 0.26 0.286 0.429 1.013 0.429 1.84 0 0.826-0.169 1.553-0.429 1.839-0.277 0.306-0.486 1.314-0.59 2.843-0.09 1.304-0.341 2.77-0.559 3.259s-0.401 1.187-0.406 1.551c-5e-3 0.365-0.195 0.909-0.423 1.21s-0.414 0.833-0.414 1.183c0 0.349-0.112 0.703-0.248 0.788-0.137 0.084-0.724 1.102-1.304 2.261-0.581 1.159-1.294 2.322-1.585 2.586-0.292 0.264-0.53 0.635-0.53 0.824 0 0.55-4.601 5.24-6.356 6.479-0.878 0.621-1.766 1.287-1.973 1.481-0.206 0.194-0.483 0.353-0.614 0.353s-0.912 0.444-1.737 0.987c-0.824 0.543-1.718 0.987-1.985 0.987s-0.732 0.187-1.033 0.415c-0.301 0.227-0.801 0.419-1.112 0.425-0.31 5e-3 -0.943 0.208-1.406 0.45-2.401 1.251-10.936 1.951-13.72 1.124-0.813-0.241-1.868-0.443-2.344-0.448-0.476-6e-3 -1.373-0.255-1.994-0.555-0.62-0.3-1.462-0.549-1.869-0.555-0.408-5e-3 -0.899-0.2-1.093-0.432-0.193-0.233-0.645-0.424-1.005-0.424s-0.722-0.11-0.805-0.245c-0.084-0.135-0.853-0.6-1.71-1.033-0.856-0.434-1.557-0.886-1.557-1.005 0-0.12-0.249-0.296-0.553-0.393-1.347-0.427-7.937-7.01-8.444-8.435-0.062-0.172-0.474-0.776-0.917-1.341s-0.805-1.216-0.805-1.446c0-0.231-0.191-0.577-0.424-0.77-0.232-0.193-0.424-0.621-0.425-0.951s-0.254-0.981-0.562-1.447c-0.308-0.465-0.561-1.103-0.562-1.418s-0.174-0.822-0.384-1.128-0.456-1.305-0.548-2.219c-0.091-0.914-0.3-1.796-0.464-1.96-0.474-0.474-0.379-8.544 0.116-9.918 0.224-0.621 0.416-1.636 0.428-2.257 0.012-0.62 0.208-1.374 0.436-1.676 0.228-0.301 0.414-0.789 0.414-1.084 0-0.296 0.182-0.875 0.404-1.286 0.222-0.412 0.693-1.384 1.046-2.16 1.81-3.972 6.301-9.467 9.466-11.583 0.806-0.539 1.647-1.161 1.87-1.384 0.222-0.222 0.747-0.49 1.166-0.595s0.829-0.365 0.91-0.578c0.082-0.213 0.338-0.387 0.569-0.387s0.757-0.171 1.169-0.38c1.934-0.983 2.813-1.316 3.916-1.484 0.657-0.099 1.339-0.356 1.516-0.569 0.209-0.252 0.978-0.397 2.191-0.415 1.029-0.015 2.505-0.19 3.28-0.39 1.855-0.476 1.952-0.476 4.091-6e-3m-131.17 1.115c1.629 0.277 3.168 0.606 3.421 0.732 0.252 0.127 0.95 0.32 1.551 0.43 0.601 0.111 1.343 0.373 1.649 0.584s0.85 0.383 1.208 0.383 0.724 0.19 0.814 0.423c0.089 0.233 0.393 0.423 0.676 0.423s0.682 0.16 0.887 0.356 0.69 0.512 1.078 0.703c0.963 0.475 1.636 0.937 2.507 1.72 0.405 0.365 1.054 0.828 1.442 1.029 0.871 0.451 3.504 3.207 4.784 5.007 0.524 0.737 1.038 1.34 1.141 1.34 0.104 0 0.542 0.698 0.973 1.552 0.432 0.853 0.897 1.551 1.034 1.551 0.136 0 0.248 0.245 0.248 0.544 0 0.3 0.191 0.735 0.423 0.967 0.233 0.233 0.424 0.662 0.424 0.954s0.186 0.777 0.414 1.078 0.418 0.868 0.423 1.261c5e-3 0.392 0.192 0.974 0.416 1.294s0.493 1.269 0.597 2.108 0.365 1.807 0.58 2.151c0.556 0.89 0.552 8.027-6e-3 8.906-0.218 0.343-0.487 1.323-0.599 2.176s-0.378 1.802-0.591 2.108c-0.214 0.306-0.388 0.893-0.388 1.305s-0.191 0.907-0.423 1.1c-0.233 0.193-0.423 0.57-0.423 0.837s-0.314 1.044-0.696 1.728c-0.383 0.684-0.888 1.624-1.123 2.09-0.455 0.903-1.052 1.884-1.286 2.115-0.078 0.078-0.518 0.649-0.977 1.27-2.145 2.901-9.058 8.603-10.429 8.603-0.204 0-0.529 0.191-0.722 0.424-0.193 0.232-0.56 0.423-0.815 0.423-0.254 0-0.937 0.254-1.516 0.564-0.578 0.31-1.256 0.564-1.504 0.564-0.249 0-0.852 0.179-1.341 0.397s-1.577 0.468-2.419 0.556c-0.841 0.088-1.66 0.291-1.819 0.45-0.476 0.476-7.538 0.368-8.737-0.134-0.557-0.232-1.557-0.427-2.221-0.432s-1.454-0.195-1.755-0.423c-0.302-0.228-0.895-0.414-1.32-0.414s-0.957-0.184-1.182-0.409-0.773-0.498-1.219-0.606c-0.445-0.109-1.06-0.369-1.366-0.578-0.306-0.21-0.786-0.382-1.067-0.382-0.28 0-0.583-0.19-0.672-0.423-0.089-0.232-0.33-0.423-0.535-0.423s-0.541-0.163-0.746-0.363-0.88-0.67-1.501-1.044c-1.591-0.96-6.666-6.083-7.645-7.715-0.45-0.751-1.031-1.703-1.293-2.116-0.654-1.033-1.64-2.997-1.64-3.265 0-0.122-0.183-0.621-0.407-1.11-0.223-0.489-0.544-1.423-0.713-2.076-0.168-0.653-0.43-1.263-0.58-1.356-0.151-0.094-0.275-0.801-0.275-1.573 0-0.771-0.19-1.858-0.423-2.415-0.562-1.345-0.567-6.304-8e-3 -7.855 0.223-0.621 0.412-1.724 0.419-2.452s0.136-1.4 0.287-1.493c0.15-0.093 0.409-0.704 0.574-1.356 0.436-1.722 1.455-4.146 2.693-6.406 1.467-2.677 5.086-6.945 7.384-8.708 2.198-1.686 3.469-2.522 4.948-3.254 0.895-0.443 1.696-0.916 1.779-1.051 0.084-0.135 0.446-0.245 0.806-0.245s0.812-0.19 1.005-0.423 0.685-0.424 1.093-0.425c0.407-1e-3 1.104-0.191 1.549-0.423 0.444-0.232 1.206-0.432 1.692-0.445 0.487-0.013 1.9-0.258 3.141-0.543 2.593-0.597 4.179-0.572 8.322 0.13m239.02 82.44c-0.493 0.064-1.048 0.3-1.234 0.523-0.22 0.266-0.888 0.408-1.925 0.409-0.873 1e-3 -1.951 0.191-2.395 0.423-0.445 0.232-1.079 0.422-1.411 0.423-0.331 1e-3 -0.943 0.179-1.359 0.397-0.416 0.217-1.137 0.478-1.602 0.58-0.466 0.102-0.997 0.368-1.182 0.591s-0.607 0.412-0.937 0.421-1.234 0.374-2.01 0.812-2.45 1.333-3.72 1.99-2.377 1.371-2.459 1.586c-0.083 0.215-0.287 0.391-0.453 0.391-0.28 0-1.678 0.898-2.416 1.552-0.175 0.155-0.987 0.853-1.805 1.551-1.651 1.411-4.874 4.685-6.108 6.206-0.441 0.543-0.868 1.051-0.948 1.129-0.081 0.077-0.527 0.712-0.991 1.41-0.465 0.698-0.909 1.333-0.987 1.411-0.394 0.392-1.411 1.984-1.411 2.21 0 0.143-0.178 0.407-0.395 0.587-0.218 0.181-0.482 0.671-0.587 1.09s-0.287 0.826-0.404 0.905c-0.292 0.198-1.715 3.266-1.726 3.723-5e-3 0.204-0.195 0.617-0.423 0.918s-0.418 0.809-0.423 1.128c-5e-3 0.32-0.195 0.827-0.423 1.129-0.228 0.301-0.419 0.872-0.424 1.269s-0.255 1.23-0.554 1.85c-0.311 0.643-0.55 1.741-0.555 2.553-5e-3 0.784-0.168 1.583-0.362 1.777-0.5 0.499-0.68 8.929-0.203 9.503 0.499 0.602 11.042 0.609 11.541 8e-3 0.358-0.431 0.717-2.326 1.261-6.648 0.186-1.474 0.489-3.037 0.674-3.474 0.186-0.436 0.337-1.095 0.337-1.464 0-0.368 0.118-0.742 0.261-0.831s0.348-0.572 0.454-1.074c0.107-0.503 0.345-1.104 0.529-1.337s0.638-1.185 1.01-2.116c0.371-0.931 0.842-1.86 1.044-2.065 0.203-0.205 0.37-0.504 0.37-0.665 0-0.16 0.362-0.754 0.805-1.319 0.443-0.566 0.855-1.175 0.917-1.355 0.678-1.99 10.144-10.487 11.724-10.526 0.181-4e-3 0.371-0.114 0.423-0.244 0.08-0.202 1.639-0.981 5.454-2.726 0.465-0.213 1.385-0.47 2.045-0.571 0.659-0.101 1.199-0.288 1.199-0.417 0-0.128 0.983-0.322 2.186-0.431 1.202-0.109 2.614-0.374 3.137-0.589 1.403-0.574 39.283-0.576 40.693-1e-3 0.523 0.213 1.872 0.474 2.997 0.581 1.125 0.106 2.395 0.375 2.821 0.597 0.426 0.223 1.092 0.41 1.48 0.415 0.388 6e-3 0.952 0.198 1.253 0.425 0.301 0.228 0.757 0.414 1.013 0.414 0.257 0 1.026 0.308 1.709 0.683 0.684 0.375 1.942 1.042 2.795 1.48 0.854 0.439 1.719 0.957 1.924 1.151 0.205 0.195 0.472 0.354 0.592 0.354s0.485 0.222 0.81 0.493c0.326 0.272 0.987 0.8 1.47 1.173 2.396 1.854 6.736 6.536 8.03 8.664 0.46 0.757 1.24 2.026 1.733 2.821 0.492 0.794 0.981 1.833 1.085 2.308 0.104 0.474 0.372 1.014 0.594 1.199 0.223 0.185 0.405 0.622 0.405 0.972s0.191 0.794 0.423 0.987c0.233 0.194 0.424 0.749 0.425 1.234s0.192 1.246 0.423 1.69c0.232 0.444 0.422 1.299 0.422 1.898 0 0.6 0.181 1.569 0.403 2.154 0.221 0.585 0.453 2.104 0.516 3.375 0.065 1.31 0.272 2.502 0.478 2.751 0.473 0.57 10.961 0.661 11.522 0.1 0.434-0.433 0.453-8.07 0.025-9.676-0.166-0.62-0.392-1.763-0.503-2.538-0.111-0.776-0.417-1.817-0.68-2.314-0.263-0.496-0.478-1.217-0.478-1.601 0-0.385-0.19-0.89-0.423-1.123-0.232-0.232-0.423-0.688-0.423-1.013 0-0.656-2.215-5.461-2.585-5.609-0.13-0.052-0.236-0.32-0.236-0.597 0-0.276-0.254-0.825-0.564-1.219-0.31-0.395-0.564-0.798-0.564-0.896 0-0.177-1.126-1.859-1.425-2.13-0.086-0.078-0.461-0.649-0.833-1.27-0.372-0.62-1.015-1.509-1.428-1.974-2.33-2.626-5.225-5.692-5.683-6.019-0.289-0.207-0.861-0.686-1.27-1.065-0.408-0.379-1.109-0.971-1.556-1.316s-1.079-0.849-1.404-1.121c-0.326-0.271-0.735-0.494-0.909-0.494-0.175 0-0.522-0.222-0.771-0.493-0.788-0.858-1.743-1.481-2.268-1.481-0.279 0-0.507-0.125-0.507-0.277s-0.349-0.36-0.775-0.463c-0.427-0.102-1.003-0.422-1.281-0.71-0.277-0.289-0.738-0.525-1.023-0.525s-0.677-0.19-0.87-0.423-0.637-0.423-0.987-0.423-0.792-0.187-0.981-0.416c-0.19-0.228-0.797-0.5-1.349-0.604-0.551-0.103-1.332-0.36-1.734-0.569-0.403-0.21-1.003-0.383-1.334-0.384-0.332-1e-3 -0.966-0.191-1.411-0.423-0.444-0.232-1.496-0.422-2.337-0.423-1.059-1e-3 -1.697-0.154-2.074-0.496-0.517-0.467-45.588-0.87-48.914-0.436m-129.15 2.094c-1.086 0.124-3.152 0.341-4.592 0.482-1.727 0.169-2.79 0.412-3.125 0.716-0.328 0.296-1.012 0.459-1.932 0.459-0.922 0-1.548 0.149-1.775 0.423-0.194 0.233-0.723 0.423-1.178 0.423-0.454 0-1.296 0.236-1.87 0.524-2.515 1.264-2.948 1.452-3.393 1.47-0.259 0.01-1.105 0.39-1.881 0.844-0.776 0.453-1.664 0.958-1.975 1.121-1.25 0.657-3.229 1.95-3.757 2.455-0.205 0.196-0.482 0.356-0.615 0.356s-0.41 0.159-0.615 0.353-1.324 1.111-2.488 2.037c-2.734 2.177-5.432 4.926-6.77 6.901-0.233 0.343-0.836 1.091-1.34 1.661s-0.916 1.17-0.917 1.332c0 0.34-0.758 1.392-1.481 2.056-0.271 0.25-0.493 0.628-0.493 0.841 0 0.212-0.254 0.709-0.565 1.103-0.31 0.395-0.564 0.9-0.564 1.123s-0.19 0.596-0.423 0.828c-0.233 0.233-0.423 0.653-0.423 0.933s-0.19 0.667-0.423 0.861c-0.233 0.193-0.423 0.559-0.423 0.814s-0.254 0.937-0.564 1.516c-0.311 0.579-0.565 1.375-0.565 1.769s-0.178 0.997-0.395 1.341c-0.218 0.343-0.486 1.069-0.597 1.612-0.11 0.543-0.313 1.127-0.451 1.298-0.137 0.171-0.33 1.123-0.429 2.116-0.099 0.992-0.321 1.982-0.494 2.2-0.634 0.799-0.587 7.982 0.059 8.78 0.586 0.724 7.464 1.204 10.121 0.705 1.575-0.295 2.572-2.985 2.617-7.06 8e-3 -0.776 0.198-1.918 0.422-2.539 0.223-0.62 0.412-1.515 0.419-1.988 6e-3 -0.473 0.151-1 0.321-1.17s0.612-1.179 0.983-2.242c0.811-2.329 1.545-3.829 2.022-4.134 0.194-0.124 0.353-0.399 0.353-0.61 0-0.402 1.427-2.693 2.732-4.383 2.467-3.198 8.81-8.632 11.409-9.774 0.408-0.179 0.828-0.465 0.934-0.635 0.105-0.171 0.422-0.31 0.704-0.31s0.671-0.191 0.864-0.424c0.193-0.232 0.638-0.423 0.988-0.423 0.349 0 0.782-0.176 0.961-0.392 0.18-0.216 0.89-0.477 1.58-0.581 0.689-0.103 1.323-0.3 1.408-0.437s0.754-0.334 1.487-0.438c0.734-0.103 1.615-0.364 1.958-0.58 0.931-0.585 46.057-0.585 46.988 0 0.343 0.216 1.228 0.478 1.964 0.581 0.737 0.104 1.34 0.292 1.34 0.418s0.524 0.313 1.165 0.415c0.64 0.102 1.43 0.373 1.755 0.6 0.325 0.228 0.865 0.414 1.199 0.414s0.766 0.191 0.959 0.423c0.193 0.233 0.582 0.424 0.864 0.424s0.589 0.122 0.682 0.272c0.092 0.15 0.793 0.587 1.557 0.971 4.172 2.095 9.593 7.422 13.037 12.809 0.866 1.356 2.76 5.301 2.76 5.75 0 0.241 0.19 0.597 0.423 0.79s0.423 0.752 0.423 1.241c0 0.49 0.174 1.141 0.386 1.447s0.475 1.405 0.584 2.443c0.113 1.07 0.374 2.031 0.602 2.22 0.296 0.246 0.403 1.028 0.403 2.948 0 3.999-0.112 3.924 6.003 4.04l4.927 0.093 1.06-0.931 1.059-0.93-0.181-2.362c-0.1-1.298-0.307-2.595-0.46-2.881-0.153-0.287-0.283-1.323-0.289-2.302-5e-3 -1.01-0.184-2.088-0.413-2.487-0.221-0.388-0.408-1.15-0.415-1.693-6e-3 -0.543-0.188-1.326-0.404-1.74s-0.478-1.259-0.583-1.878c-0.104-0.619-0.367-1.359-0.584-1.645-0.216-0.286-0.398-0.691-0.402-0.9-0.013-0.546-0.975-2.666-2.807-6.186-0.412-0.792-2.067-3.334-2.553-3.921-0.152-0.183-0.814-1.118-1.473-2.078-1.895-2.76-9.817-10.425-10.776-10.425-0.095 0-0.394-0.202-0.666-0.45-0.722-0.659-3.458-2.371-3.788-2.371-0.156 0-0.606-0.253-1.001-0.564-0.394-0.31-0.875-0.564-1.067-0.564-0.193 0-0.509-0.19-0.702-0.423s-0.579-0.423-0.858-0.423-0.866-0.178-1.305-0.396c-2.165-1.075-3.461-1.58-4.074-1.588-0.371-5e-3 -0.921-0.195-1.222-0.423s-1.116-0.414-1.811-0.414c-0.772 0-1.462-0.179-1.772-0.459-0.33-0.3-1.372-0.544-2.984-0.701-1.362-0.132-3.555-0.36-4.874-0.505-2.89-0.319-35.708-0.312-38.505 8e-3m-135.03 0.727c-0.57 0.063-1.188 0.299-1.374 0.523-0.247 0.297-0.997 0.407-2.789 0.407-1.717 0-2.614 0.124-2.998 0.414-0.301 0.228-0.995 0.418-1.542 0.423s-1.261 0.196-1.586 0.423c-0.326 0.228-1.113 0.498-1.75 0.6-0.638 0.102-1.304 0.36-1.481 0.573s-0.596 0.388-0.93 0.388-0.858 0.174-1.164 0.387-0.978 0.479-1.493 0.591c-0.514 0.112-1.004 0.382-1.088 0.6-0.083 0.218-0.338 0.396-0.566 0.396-0.543 0-4.321 2.248-4.321 2.571 0 0.138-0.128 0.25-0.285 0.25-0.389 0-3.187 1.97-3.467 2.441-0.124 0.209-0.346 0.38-0.493 0.38-0.403 0-5.443 4.734-6.474 6.08-0.233 0.304-1.09 1.395-1.904 2.424-0.815 1.03-1.481 2.004-1.481 2.165s-0.168 0.46-0.373 0.665c-0.733 0.734-3.577 5.829-3.577 6.41 0 0.325-0.121 0.592-0.27 0.592s-0.427 0.539-0.617 1.199c-0.19 0.659-0.512 1.449-0.716 1.755s-0.375 0.941-0.38 1.41c-5e-3 0.47-0.195 1.101-0.423 1.402s-0.414 0.989-0.414 1.529-0.204 1.208-0.454 1.483c-0.314 0.347-0.499 1.265-0.601 2.984-0.081 1.366-0.267 2.634-0.413 2.819-0.36 0.454-0.629 4.283-0.391 5.553l0.192 1.022h6.042c7.159 0 6.622 0.331 6.824-4.203 0.075-1.674 0.309-3.381 0.532-3.879 0.219-0.489 0.398-1.393 0.398-2.01s0.178-1.269 0.394-1.449c0.216-0.179 0.481-0.791 0.587-1.36 0.107-0.568 0.374-1.29 0.594-1.604s0.4-0.852 0.4-1.197c0-0.344 0.119-0.699 0.265-0.789 0.146-0.091 0.558-0.765 0.915-1.498 3.342-6.87 12.705-15.411 18.778-17.13 0.349-0.099 0.634-0.298 0.634-0.443 0-0.144 0.353-0.263 0.784-0.263s1.034-0.174 1.34-0.388c0.306-0.213 1.254-0.481 2.108-0.596 0.853-0.114 1.682-0.312 1.841-0.44 0.665-0.535 9.1-0.83 23.688-0.83 14.587 0 23.022 0.295 23.687 0.83 0.159 0.128 0.988 0.326 1.842 0.44 0.853 0.115 1.801 0.383 2.107 0.596 0.306 0.214 0.894 0.388 1.306 0.388s0.907 0.191 1.1 0.423c0.193 0.233 0.644 0.424 1.002 0.424 0.357 0 0.824 0.173 1.036 0.386 0.212 0.212 0.691 0.482 1.065 0.601 0.373 0.118 0.852 0.389 1.065 0.601 0.212 0.213 0.559 0.386 0.771 0.386s0.803 0.382 1.314 0.848c0.51 0.466 1.169 0.924 1.465 1.018 0.924 0.293 6.529 5.633 7.982 7.605 1.748 2.371 2.655 3.689 2.799 4.069 0.087 0.233 0.277 0.614 0.42 0.847 0.143 0.232 0.465 0.899 0.715 1.481 0.251 0.581 0.569 1.057 0.707 1.057s0.252 0.286 0.253 0.635 0.191 0.998 0.423 1.443c0.232 0.444 0.422 1.023 0.422 1.286s0.186 0.724 0.414 1.025c0.228 0.302 0.418 0.942 0.423 1.423 0.011 1.072 0.537 2.651 0.883 2.651 0.14 0 0.256 1.428 0.258 3.174 6e-3 4.94-0.723 4.442 6.512 4.442h6.167l0.168-0.667c0.405-1.615-0.58-10.87-1.226-11.516-0.188-0.188-0.342-0.792-0.343-1.343-1e-3 -0.55-0.17-1.324-0.376-1.719-0.206-0.394-0.462-1.156-0.568-1.692s-0.583-1.8-1.06-2.809c-0.478-1.008-1.118-2.404-1.423-3.103-0.306-0.698-0.669-1.459-0.808-1.692-1.393-2.334-1.913-3.178-2.783-4.514-0.556-0.853-1.242-1.805-1.525-2.115-0.283-0.311-0.984-1.127-1.556-1.815-1.481-1.777-4.449-4.748-6.225-6.23-0.834-0.695-1.773-1.486-2.088-1.758-0.315-0.271-0.715-0.493-0.89-0.493-0.174 0-0.699-0.349-1.167-0.776s-1.163-0.941-1.544-1.143c-2.155-1.14-3.598-1.958-4.214-2.39-0.382-0.268-0.969-0.487-1.303-0.487s-0.766-0.19-0.959-0.423-0.646-0.423-1.005-0.423c-0.36 0-0.731-0.124-0.824-0.275s-0.704-0.412-1.357-0.58c-0.652-0.169-1.587-0.49-2.075-0.713-0.489-0.224-1.314-0.411-1.834-0.416s-1.191-0.195-1.492-0.423c-0.382-0.288-1.273-0.414-2.94-0.414-1.882 0-2.508-0.105-2.937-0.494-0.519-0.469-38.471-0.861-42.285-0.436"/>
  <path d="m60.085 0.564c-0.489 0.489-0.565 0.94-0.565 3.385v2.821l-1.198 2e-3c-0.66 1e-3 -1.563 0.191-2.007 0.423-0.445 0.232-1.464 0.421-2.265 0.421s-1.707 0.172-2.013 0.381c-0.306 0.21-0.937 0.474-1.402 0.587-0.466 0.112-1.037 0.37-1.27 0.572-0.232 0.203-0.708 0.455-1.058 0.562-0.349 0.106-0.634 0.311-0.634 0.456s-0.127 0.263-0.282 0.263c-0.325 0-3.667 2.546-3.669 2.796-1e-3 0.091-0.413 0.622-0.917 1.179-1.336 1.479-2.184 2.715-2.184 3.184 0 0.226-0.1 0.453-0.221 0.505-0.244 0.104-1.474 2.645-2.025 4.184-1.109 3.098-1.114 11.675-9e-3 14.668 0.201 0.543 0.488 1.337 0.639 1.764 0.15 0.426 0.385 0.775 0.521 0.775 0.137 0 0.248 0.192 0.248 0.426 0 0.427 1.451 2.647 2.762 4.226 1.368 1.647 6.169 4.939 7.203 4.939 0.222 0 0.562 0.191 0.755 0.423 0.193 0.233 0.637 0.423 0.987 0.423s0.791 0.188 0.981 0.416c0.19 0.229 0.797 0.501 1.348 0.604 0.552 0.104 1.333 0.36 1.735 0.57s1.07 0.382 1.484 0.383 1.144 0.224 1.621 0.496l0.867 0.493 2e-3 9.514 1e-3 9.513-0.916-0.176c-3.153-0.605-5.829-4.476-5.866-8.485-8e-3 -0.862-0.243-1.74-0.66-2.467l-0.647-1.129-7.355-0.075c-9.097-0.093-8.354-0.51-8.204 4.605 0.066 2.292 0.236 3.877 0.441 4.124 0.184 0.221 0.418 0.966 0.52 1.657 0.103 0.69 0.362 1.536 0.577 1.88 0.214 0.343 0.397 0.851 0.406 1.128 0.033 1.022 2.974 5.561 4.545 7.014 1.282 1.186 3.816 2.939 4.251 2.942 0.196 1e-3 0.736 0.254 1.202 0.562 0.465 0.308 1.185 0.561 1.598 0.562 0.414 1e-3 0.798 0.137 0.853 0.302 0.055 0.166 0.668 0.376 1.363 0.467 0.695 0.092 1.517 0.326 1.828 0.52 0.31 0.194 1.485 0.441 2.61 0.549s2.117 0.31 2.203 0.45c0.086 0.139 0.403 0.253 0.704 0.253 0.519 0 0.547 0.233 0.547 4.472 0 5.912 0.079 6.025 4.15 5.905 3.531-0.104 3.457 0.021 3.463-5.878l4e-3 -4.386 0.917-0.329c0.504-0.182 1.678-0.413 2.609-0.514 0.931-0.1 1.974-0.358 2.317-0.573 0.344-0.214 0.923-0.39 1.286-0.39 0.364 0 0.908-0.186 1.209-0.414s0.816-0.418 1.144-0.423 0.92-0.263 1.314-0.573c0.395-0.31 0.904-0.564 1.132-0.564s0.573-0.191 0.766-0.423c0.193-0.233 0.5-0.424 0.682-0.424 1.263 0 6.293-5.407 7.48-8.039 0.349-0.776 0.877-1.88 1.173-2.454 0.296-0.573 0.538-1.416 0.538-1.872 0-0.455 0.189-1.192 0.421-1.636 0.327-0.627 0.422-1.914 0.422-5.745 0-3.83-0.095-5.117-0.422-5.744-0.232-0.445-0.421-1.065-0.421-1.38 0-0.509-0.776-2.446-1.44-3.595-0.134-0.233-0.428-0.831-0.653-1.33-0.667-1.479-4.746-5.286-6.726-6.277-1.767-0.885-2.327-1.179-3.24-1.703-0.272-0.155-0.811-0.41-1.199-0.566s-1.042-0.473-1.454-0.704c-0.412-0.232-1.063-0.421-1.447-0.421-0.383 0-0.855-0.191-1.049-0.424-0.193-0.232-0.621-0.424-0.951-0.425s-0.981-0.254-1.446-0.562c-0.466-0.308-1.1-0.565-1.411-0.571-1.547-0.03-1.551-0.056-1.551-9.262 0-8.969 7e-3 -9.013 1.253-8.07 0.301 0.227 0.711 0.414 0.911 0.414 1.21 0 3.478 3.756 3.478 5.759 0 3.51 0.711 3.832 8.49 3.832 7.854 0 8.278-0.122 8.055-2.324-0.39-3.853-0.817-6.334-1.188-6.905-0.224-0.343-0.407-0.876-0.407-1.184 0-0.684-1.225-3.028-2.593-4.961-1.318-1.862-4.667-4.835-6.198-5.501-0.362-0.157-1.293-0.658-2.069-1.112s-1.749-0.833-2.163-0.844c-0.414-0.01-0.802-0.167-0.862-0.349-0.063-0.188-0.895-0.387-1.928-0.46-0.999-0.071-2.068-0.303-2.374-0.516-0.306-0.212-0.972-0.386-1.481-0.386h-0.924v-2.758c0-3.912-0.092-4.012-3.683-4.012-2.429-0-2.881 0.076-3.369 0.564m137.11 0.255c-0.487 0.684-0.583 1.244-0.583 3.385v2.566l-1.199 2e-3c-0.659 1e-3 -1.562 0.191-2.007 0.423-0.444 0.232-1.467 0.421-2.273 0.421-0.852 0-1.695 0.174-2.013 0.415-0.301 0.227-0.816 0.418-1.144 0.423s-0.9 0.241-1.27 0.525-0.863 0.606-1.095 0.716c-1.429 0.676-3.661 2.403-4.97 3.845-0.493 0.543-1.195 1.311-1.56 1.706s-0.918 1.218-1.228 1.829-0.723 1.281-0.917 1.488-0.357 0.527-0.362 0.71c-5e-3 0.182-0.255 0.84-0.554 1.46-0.3 0.621-0.55 1.527-0.555 2.013-5e-3 0.487-0.199 1.248-0.431 1.693-0.323 0.618-0.421 1.866-0.421 5.321s0.098 4.703 0.421 5.322c0.232 0.444 0.421 1.079 0.421 1.41-1e-3 0.761 1.414 4.129 1.735 4.129 0.132 0 0.24 0.19 0.24 0.422 0 0.793 2.522 3.673 4.577 5.226 2.305 1.743 8.231 4.789 9.314 4.789 0.237 0 0.795 0.189 1.239 0.421s1.147 0.422 1.561 0.423 1.143 0.224 1.62 0.496l0.867 0.493 2e-3 9.514 2e-3 9.513-0.917-0.177c-2.163-0.419-4.711-2.838-5.145-4.886-0.115-0.543-0.324-1.131-0.465-1.306-0.14-0.175-0.337-1.37-0.436-2.655-0.274-3.562 0.2-3.374-8.498-3.374-9.037 0-8.393-0.307-8.325 3.982 0.028 1.746 0.179 3.437 0.334 3.758 0.156 0.32 0.363 1.303 0.461 2.184 0.098 0.882 0.36 1.754 0.583 1.939s0.405 0.575 0.405 0.867c0 0.54 1.802 4.195 2.498 5.068 0.82 1.028 3.622 3.804 4.245 4.205 0.361 0.233 0.948 0.646 1.303 0.917 0.356 0.272 0.833 0.494 1.061 0.494s0.57 0.187 0.76 0.415c0.19 0.229 0.796 0.501 1.348 0.604 0.552 0.104 1.333 0.36 1.735 0.57s1.09 0.383 1.527 0.384c0.438 1e-3 0.967 0.172 1.176 0.381 0.212 0.213 1.347 0.462 2.576 0.566 1.208 0.102 2.323 0.312 2.478 0.466 0.154 0.154 0.509 0.281 0.788 0.281 0.466 0 0.508 0.344 0.508 4.215 0 3.775 0.062 4.32 0.592 5.219l0.592 1.003h2.666c3.931 0 4.028-0.142 4.039-5.926 0.011-5.11-0.102-4.919 3.093-5.234 1.117-0.11 2.203-0.373 2.415-0.585 0.212-0.211 0.747-0.385 1.189-0.385s1.054-0.174 1.36-0.387 0.969-0.477 1.473-0.586c0.504-0.11 0.917-0.314 0.917-0.454s0.336-0.339 0.747-0.442c2.102-0.528 7.233-4.987 8.42-7.319 0.311-0.609 0.635-1.171 0.72-1.249 0.439-0.398 1.678-3.182 1.678-3.771 0-0.373 0.19-1.041 0.422-1.486 0.584-1.119 0.617-12.562 0.039-13.669-0.21-0.402-0.466-1.183-0.57-1.735-0.103-0.551-0.375-1.158-0.603-1.348-0.229-0.19-0.416-0.531-0.416-0.76 0-0.228-0.222-0.705-0.494-1.061-0.271-0.355-0.684-0.935-0.917-1.289-1.191-1.809-6.205-5.911-7.226-5.911-0.177 0-0.479-0.19-0.672-0.423-0.193-0.232-0.574-0.423-0.846-0.423-0.273 0-0.651-0.187-0.84-0.415-0.19-0.229-0.777-0.497-1.304-0.596-0.528-0.099-0.959-0.283-0.959-0.408 0-0.126-0.413-0.31-0.917-0.41-0.936-0.185-2.08-0.648-3.935-1.59-0.573-0.291-1.278-0.53-1.565-0.53-1.157 0-1.2-0.329-1.2-9.224 0-4.701 0.037-8.548 0.082-8.548 0.177 0 2.069 1.022 2.621 1.416 1.056 0.753 2.375 2.853 2.375 3.783 0 0.485 0.182 1.142 0.404 1.459 0.223 0.318 0.445 1.137 0.494 1.82 0.139 1.936 0.35 1.984 8.363 1.895 8.226-0.091 7.771 0.127 7.602-3.648-0.06-1.344-0.249-2.613-0.42-2.821-0.171-0.207-0.4-0.976-0.509-1.708s-0.375-1.478-0.591-1.657-0.4-0.596-0.409-0.926c-8e-3 -0.33-0.384-1.235-0.834-2.01-0.449-0.776-0.944-1.69-1.099-2.032-0.334-0.735-4.33-4.879-4.705-4.879-0.142 0-0.883-0.445-1.647-0.988s-1.568-0.987-1.788-0.987-0.722-0.254-1.117-0.564c-0.394-0.31-1.049-0.568-1.455-0.573s-0.984-0.196-1.285-0.423c-0.301-0.228-1.144-0.415-1.872-0.415s-1.688-0.189-2.132-0.421c-0.445-0.232-1.094-0.422-1.443-0.423-0.617-2e-3 -0.635-0.081-0.635-2.948 0-3.75-0.077-3.824-3.992-3.824-2.702 0-2.747 0.011-3.323 0.819m137.09-0.273c-0.161 0.3-0.292 1.823-0.292 3.385v2.839h-1.498c-0.88 0-1.723 0.171-2.045 0.414-0.325 0.246-1.187 0.418-2.116 0.423-0.929 6e-3 -1.791 0.178-2.115 0.424-0.302 0.227-0.805 0.418-1.119 0.423-0.313 5e-3 -1.23 0.443-2.037 0.974-0.806 0.531-1.716 1.045-2.022 1.142-0.835 0.266-5.043 4.57-5.672 5.803-0.303 0.593-0.679 1.158-0.836 1.255-0.158 0.097-0.287 0.398-0.287 0.668s-0.142 0.633-0.316 0.807c-0.528 0.529-1.655 3.55-1.66 4.451-2e-3 0.466-0.193 1.47-0.424 2.231-0.541 1.784-0.54 5.796 3e-3 7.879 0.232 0.893 0.423 1.971 0.423 2.394 0 0.424 0.171 1.02 0.381 1.326 0.209 0.306 0.471 0.928 0.582 1.381 0.11 0.453 0.446 1.137 0.747 1.519 0.3 0.382 0.547 0.818 0.547 0.969 0 0.795 3.945 4.928 5.5 5.762 0.466 0.25 0.91 0.532 0.988 0.627 0.139 0.17 3.165 1.675 5.672 2.821 0.715 0.327 1.494 0.595 1.731 0.595s0.794 0.189 1.238 0.421c0.445 0.232 1.116 0.422 1.492 0.423s1.166 0.224 1.756 0.496l1.072 0.493 7e-3 9.543 8e-3 9.543-0.917-0.181c-2.016-0.399-4.448-2.188-4.877-3.587-0.11-0.357-0.299-0.776-0.421-0.931-0.121-0.155-0.314-0.917-0.427-1.693-0.113-0.775-0.379-1.66-0.591-1.967-0.211-0.306-0.384-1.153-0.384-1.883 0-2.252 0.14-2.215-8.138-2.215-8.92 0-8.615-0.111-8.401 3.063 0.296 4.403 0.648 6.765 1.113 7.475 0.262 0.4 0.476 1.06 0.476 1.468s0.171 1.079 0.38 1.491c0.208 0.412 0.685 1.384 1.057 2.159 0.785 1.634 0.836 1.701 2.996 3.972 1.678 1.765 4.314 3.784 4.943 3.788 0.196 1e-3 0.736 0.254 1.202 0.562 0.465 0.308 1.1 0.565 1.41 0.571 0.311 6e-3 0.811 0.197 1.112 0.425s0.885 0.414 1.297 0.414 1.117 0.179 1.568 0.397c0.45 0.219 1.74 0.485 2.865 0.593s2.117 0.31 2.203 0.45c0.086 0.139 0.466 0.253 0.845 0.253h0.689v4.5c0 6.085-0.085 5.937 3.381 5.937 4.005 0 4.066-0.085 4.185-5.859 0.106-5.121 0.038-4.998 2.913-5.287 1.031-0.104 2.22-0.368 2.641-0.586 0.422-0.219 1.041-0.398 1.377-0.398 0.335 0 0.86-0.174 1.166-0.387s0.96-0.475 1.454-0.582c0.493-0.107 1.048-0.378 1.233-0.6 0.185-0.223 0.566-0.405 0.846-0.405s0.677-0.159 0.882-0.353 0.934-0.733 1.619-1.199c2.568-1.744 4.731-4.059 6.28-6.722 0.567-0.977 1.361-2.977 1.369-3.451 5e-3 -0.301 0.195-0.793 0.423-1.094 0.286-0.378 0.414-1.263 0.414-2.859 0-1.502 0.148-2.594 0.421-3.119 0.232-0.445 0.422-1.316 0.422-1.937 0-0.62-0.19-1.492-0.422-1.936-0.256-0.492-0.421-1.579-0.421-2.778 0-1.171-0.181-2.389-0.445-3-0.789-1.828-1.906-4.129-2.074-4.274-0.089-0.078-0.533-0.687-0.985-1.354-0.868-1.279-3.261-3.442-3.808-3.442-0.177 0-0.385-0.163-0.461-0.362-0.077-0.199-0.737-0.675-1.467-1.058-0.731-0.383-1.498-0.854-1.706-1.048s-0.607-0.353-0.887-0.353c-0.281 0-0.668-0.19-0.861-0.423s-0.494-0.427-0.669-0.433c-0.175-5e-3 -0.826-0.254-1.447-0.554-0.62-0.3-1.398-0.55-1.728-0.555s-0.758-0.2-0.952-0.433c-0.193-0.232-0.624-0.423-0.959-0.423-0.334 0-0.913-0.214-1.287-0.476s-1.132-0.549-1.685-0.639l-1.005-0.163-0.075-8.811c-0.041-4.846-0.036-8.811 0.011-8.811 0.167 0 2.049 1.016 2.764 1.492 0.796 0.529 1.954 2.611 1.954 3.512 0 0.313 0.191 0.727 0.424 0.92 0.278 0.232 0.423 0.862 0.423 1.848 0 2.628 0.415 2.746 9.261 2.614 7.356-0.109 6.921 0.163 6.752-4.231-0.064-1.658-0.254-3.181-0.423-3.385-0.169-0.205-0.402-0.88-0.518-1.5-0.7-3.745-7.076-11.707-9.376-11.707-0.147 0-0.426-0.19-0.619-0.423s-0.538-0.423-0.766-0.423-0.737-0.254-1.131-0.564c-0.395-0.31-1.05-0.568-1.455-0.573-0.406-5e-3 -0.984-0.196-1.286-0.423-0.301-0.228-1.143-0.415-1.871-0.415-0.729 0-1.688-0.189-2.133-0.421-0.444-0.232-1.093-0.422-1.442-0.423-0.608-2e-3 -0.635-0.103-0.635-2.358 0-4.196-0.209-4.404-4.433-4.41-2.284-4e-3 -2.635 0.062-2.891 0.542m-274.76 27.82v7.491l-0.626-0.439c-0.345-0.242-0.781-0.439-0.968-0.439-1.489 0-3.909-3.052-4.208-5.305-0.483-3.646 1.254-7.94 3.219-7.957 0.257-3e-3 0.785-0.181 1.173-0.396 1.445-0.802 1.41-0.972 1.41 7.045m137.1 0v7.491l-0.627-0.439c-0.345-0.242-0.856-0.439-1.137-0.439-0.651 0-3.015-2.369-3.689-3.697-1.574-3.102 0.374-9.502 2.914-9.57 0.233-6e-3 0.741-0.193 1.129-0.414 1.436-0.822 1.41-0.953 1.41 7.068m137.38-0.016c0 7.594-0.062 8.018-1.028 7.052-0.233-0.233-0.668-0.423-0.967-0.423s-0.784-0.222-1.077-0.494c-2.132-1.974-2.57-2.454-2.57-2.818 0-0.226-0.202-0.837-0.449-1.357-1.227-2.585 1.041-8.589 3.244-8.589 0.265 0 0.728-0.187 1.03-0.414 0.301-0.228 0.833-0.419 1.182-0.424l0.635-9e-3v7.476m-265.45 27.633c0.188 0.227 0.607 0.497 0.93 0.599 1.208 0.384 2.629 1.843 3.663 3.761 0.667 1.237 0.72 6.537 0.071 7.076-0.233 0.193-0.423 0.534-0.423 0.758 0 1.286-2.45 3.252-4.452 3.572l-1.19 0.19v-8.184c0-8.691 0.114-9.323 1.401-7.772m136.91-3e-3c0.226 0.225 0.734 0.491 1.131 0.591 0.683 0.171 3.014 2.262 3.014 2.703 0 0.113 0.198 0.405 0.441 0.647 0.355 0.355 0.439 1.152 0.434 4.094l-6e-3 3.653-1.01 1.406c-1.136 1.581-2.337 2.401-3.885 2.652l-1.052 0.171v-8.163c0-8.077 0.066-8.621 0.933-7.754m137.5 0.155c0.395 0.311 0.859 0.569 1.032 0.574 3.029 0.09 5.215 9.449 2.776 11.887-0.19 0.191-0.348 0.479-0.35 0.642-0.013 0.756-2.264 2.257-3.733 2.491l-1.058 0.168v-8.163c0-8.657-2e-3 -8.649 1.333-7.599m-14.332 73.614c-0.245 0.148-1.324 0.352-2.398 0.454-1.073 0.103-2.233 0.363-2.576 0.577-0.344 0.215-1.046 0.391-1.559 0.391-0.514 0-1.185 0.174-1.491 0.387-0.306 0.214-1.096 0.479-1.756 0.589-0.659 0.111-1.199 0.315-1.199 0.454 0 0.138-0.349 0.339-0.775 0.446-2.412 0.604-11.918 6.587-11.918 7.5 0 0.118-0.111 0.215-0.246 0.215-0.218 0-3.119 2.816-3.845 3.733-0.155 0.196-0.6 0.752-0.987 1.234-0.388 0.483-0.896 1.165-1.128 1.516-0.233 0.351-0.555 0.781-0.715 0.956-0.647 0.705-2.67 4.005-2.67 4.356 0 0.206-0.191 0.565-0.424 0.798-0.232 0.233-0.423 0.652-0.423 0.932 0 0.281-0.19 0.668-0.423 0.861s-0.427 0.494-0.433 0.669c-5e-3 0.175-0.254 0.826-0.554 1.447-0.3 0.62-0.549 1.398-0.555 1.728-5e-3 0.33-0.194 0.753-0.419 0.94s-0.485 0.932-0.578 1.657c-0.093 0.724-0.311 1.57-0.485 1.881-0.173 0.31-0.414 1.389-0.537 2.397-0.122 1.009-0.345 2.532-0.496 3.385-0.151 0.854-0.274 2.885-0.274 4.514s0.123 3.66 0.274 4.513c0.151 0.854 0.374 2.377 0.496 3.385 0.122 1.009 0.354 2.088 0.515 2.398 0.162 0.31 0.38 1.157 0.485 1.881s0.375 1.47 0.6 1.657c0.225 0.186 0.41 0.653 0.41 1.037s0.177 1.035 0.393 1.446c0.216 0.412 0.934 1.892 1.597 3.288 1.253 2.644 3.692 6.545 4.916 7.866 0.39 0.422 0.71 0.842 0.71 0.935 0 0.744 8.482 8.265 9.321 8.265 0.149 0 0.271 0.095 0.272 0.212 3e-3 0.383 7.906 4.573 8.64 4.581 0.176 1e-3 0.684 0.192 1.128 0.424 0.445 0.232 1.147 0.422 1.561 0.423s1.112 0.182 1.552 0.401c0.439 0.22 1.687 0.547 2.773 0.726s2.673 0.455 3.526 0.614c2.055 0.38 11.219 0.159 12.061-0.292 0.35-0.187 1.46-0.417 2.467-0.511s1.974-0.343 2.149-0.554c0.174-0.21 0.714-0.383 1.2-0.384 0.485-1e-3 1.245-0.191 1.69-0.423 0.444-0.232 0.954-0.421 1.132-0.421 0.179 0 0.799-0.254 1.377-0.564 0.579-0.311 1.228-0.565 1.443-0.565 0.214 0 0.541-0.182 0.725-0.405 0.185-0.222 0.709-0.486 1.163-0.586 0.455-0.1 0.827-0.286 0.827-0.414s0.349-0.372 0.776-0.544c1.19-0.479 3.714-2.139 5.163-3.396 0.717-0.621 1.647-1.4 2.066-1.73 1.378-1.084 3.698-3.529 5.958-6.278 0.75-0.911 1.552-2.169 1.552-2.432 0-0.162 0.126-0.294 0.28-0.294s0.503-0.439 0.776-0.975c0.272-0.536 1.035-2 1.694-3.253 0.66-1.253 1.199-2.512 1.199-2.798 0-0.287 0.191-0.679 0.423-0.872 0.233-0.193 0.423-0.626 0.423-0.962s0.254-1.109 0.565-1.718c0.31-0.609 0.564-1.446 0.564-1.861s0.189-1.118 0.421-1.562c0.243-0.466 0.422-1.561 0.423-2.589 1e-3 -0.979 0.205-2.401 0.453-3.16 0.558-1.706 0.484-8.765-0.098-9.347-0.214-0.214-0.353-1.118-0.353-2.299 0-1.07-0.179-2.346-0.397-2.835-0.218-0.488-0.462-1.438-0.54-2.109-0.079-0.672-0.345-1.443-0.591-1.715-0.245-0.272-0.447-0.745-0.447-1.053 0-0.307-0.186-0.805-0.414-1.106s-0.418-0.879-0.423-1.285-0.263-1.06-0.573-1.455c-0.31-0.394-0.564-0.904-0.564-1.132s-0.191-0.572-0.423-0.766c-0.233-0.193-0.423-0.537-0.423-0.765s-0.254-0.738-0.565-1.132c-0.31-0.395-0.564-0.862-0.564-1.04 0-0.177-0.349-0.707-0.776-1.177-0.426-0.47-1.156-1.417-1.622-2.104-1.151-1.699-5.239-6.193-5.634-6.193-0.055 0-0.542-0.413-1.082-0.917-0.541-0.504-1.639-1.361-2.442-1.904s-1.61-1.125-1.794-1.292c-0.366-0.332-1.515-0.984-2.921-1.656-0.494-0.236-0.977-0.558-1.075-0.715-0.097-0.158-0.432-0.286-0.744-0.286s-0.758-0.191-0.991-0.424c-0.233-0.232-0.652-0.423-0.933-0.423-0.28 0-0.659-0.18-0.842-0.401-0.183-0.22-0.865-0.49-1.516-0.599-0.65-0.109-1.433-0.373-1.739-0.587-0.306-0.213-0.947-0.387-1.424-0.387-0.478 0-1.003-0.135-1.168-0.301-0.876-0.875-14.978-1.851-16.197-1.121m-134.53 2.461c-0.542 0.074-1.113 0.238-1.269 0.363s-1.108 0.317-2.117 0.427c-1.008 0.109-2.115 0.377-2.458 0.595-0.344 0.218-0.915 0.397-1.27 0.398-0.354 1e-3 -1.008 0.192-1.452 0.423-0.445 0.232-0.938 0.422-1.098 0.422-0.288 0-2.506 0.968-3.313 1.445-0.233 0.138-0.613 0.324-0.846 0.413-0.855 0.328-1.572 0.7-2.398 1.245-0.465 0.307-1.132 0.707-1.481 0.888-0.349 0.182-0.635 0.437-0.635 0.567 0 0.131-0.132 0.237-0.293 0.237-2.573 0-14.939 14.56-14.939 17.59 0 0.193-0.143 0.493-0.316 0.667-0.438 0.438-1.654 3.481-1.667 4.169-5e-3 0.311-0.196 0.811-0.424 1.112s-0.415 0.936-0.416 1.41c-1e-3 0.475-0.204 1.244-0.452 1.71-0.265 0.498-0.504 1.832-0.583 3.244-0.073 1.318-0.258 2.658-0.411 2.976-0.51 1.054 0.224 12.449 0.85 13.203 0.16 0.193 0.375 0.916 0.478 1.606 0.102 0.691 0.362 1.537 0.576 1.88 0.215 0.344 0.39 0.982 0.39 1.418 0 0.437 0.174 1.044 0.387 1.35s0.475 0.96 0.583 1.454c0.107 0.493 0.377 1.049 0.6 1.233 0.223 0.185 0.405 0.559 0.405 0.832 0 0.272 0.19 0.653 0.423 0.846s0.424 0.494 0.425 0.669c2e-3 0.345 2.808 4.846 3.451 5.537 0.217 0.233 0.973 1.185 1.682 2.115 1.323 1.74 4.147 4.542 5.83 5.786 0.523 0.386 1.154 0.925 1.403 1.196 0.248 0.272 0.618 0.494 0.821 0.494s0.44 0.185 0.527 0.412 0.412 0.493 0.723 0.592c0.311 0.098 1.092 0.53 1.737 0.959 1.285 0.855 2.887 1.709 4.416 2.355 0.543 0.229 1.573 0.684 2.288 1.011s1.604 0.599 1.975 0.604c0.37 5e-3 0.92 0.195 1.222 0.423 0.301 0.227 1.035 0.414 1.631 0.414 0.597 0 1.366 0.183 1.71 0.406 2.028 1.319 16.992 1.319 19.021 0 0.343-0.223 1.112-0.406 1.709-0.406 0.596 0 1.331-0.187 1.632-0.414 0.301-0.228 0.866-0.418 1.257-0.423 0.39-5e-3 1.151-0.244 1.692-0.53 0.541-0.287 1.332-0.607 1.759-0.711s0.776-0.314 0.776-0.466 0.31-0.277 0.688-0.277c0.379 0 0.775-0.14 0.881-0.311s0.589-0.492 1.075-0.714c0.485-0.222 1.263-0.651 1.728-0.954 0.466-0.303 1.12-0.672 1.454-0.82s0.696-0.413 0.804-0.588c0.109-0.176 0.422-0.406 0.696-0.511 1.189-0.458 7.149-6.125 8.901-8.465 0.543-0.725 1.184-1.572 1.426-1.882 0.779-1.004 2.375-3.569 2.375-3.819 0-0.134 0.382-0.809 0.848-1.5s0.933-1.68 1.036-2.199c0.104-0.518 0.357-1.111 0.563-1.317 0.206-0.205 0.374-0.73 0.374-1.165 0-0.436 0.187-0.947 0.416-1.137 0.228-0.189 0.493-0.808 0.588-1.374 0.096-0.566 0.353-1.43 0.572-1.919 0.219-0.488 0.398-1.511 0.398-2.273 0-0.78 0.181-1.623 0.415-1.932 0.61-0.806 0.625-12.736 0.018-13.54-0.249-0.329-0.418-1.192-0.424-2.16-4e-3 -0.887-0.187-2.029-0.406-2.539-0.218-0.509-0.54-1.466-0.716-2.125s-0.441-1.199-0.59-1.199-0.271-0.313-0.271-0.696c0-0.382-0.208-1.176-0.462-1.763-1.022-2.365-1.93-4.175-2.139-4.264-0.121-0.052-0.22-0.245-0.22-0.43 0-0.184-0.444-1.01-0.987-1.834-0.543-0.825-0.988-1.587-0.988-1.694s-0.222-0.398-0.493-0.647c-0.272-0.248-0.811-0.872-1.199-1.385-3.183-4.214-8.622-9.138-11.072-10.023-0.272-0.098-0.494-0.28-0.494-0.404 0-0.125-0.793-0.623-1.763-1.109-0.969-0.485-1.953-0.989-2.186-1.118-0.936-0.522-3.041-1.431-3.313-1.431-0.159 0-0.653-0.19-1.098-0.422-0.444-0.231-1.161-0.422-1.593-0.423s-1.067-0.18-1.411-0.398c-0.343-0.218-1.323-0.486-2.176-0.596-0.853-0.109-1.725-0.339-1.937-0.511-0.394-0.319-11.878-0.55-13.859-0.278m-134.25 0.892c-1.04 0.109-1.861 0.339-1.927 0.54-0.071 0.211-0.638 0.35-1.433 0.351-0.725 1e-3 -1.68 0.192-2.125 0.423-0.444 0.232-1.079 0.426-1.41 0.431-0.332 6e-3 -1.111 0.255-1.731 0.555-0.621 0.3-1.335 0.549-1.588 0.555-0.252 5e-3 -0.617 0.2-0.81 0.432-0.193 0.233-0.558 0.424-0.81 0.425-0.253 1e-3 -0.84 0.254-1.306 0.563-0.465 0.308-1.068 0.561-1.339 0.562-0.272 1e-3 -0.494 0.132-0.494 0.291s-0.286 0.418-0.635 0.576c-1.002 0.454-1.857 0.979-2.418 1.487-0.285 0.258-0.613 0.469-0.73 0.469-2.252 0-14.553 14.878-14.553 17.602 0 0.21-0.177 0.529-0.393 0.709-0.217 0.18-0.481 0.792-0.588 1.36s-0.374 1.29-0.594 1.604c-0.219 0.314-0.399 0.85-0.399 1.19 0 0.341-0.18 0.979-0.4 1.419-0.384 0.768-0.757 2.311-1.286 5.312-0.325 1.849-0.327 12.614-3e-3 14.245 0.775 3.888 1.097 5.163 1.377 5.443 0.172 0.172 0.312 0.715 0.312 1.208s0.18 1.046 0.401 1.229c0.22 0.183 0.484 0.826 0.586 1.429s0.366 1.246 0.586 1.429c0.221 0.183 0.401 0.562 0.401 0.842s0.191 0.7 0.423 0.933c0.233 0.232 0.423 0.552 0.423 0.71 0 0.343 1.2 2.64 1.661 3.181 1.117 1.31 1.443 1.771 1.444 2.045 3e-3 0.979 8.585 9.558 10.425 10.421 0.382 0.179 1 0.609 1.373 0.954 0.374 0.345 1.488 1.021 2.476 1.503 0.989 0.481 1.87 0.992 1.958 1.135s0.398 0.26 0.688 0.26 0.703 0.175 0.916 0.389c0.214 0.214 0.826 0.484 1.36 0.6 0.535 0.117 1.222 0.386 1.528 0.599s0.852 0.387 1.213 0.387 0.999 0.175 1.418 0.39c0.419 0.214 1.333 0.482 2.031 0.596 0.698 0.113 1.448 0.35 1.666 0.527 0.562 0.455 17.272 0.45 17.826-6e-3 0.217-0.179 1.03-0.415 1.806-0.524s1.692-0.375 2.035-0.591c0.344-0.215 0.918-0.392 1.277-0.392s0.903-0.174 1.209-0.387 1.001-0.481 1.544-0.596c0.543-0.114 1.178-0.368 1.41-0.562 0.233-0.195 0.772-0.437 1.199-0.538 0.427-0.102 0.776-0.309 0.776-0.461s0.245-0.277 0.544-0.277 0.734-0.19 0.966-0.422 0.717-0.548 1.078-0.702c0.361-0.153 1.417-0.844 2.348-1.533 0.931-0.69 1.777-1.263 1.88-1.273 0.103-0.011 0.621-0.432 1.151-0.936s1.334-1.243 1.787-1.642c1.837-1.618 5.271-5.617 6.67-7.768 0.819-1.258 1.645-2.527 1.837-2.821 0.191-0.293 0.521-0.914 0.732-1.38 0.211-0.465 0.703-1.544 1.093-2.397 1.683-3.683 1.917-4.282 1.917-4.912 0-0.366 0.189-1.029 0.421-1.474 0.232-0.444 0.422-1.328 0.423-1.963 1e-3 -0.636 0.191-1.535 0.422-1.998 0.905-1.814 0.807-15.338-0.118-16.263-0.166-0.166-0.303-0.816-0.304-1.444s-0.191-1.506-0.423-1.951c-0.232-0.444-0.422-1.142-0.422-1.551-1e-3 -0.409-0.255-1.159-0.565-1.667-0.309-0.508-0.563-1.159-0.563-1.447 0-0.287-0.19-0.68-0.423-0.874-0.233-0.193-0.423-0.516-0.423-0.717 0-0.657-3.486-7.045-4.226-7.745-0.082-0.078-0.68-0.855-1.329-1.727-2.427-3.265-8.616-8.871-10.861-9.839-0.962-0.415-1.749-0.941-2.004-1.34-0.124-0.194-0.38-0.352-0.569-0.352-0.188 0-0.816-0.254-1.395-0.564-0.579-0.311-1.243-0.565-1.477-0.565-0.233 0-0.424-0.122-0.424-0.271s-0.502-0.406-1.116-0.572c-0.614-0.165-1.186-0.413-1.271-0.55-0.085-0.138-0.693-0.34-1.352-0.449s-1.54-0.374-1.959-0.589c-0.419-0.214-1.28-0.389-1.914-0.389s-1.474-0.211-1.866-0.468c-0.785-0.514-11.34-0.81-15.041-0.422m279.68 9.611c0.148 0.143 1.016 0.396 1.929 0.562 0.913 0.167 1.802 0.416 1.975 0.555 0.172 0.138 0.751 0.345 1.285 0.46 0.534 0.114 1.146 0.382 1.36 0.596s0.627 0.389 0.919 0.389c0.291 0 1.094 0.381 1.783 0.846 0.69 0.466 1.385 0.847 1.546 0.847 0.16 0 0.459 0.158 0.664 0.352s0.911 0.718 1.57 1.165c2.836 1.926 7.63 7.322 8.741 9.837 0.257 0.581 0.569 1.057 0.694 1.057 0.126 0 0.228 0.161 0.228 0.357s0.254 0.831 0.564 1.41c0.311 0.579 0.565 1.282 0.565 1.564 0 0.281 0.186 0.757 0.414 1.058 0.228 0.302 0.419 0.929 0.425 1.394 6e-3 0.466 0.218 1.227 0.472 1.693 0.388 0.709 0.462 1.825 0.462 6.911 0 5.085-0.074 6.201-0.462 6.911-0.254 0.465-0.466 1.227-0.472 1.693-6e-3 0.465-0.197 1.092-0.425 1.393-0.228 0.302-0.414 0.783-0.414 1.07 0 0.288-0.445 1.345-0.988 2.351s-0.987 2.016-0.987 2.245-0.095 0.416-0.212 0.416c-0.116 1e-3 -0.59 0.604-1.053 1.34-1.592 2.534-6.708 7.686-8.055 8.113-0.304 0.097-0.553 0.265-0.553 0.374s-0.603 0.513-1.34 0.898-1.441 0.858-1.565 1.052c-0.125 0.194-0.422 0.353-0.662 0.353s-0.773 0.171-1.185 0.38c-1.735 0.881-2.789 1.279-3.852 1.455-0.62 0.103-1.333 0.371-1.584 0.596-0.67 0.601-13.935 0.599-14.605-2e-3 -0.25-0.224-0.95-0.499-1.556-0.612-0.606-0.112-1.431-0.376-1.834-0.586-0.402-0.21-0.921-0.386-1.154-0.392s-0.67-0.197-0.971-0.425-0.763-0.414-1.027-0.414c-0.265 0-0.554-0.191-0.643-0.424-0.089-0.232-0.334-0.423-0.545-0.423-0.21 0-1.007-0.444-1.771-0.987-0.763-0.543-1.484-0.987-1.601-0.987s-0.444-0.222-0.727-0.494c-0.284-0.271-1.077-1.015-1.763-1.653-3.146-2.924-5.5-6.027-6.893-9.089-0.4-0.88-0.912-1.936-1.138-2.348s-0.411-0.999-0.411-1.305c0-0.307-0.19-0.715-0.423-0.908-0.244-0.203-0.423-0.819-0.423-1.459 0-0.609-0.21-1.514-0.467-2.011-0.582-1.123-0.702-11.175-0.142-11.85 0.179-0.216 0.411-1.009 0.514-1.761s0.356-1.692 0.563-2.087c0.206-0.396 0.376-0.89 0.377-1.099s0.177-0.716 0.391-1.128c0.215-0.412 0.733-1.447 1.151-2.301 1.878-3.83 5.693-8.643 8.048-10.155 0.363-0.232 0.893-0.645 1.177-0.916 0.285-0.272 0.575-0.494 0.645-0.494s0.684-0.377 1.366-0.837 1.545-0.967 1.918-1.127c0.374-0.16 0.87-0.397 1.102-0.527 1.18-0.655 2.338-1.177 2.633-1.186 0.181-5e-3 0.837-0.255 1.458-0.554 0.62-0.3 1.509-0.552 1.974-0.559 0.466-8e-3 1.164-0.19 1.552-0.405 0.825-0.458 10.987-0.625 11.438-0.188m-137.25 2.139c1.008 0.222 2.611 0.408 3.562 0.413 1.112 7e-3 1.843 0.148 2.05 0.398 0.177 0.213 0.811 0.466 1.408 0.562 0.597 0.095 1.451 0.364 1.899 0.597 0.447 0.233 1.003 0.429 1.236 0.435s0.669 0.197 0.971 0.425c0.301 0.228 0.777 0.414 1.057 0.414 0.281 0 0.511 0.133 0.511 0.297 0 0.163 0.38 0.429 0.846 0.591 0.465 0.163 0.846 0.41 0.846 0.55s0.171 0.254 0.38 0.254 0.644 0.223 0.967 0.494c0.323 0.272 1.064 0.875 1.647 1.34 2.182 1.741 3.265 2.808 4.693 4.623 0.807 1.026 1.562 1.933 1.676 2.017 0.263 0.191 2.293 3.913 2.61 4.785 0.084 0.232 0.26 0.613 0.39 0.846 0.771 1.381 1.177 2.371 1.177 2.871 0 0.313 0.179 0.97 0.397 1.459 0.218 0.488 0.469 1.955 0.559 3.258 0.104 1.53 0.313 2.537 0.59 2.843 0.26 0.286 0.429 1.013 0.429 1.84 0 0.826-0.169 1.553-0.429 1.839-0.277 0.306-0.486 1.314-0.59 2.843-0.09 1.304-0.341 2.77-0.559 3.259s-0.401 1.187-0.406 1.551c-5e-3 0.365-0.195 0.909-0.423 1.21s-0.414 0.833-0.414 1.183c0 0.349-0.112 0.703-0.248 0.788-0.137 0.084-0.724 1.102-1.304 2.261-0.581 1.159-1.294 2.322-1.585 2.586-0.292 0.264-0.53 0.635-0.53 0.824 0 0.55-4.601 5.24-6.356 6.479-0.878 0.621-1.766 1.287-1.973 1.481-0.206 0.194-0.483 0.353-0.614 0.353s-0.912 0.444-1.737 0.987c-0.824 0.543-1.718 0.987-1.985 0.987s-0.732 0.187-1.033 0.415c-0.301 0.227-0.801 0.419-1.112 0.425-0.31 5e-3 -0.943 0.208-1.406 0.45-2.401 1.251-10.936 1.951-13.72 1.124-0.813-0.241-1.868-0.443-2.344-0.448-0.476-6e-3 -1.373-0.255-1.994-0.555-0.62-0.3-1.462-0.549-1.869-0.555-0.408-5e-3 -0.899-0.2-1.093-0.432-0.193-0.233-0.645-0.424-1.005-0.424s-0.722-0.11-0.805-0.245c-0.084-0.135-0.853-0.6-1.71-1.033-0.856-0.434-1.557-0.886-1.557-1.005 0-0.12-0.249-0.296-0.553-0.393-1.347-0.427-7.937-7.01-8.444-8.435-0.062-0.172-0.474-0.776-0.917-1.341s-0.805-1.216-0.805-1.446c0-0.231-0.191-0.577-0.424-0.77-0.232-0.193-0.424-0.621-0.425-0.951s-0.254-0.981-0.562-1.447c-0.308-0.465-0.561-1.103-0.562-1.418s-0.174-0.822-0.384-1.128-0.456-1.305-0.548-2.219c-0.091-0.914-0.3-1.796-0.464-1.96-0.474-0.474-0.379-8.544 0.116-9.918 0.224-0.621 0.416-1.636 0.428-2.257 0.012-0.62 0.208-1.374 0.436-1.676 0.228-0.301 0.414-0.789 0.414-1.084 0-0.296 0.182-0.875 0.404-1.286 0.222-0.412 0.693-1.384 1.046-2.16 1.81-3.972 6.301-9.467 9.466-11.583 0.806-0.539 1.647-1.161 1.87-1.384 0.222-0.222 0.747-0.49 1.166-0.595s0.829-0.365 0.91-0.578c0.082-0.213 0.338-0.387 0.569-0.387s0.757-0.171 1.169-0.38c1.934-0.983 2.813-1.316 3.916-1.484 0.657-0.099 1.339-0.356 1.516-0.569 0.209-0.252 0.978-0.397 2.191-0.415 1.029-0.015 2.505-0.19 3.28-0.39 1.855-0.476 1.952-0.476 4.091-6e-3m-131.17 1.115c1.629 0.277 3.168 0.606 3.421 0.732 0.252 0.127 0.95 0.32 1.551 0.43 0.601 0.111 1.343 0.373 1.649 0.584s0.85 0.383 1.208 0.383 0.724 0.19 0.814 0.423c0.089 0.233 0.393 0.423 0.676 0.423s0.682 0.16 0.887 0.356 0.69 0.512 1.078 0.703c0.963 0.475 1.636 0.937 2.507 1.72 0.405 0.365 1.054 0.828 1.442 1.029 0.871 0.451 3.504 3.207 4.784 5.007 0.524 0.737 1.038 1.34 1.141 1.34 0.104 0 0.542 0.698 0.973 1.552 0.432 0.853 0.897 1.551 1.034 1.551 0.136 0 0.248 0.245 0.248 0.544 0 0.3 0.191 0.735 0.423 0.967 0.233 0.233 0.424 0.662 0.424 0.954s0.186 0.777 0.414 1.078 0.418 0.868 0.423 1.261c5e-3 0.392 0.192 0.974 0.416 1.294s0.493 1.269 0.597 2.108 0.365 1.807 0.58 2.151c0.556 0.89 0.552 8.027-6e-3 8.906-0.218 0.343-0.487 1.323-0.599 2.176s-0.378 1.802-0.591 2.108c-0.214 0.306-0.388 0.893-0.388 1.305s-0.191 0.907-0.423 1.1c-0.233 0.193-0.423 0.57-0.423 0.837s-0.314 1.044-0.696 1.728c-0.383 0.684-0.888 1.624-1.123 2.09-0.455 0.903-1.052 1.884-1.286 2.115-0.078 0.078-0.518 0.649-0.977 1.27-2.145 2.901-9.058 8.603-10.429 8.603-0.204 0-0.529 0.191-0.722 0.424-0.193 0.232-0.56 0.423-0.815 0.423-0.254 0-0.937 0.254-1.516 0.564-0.578 0.31-1.256 0.564-1.504 0.564-0.249 0-0.852 0.179-1.341 0.397s-1.577 0.468-2.419 0.556c-0.841 0.088-1.66 0.291-1.819 0.45-0.476 0.476-7.538 0.368-8.737-0.134-0.557-0.232-1.557-0.427-2.221-0.432s-1.454-0.195-1.755-0.423c-0.302-0.228-0.895-0.414-1.32-0.414s-0.957-0.184-1.182-0.409-0.773-0.498-1.219-0.606c-0.445-0.109-1.06-0.369-1.366-0.578-0.306-0.21-0.786-0.382-1.067-0.382-0.28 0-0.583-0.19-0.672-0.423-0.089-0.232-0.33-0.423-0.535-0.423s-0.541-0.163-0.746-0.363-0.88-0.67-1.501-1.044c-1.591-0.96-6.666-6.083-7.645-7.715-0.45-0.751-1.031-1.703-1.293-2.116-0.654-1.033-1.64-2.997-1.64-3.265 0-0.122-0.183-0.621-0.407-1.11-0.223-0.489-0.544-1.423-0.713-2.076-0.168-0.653-0.43-1.263-0.58-1.356-0.151-0.094-0.275-0.801-0.275-1.573 0-0.771-0.19-1.858-0.423-2.415-0.562-1.345-0.567-6.304-8e-3 -7.855 0.223-0.621 0.412-1.724 0.419-2.452s0.136-1.4 0.287-1.493c0.15-0.093 0.409-0.704 0.574-1.356 0.436-1.722 1.455-4.146 2.693-6.406 1.467-2.677 5.086-6.945 7.384-8.708 2.198-1.686 3.469-2.522 4.948-3.254 0.895-0.443 1.696-0.916 1.779-1.051 0.084-0.135 0.446-0.245 0.806-0.245s0.812-0.19 1.005-0.423 0.685-0.424 1.093-0.425c0.407-1e-3 1.104-0.191 1.549-0.423 0.444-0.232 1.206-0.432 1.692-0.445 0.487-0.013 1.9-0.258 3.141-0.543 2.593-0.597 4.179-0.572 8.322 0.13m239.02 82.44c-0.493 0.064-1.048 0.3-1.234 0.523-0.22 0.266-0.888 0.408-1.925 0.409-0.873 1e-3 -1.951 0.191-2.395 0.423-0.445 0.232-1.079 0.422-1.411 0.423-0.331 1e-3 -0.943 0.179-1.359 0.397-0.416 0.217-1.137 0.478-1.602 0.58-0.466 0.102-0.997 0.368-1.182 0.591s-0.607 0.412-0.937 0.421-1.234 0.374-2.01 0.812-2.45 1.333-3.72 1.99-2.377 1.371-2.459 1.586c-0.083 0.215-0.287 0.391-0.453 0.391-0.28 0-1.678 0.898-2.416 1.552-0.175 0.155-0.987 0.853-1.805 1.551-1.651 1.411-4.874 4.685-6.108 6.206-0.441 0.543-0.868 1.051-0.948 1.129-0.081 0.077-0.527 0.712-0.991 1.41-0.465 0.698-0.909 1.333-0.987 1.411-0.394 0.392-1.411 1.984-1.411 2.21 0 0.143-0.178 0.407-0.395 0.587-0.218 0.181-0.482 0.671-0.587 1.09s-0.287 0.826-0.404 0.905c-0.292 0.198-1.715 3.266-1.726 3.723-5e-3 0.204-0.195 0.617-0.423 0.918s-0.418 0.809-0.423 1.128c-5e-3 0.32-0.195 0.827-0.423 1.129-0.228 0.301-0.419 0.872-0.424 1.269s-0.255 1.23-0.554 1.85c-0.311 0.643-0.55 1.741-0.555 2.553-5e-3 0.784-0.168 1.583-0.362 1.777-0.5 0.499-0.68 8.929-0.203 9.503 0.499 0.602 11.042 0.609 11.541 8e-3 0.358-0.431 0.717-2.326 1.261-6.648 0.186-1.474 0.489-3.037 0.674-3.474 0.186-0.436 0.337-1.095 0.337-1.464 0-0.368 0.118-0.742 0.261-0.831s0.348-0.572 0.454-1.074c0.107-0.503 0.345-1.104 0.529-1.337s0.638-1.185 1.01-2.116c0.371-0.931 0.842-1.86 1.044-2.065 0.203-0.205 0.37-0.504 0.37-0.665 0-0.16 0.362-0.754 0.805-1.319 0.443-0.566 0.855-1.175 0.917-1.355 0.678-1.99 10.144-10.487 11.724-10.526 0.181-4e-3 0.371-0.114 0.423-0.244 0.08-0.202 1.639-0.981 5.454-2.726 0.465-0.213 1.385-0.47 2.045-0.571 0.659-0.101 1.199-0.288 1.199-0.417 0-0.128 0.983-0.322 2.186-0.431 1.202-0.109 2.614-0.374 3.137-0.589 1.403-0.574 39.283-0.576 40.693-1e-3 0.523 0.213 1.872 0.474 2.997 0.581 1.125 0.106 2.395 0.375 2.821 0.597 0.426 0.223 1.092 0.41 1.48 0.415 0.388 6e-3 0.952 0.198 1.253 0.425 0.301 0.228 0.757 0.414 1.013 0.414 0.257 0 1.026 0.308 1.709 0.683 0.684 0.375 1.942 1.042 2.795 1.48 0.854 0.439 1.719 0.957 1.924 1.151 0.205 0.195 0.472 0.354 0.592 0.354s0.485 0.222 0.81 0.493c0.326 0.272 0.987 0.8 1.47 1.173 2.396 1.854 6.736 6.536 8.03 8.664 0.46 0.757 1.24 2.026 1.733 2.821 0.492 0.794 0.981 1.833 1.085 2.308 0.104 0.474 0.372 1.014 0.594 1.199 0.223 0.185 0.405 0.622 0.405 0.972s0.191 0.794 0.423 0.987c0.233 0.194 0.424 0.749 0.425 1.234s0.192 1.246 0.423 1.69c0.232 0.444 0.422 1.299 0.422 1.898 0 0.6 0.181 1.569 0.403 2.154 0.221 0.585 0.453 2.104 0.516 3.375 0.065 1.31 0.272 2.502 0.478 2.751 0.473 0.57 10.961 0.661 11.522 0.1 0.434-0.433 0.453-8.07 0.025-9.676-0.166-0.62-0.392-1.763-0.503-2.538-0.111-0.776-0.417-1.817-0.68-2.314-0.263-0.496-0.478-1.217-0.478-1.601 0-0.385-0.19-0.89-0.423-1.123-0.232-0.232-0.423-0.688-0.423-1.013 0-0.656-2.215-5.461-2.585-5.609-0.13-0.052-0.236-0.32-0.236-0.597 0-0.276-0.254-0.825-0.564-1.219-0.31-0.395-0.564-0.798-0.564-0.896 0-0.177-1.126-1.859-1.425-2.13-0.086-0.078-0.461-0.649-0.833-1.27-0.372-0.62-1.015-1.509-1.428-1.974-2.33-2.626-5.225-5.692-5.683-6.019-0.289-0.207-0.861-0.686-1.27-1.065-0.408-0.379-1.109-0.971-1.556-1.316s-1.079-0.849-1.404-1.121c-0.326-0.271-0.735-0.494-0.909-0.494-0.175 0-0.522-0.222-0.771-0.493-0.788-0.858-1.743-1.481-2.268-1.481-0.279 0-0.507-0.125-0.507-0.277s-0.349-0.36-0.775-0.463c-0.427-0.102-1.003-0.422-1.281-0.71-0.277-0.289-0.738-0.525-1.023-0.525s-0.677-0.19-0.87-0.423-0.637-0.423-0.987-0.423-0.792-0.187-0.981-0.416c-0.19-0.228-0.797-0.5-1.349-0.604-0.551-0.103-1.332-0.36-1.734-0.569-0.403-0.21-1.003-0.383-1.334-0.384-0.332-1e-3 -0.966-0.191-1.411-0.423-0.444-0.232-1.496-0.422-2.337-0.423-1.059-1e-3 -1.697-0.154-2.074-0.496-0.517-0.467-45.588-0.87-48.914-0.436m-129.15 2.094c-1.086 0.124-3.152 0.341-4.592 0.482-1.727 0.169-2.79 0.412-3.125 0.716-0.328 0.296-1.012 0.459-1.932 0.459-0.922 0-1.548 0.149-1.775 0.423-0.194 0.233-0.723 0.423-1.178 0.423-0.454 0-1.296 0.236-1.87 0.524-2.515 1.264-2.948 1.452-3.393 1.47-0.259 0.01-1.105 0.39-1.881 0.844-0.776 0.453-1.664 0.958-1.975 1.121-1.25 0.657-3.229 1.95-3.757 2.455-0.205 0.196-0.482 0.356-0.615 0.356s-0.41 0.159-0.615 0.353-1.324 1.111-2.488 2.037c-2.734 2.177-5.432 4.926-6.77 6.901-0.233 0.343-0.836 1.091-1.34 1.661s-0.916 1.17-0.917 1.332c0 0.34-0.758 1.392-1.481 2.056-0.271 0.25-0.493 0.628-0.493 0.841 0 0.212-0.254 0.709-0.565 1.103-0.31 0.395-0.564 0.9-0.564 1.123s-0.19 0.596-0.423 0.828c-0.233 0.233-0.423 0.653-0.423 0.933s-0.19 0.667-0.423 0.861c-0.233 0.193-0.423 0.559-0.423 0.814s-0.254 0.937-0.564 1.516c-0.311 0.579-0.565 1.375-0.565 1.769s-0.178 0.997-0.395 1.341c-0.218 0.343-0.486 1.069-0.597 1.612-0.11 0.543-0.313 1.127-0.451 1.298-0.137 0.171-0.33 1.123-0.429 2.116-0.099 0.992-0.321 1.982-0.494 2.2-0.634 0.799-0.587 7.982 0.059 8.78 0.586 0.724 7.464 1.204 10.121 0.705 1.575-0.295 2.572-2.985 2.617-7.06 8e-3 -0.776 0.198-1.918 0.422-2.539 0.223-0.62 0.412-1.515 0.419-1.988 6e-3 -0.473 0.151-1 0.321-1.17s0.612-1.179 0.983-2.242c0.811-2.329 1.545-3.829 2.022-4.134 0.194-0.124 0.353-0.399 0.353-0.61 0-0.402 1.427-2.693 2.732-4.383 2.467-3.198 8.81-8.632 11.409-9.774 0.408-0.179 0.828-0.465 0.934-0.635 0.105-0.171 0.422-0.31 0.704-0.31s0.671-0.191 0.864-0.424c0.193-0.232 0.638-0.423 0.988-0.423 0.349 0 0.782-0.176 0.961-0.392 0.18-0.216 0.89-0.477 1.58-0.581 0.689-0.103 1.323-0.3 1.408-0.437s0.754-0.334 1.487-0.438c0.734-0.103 1.615-0.364 1.958-0.58 0.931-0.585 46.057-0.585 46.988 0 0.343 0.216 1.228 0.478 1.964 0.581 0.737 0.104 1.34 0.292 1.34 0.418s0.524 0.313 1.165 0.415c0.64 0.102 1.43 0.373 1.755 0.6 0.325 0.228 0.865 0.414 1.199 0.414s0.766 0.191 0.959 0.423c0.193 0.233 0.582 0.424 0.864 0.424s0.589 0.122 0.682 0.272c0.092 0.15 0.793 0.587 1.557 0.971 4.172 2.095 9.593 7.422 13.037 12.809 0.866 1.356 2.76 5.301 2.76 5.75 0 0.241 0.19 0.597 0.423 0.79s0.423 0.752 0.423 1.241c0 0.49 0.174 1.141 0.386 1.447s0.475 1.405 0.584 2.443c0.113 1.07 0.374 2.031 0.602 2.22 0.296 0.246 0.403 1.028 0.403 2.948 0 3.999-0.112 3.924 6.003 4.04l4.927 0.093 1.06-0.931 1.059-0.93-0.181-2.362c-0.1-1.298-0.307-2.595-0.46-2.881-0.153-0.287-0.283-1.323-0.289-2.302-5e-3 -1.01-0.184-2.088-0.413-2.487-0.221-0.388-0.408-1.15-0.415-1.693-6e-3 -0.543-0.188-1.326-0.404-1.74s-0.478-1.259-0.583-1.878c-0.104-0.619-0.367-1.359-0.584-1.645-0.216-0.286-0.398-0.691-0.402-0.9-0.013-0.546-0.975-2.666-2.807-6.186-0.412-0.792-2.067-3.334-2.553-3.921-0.152-0.183-0.814-1.118-1.473-2.078-1.895-2.76-9.817-10.425-10.776-10.425-0.095 0-0.394-0.202-0.666-0.45-0.722-0.659-3.458-2.371-3.788-2.371-0.156 0-0.606-0.253-1.001-0.564-0.394-0.31-0.875-0.564-1.067-0.564-0.193 0-0.509-0.19-0.702-0.423s-0.579-0.423-0.858-0.423-0.866-0.178-1.305-0.396c-2.165-1.075-3.461-1.58-4.074-1.588-0.371-5e-3 -0.921-0.195-1.222-0.423s-1.116-0.414-1.811-0.414c-0.772 0-1.462-0.179-1.772-0.459-0.33-0.3-1.372-0.544-2.984-0.701-1.362-0.132-3.555-0.36-4.874-0.505-2.89-0.319-35.708-0.312-38.505 8e-3m-135.03 0.727c-0.57 0.063-1.188 0.299-1.374 0.523-0.247 0.297-0.997 0.407-2.789 0.407-1.717 0-2.614 0.124-2.998 0.414-0.301 0.228-0.995 0.418-1.542 0.423s-1.261 0.196-1.586 0.423c-0.326 0.228-1.113 0.498-1.75 0.6-0.638 0.102-1.304 0.36-1.481 0.573s-0.596 0.388-0.93 0.388-0.858 0.174-1.164 0.387-0.978 0.479-1.493 0.591c-0.514 0.112-1.004 0.382-1.088 0.6-0.083 0.218-0.338 0.396-0.566 0.396-0.543 0-4.321 2.248-4.321 2.571 0 0.138-0.128 0.25-0.285 0.25-0.389 0-3.187 1.97-3.467 2.441-0.124 0.209-0.346 0.38-0.493 0.38-0.403 0-5.443 4.734-6.474 6.08-0.233 0.304-1.09 1.395-1.904 2.424-0.815 1.03-1.481 2.004-1.481 2.165s-0.168 0.46-0.373 0.665c-0.733 0.734-3.577 5.829-3.577 6.41 0 0.325-0.121 0.592-0.27 0.592s-0.427 0.539-0.617 1.199c-0.19 0.659-0.512 1.449-0.716 1.755s-0.375 0.941-0.38 1.41c-5e-3 0.47-0.195 1.101-0.423 1.402s-0.414 0.989-0.414 1.529-0.204 1.208-0.454 1.483c-0.314 0.347-0.499 1.265-0.601 2.984-0.081 1.366-0.267 2.634-0.413 2.819-0.36 0.454-0.629 4.283-0.391 5.553l0.192 1.022h6.042c7.159 0 6.622 0.331 6.824-4.203 0.075-1.674 0.309-3.381 0.532-3.879 0.219-0.489 0.398-1.393 0.398-2.01s0.178-1.269 0.394-1.449c0.216-0.179 0.481-0.791 0.587-1.36 0.107-0.568 0.374-1.29 0.594-1.604s0.4-0.852 0.4-1.197c0-0.344 0.119-0.699 0.265-0.789 0.146-0.091 0.558-0.765 0.915-1.498 3.342-6.87 12.705-15.411 18.778-17.13 0.349-0.099 0.634-0.298 0.634-0.443 0-0.144 0.353-0.263 0.784-0.263s1.034-0.174 1.34-0.388c0.306-0.213 1.254-0.481 2.108-0.596 0.853-0.114 1.682-0.312 1.841-0.44 0.665-0.535 9.1-0.83 23.688-0.83 14.587 0 23.022 0.295 23.687 0.83 0.159 0.128 0.988 0.326 1.842 0.44 0.853 0.115 1.801 0.383 2.107 0.596 0.306 0.214 0.894 0.388 1.306 0.388s0.907 0.191 1.1 0.423c0.193 0.233 0.644 0.424 1.002 0.424 0.357 0 0.824 0.173 1.036 0.386 0.212 0.212 0.691 0.482 1.065 0.601 0.373 0.118 0.852 0.389 1.065 0.601 0.212 0.213 0.559 0.386 0.771 0.386s0.803 0.382 1.314 0.848c0.51 0.466 1.169 0.924 1.465 1.018 0.924 0.293 6.529 5.633 7.982 7.605 1.748 2.371 2.655 3.689 2.799 4.069 0.087 0.233 0.277 0.614 0.42 0.847 0.143 0.232 0.465 0.899 0.715 1.481 0.251 0.581 0.569 1.057 0.707 1.057s0.252 0.286 0.253 0.635 0.191 0.998 0.423 1.443c0.232 0.444 0.422 1.023 0.422 1.286s0.186 0.724 0.414 1.025c0.228 0.302 0.418 0.942 0.423 1.423 0.011 1.072 0.537 2.651 0.883 2.651 0.14 0 0.256 1.428 0.258 3.174 6e-3 4.94-0.723 4.442 6.512 4.442h6.167l0.168-0.667c0.405-1.615-0.58-10.87-1.226-11.516-0.188-0.188-0.342-0.792-0.343-1.343-1e-3 -0.55-0.17-1.324-0.376-1.719-0.206-0.394-0.462-1.156-0.568-1.692s-0.583-1.8-1.06-2.809c-0.478-1.008-1.118-2.404-1.423-3.103-0.306-0.698-0.669-1.459-0.808-1.692-1.393-2.334-1.913-3.178-2.783-4.514-0.556-0.853-1.242-1.805-1.525-2.115-0.283-0.311-0.984-1.127-1.556-1.815-1.481-1.777-4.449-4.748-6.225-6.23-0.834-0.695-1.773-1.486-2.088-1.758-0.315-0.271-0.715-0.493-0.89-0.493-0.174 0-0.699-0.349-1.167-0.776s-1.163-0.941-1.544-1.143c-2.155-1.14-3.598-1.958-4.214-2.39-0.382-0.268-0.969-0.487-1.303-0.487s-0.766-0.19-0.959-0.423-0.646-0.423-1.005-0.423c-0.36 0-0.731-0.124-0.824-0.275s-0.704-0.412-1.357-0.58c-0.652-0.169-1.587-0.49-2.075-0.713-0.489-0.224-1.314-0.411-1.834-0.416s-1.191-0.195-1.492-0.423c-0.382-0.288-1.273-0.414-2.94-0.414-1.882 0-2.508-0.105-2.937-0.494-0.519-0.469-38.471-0.861-42.285-0.436"/>
 </g>
</svg>
