<?xml version="1.0" encoding="UTF-8"?>
<!-- Created with Inkscape (http://www.inkscape.org/) -->
<svg width="111.19mm" height="111.38mm" version="1.1" viewBox="0 0 111.19 111.38" xmlns="http://www.w3.org/2000/svg" xmlns:cc="http://creativecommons.org/ns#" xmlns:dc="http://purl.org/dc/elements/1.1/" xmlns:rdf="http://www.w3.org/1999/02/22-rdf-syntax-ns#">
 <metadata>
  <rdf:RDF>
   <cc:Work rdf:about="">
    <dc:format>image/svg+xml</dc:format>
    <dc:type rdf:resource="http://purl.org/dc/dcmitype/StillImage"/>
    <dc:title/>
   </cc:Work>
  </rdf:RDF>
 </metadata>
 <g transform="translate(40.612 -36.092)">
  <g id="Bag_xA0_Image_1_" transform="matrix(.26458 0 0 .26458 -157.81 35.524)">
   <g transform="translate(440)" stroke-width=".33043">
    <path d="m312.59 422.94c-1.9056-0.15544-3.7643-0.37214-4.1304-0.48151-0.36616-0.10941-2.5244-0.32706-4.7962-0.48372-2.7939-0.19264-4.9858-0.5508-6.7739-1.1069-1.4539-0.45216-3.4613-0.90181-4.4608-0.99926-0.99956-0.0974-2.7438-0.55889-3.876-1.0254-1.1322-0.46657-2.3434-0.84829-2.6915-0.84829-0.34805 0-1.6811-0.44608-2.9624-0.9913-1.2812-0.54521-2.576-0.9913-2.8772-0.9913s-1.2387-0.36129-2.0833-0.80292c-0.84461-0.44159-2.7252-1.3442-4.1791-2.0058-3.1707-1.4427-6.8778-3.3505-8.3167-4.28-0.57596-0.37206-1.8094-1.1225-2.741-1.6678-1.659-0.97091-3.2856-2.1018-8.2726-5.7513-4.8526-3.5512-14.167-12.292-15.024-14.099-0.57927-1.2207-0.98505-1.4214-1.2864-0.63609-0.1685 0.43908-11.797 0.49565-101.9 0.49565-86.425 0-101.99-0.07-103.52-0.46564-0.99231-0.25609-2.6964-0.57284-3.7868-0.70386-1.0904-0.13101-2.6517-0.57029-3.4695-0.9762-0.81782-0.40587-2.0817-0.92769-2.8087-1.1596-2.3672-0.75504-7.5856-4.5114-10.405-7.4899-1.4629-1.5454-2.8974-3.2803-3.1878-3.8552-0.29039-0.57489-0.78515-1.3426-1.0995-1.7061-0.9232-1.0676-2.8609-5.6783-3.9577-9.4173l-1.0178-3.4696 0.17216-257.4 0.93156-2.9739c0.51236-1.6356 1.3674-3.8661 1.9001-4.9565 0.53271-1.0904 0.9685-2.0913 0.96843-2.224-3.136e-4 -0.59209 3.5896-5.5009 5.5177-7.5447 2.3656-2.5077 7.8663-6.3469 10.264-7.164 0.8581-0.29238 2.0131-0.79883 2.5666-1.1254 0.55355-0.3266 2.0584-0.74302 3.3442-0.92538 1.2858-0.18235 3.2073-0.55803 4.27-0.83484 1.6858-0.4391 7.7996-0.50329 47.937-0.50329 27.326 0 46.33-0.12389 46.807-0.30512 0.44139-0.16781 0.91896-0.57672 1.0613-0.90869 0.14231-0.33196 0.28954-8.8561 0.32717-18.943 0.0473-12.691 0.1863-18.762 0.45118-19.711 0.21052-0.75453 0.5282-2.519 0.70595-3.9209 0.18814-1.4839 0.60288-3.0016 0.99253-3.6321 0.36814-0.59566 0.86638-1.7377 1.1072-2.5379 0.66051-2.1947 4.4886-7.7529 7.0387-10.22 2.6038-2.5188 7.136-5.7343 9.0187-6.3986 0.71015-0.25056 1.6382-0.68291 2.0622-0.96077 0.42409-0.27787 1.587-0.67047 2.5841-0.87245 0.9972-0.20198 2.7796-0.69122 3.9609-1.0872l2.1478-0.71998h93.182l2.1478 0.71998c1.1813 0.39599 2.9546 0.88329 3.9407 1.0829s2.25 0.6393 2.8087 0.97712c0.55867 0.33782 1.3875 0.72275 1.8418 0.85541 1.398 0.40821 6.3042 3.8497 8.7136 6.1124 2.3985 2.2524 6.2732 7.7482 7.0478 9.9967 0.2438 0.70764 0.79173 1.982 1.2176 2.8319 0.42589 0.8499 0.87235 2.4374 0.99214 3.5279 0.11978 1.0904 0.43566 2.8004 0.70195 3.8 0.3975 1.4921 0.48485 5.117 0.48807 20.254l4e-3 18.437 0.81107 0.81106 0.81106 0.81106h46.371c40.466 0 46.618 0.0641 48.304 0.50329 1.0628 0.27681 2.9842 0.65249 4.27 0.83484s2.8015 0.6052 3.3684 0.93965c0.56686 0.33445 1.6133 0.7945 2.3255 1.0223 2.1867 0.69952 7.4363 4.419 10.1 7.1558 4.0812 4.1938 6.4351 8.1161 8.5981 14.327l1.0932 3.1391 0.0961 80.295c0.0528 44.162 0.0145 80.63-0.0848 81.039-0.0995 0.40891-0.40108 0.74347-0.67025 0.74347-0.68449 0-0.61259 0.55156 0.0961 0.73689 0.32555 0.0851 1.2256 1.3859 2.0274 2.9298 0.79304 1.5272 1.7191 3.1714 2.058 3.6538s0.61613 1.0372 0.61613 1.2329 0.43015 1.2879 0.95587 2.4272c2.338 5.0666 4.103 9.5401 4.7283 11.984 0.18597 0.72695 0.74777 2.66 1.2484 4.2956 0.5007 1.6356 1.0918 3.8661 1.3135 4.9565 0.22176 1.0904 0.61302 2.8748 0.86947 3.9652s0.61824 3.8413 0.80395 6.113c0.18573 2.2717 0.47242 4.9482 0.63707 5.9478 0.39097 2.3732 0.38558 11.551-8e-3 13.878-0.16915 0.99956-0.44119 3.8248-0.60456 6.2782-0.20407 3.0654-0.56421 5.3912-1.1512 7.4348-0.46981 1.6356-0.85602 3.5344-0.8583 4.2196-3e-3 0.68512-0.37227 2.1517-0.82222 3.2591-0.44998 1.1074-0.91206 2.5542-1.0268 3.2152-0.25906 1.4915-2.2257 6.9212-3.3013 9.1144-0.44083 0.89895-0.80153 1.8129-0.80153 2.031 0 0.8286-5.6417 11.384-7.6659 14.343-0.68384 0.99956-1.9459 2.8582-2.8045 4.1304-6.9848 10.349-20.185 22.611-31.905 29.638-3.1375 1.8813-10.918 5.8836-11.438 5.8836-0.20084 0-1.2974 0.44083-2.4366 0.97964-3.4258 1.6201-13.555 4.9682-15.03 4.9682-0.55582 0-2.3283 0.38908-3.9388 0.86464-1.9323 0.57056-4.277 0.95773-6.8935 1.1383-2.1809 0.15055-4.8574 0.42055-5.9478 0.60007-3.0169 0.49667-9.8343 0.67544-13.708 0.35948zm-1.9774-15.199c0.62524-0.62525 0.66847-1.0562 0.6341-6.3223-0.0305-4.6745 0.0508-5.739 0.47028-6.1584 0.41945-0.41945 1.5204-0.50364 6.3664-0.48672 5.2436 0.0182 5.9048 0.0828 6.2935 0.61434 0.31815 0.43511 0.43429 2.0852 0.43429 6.1699 0 3.2117 0.14504 5.8469 0.34206 6.215 0.28691 0.5361 0.7058 0.63916 2.5981 0.63916 1.2408 0 3.5032-0.31064 5.0275-0.69031s3.9239-0.89316 5.3324-1.1411c1.4085-0.24793 3.2668-0.76301 4.1294-1.1446 0.86262-0.38159 2.238-0.77784 3.0564-0.88057 1.4025-0.17606 4.2275-1.2739 8.7575-3.4034 5.5403-2.6044 10.642-5.2039 11.389-5.8026 0.46036-0.3692 1.8779-1.3748 3.15-2.2346 6.4918-4.3877 7.9981-5.6213 13.32-10.908 5.6195-5.5817 7.1571-7.4693 12.384-15.204 2.2105-3.2707 3.3984-5.4159 5.523-9.9737 0.593-1.2722 1.3704-2.8886 1.7275-3.592 1.2737-2.5088 2.9545-7.0113 3.2848-8.7992 0.18468-0.99956 0.67756-2.6592 1.0953-3.6881 0.41777-1.0289 0.86732-2.6646 0.99904-3.6348 0.13171-0.97022 0.5922-3.3253 1.0233-5.2336 0.43115-1.9082 0.78525-4.1652 0.78686-5.0155 5e-3 -2.5331-0.13306-2.5845-6.9409-2.5845-7.4722 0-6.9342 0.53909-6.9342-6.9495 0-4.0897 0.11363-5.6361 0.44777-6.093 0.40927-0.55975 0.92822-0.60608 6.0405-0.53941 3.1215 0.0407 5.9762-0.0729 6.4607-0.25707 1.3605-0.51728 1.4201-1.738 0.31864-6.5282-0.53749-2.3375-1.0687-5.0114-1.1803-5.9418-0.11169-0.93048-0.5661-2.5852-1.0098-3.6771-0.44367-1.0919-0.95089-2.8806-1.1271-3.9748-0.17622-1.0942-0.60938-2.5622-0.96262-3.262-0.3532-0.69987-0.75358-1.6442-0.88975-2.0986-0.26584-0.88702-1.4883-3.54-4.4158-9.5826-1.6642-3.4351-3.1737-5.8991-5.972-9.7478-0.52853-0.72695-1.7303-2.4369-2.6705-3.8-2.537-3.6778-12.759-13.977-16.188-16.31-1.5448-1.0513-3.4778-2.4181-4.2956-3.0373-0.81782-0.61925-1.933-1.3693-2.4782-1.6668-0.54521-0.29748-1.2887-0.7991-1.6522-1.1147-0.70624-0.61319-3.6415-2.1523-7.9304-4.1583-1.4539-0.68001-3.5356-1.6593-4.6261-2.1762-3.8289-1.8149-6.7282-2.9275-7.629-2.9275-0.50028 0-2.2597-0.43759-3.9098-0.97243-4.46-1.4456-14.118-3.2195-15.289-2.8083l-0.92837 0.32588-0.16522 6.3662c-0.13422 5.1719-0.2582 6.4248-0.66086 6.6789-0.81745 0.51568-11.654 0.40695-12.381-0.12421-0.55974-0.40929-0.6052-0.93719-0.5389-6.2583 0.10019-8.0411 0.25587-7.9158-7.6784-6.1816-2.4945 0.54521-4.9054 0.9913-5.3575 0.9913-0.45216 0-1.8974 0.38085-3.2115 0.84632-1.3142 0.46548-3.172 0.97843-4.1284 1.1399-1.7521 0.29578-4.1904 1.2186-7.8436 2.9686-11.864 5.6835-11.411 5.4182-21.024 12.296-3.8126 2.728-13.384 12.304-15.785 15.792-0.93815 1.363-2.8198 4.0395-4.1816 5.9478-1.3617 1.9083-3.3745 5.3282-4.473 7.6-1.0984 2.2717-2.5015 5.1713-3.118 6.4434-1.9149 3.9515-3.0407 6.8784-3.241 8.426-0.10586 0.81782-0.57063 2.4133-1.0328 3.5456-0.46219 1.1322-0.84035 2.3984-0.84035 2.8137s-0.44609 2.7334-0.9913 5.1515c-0.54522 2.418-0.9913 5.2697-0.9913 6.3371 0 2.8906 0.18896 2.9694 7.1118 2.9694 3.9484 0 5.762 0.11908 6.0395 0.39652 0.27858 0.27858 0.39652 2.1389 0.39652 6.2546 0 4.885-0.0863 5.9444-0.51926 6.3774-0.43155 0.43156-1.4735 0.51925-6.1696 0.51925-6.9048 0-6.8589-0.0231-6.8589 3.4524 0 1.5395 0.28859 3.3542 0.8309 5.2248 0.457 1.5763 0.91751 3.5773 1.0234 4.4466 0.24108 1.9798 2.6414 10.086 3.4728 11.728 0.34139 0.67428 0.62071 1.4257 0.62071 1.6699 0 0.24416 0.36584 1.1794 0.81296 2.0784 0.44713 0.89892 1.0388 2.2762 1.3148 3.0606 0.276 0.78438 0.7797 1.8252 1.1193 2.313 0.58706 0.8431 2.8787 4.8785 4.699 8.2747 2.0215 3.7715 7.7091 10.693 13.082 15.921 5.7056 5.551 7.9158 7.3433 14.162 11.484 3.3593 2.2269 13.788 7.6415 15.696 8.1495 0.45435 0.12094 1.5696 0.5811 2.4782 1.0226s2.504 0.95978 3.545 1.1518c1.0411 0.19204 2.579 0.65267 3.4176 1.0236 0.83863 0.37097 2.8864 0.88245 4.5506 1.1366s3.9923 0.74473 5.1736 1.09c1.1813 0.3453 3.1515 0.64467 4.3782 0.66529 1.8325 0.0307 2.3501-0.0823 2.9014-0.63354zm22.563-65.498c-18.133-18.169-21.239-21.421-21.548-22.552-0.24885-0.91167-0.36135-11.033-0.36262-32.623l-2e-3 -31.301 0.74348-0.48473c0.57753-0.37653 1.9474-0.48342 6.1374-0.47887 4.8799 5e-3 5.4546 0.0665 6.0304 0.64232 0.61883 0.61883 0.63647 1.4536 0.63647 30.118v29.482l19.496 19.514c15.32 15.335 19.496 19.69 19.496 20.336 0 1.1802-7.4226 8.5769-8.6069 8.5769-0.66027 0-5.2004-4.3774-22.019-21.23zm-104.36 32.085c0.11841-0.11843-0.38274-1.2336-1.1137-2.4782-1.2397-2.111-3.3727-6.3407-5.1404-10.193-0.41692-0.90869-1.2103-2.6187-1.7631-3.8-1.4518-3.1025-2.6343-6.3034-2.8791-7.7927-0.11697-0.71182-0.62866-2.5581-1.1371-4.1029-1.696-5.1531-2.9889-11.458-2.994-14.601-1e-3 -0.85199-0.24471-2.562-0.54075-3.8-0.78962-3.3021-0.83266-15.827-0.0662-19.268 0.30362-1.363 0.63473-4.0434 0.7358-5.9564 0.11984-2.2684 0.42471-4.1647 0.87652-5.4522 0.38102-1.0857 0.83436-2.9406 1.0074-4.1218 0.35637-2.4324 1.6963-7.0326 2.695-9.2521 0.36797-0.81783 0.93391-2.3048 1.2576-3.3043 0.70491-2.1765 2.1696-5.8542 2.6977-6.7739 0.20873-0.36347 1.2682-2.4326 2.3544-4.598 2.5787-5.141 8.6616-14.162 12.929-19.174 3.93-4.6154 11.352-11.773 15.992-15.423 2.1451-1.6874 5.6428-1.6135-76.454-1.6135-65.126 0-76.131 0.0673-76.68 0.46871-0.6143 0.44891-0.6484 1.104-0.80663 15.5l-0.16522 15.031-1.0079 1.2693c-0.55433 0.69813-1.8077 1.6782-2.7853 2.178l-1.7775 0.90869h-36.632l-1.9945-1.0631c-3.3012-1.7595-3.2039-1.2232-3.2124-17.7-0.0079-15.126-0.10653-16.067-1.7203-16.396-0.42089-0.0857-2.1054-0.23559-3.7434-0.33303-1.638-0.0974-3.7941-0.45739-4.7913-0.79989-0.99723-0.3425-2.854-0.80216-4.1262-1.0215-1.2722-0.2193-2.9343-0.76102-3.6936-1.2038-0.75932-0.44279-1.5771-0.806-1.8174-0.80711-1.4754-7e-3 -11.252-6.1165-13.502-8.4372-1.2362-1.2755-2.4278-1.4792-2.9495-0.50423-0.23261 0.43463-0.34016 21.978-0.33613 67.326 0.0065 73.549-0.07166 70.648 2.0162 74.782 1.1632 2.3032 3.2768 5.235 4.8027 6.6619 1.4317 1.3388 5.7819 4.2415 6.3687 4.2497 0.28568 4e-3 1.1885 0.31329 2.0064 0.68734 0.81782 0.37405 2.0817 0.80133 2.8087 0.9495 1.5537 0.31669 194.96 0.27505 195.28-0.042zm-142.53-119.78c0.35447-0.42661 0.47553-2.5371 0.55438-9.6652 0.05548-5.0157 0.01246-9.5978-0.09559-10.183-0.38968-2.1089-0.21505-2.0758-10.948-2.0758h-9.7392l-1.6221 1.6221 0.0051 9.6802c0.0026 5.3241 0.1143 9.8416 0.24782 10.039 0.68065 1.0056 1.7237 1.1083 11.354 1.1182 8.7063 9e-3 9.8401-0.0504 10.243-0.53574zm309.54-22.644c0.0254-10.303-0.0365-11.855-0.4903-12.309-0.86477-0.86476-1.7503-0.59643-3.5484 1.0751-1.6335 1.5186-2.8243 2.3941-6.1758 4.5404-3.5826 2.2942-5.014 3.0772-6.0248 3.2954-0.59375 0.12816-1.6588 0.52638-2.3669 0.88491l-1.2874 0.65189 1.3292 0.59511c0.73108 0.32732 1.4359 0.76773 1.5663 0.9787s0.87888 0.78406 1.6633 1.2735c2.7766 1.7325 13.463 11.629 14.44 13.374 0.38149 0.6808 0.42749 0.61461 0.6383-0.91849 0.12494-0.90869 0.24019-6.9574 0.25612-13.442zm-116.61-11.837c0.5169-0.55335 1.2689-0.99273 1.7021-0.99453 0.42686-2e-3 1.5571-0.36684 2.5117-0.81127 0.95458-0.44442 2.2928-0.90418 2.9739-1.0217 0.68106-0.11751 2.5198-0.64461 4.0862-1.1713 1.5664-0.52672 3.2494-0.95768 3.7401-0.95768s2.4061-0.38858 4.2564-0.86352c1.9575-0.50244 5.0222-0.98039 7.3294-1.143 2.1809-0.15373 5.6008-0.43925 7.6-0.63448 3.7964-0.37074 10.289-0.19862 12.556 0.33289 0.72695 0.17038 2.5113 0.31468 3.9652 0.32066 1.6562 7e-3 4.001 0.33115 6.2782 0.86842 1.9991 0.47165 4.4333 0.98033 5.4093 1.1304 0.97597 0.15008 2.909 0.64389 4.2956 1.0974 1.3866 0.45348 3.1902 0.96754 4.0081 1.1424 0.81782 0.17484 2.2304 0.62215 3.1391 0.99404 0.90869 0.37188 2.1213 0.84691 2.6946 1.0556 0.57333 0.2087 1.117 0.66467 1.2082 1.0133 0.20864 0.79787 2.4381 0.89858 2.9999 0.1355 0.25487-0.34622 1.8326-0.68603 5.1693-1.1134 3.2692-0.4187 5.243-0.83983 6.1825-1.3191 0.75898-0.38721 1.5938-0.70401 1.8552-0.70401 0.65072 0 3.8052-1.6877 6.6285-3.5464 2.6656-1.7548 8.4484-7.3917 9.29-9.0556 0.30912-0.61109 0.81763-1.4085 1.13-1.7719 0.76925-0.895 2.6582-4.3497 2.6623-4.8689 3e-3 -0.22992 0.38978-1.2359 0.86226-2.2354 0.6198-1.3113 1.031-3.1056 1.4765-6.4434 0.57314-4.2934 0.61805-7.4348 0.62469-43.687 8e-3 -44.315 0.0446-43.564-2.3487-48.345-2.2107-4.4169-7.1812-9.131-11.192-10.615-0.81783-0.30252-2.1561-0.8246-2.9739-1.1602-1.4392-0.59053-7.0165-0.61012-173.64-0.61012-166.63 0-172.2 0.01959-173.64 0.61012-0.81782 0.33557-2.1561 0.8584-2.9739 1.1618-2.9262 1.0857-6.2659 3.634-8.7209 6.6541-2.5293 3.1115-3.9909 6.4281-4.4512 10.101-0.26185 2.0888-0.37473 14.948-0.37273 42.461 0.0031 43.234 0.08784 45.566 1.7871 49.212 0.46588 0.99956 0.85409 2.0404 0.86268 2.313 0.01791 0.56825 1.8678 3.9092 3.7601 6.7906 1.65 2.5125 6.694 7.5421 9.3653 9.3385 2.4561 1.6516 6.2425 3.6969 6.8442 3.6969 0.23555 0 1.2269 0.35737 2.203 0.79417 3.7313 1.6697 4.2903 1.6841 65.66 1.6841h56.946l0.63168-0.78008c0.59339-0.73279 0.63169-1.44 0.63169-11.664 0-11.991-0.0169-11.88 2.0962-13.736 2.5248-2.2168 0.20822-2.1006 39.869-1.999l35.852 0.0919 1.577 0.92696c0.86733 0.50982 1.9825 1.5395 2.4782 2.2881l0.90129 1.3612 0.0842 10.764c0.0463 5.9202 0.15935 11.093 0.25115 11.496 0.29909 1.311 2.0241 1.4808 14.35 1.412 14.395-0.0803 14.119-0.0895 14.628 0.48729 0.69613 0.78928 1.9033 0.58849 2.9043-0.48308zm2.9808-21.797c-0.74951-0.47394-0.82959-13.469-0.0881-14.302 0.4575-0.51457 1.2472-0.57826 7.1707-0.57826 4.7368 0 6.7709 0.11436 7.0531 0.39652 0.5609 0.5609 0.5609 13.846 0 14.407-0.48494 0.48495-13.379 0.55549-14.136 0.0773zm27.816-0.0773c-0.28274-0.28274-0.39652-2.3498-0.39652-7.2034 0-4.8537 0.11378-6.9207 0.39652-7.2034 0.63269-0.63269 13.6-0.55399 14.131 0.0858 0.2841 0.34232 0.40027 2.408 0.40027 7.1177 0 4.7096-0.11617 6.7754-0.40027 7.1177-0.53096 0.63976-13.499 0.71847-14.131 0.0858zm29.862-0.12273c-0.43717-0.43718-0.51925-1.5563-0.51925-7.0807s0.0821-6.6435 0.51925-7.0807c0.77371-0.7737 13.388-0.7737 14.161 0 0.43716 0.43718 0.51924 1.5563 0.51924 7.0807s-0.0821 6.6435-0.51924 7.0807c-0.4372 0.43718-1.5563 0.51925-7.0807 0.51925s-6.6435-0.0821-7.0807-0.51925zm-106.21 21.029c0.6059-0.74833 0.64366-1.2446 0.54899-7.2141-0.0935-5.899-0.15285-6.4479-0.74308-6.879-0.54126-0.39528-4.8879-0.46842-27.839-0.46842-26.757 0-27.208 0.0107-27.858 0.66086-0.61341 0.61341-0.66087 1.1014-0.66087 6.7956 0 6.3954 0.15294 7.226 1.4259 7.7442 0.40549 0.16506 12.502 0.26551 27.599 0.22919l26.877-0.0647zm-77.009-147.68c0.6031-0.74557 0.63102-1.5454 0.63102-18.079 0-16.612 0.0268-17.37 0.67515-19.103 0.56513-1.5104 0.95428-1.9836 2.3881-2.9037l1.7129-1.0992h87.249l1.7279 1.119c1.4406 0.93295 1.839 1.4158 2.3956 2.9037 0.63878 1.7073 0.66772 2.5345 0.66772 19.083 0 16.533 0.0279 17.333 0.63103 18.079 0.61742 0.76327 0.76683 0.78229 6.9341 0.88267l6.3031 0.10259 1.6921-1.6921-0.1952-38.165-0.86886-1.9826c-0.47787-1.0904-0.98204-2.3543-1.1204-2.8087-0.38579-1.2671-2.6834-4.5007-4.4202-6.2209-2.4075-2.3844-3.9524-3.4921-6.8156-4.8866l-2.6357-1.2837h-95.826l-2.6347 1.2832c-3.4011 1.6565-5.5907 3.2913-7.635 5.7003-2.5794 3.0395-3.3463 4.3596-4.5858 7.894l-1.1561 3.2963-2e-3 18.669c-1e-3 10.268 0.10713 18.831 0.24065 19.028 0.67385 0.99558 1.6643 1.1286 7.79 1.0465 6.0966-0.08173 6.2385-0.0996 6.8565-0.86354zm83.674 0.5654c0.39696-0.20895 0.831-0.54351 0.96452-0.74348s0.24504-6.3255 0.24782-13.612c5e-3 -13.052-5e-3 -13.258-0.69039-13.878-0.67249-0.6087-1.7822-0.63278-33.622-0.72978-18.109-0.05517-33.69-0.0094-34.624 0.10177-3.1291 0.37244-2.9141-0.56895-3.0312 13.272-0.0566 6.6937-0.0103 12.802 0.10286 13.575 0.37148 2.5345-2.149 2.3675 35.956 2.3824 24.982 0.0097 34.165-0.08731 34.695-0.36667z" fill="#5783a9"/>
    <path d="m133.99 386.61c-55.612-0.0948-101.28-0.28321-101.49-0.41876-0.2086-0.13557-1.5145-0.40435-2.9019-0.59732-1.4695-0.20441-3.3804-0.75666-4.5772-1.3229-1.13-0.53457-2.2696-0.9721-2.5325-0.97223-0.47888-2.6e-4 -0.75616-0.1674-5.2452-3.1614-2.8098-1.874-5.6952-4.8546-7.953-8.2156-1.6023-2.3851-4.002-7.2932-4.002-8.1851 0-0.26335-0.40498-1.5829-0.89996-2.9323l-0.89996-2.4535-0.0087281-128.37-0.0087277-128.37 0.90869-2.603c0.49978-1.4317 0.90869-2.8448 0.90869-3.1403 0-0.29548 0.52043-1.61 1.1565-2.9212 0.63608-1.3112 1.1565-2.5192 1.1565-2.6845s0.23391-0.4946 0.5198-0.73187 0.81833-1.0166 1.1832-1.7318c0.87222-1.7097 5.7256-6.7238 7.9448-8.2078 3.6575-2.4459 5.0192-3.2577 5.4644-3.2577 0.2529 0 1.3798-0.43215 2.5042-0.96034 1.2019-0.56457 2.9082-1.0494 4.1404-1.1764 1.1528-0.11884 2.4911-0.39298 2.9739-0.60921 0.6597-0.29544 12.64-0.43421 48.205-0.55836l47.327-0.16522 1.6502-1.6522 0.13725-18.835c0.1148-15.755 0.22312-19.186 0.66242-20.983 0.28884-1.1813 0.52882-2.6682 0.53329-3.3043 4e-3 -0.63608 0.4531-2.0487 0.99695-3.1391 0.54384-1.0904 0.98937-2.197 0.99006-2.459 3e-3 -0.99464 3.3868-6.0492 6.051-9.0377 2.2713-2.5478 7.234-6.2016 9.5399-7.0239 0.66872-0.23847 1.5627-0.66086 1.9867-0.93864 0.42395-0.27778 1.8098-0.74291 3.0798-1.0336 1.2699-0.2907 3.254-0.81719 4.409-1.17 2.0355-0.62173 3.5032-0.64142 47.795-0.64142 45.689 0 45.696 1.005e-4 47.961 0.7035 1.2459 0.38692 3.2155 0.90397 4.377 1.149 1.1614 0.24502 2.473 0.68221 2.9146 0.97154 0.44157 0.28933 1.3678 0.72538 2.0583 0.969 1.8158 0.64067 5.7579 3.5149 8.557 6.2389 2.6628 2.5915 5.7435 6.9644 6.7236 9.5439 0.34573 0.90989 0.90875 2.2035 1.2511 2.8746 0.3424 0.67116 0.78613 2.415 0.98606 3.8752 0.19992 1.4602 0.50811 3.1591 0.68486 3.7754 0.19059 0.66454 0.32136 8.4633 0.32136 19.165 0 12.354 0.1155 18.375 0.36626 19.095 0.7505 2.1529-2.3956 2.021 48.439 2.0304 44.591 0.0082 46.292 0.03083 49.003 0.65238 1.5448 0.35414 3.2548 0.64828 3.8 0.65363 0.54521 0.0054 1.8835 0.45469 2.9739 0.99854s2.2178 0.98937 2.5053 0.99006c0.28747 6.61e-4 2.0718 1.0167 3.9652 2.2577 3.6605 2.3994 8.0518 6.6784 9.2363 9.0001 0.35215 0.69026 0.79413 1.3501 0.98218 1.4663 0.63007 0.38941 2.7309 5.2327 3.8482 8.872l1.1063 3.6032v79.757c0 48.528-0.11945 79.757-0.30505 79.757-0.2811 0-2.5888-3.1897-4.1558-5.744-0.80007-1.3042-2.3202-3.2542-4.8663-6.2427-1.0492-1.2314-1.917-2.4953-1.9286-2.8087-0.0116-0.31337-3e-3 -6.3972 0.0198-13.52 0.0399-12.662 0.0258-12.965-0.63979-13.63-1.1308-1.1308-2.1227-0.85779-4.4298 1.2194-1.1607 1.045-2.9851 2.411-4.0544 3.0356-1.0692 0.62459-2.1848 1.3362-2.4788 1.5814-1.4706 1.226-4.5347 2.7724-6.6649 3.3638-2.6977 0.74893-2.4233 0.82025-6.8438-1.7789-1.1813-0.69457-2.7426-1.5569-3.4695-1.9162-0.72696-0.35937-1.6935-0.911-2.1478-1.2258-0.45435-0.31486-1.3657-0.7474-2.0253-0.9612-1.3242-0.42927-2.5018-1.5036-1.9929-1.8181 0.17629-0.10895 2.0818-0.40664 4.2346-0.66153 2.7914-0.33052 4.4353-0.70867 5.7314-1.3184 0.99956-0.47024 2.0223-0.85644 2.2728-0.85822 0.5347-4e-3 3.3504-1.5699 6.1532-3.4225 2.3659-1.5638 7.81-6.7831 9.0137-8.6415 2.4144-3.7277 4.06-6.5832 4.2506-7.3758 0.11707-0.48675 0.57099-1.6015 1.0087-2.4772 0.47311-0.94655 0.92293-2.655 1.1092-4.213 0.17235-1.4414 0.46095-3.8475 0.6413-5.3469 0.19909-1.6549 0.32891-17.634 0.33043-40.666 3e-3 -43.088-6e-3 -43.281-2.2426-47.808-1.331-2.694-3.3361-5.5167-5.0768-7.147-1.4723-1.3789-5.4168-4.0869-5.959-4.0909-0.23762-0.0017-1.2498-0.41068-2.2494-0.90869l-1.8175-0.90546-172.89-0.08416c-158.23-0.07703-173.01-0.03906-174.3 0.44763-0.77747 0.29249-2.2314 0.82597-3.231 1.1855-0.99956 0.35955-2.1148 0.92018-2.4782 1.2459-0.36348 0.32567-1.0287 0.78243-1.4782 1.015-2.3144 1.1974-5.9913 5.5126-7.863 9.2277-2.0419 4.0531-2.0588 4.4454-2.0588 47.953 0 32.736 0.08026 39.627 0.5064 43.477 0.32148 2.9044 0.72525 4.9973 1.1057 5.7315 0.32964 0.63609 0.79138 1.7513 1.0261 2.4782 0.50521 1.5648 2.4757 5.34 3.277 6.2782 0.3104 0.36348 0.94323 1.2556 1.4063 1.9826 1.1762 1.8465 6.032 6.648 8.1591 8.0678 2.938 1.961 6.4617 3.9704 6.9889 3.9854 0.27261 8e-3 1.3135 0.39908 2.313 0.86963 3.8219 1.7991 3.9325 1.8022 66.128 1.8265 40.274 0.0157 57.237-0.0827 57.708-0.33482 1.2544-0.67132 1.3976-2.0102 1.3976-13.065v-10.613l0.85854-1.2635c0.55085-0.81064 1.4686-1.5475 2.5609-2.0561l1.7023-0.79261 35.687 4e-3c34.064 4e-3 35.747 0.0319 37.009 0.61729 0.72695 0.33729 1.8422 1.1599 2.4782 1.8279l1.1565 1.2147 0.33044 23.154 0.78008 0.6312c0.90407 0.73152 1.455 0.75431 15.854 0.65594 9.5074-0.0649 11.415 0.0625 11.205 0.74883-0.0645 0.21061-1.8939 1.283-4.0653 2.383s-4.4684 2.3048-5.1045 2.6772c-1.5112 0.88478-6.446 3.9622-7.9659 4.9675l-1.192 0.78848-77.331-0.0183c-47.907-0.0113-77.644 0.10073-78.154 0.29455-1.4781 0.56197-1.5649 1.4871-1.5649 16.689v14.248l-0.83848 1.2339c-0.48349 0.71153-1.5281 1.5834-2.4673 2.0593l-1.6288 0.82536h-36.722l-1.5586-0.79037c-3.0923-1.5681-2.8582-0.23577-3.0455-17.335-0.12116-11.061-0.2735-15.272-0.57128-15.792-0.56904-0.99316-2.1-1.4391-4.9406-1.4391-1.5987 0-3.1445-0.23755-4.4856-0.68933-1.1254-0.37913-3.2142-0.89467-4.6417-1.1456-1.4275-0.25097-3.067-0.74164-3.6433-1.0904-0.57633-0.34873-1.4196-0.74062-1.874-0.87086-3.121-0.89468-9.8427-5.0723-13.165-8.182-1.8573-1.7387-2.9426-1.9841-4.018-0.90869-0.65649 0.65649-0.66087 1.1014-0.66087 67.186 0 73.852-0.06346 71.51 2.0501 75.636 1.2851 2.5086 2.4755 4.1492 4.6969 6.4734 1.7607 1.8422 5.3929 4.4333 6.8008 4.8514 0.45435 0.13495 1.7183 0.63632 2.8087 1.1142l1.9826 0.86887 195.95 0.1342 1.3901 2.0391c0.76454 1.1215 2.5489 3.4441 3.9652 5.1615 2.6215 3.1787 3.1317 4.0616 2.3515 4.0697-0.2405 3e-3 -0.73466 0.0428-1.0981 0.0897-0.36347 0.0469-46.162 8e-3 -101.77-0.0871zm-47.627-131.54 0.87064-0.68485v-20.799l-1.6578-1.6578-10.067 0.10045c-9.9697 0.0995-10.074 0.10771-10.819 0.85265-0.7446 0.74462-0.75313 0.85209-0.84883 10.693-0.10443 10.739-0.04604 11.15 1.6855 11.847 0.39831 0.16045 5.0535 0.30114 10.345 0.31266 9.2492 0.0201 9.6542-5e-3 10.491-0.6639zm147.16-34.953c1.1817-0.63242 1.4775-2.5604 1.3576-8.8484-0.10376-5.4415-0.14613-5.7599-0.86178-6.4749l-0.75266-0.75199h-55.146l-0.75265 0.75199c-0.71701 0.71637-0.75792 1.0292-0.86377 6.6055-0.12728 6.705 0.13548 8.1719 1.572 8.7758 1.3275 0.55804 54.4 0.50251 55.447-0.058zm-77.424-147.55c0.60806-0.25406 1.2352-0.66298 1.3937-0.90869 0.15849-0.24571 0.36251-8.625 0.45338-18.621 0.18645-20.51 0.0418-19.417 2.8119-21.231l1.649-1.0796 86.904 0.17146 1.536 1.0667c2.6291 1.8258 2.5944 1.5407 2.5944 21.313 0 19.199-0.0512 18.753 2.2323 19.432 0.77344 0.23 3.4326 0.32765 7.0941 0.26051 5.5834-0.10239 5.892-0.14256 6.6087-0.86044l0.7518-0.75304v-38.807l-0.77331-1.6522c-0.42532-0.90869-0.9577-2.2487-1.1831-2.9777-0.78463-2.5382-4.3808-6.9674-7.635-9.4036-0.91352-0.68389-2.8466-1.8209-4.2956-2.5267l-2.6347-1.2832h-95.826l-2.6435 1.2918c-5.8833 2.875-10.351 7.504-12.308 12.752-1.7808 4.7754-1.7351 4.1479-1.7351 23.819 0 17.948 0.016 18.408 0.66745 19.236 0.85696 1.0895 1.0865 1.1246 7.6866 1.1782 4.0875 0.03317 5.836-0.07645 6.6509-0.41694zm85.31-0.6304 0.79741-0.92712v-26.758l-0.81107-0.81106-0.81106-0.81106h-34.732c-34.974 0-35.683 0.02184-36.418 1.1234-0.13352 0.19997-0.24504 6.4688-0.24782 13.931-5e-3 14.684-0.0349 14.44 1.8127 14.997 0.56791 0.17108 15.638 0.27407 35.302 0.24124l34.311-0.05728zm40.93 125.58c-0.0907-0.23631-0.12437-3.3248-0.0749-6.8634l0.09-6.4337h13.548v13.548l-6.699 0.0895c-5.2572 0.0702-6.7345-3e-3 -6.8639-0.34017zm28.106 0.0922c-0.11005-0.17807-0.20008-3.155-0.20008-6.6154s0.09-6.4373 0.20008-6.6154c0.29491-0.47716 12.944-0.42965 13.24 0.0497 0.17366 0.28098 0.30641 11.1 0.16167 13.174-0.0309 0.44252-13.128 0.44906-13.401 7e-3zm29.72-0.0922c-0.0907-0.23631-0.12437-3.3248-0.0749-6.8634l0.09-6.4337h13.548v13.548l-6.699 0.0895c-5.2572 0.0702-6.7345-3e-3 -6.8639-0.34017z" fill="#252121"/>
   </g>
  </g>
 </g>
</svg>
