<?xml version="1.0" encoding="UTF-8"?>
<svg id="svg" width="400" height="433.93" version="1.1" viewBox="0 0 400 433.93" xmlns="http://www.w3.org/2000/svg" xmlns:cc="http://creativecommons.org/ns#" xmlns:dc="http://purl.org/dc/elements/1.1/" xmlns:rdf="http://www.w3.org/1999/02/22-rdf-syntax-ns#">
 <metadata>
  <rdf:RDF>
   <cc:Work rdf:about="">
    <dc:format>image/svg+xml</dc:format>
    <dc:type rdf:resource="http://purl.org/dc/dcmitype/StillImage"/>
    <dc:title/>
   </cc:Work>
  </rdf:RDF>
 </metadata>
 <g id="svgg" fill-rule="evenodd">
  <path d="m186 0.393c-62.628 5.1981-117.76 55.891-128.58 117.81-7.469 38.326 1.8538 79.18 24.446 110.92-6.3085 17.673-18.522 33.779-27.221 50.788-17.514 32.354-37.074 63.694-53.741 96.435 1.9132 21.568 33.103 2.2659 47.552 2.6011 21.769-12.442 19.773 15.169 26.184 28.059 4.903 8.8924 3.5274 29.557 17.865 26.381 13.15-13.299 19.755-33.042 30.493-48.781 18.141-31.97 36.727-63.681 54.949-95.6 15.435 5.7596 39.644-8.0506 48.791 6.864 26.552 45.284 51.846 91.381 78.984 136.28 16.822 8.363 15.768-18.938 21.482-27.977 4.4899-15.427 7.4421-36.804 28.367-24.396 14.251 1.2789 53.057 18.116 41.488-9.566-26.403-46.591-52.453-93.361-79.117-139.81 36.057-48.121 37.098-118.75 2.2463-167.78-27.808-41.357-77.77-65.557-127.38-62.581l-4.4458 0.10071zm21.4 14.426c65.545 1.9251 123.41 60.75 123.33 126.49 3.5346 63.141-46.539 123.22-108.86 132.26-53.376 9.5002-110.69-18.18-135.97-66.242-30.573-53.174-15.956-126.92 33.098-163.97 24.57-20.207 56.703-30.499 88.402-28.538zm-110.47 232.13c17.708 17.982 40.209 30.43 64.051 38.23-22.488 40.567-45.96 81.004-69.473 121.14-7.3445-15.061-7.5047-35.308-19.285-47.074-14.846-1.0376-36.626 8.9875-47.38 6.502 23.165-40.492 45.571-81.49 69.066-121.75zm211.2-1.25c23.021 40.656 45.944 81.356 69.028 121.98-17.347 0.40206-43.193-18.179-54.367-1.054-4.9132 12.093-8.7473 30.443-14.254 38.847-22.826-40.059-46.189-79.848-68.745-120.04 24.944-8.5454 48.533-21.852 66.886-41.112l0.73038 0.19122z" fill="#fff"/>
  <path d="m196.7 68.663c-2.321 1.248-3.797 3.062-5.483 6.737-2.05 4.469-2.632 5.72-4.99 10.732-1.225 2.603-2.227 4.788-2.227 4.855 0 0.068-1.048 2.348-2.33 5.068-1.281 2.72-2.766 5.925-3.3 7.122-2.904 6.518-3.067 6.668-7.37 6.781-1.1 0.029-3.71 0.413-5.8 0.854s-5.69 0.977-8 1.192c-2.31 0.214-5.46 0.676-7 1.027-1.54 0.35-3.79 0.723-5 0.829-9.569 0.831-13.308 2.58-14.747 6.9-1.66 4.983-1.226 5.659 12.725 19.791 14.759 14.95 16.803 17.104 16.814 17.73 0.018 1.052-1.644 11.995-1.993 13.119-0.205 0.66-0.568 2.82-0.807 4.8-0.238 1.98-0.691 4.77-1.006 6.2s-0.86 4.58-1.211 7c-0.35 2.42-0.897 5.39-1.215 6.6-1.759 6.699 2.271 12.612 8.58 12.591 1.692-5e-3 2.656-0.18 2.763-0.5 0.09-0.27 0.426-0.491 0.746-0.491 0.561 0 2.228-0.822 4.751-2.344 1.069-0.645 2.655-1.537 7.4-4.161 0.77-0.426 1.94-1.092 2.6-1.481s2.19-1.243 3.4-1.896c1.21-0.654 5.292-2.928 9.071-5.053 7.278-4.093 7.791-4.268 9.324-3.165 0.535 0.385 1.654 1.06 2.486 1.5 1.442 0.763 10.503 5.86 14.319 8.055 0.99 0.57 2.97 1.691 4.4 2.49 1.43 0.8 3.14 1.767 3.8 2.148s1.83 0.986 2.6 1.345c0.77 0.358 1.49 0.793 1.6 0.966 0.11 0.172 1.28 0.827 2.6 1.455 5.154 2.45 9.64 1.017 12.108-3.869 1.588-3.145 1.491-4.818-1.093-18.78-0.428-2.315-1.055-5.83-1.392-7.81s-0.787-4.32-0.999-5.2-0.594-3.298-0.848-5.372c-0.254-2.075-0.713-4.483-1.019-5.351-0.306-0.867-0.551-1.87-0.544-2.227 0.012-0.631 6.043-6.966 21.561-22.65 9.024-9.12 9.859-10.533 8.771-14.851-1.146-4.555-5.328-6.871-13.545-7.502-1.43-0.11-4.31-0.565-6.4-1.012-2.09-0.446-4.679-0.816-5.754-0.823s-4.135-0.447-6.8-0.979-6.463-1.085-8.439-1.228c-4.245-0.309-4.14-0.24-5.928-3.921-1.631-3.358-3.879-8.275-3.879-8.485 0-0.079-0.914-2.092-2.032-4.472-10.597-22.568-10.722-22.783-14.152-24.38-2.595-1.209-4.716-1.174-7.116 0.116m5.441 32.637c0.829 1.815 2.018 4.38 2.641 5.7 0.624 1.32 1.354 2.985 1.624 3.7s0.621 1.3 0.779 1.3c0.159 0 0.506 0.727 0.773 1.616 2.967 9.904 7.041 12.741 20.042 13.955 2.53 0.236 5.32 0.635 6.2 0.886s3.348 0.656 5.484 0.9l3.884 0.443-9.811 10c-5.395 5.5-10.18 10.711-10.632 11.58-1.046 2.008-0.842 8.038 0.426 12.62 0.457 1.65 0.836 3.72 0.843 4.6s0.462 3.577 1.01 5.993 0.996 4.903 0.996 5.526 0.18 1.471 0.401 1.883c0.779 1.456-0.347 1.169-4.35-1.106-19.992-11.364-19.86-11.296-22.081-11.296-1.54 0-4.098 0.953-5.099 1.9-0.29 0.275-0.678 0.5-0.862 0.5-0.478 0-14.903 8.061-15.538 8.682-0.29 0.285-0.76 0.518-1.044 0.518-0.283 0-1.178 0.45-1.989 1-1.746 1.185-2.017 1.234-1.646 0.3 0.153-0.385 0.434-2.14 0.624-3.9s0.634-4.37 0.986-5.8 0.792-4.13 0.978-6c0.185-1.87 0.715-4.87 1.178-6.667 1-3.881 1.091-6.628 0.242-7.333-0.33-0.274-0.6-0.859-0.6-1.3 0-0.488-1.806-2.625-4.6-5.445-2.53-2.554-4.6-4.715-4.6-4.802s-2.64-2.724-5.868-5.859l-5.867-5.699 2.967-0.273c1.633-0.151 4.588-0.606 6.568-1.012s5.13-0.855 7-0.997c3.46-0.263 9.474-1.295 10.2-1.75 0.432-0.271 0.682-0.336 1.586-0.413 1.771-0.151 5.114-4.734 6.82-9.35 0.387-1.045 0.858-1.9 1.048-1.9s0.348-0.315 0.351-0.7c2e-3 -0.385 0.452-1.483 1-2.441 0.547-0.957 0.995-1.984 0.995-2.282s0.45-1.205 1-2.015c0.55-0.811 1-1.718 1-2.018 0-0.299 0.437-1.399 0.972-2.444s1.161-2.395 1.391-3c0.631-1.654 0.934-1.396 2.578 2.2" fill="#5682a9"/>
 </g>
</svg>
