<?xml version="1.0" encoding="UTF-8"?>
<svg id="svg" width="400" height="472.95" version="1.1" viewBox="0 0 400 472.95" xmlns="http://www.w3.org/2000/svg" xmlns:cc="http://creativecommons.org/ns#" xmlns:dc="http://purl.org/dc/elements/1.1/" xmlns:rdf="http://www.w3.org/1999/02/22-rdf-syntax-ns#">
 <metadata>
  <rdf:RDF>
   <cc:Work rdf:about="">
    <dc:format>image/svg+xml</dc:format>
    <dc:type rdf:resource="http://purl.org/dc/dcmitype/StillImage"/>
    <dc:title/>
   </cc:Work>
  </rdf:RDF>
 </metadata>
 <g id="svgg" fill-rule="evenodd">
  <path d="m158.4 118.81c-1.21 0.172-3.55 0.333-5.2 0.358-1.65 0.026-4.26 0.322-5.8 0.658s-4.15 0.872-5.8 1.191c-5.345 1.032-9.739 2.067-12.6 2.968-1.54 0.484-3.97 1.198-5.4 1.585s-3.5 1.106-4.6 1.596c-1.1 0.491-3.611 1.525-5.58 2.299-29.7 11.662-60.701 42.197-72.424 71.336-0.575 1.43-1.288 3.14-1.583 3.8-1.206 2.695-1.931 4.522-2.7 6.8-0.993 2.944-3.433 11.419-3.915 13.6-1.039 4.699-2.082 10.498-2.421 13.456-0.211 1.839-0.54 4.604-0.732 6.144-1.09 8.76-0.07 30.647 1.761 37.8 0.31 1.21 0.669 3.1 0.798 4.2 0.128 1.1 0.484 2.81 0.79 3.8 0.305 0.99 1.041 3.42 1.635 5.4 2.138 7.135 4.174 12.903 4.941 14 0.153 0.22 0.799 1.75 1.435 3.4 1.102 2.862 2.306 5.306 5.907 11.995 1.733 3.219 8.276 13.057 10.643 16.003 15.211 18.934 29.348 30.46 50.045 40.8 3.321 1.659 12.628 5.377 16 6.392 1.65 0.496 3.45 1.085 4 1.307 1.726 0.699 6.465 1.887 9.97 2.499 1.853 0.323 3.923 0.765 4.6 0.981 1.548 0.494 9.514 1.571 15.03 2.032 15.585 1.301 37.317-1.006 50.643-5.377 1.076-0.354 3.615-1.174 5.642-1.825 2.027-0.65 4.007-1.352 4.4-1.561 0.647-0.343 5.282-2.239 8.315-3.402 0.66-0.253 2.73-1.294 4.6-2.312 1.87-1.019 4.39-2.373 5.6-3.009 26.763-14.073 56.167-49.505 63.007-75.923 0.285-1.1 0.698-2.54 0.917-3.2 1.133-3.409 2.483-8.333 3.017-11 0.33-1.65 0.899-4.35 1.265-6 2.355-10.607 2.593-36.984 0.425-47.098-0.318-1.486-0.693-3.564-0.832-4.617-0.139-1.054-0.511-2.533-0.826-3.287-0.315-0.755-0.573-1.817-0.573-2.36 0-1.861-6.082-20.126-7.205-21.638-0.163-0.22-0.432-0.85-0.596-1.4-0.415-1.388-5.016-10.57-6.514-13-0.679-1.1-2.091-3.44-3.14-5.2-5.046-8.474-7.42-10.382-11.033-8.873-3.947 1.65-3.9 4.658 0.17 10.764 4.39 6.587 9.95 16.637 11.789 21.312 0.259 0.658 0.908 2.277 1.443 3.597s1.287 3.39 1.672 4.6 1.015 3.1 1.401 4.2c1.54 4.387 4.013 14.936 4.013 17.117 0 0.78 0.31 2.558 0.69 3.951 1.772 6.508 0.787 34.189-1.531 43.025-0.417 1.591-0.759 3.314-0.759 3.828 0 0.515-0.256 1.734-0.568 2.708s-1.052 3.391-1.644 5.371c-1.226 4.098-2.377 7.45-3.159 9.2-0.296 0.66-1.388 3.18-2.428 5.6-1.041 2.42-2.03 4.58-2.2 4.8s-1.25 2.192-2.402 4.383c-1.151 2.191-2.477 4.55-2.946 5.242-8.207 12.102-11.04 15.701-18.051 22.921-13.71 14.121-33.734 26.731-51.002 32.118-8.172 2.55-12.417 3.675-15.6 4.136-0.99 0.143-2.79 0.502-4 0.798-8.721 2.129-37.61 2.064-43.2-0.098-0.55-0.212-1.972-0.512-3.16-0.665-2.556-0.33-8.393-1.685-10.412-2.417-0.786-0.285-2.778-0.927-4.428-1.426-3.89-1.176-7.991-2.747-8.989-3.442-0.434-0.303-1.015-0.55-1.292-0.55-1.448 0-14.273-6.855-20.519-10.967-17.197-11.323-33.337-28.888-42.482-46.233-1.218-2.31-2.505-4.74-2.861-5.4-2.783-5.159-7.696-19.222-9.221-26.4-0.328-1.54-0.96-4.51-1.405-6.6-2.319-10.895-2.445-34.695-0.234-44.4 0.326-1.43 0.977-4.4 1.446-6.6 0.851-3.992 1.309-5.605 3.521-12.4 4.161-12.785 13.227-29.459 21.205-39 1.012-1.21 2.553-3.1 3.425-4.2 1.924-2.427 10.214-10.737 12.37-12.4 0.856-0.66 3.104-2.471 4.996-4.025 3.887-3.191 10.9-8.036 14.84-10.25 0.99-0.557 2.52-1.427 3.4-1.935 9.229-5.325 24.046-10.914 34.4-12.975 4.081-0.813 7.076-1.317 9.6-1.618 1.1-0.13 2.99-0.405 4.2-0.609 10.356-1.747 33.881 0.031 46 3.477 1.87 0.532 4.39 1.239 5.6 1.571 2.942 0.807 6.099 1.973 12.4 4.581 2.655 1.098 10.2 4.807 12.755 6.27 3.113 1.782 11.149 6.887 11.798 7.494 0.246 0.231 1.167 0.947 2.047 1.593s3.349 2.581 5.486 4.3c4.696 3.778 4.146 3.76 7.757 0.258 3.515-3.408 3.604-3.939 1.039-6.167-14.054-12.206-34.041-23.379-49.682-27.772-1.65-0.464-3.72-1.082-4.6-1.374-1.506-0.5-3.481-1.003-7.2-1.832-0.88-0.196-2.95-0.566-4.6-0.822s-3.448-0.635-3.996-0.842-2.798-0.47-5-0.584-5.264-0.351-6.804-0.527c-3.585-0.408-16.127-0.41-19-3e-3m1.2 44.454c-10.061 1.132-20.785 3.767-27.4 6.731-0.44 0.198-2.117 0.921-3.727 1.609-1.61 0.687-3.823 1.778-4.918 2.423-1.094 0.646-2.073 1.174-2.175 1.174-0.502 0-9.791 6.349-12.683 8.669-11.441 9.178-23.47 25.276-28.045 37.531-2.529 6.776-4.363 12.723-5.026 16.3-0.234 1.265-0.599 3.245-0.81 4.4-1.171 6.403-1.484 15.217-0.8 22.482 0.677 7.181 2.106 15.328 3.014 17.179 0.314 0.639 0.57 1.436 0.57 1.77 0 0.606 1.712 5.946 2.394 7.469 0.198 0.44 0.898 2.06 1.557 3.6s2.067 4.42 3.13 6.4 2.161 4.05 2.442 4.6c5.268 10.338 22.033 26.57 34.314 33.222 3.843 2.081 9.26 4.778 9.597 4.778 0.172 0 1.045 0.339 1.94 0.752 0.894 0.414 2.886 1.155 4.426 1.647 1.54 0.491 3.808 1.233 5.041 1.647 1.233 0.415 2.673 0.756 3.2 0.759 0.527 2e-3 1.949 0.284 3.159 0.625 5.523 1.557 19.619 2.52 25.6 1.748 1.65-0.213 4.44-0.494 6.2-0.625s3.971-0.488 4.914-0.795 2.247-0.558 2.898-0.558c0.652 0 2.221-0.342 3.486-0.761 1.266-0.419 4.012-1.307 6.102-1.973 25.47-8.123 47.525-28.979 57.582-54.452 0.909-2.303 1.819-4.823 2.022-5.6 0.203-0.778 0.809-3.034 1.346-5.014 2.82-10.399 3.923-27.325 2.371-36.4-0.263-1.54-0.679-4.05-0.924-5.577-0.245-1.528-0.902-4.318-1.459-6.2-0.558-1.883-1.251-4.323-1.541-5.423-1.431-5.434-7.35-17.644-9.684-19.978-2.362-2.361-6.066-2.031-7.724 0.688-1.241 2.036-0.988 3.306 1.773 8.89 4.682 9.473 5.425 11.397 8.184 21.2 0.433 1.54 0.994 4.771 1.246 7.179 0.253 2.409 0.551 4.529 0.664 4.712 0.386 0.624 0.456 9.303 0.098 12.109-0.197 1.54-0.537 4.42-0.755 6.4-0.528 4.775-2.045 11.001-4.048 16.6-3.996 11.175-12.174 23.952-20.227 31.6-5.346 5.078-7.956 7.13-14.875 11.692-6.511 4.293-20.079 9.723-26.761 10.71-1.258 0.186-3.548 0.617-5.088 0.957-4.103 0.907-21.811 0.712-26.6-0.292-6.23-1.307-14.583-3.699-16.346-4.682-0.36-0.201-1.734-0.803-3.054-1.338-18.691-7.583-35.611-24.795-43.889-44.647-14.058-33.717-4.616-72.506 23.404-96.145 3.413-2.879 10.746-8.255 11.261-8.255 0.081 0 1.289-0.649 2.686-1.443 5.649-3.211 15.737-6.913 23.138-8.489 3.423-0.729 6.955-1.175 14.8-1.868 6.922-0.611 22.501 1.845 30.4 4.793 6.792 2.536 19.24 8.985 20.4 10.57 0.432 0.589 6.526 4.837 6.941 4.837 0.831 0 6.259-5.75 6.259-6.63 0-0.818-0.511-1.288-6-5.52-9.786-7.545-27.459-15.029-39.4-16.685-1.32-0.183-3.66-0.518-5.2-0.746-3.511-0.517-15.936-0.746-19.4-0.356m1.158 44.751c-3.738 0.437-8.776 1.976-13.758 4.204-1.1 0.492-2.187 0.959-2.416 1.038-9.332 3.22-24.984 23.932-24.984 33.061 0 0.65-0.287 1.97-0.637 2.933-0.733 2.012-0.874 13.081-0.189 14.881 0.216 0.568 0.655 2.527 0.976 4.351 0.321 1.825 0.867 3.858 1.214 4.518s0.632 1.427 0.634 1.705c1e-3 0.278 0.168 0.818 0.371 1.2s0.984 1.957 1.735 3.499c4.651 9.546 13.854 18.242 23.949 22.627 2.061 0.895 4.287 1.871 4.947 2.169 1.245 0.562 6.38 1.658 10.2 2.177 3.312 0.451 10.913 0.16 13.295-0.507 1.158-0.325 2.986-0.713 4.062-0.863 1.077-0.15 2.697-0.611 3.6-1.024 0.904-0.414 3.095-1.361 4.869-2.105 7.198-3.019 14.901-9.367 19.681-16.219 2.414-3.461 4.893-7.777 4.893-8.52 0-0.174 0.432-1.266 0.961-2.427 5.656-12.433 3.879-34.485-2.851-35.388-4.638-0.622-6.77 3.637-4.724 9.437 1.458 4.132 0.629 16.708-1.414 21.439-0.19 0.44-0.794 1.842-1.343 3.115-3.184 7.384-12.713 17.14-18.715 19.159-0.723 0.243-1.514 0.597-1.758 0.786-3.974 3.084-21.42 3.962-27.432 1.381-0.728-0.312-2.655-1.135-4.281-1.828-3.332-1.421-6.971-3.751-9.643-6.175-2.148-1.949-6.4-6.678-6.4-7.119 0-0.172-0.613-1.116-1.363-2.098s-1.587-2.469-1.861-3.303c-0.273-0.835-0.72-1.878-0.991-2.318-3.695-5.982-3.597-25.122 0.153-29.954 0.19-0.245 0.539-1.021 0.775-1.723 2.07-6.16 12.252-16.057 19.487-18.943 1.32-0.526 2.76-1.177 3.2-1.446s1.88-0.678 3.2-0.91c1.32-0.231 3.21-0.594 4.2-0.805 7.684-1.64 19.523 0.953 26.752 5.858 2.043 1.387 2.668 1.18 5.891-1.945 3.178-3.082 3.453-3.749 2.057-4.998-1.676-1.499-9.558-5.734-10.672-5.734-0.367 0-0.839-0.161-1.048-0.357-2.394-2.25-16.099-3.825-24.622-2.829" fill="#fff"/>
  <path d="m323.6 64.424c0 0.233-0.162 0.323-0.359 0.201-0.86108-0.53181-4.0307 1.2269-5.8072 2.7957-0.87251 0.77052-1.409 1.4952-1.1708 1.8803-0.43159 0.59941-1.1341 1.2875-1.9809 2.031-2.6661 2.8587-7.969 5.1199-8.9291 8.942-0.551-0.315-1.869 1.065-1.454 1.523 0.166 0.182 0.11 0.223-0.124 0.09-1.431-0.813-20.481 20.247-19.602 21.669 0.132 0.214 0.057 0.502-0.166 0.64-0.224 0.138-0.407 1.666-0.407 3.394 0 1.962-0.168 3.199-0.447 3.292-0.269 0.09-0.565 1.909-0.742 4.551-0.162 2.42-0.52 4.823-0.796 5.338-0.276 0.516-0.537 2.578-0.581 4.583-0.044 2.006-0.27 4.006-0.503 4.446-0.232 0.44-0.333 1.07-0.222 1.4 0.112 0.336 0.045 0.454-0.152 0.269-0.199-0.187-0.528 0.727-0.755 2.101l-0.402 2.432-8.153 8.199c-62.781 63.784 4.4633-3.5592-90.114 90.388-0.382-0.382-17 16.128-18.559 18.449-2.735 4.07-1.908 7.559 2.471 10.428 1.035 0.678 4.955 1.018 4.955 0.429 0-0.188 0.18-0.231 0.4-0.095s0.4 0.046 0.4-0.2 0.158-0.35 0.35-0.231c0.847 0.524 25.65-23.623 25.65-24.971 0-0.292 0.121-0.41 0.27-0.262 0.214 0.215 32.17-31.288 41.059-40.477 1.139-1.177 4.914-4.957 8.39-8.4 3.475-3.442 8.207-8.149 10.515-10.459 27.057-27.079 32.681-32.634 33.274-32.87 0.381-0.15 1.468-0.286 2.416-0.302 1.033-0.017 1.625-0.187 1.478-0.425-0.136-0.221 0.165-0.392 0.676-0.385 1.808 0.026 9.312-0.878 9.515-1.146 0.312-0.411 1.021-0.523 5.796-0.915 4.551-0.373 5.811-0.611 5.811-1.096 0-0.157 1.305-0.335 2.9-0.395 3.6-0.135 5.362-0.584 6.978-1.776 2.21-1.63 16.122-15.652 16.122-16.249 0-0.316 0.116-0.458 0.258-0.317 0.393 0.394 11.749-10.984 11.464-11.485-0.138-0.242-0.099-0.301 0.086-0.133 0.443 0.402 2.637-1.71 2.316-2.229-0.136-0.22-0.07-0.291 0.148-0.156 1.097 0.678 5.728-6.002 5.728-8.262 0-1.61-2.412-4.965-4.2-5.841-1.67-0.819-12.074-0.785-11.566 0.038 0.114 0.184-0.035 0.242-0.331 0.128s-1.318 0.069-2.271 0.405-3.032 0.611-4.62 0.611c-1.845 0-3.726 0.289-5.212 0.8-3.853 1.325-5.702 1.128-6.035-0.644-0.149-0.794-0.102-1.559 0.105-1.7 0.805-0.549 1.414-2.962 1.697-6.725 0.309-4.106 0.459-4.998 0.896-5.332 0.144-0.11 0.463-2.27 0.708-4.8 0.246-2.529 0.487-4.987 0.538-5.461 0.05-0.474 0.226-0.778 0.391-0.676s0.3 5e-3 0.3-0.215-0.18-0.511-0.4-0.647-0.4-0.597-0.4-1.024-0.18-0.776-0.4-0.776-0.4-0.32-0.4-0.711c0-1.173-1.205-2.53-2.953-3.324-1.813-0.823-3.847-1.004-3.847-0.341m-9.771 29.645c-0.151 1.138-0.481 2.443-0.733 2.9s-0.647 2.036-0.877 3.509l-0.419 2.677-6.066 6.123c-8.973 9.055-9.504 9.539-9.159 8.322 0.155-0.55 0.3-1.225 0.321-1.5 0.02-0.275 0.168-0.5 0.328-0.5 0.159 0 0.418-1.787 0.574-3.971l0.284-3.971 2.725-2.722c1.499-1.497 2.637-2.865 2.529-3.039-0.107-0.174 0.043-0.267 0.334-0.207 0.292 0.061 0.481-0.128 0.42-0.42-0.06-0.291 0.042-0.436 0.228-0.321 0.185 0.115 2.392-1.852 4.903-4.37 5.319-5.334 4.956-5.136 4.608-2.51m14.414 22.622c-2.774 2.8-5.043 5.23-5.043 5.4s-0.152 0.309-0.338 0.309c-0.187 0-1.389 1.033-2.672 2.296l-2.332 2.296-2.929 0.148c-1.611 0.081-2.929 0.302-2.929 0.491s-0.27 0.24-0.6 0.114c-0.33-0.127-0.6-0.076-0.6 0.112 0 0.189-0.851 0.398-1.89 0.465l-1.89 0.122 2.59-2.722c8.645-9.086 12.6-12.521 14.436-12.54 0.965-9e-3 2.654-0.345 3.754-0.746s2.784-0.753 3.743-0.783l1.743-0.053-5.043 5.091" fill="#5682a9"/>
 </g>
</svg>
