<?xml version="1.0" encoding="UTF-8"?>
<!-- Created with Inkscape (http://www.inkscape.org/) -->
<svg width="106.08mm" height="111.15mm" version="1.1" viewBox="0 0 106.08 111.15" xmlns="http://www.w3.org/2000/svg" xmlns:cc="http://creativecommons.org/ns#" xmlns:dc="http://purl.org/dc/elements/1.1/" xmlns:rdf="http://www.w3.org/1999/02/22-rdf-syntax-ns#">
 <metadata>
  <rdf:RDF>
   <cc:Work rdf:about="">
    <dc:format>image/svg+xml</dc:format>
    <dc:type rdf:resource="http://purl.org/dc/dcmitype/StillImage"/>
    <dc:title/>
   </cc:Work>
  </rdf:RDF>
 </metadata>
 <g transform="translate(-177.77 -173.28)">
  <g transform="matrix(.26458 0 0 .26458 174.6 172.73)" stroke-width=".33035">
   <path d="m173.47 421.79c-0.99917-0.21661-2.2626-0.70672-2.8076-1.0892-0.545-0.3825-2.5516-1.7049-4.4591-2.9388s-5.8464-3.8015-8.7531-5.706c-2.9067-1.9045-6.9942-4.5729-9.0834-5.9297-2.0892-1.3569-4.1701-2.7459-4.6243-3.0867-0.45417-0.3408-1.2501-0.85555-1.7687-1.1439-0.51863-0.2883-2.6739-1.6504-4.7894-3.027-7.4203-4.8284-10.468-6.8054-12.269-7.958-0.99917-0.63954-3.2287-2.082-4.9546-3.2055-3.4744-2.2617-8.7012-5.6223-10.137-6.5178-0.51033-0.31824-1.4481-0.90264-2.084-1.2987-2.0512-1.2778-10.317-6.8681-13.377-9.047-1.635-1.1642-4.0254-2.8488-5.3121-3.7434-6.4638-4.4946-11.888-8.3822-13.596-9.7442-1.9282-1.5378-8.123-6.532-12.631-10.183-11.896-9.6344-27.039-26.263-34.087-37.431-4.0241-6.3759-4.7847-7.7908-8.2593-15.363-0.54197-1.1812-1.3247-2.8166-1.7395-3.6343-0.41474-0.81772-0.85179-2.1326-0.97122-2.922-0.11943-0.78936-0.56801-2.2761-0.99685-3.3039-0.42884-1.0278-0.88889-2.5306-1.0223-3.3395-0.13345-0.80894-0.53028-2.142-0.88185-2.9624-0.39498-0.9217-0.7681-2.9476-0.97654-5.3023-0.18553-2.0958-0.55366-4.777-0.81808-5.9582-1.0396-4.644-1.1255-13.67-1.0398-109.21l0.086-95.83 1.3212-2.6271c1.1603-2.307 1.5707-2.7943 3.3693-4.0003 1.1599-0.77772 2.7761-1.5295 3.7268-1.7334 0.92334-0.19807 2.2313-0.63969 2.9065-0.98136 0.67525-0.34168 2.013-0.78771 2.9727-0.99118 0.95976-0.20348 2.2975-0.64951 2.9727-0.99118 0.67525-0.34168 2.013-0.78771 2.9727-0.99118 0.95976-0.20348 2.2975-0.64951 2.9727-0.99118 0.67525-0.34168 2.013-0.78771 2.9727-0.99118 0.95976-0.20348 2.3044-0.65541 2.9881-1.0043s1.8307-0.74005 2.549-0.86924c0.71822-0.12919 2.1477-0.58414 3.1767-1.011 1.029-0.42686 2.5713-0.93311 3.4273-1.125 0.85606-0.1919 2.1977-0.64108 2.9814-0.99819 0.78368-0.35711 2.2141-0.8183 3.1788-1.0249 0.96463-0.20657 2.2619-0.64758 2.8828-0.98003 0.62094-0.33244 1.9545-0.77587 2.9634-0.98538 1.009-0.20952 2.3467-0.65555 2.9727-0.99118 0.62605-0.33564 1.968-0.78149 2.982-0.99078 1.0141-0.2093 2.3963-0.6612 3.0715-1.0042s2.013-0.79017 2.9727-0.99365c0.95976-0.20347 2.2975-0.6495 2.9727-0.99118 0.67525-0.34167 2.013-0.7877 2.9727-0.99118 0.95976-0.20347 2.2975-0.6495 2.9727-0.99118s2.013-0.78561 2.9727-0.98652c0.95976-0.20091 2.2019-0.64239 2.7604-0.98105 0.55846-0.33867 1.8219-0.78679 2.8076-0.99584 0.98572-0.20904 2.3447-0.65963 3.0199-1.0013s1.994-0.7856 2.9305-0.98651c0.93654-0.2009 2.465-0.69966 3.3965-1.1083 0.93155-0.40868 2.2883-0.85024 3.015-0.98125s1.9901-0.53921 2.8076-0.9071c0.81751-0.3679 2.3457-0.87588 3.396-1.1289s2.4624-0.73784 3.1379-1.0775c0.67554-0.33964 1.8228-0.72371 2.5495-0.8535s1.9901-0.53698 2.8076-0.90488c0.8175-0.3679 2.3457-0.87588 3.396-1.1289s2.4624-0.73784 3.1379-1.0775c0.67554-0.33964 1.8228-0.72371 2.5495-0.8535s1.9901-0.53393 2.8076-0.8981c0.8175-0.36417 2.4525-0.93549 3.6334-1.2696 2.3689-0.67027 5.309-1.6312 8.5879-2.8068 2.2682-0.81323 4.8421-1.6714 8.9182-2.9735 4.8517-1.5499 6.7978-2.209 8.7806-2.9738 1.1051-0.4263 2.5915-0.88091 3.303-1.0103 0.71154-0.12934 1.8479-0.51383 2.5253-0.85441s2.2257-0.84984 3.4407-1.1317c1.215-0.28185 2.607-0.71827 3.0933-0.96982 1.809-0.93574 3.9739-0.95826 6.1736-0.064232 1.117 0.45402 2.6739 0.93278 3.4596 1.0639 0.78574 0.13113 2.0975 0.57412 2.915 0.98444 0.8175 0.41032 2.1552 0.85635 2.9727 0.99118 0.81751 0.13483 2.1552 0.58086 2.9727 0.99118 0.81751 0.41032 2.1552 0.85635 2.9728 0.99118 0.8175 0.13483 2.1552 0.58086 2.9727 0.99118 0.81751 0.41032 2.1552 0.85635 2.9727 0.99118 0.81751 0.13483 2.1552 0.58087 2.9728 0.99118 0.8175 0.41032 2.1552 0.85617 2.9727 0.9908 0.81751 0.13462 2.0391 0.52494 2.7146 0.86737 0.67553 0.34243 2.088 0.82323 3.1389 1.0684 1.0509 0.24522 2.5048 0.74714 3.2309 1.1154s1.9891 0.7795 2.8066 0.91391c0.81751 0.13441 2.0406 0.52532 2.718 0.8687s2.2167 0.85283 3.4206 1.1321 2.5096 0.71787 2.9013 0.9746c0.39172 0.25673 1.7294 0.70276 2.9727 0.99118 1.2433 0.28841 2.581 0.73444 2.9727 0.99118s1.7295 0.70276 2.9727 0.99118c1.2433 0.28841 2.581 0.73444 2.9728 0.99118s1.7294 0.70276 2.9727 0.99118c1.2433 0.28841 2.581 0.73444 2.9727 0.99118 0.39173 0.25673 1.7508 0.70577 3.0203 0.99786s2.6395 0.74561 3.0445 1.0078c0.40503 0.26221 1.7281 0.70681 2.9402 0.98798 1.2121 0.28118 2.7387 0.78179 3.3924 1.1125 0.65373 0.33069 1.9951 0.77229 2.9808 0.98133 0.98571 0.20904 2.2491 0.65717 2.8076 0.99584 0.55845 0.33867 1.8006 0.78014 2.7604 0.98105 0.95975 0.20091 2.2975 0.64485 2.9727 0.98652s2.013 0.78771 2.9727 0.99118c0.95976 0.20348 2.2975 0.64951 2.9727 0.99118 0.67526 0.34168 2.013 0.78771 2.9728 0.99118 0.95976 0.20348 2.2975 0.65062 2.9727 0.99365s2.1154 0.80696 3.2003 1.031c1.0849 0.224 2.4848 0.68188 3.1108 1.0175 0.62605 0.33564 1.968 0.78149 2.982 0.99078 1.0141 0.2093 2.3962 0.6612 3.0715 1.0042s2.013 0.79017 2.9728 0.99365c0.95975 0.20347 2.2975 0.6495 2.9727 0.99118 0.67525 0.34167 2.013 0.7877 2.9727 0.99118 0.95976 0.20347 2.2975 0.6495 2.9728 0.99118 0.67525 0.34167 2.013 0.7877 2.9727 0.99118 0.95976 0.20347 2.2975 0.6495 2.9727 0.99118 0.67525 0.34167 2.013 0.7877 2.9727 0.99118 0.95976 0.20347 2.2975 0.6495 2.9728 0.99118 0.67525 0.34167 2.013 0.7877 2.9727 0.99118 0.95976 0.20347 2.2975 0.6495 2.9727 0.99118 0.67526 0.34167 2.013 0.7877 2.9728 0.99118 0.95975 0.20347 2.2975 0.6495 2.9727 0.99118 0.67525 0.34167 1.9563 0.77752 2.8468 0.96855 3.9716 0.85198 7.7131 4.6935 8.1416 8.3592 0.10921 0.93419 0.15504 34.031 0.10184 73.549l-0.0967 71.851-0.82577 0.41787c-0.76761 0.38846-0.77628 0.41822-0.12301 0.42275 0.3865 3e-3 0.88777-0.21814 1.1139-0.49072 0.33443-0.40307 1.4057-0.49551 5.7382-0.49516 4.5513 3.3e-4 5.8231 0.12064 8.7337 0.82598 1.8737 0.45406 3.8803 0.82882 4.4591 0.83281 0.57886 4e-3 1.7213 0.31885 2.5388 0.69967 0.81751 0.38083 2.3263 0.95417 3.3528 1.2741 2.8177 0.87814 9.449 4.9786 12.711 7.8596 3.6535 3.2271 6.578 7.0401 9.2858 12.107 0.58956 1.1032 1.0726 2.1966 1.0735 2.4298 0 0.23318 0.35263 1.1252 0.78176 1.9824s1.2766 3.4168 1.8832 5.6883l1.103 4.1299 0.18124 11.454c0.0996 6.2999 0.30454 11.578 0.45526 11.729s2.9005 0.34906 6.1106 0.44002l5.8366 0.16539 2.2664 1.1562c2.8352 1.4464 4.5697 3.3579 5.4721 6.0306 0.67812 2.0086 0.68433 2.4104 0.68433 44.359 0 38.296-0.0515 42.488-0.53999 43.961-0.94863 2.8603-2.9618 5.0662-5.901 6.4658l-1.9818 0.94374-116.93-6e-3 -1.7158-0.79909c-2.3599-1.099-4.6004-3.2612-5.7596-5.5583-0.96134-1.9049-1.0475-2.4585-1.235-7.9342l-0.0427-1.2468-1.0735 0.55027c-0.59042 0.3026-2.1196 1.389-3.3982 2.4143-3.0866 2.4751-10.874 8.0376-17.824 12.732-0.90834 0.61348-3.5095 2.3919-5.7803 3.9521-4.3824 3.0108-7.7039 5.2344-10.405 6.9651-1.59 1.019-4.087 2.6321-10.074 6.5082-1.5442 0.99971-3.1792 2.0114-3.6334 2.2482-0.45416 0.23682-1.1974 0.71179-1.6515 1.0555-0.45417 0.34374-1.7176 1.1899-2.8076 1.8803-2.1199 1.3428-6.8737 4.3932-9.5788 6.1465-0.90834 0.58873-2.9149 1.8878-4.4591 2.8868-5.0703 3.2802-15.999 10.456-17.011 11.169-0.54501 0.38411-3.1114 2.085-5.7032 3.7798-4.0286 2.6343-5.0149 3.1341-6.7983 3.4447-2.4772 0.43152-2.8086 0.426-5.1698-0.0858zm12.131-26.497c8.6109-5.7082 11.321-7.4829 16.771-10.981 1.9984-1.2828 4.0793-2.6463 4.6243-3.03 0.545-0.38376 1.7341-1.1631 2.6424-1.7319 0.90833-0.56881 3.0636-1.9516 4.7894-3.0729 1.7258-1.1213 4.2155-2.7316 5.5326-3.5785 1.3171-0.84689 3.4723-2.2326 4.7894-3.0793 3.2801-2.1086 6.9981-4.5127 11.313-7.3149 3.094-2.0094 10.006-6.8139 22.082-15.349 1.48-1.0461 3.0626-2.1583 3.5167-2.4715 1.9881-1.3712 6.7327-5.0965 10.193-8.0032 5.2289-4.3923 5.6764-4.6945 6.7351-4.5481 0.84837 0.11726 1.2978-0.47143 0.66059-0.86533-0.13627-0.0842-0.24774-12.247-0.24773-27.029l2e-5 -26.876 1.2152-2.3405c1.3449-2.5904 2.7345-3.983 5.3205-5.332 1.6249-0.84766 2.0401-0.90811 7.3704-1.0732 4.0898-0.12664 5.7988-0.30003 6.1932-0.62835 0.48039-0.39991 0.54522-1.4727 0.54905-9.0858 4e-3 -7.302 0.10481-9.1161 0.65627-11.771 0.35856-1.7263 0.65692-3.7334 0.66302-4.4603 0.0108-1.2913 1.71-6.5483 3.4379-10.637 0.47568-1.1255 1.93-3.6481 3.2317-5.6059 3.4096-5.1278 7.9687-9.5388 12.421-12.017 1.2699-0.70696 1.394-0.88099 1.162-1.6291-0.14287-0.4607-0.26245-32.512-0.26574-71.226-6e-3 -66.433-0.0384-70.438-0.58312-71.269-0.3797-0.57968-1.0577-0.99636-1.9818-1.2179-0.77258-0.18524-2.0736-0.57673-2.891-0.86996-0.81751-0.29324-2.1552-0.74608-2.9728-1.0063-0.8175-0.26024-2.1552-0.70626-2.9727-0.99118-0.8175-0.28491-2.1552-0.73094-2.9727-0.99118-0.81751-0.26024-2.1552-0.70626-2.9728-0.99118-0.8175-0.28491-2.1552-0.73094-2.9727-0.99118-0.8175-0.26024-2.1552-0.70626-2.9727-0.99118-0.81751-0.28491-2.1552-0.73094-2.9728-0.99118-0.8175-0.26024-2.1552-0.70626-2.9727-0.99118-0.8175-0.28491-2.1552-0.73094-2.9727-0.99118-0.81751-0.26024-2.1552-0.7073-2.9727-0.99347-0.81751-0.28617-2.6755-0.85602-4.1288-1.2663-1.4533-0.4103-3.086-0.9867-3.628-1.2809-0.54208-0.29418-1.8055-0.70408-2.8076-0.91089-1.0021-0.20681-2.3422-0.63784-2.9781-0.95785-0.63584-0.32001-1.9413-0.74832-2.9011-0.95179-0.95976-0.20348-2.3044-0.65541-2.9881-1.0043-0.6837-0.34889-1.8307-0.73878-2.549-0.8664-0.71822-0.12763-2.2969-0.66041-3.5082-1.184-1.2113-0.52355-2.549-0.95336-2.9727-0.95513-0.42372-0.0017-1.5287-0.35642-2.4556-0.78811-0.92684-0.43168-2.4553-0.95008-3.3965-1.152-0.94125-0.20192-2.2638-0.64667-2.9391-0.98834-0.67525-0.34168-2.013-0.78771-2.9728-0.99118-0.95975-0.20348-2.2975-0.64951-2.9727-0.99118-0.67525-0.34168-2.013-0.78771-2.9727-0.99118-0.95976-0.20348-2.2975-0.65062-2.9728-0.99365-0.67525-0.34303-2.0574-0.79493-3.0715-1.0042-1.0141-0.20929-2.3518-0.65254-2.9727-0.98498-0.62094-0.33245-1.9142-0.7726-2.874-0.97813-0.95976-0.20553-2.2975-0.65435-2.9728-0.99738s-2.1196-0.80678-3.2096-1.0306-2.5343-0.68754-3.2096-1.0306c-0.67525-0.34303-2.013-0.79017-2.9728-0.99365-0.95975-0.20347-2.2975-0.6495-2.9727-0.99118-0.67525-0.34167-2.013-0.7877-2.9727-0.99118-0.95976-0.20347-2.2742-0.6376-2.9209-0.96472s-2.1149-0.83815-3.2625-1.1356c-1.1476-0.29747-2.4022-0.74498-2.7878-0.99447-0.38562-0.24949-1.7075-0.68511-2.9374-0.96805-1.23-0.28293-2.5677-0.72896-2.9728-0.99118-0.40503-0.26222-1.775-0.71574-3.0445-1.0078-1.2694-0.29209-2.6286-0.74113-3.0203-0.99786-0.39172-0.25673-1.7-0.69593-2.9073-0.976-1.2073-0.28006-2.661-0.7502-3.2304-1.0447-0.56944-0.29455-2.1908-0.81159-3.6031-1.149-2.512-0.60012-2.6213-0.59973-5.0355 0.01787-1.3573 0.34722-3.0372 0.92002-3.7332 1.2729-0.69595 0.35285-1.9342 0.75152-2.7517 0.88593-0.81751 0.13441-2.0406 0.52532-2.718 0.8687s-2.2234 0.8544-3.4357 1.1356c-1.2122 0.28121-2.739 0.78186-3.3927 1.1125-0.65372 0.33069-1.9738 0.76773-2.9336 0.9712-0.95975 0.20347-2.3044 0.65541-2.9881 1.0043-0.6837 0.34889-1.8307 0.74137-2.549 0.87218s-1.9747 0.57187-2.7922 0.98013c-0.81751 0.40827-2.3161 0.91372-3.3302 1.1232-1.0141 0.20951-2.3518 0.65293-2.9727 0.98537-0.62093 0.33245-1.9108 0.77188-2.8665 0.97652-0.95563 0.20464-2.5906 0.72605-3.6334 1.1587-1.0427 0.43264-2.4835 0.89233-3.2017 1.0215-0.71822 0.12919-1.8652 0.52035-2.549 0.86924-0.68371 0.34889-2.0284 0.80083-2.9881 1.0043-0.95976 0.20347-2.2975 0.6495-2.9728 0.99118-0.67525 0.34167-2.013 0.7877-2.9727 0.99118-0.95976 0.20347-2.2975 0.6495-2.9727 0.99118-0.67525 0.34167-2.013 0.7877-2.9728 0.99118-0.95975 0.20347-2.2975 0.6495-2.9727 0.99118-0.67525 0.34167-2.013 0.7877-2.9727 0.99118-0.95976 0.20347-2.2975 0.6495-2.9728 0.99118-0.67525 0.34167-2.013 0.7877-2.9727 0.99118-0.95976 0.20347-2.2975 0.6495-2.9727 0.99118-0.67525 0.34167-2.013 0.7877-2.9727 0.99118-0.95976 0.20347-2.2799 0.64052-2.9336 0.9712-0.65372 0.33069-2.1803 0.83131-3.3924 1.1125-1.2121 0.28118-2.5352 0.72577-2.9402 0.98798-0.40504 0.26222-1.7428 0.70825-2.9727 0.99118-1.23 0.28293-2.5677 0.72896-2.9727 0.99118-0.40504 0.26222-1.7336 0.70613-2.9525 0.98648-1.2188 0.28034-2.7773 0.81063-3.4633 1.1784-0.686 0.36777-1.6211 0.67221-2.0779 0.67652-0.45686 0.0043-1.7225 0.38677-2.8125 0.8499-1.09 0.46314-2.8412 1.0537-3.8915 1.3123-1.0503 0.25864-2.4624 0.74734-3.1379 1.086-0.67554 0.33866-1.8736 0.71492-2.6624 0.83614-0.78876 0.12122-2.0103 0.51446-2.7146 0.87385-0.70428 0.3594-2.1399 0.86042-3.1902 1.1134-1.0503 0.25298-2.5785 0.76096-3.396 1.1289-0.8175 0.3679-2.0809 0.77509-2.8076 0.90488-0.72667 0.12978-1.8571 0.50529-2.5121 0.83445-0.65501 0.32916-2.0671 0.81301-3.1379 1.0752-1.0708 0.26221-2.6902 0.77913-3.5985 1.1487-0.90834 0.36959-2.3014 0.84345-3.0957 1.053s-1.7976 0.73457-2.2296 1.1666l-0.78539 0.78561 0.0023 95.746c0.0023 95.24 0.0059 95.761 0.67635 98.555 0.37072 1.5446 0.75932 3.9978 0.86354 5.4515 0.11769 1.6415 0.5024 3.4421 1.0152 4.7515 0.45412 1.1596 1.0118 2.9437 1.2394 3.9647 0.68987 3.0958 4.3001 11.182 6.8767 15.403 5.6854 9.3127 11.537 16.704 19.88 25.108 10.759 10.838 23.092 20.94 38.315 31.385 1.4533 0.9971 4.2031 2.919 6.1106 4.2708 4.5463 3.2219 6.1683 4.3266 9.744 6.6366 1.635 1.0562 4.3848 2.8402 6.1106 3.9643 1.7258 1.1241 4.1784 2.7129 5.45 3.5307 2.0843 1.3403 4.234 2.7306 11.561 7.4766 1.2717 0.82373 3.5012 2.2661 4.9546 3.2051 5.0784 3.2814 9.9171 6.4345 10.9 7.103 0.545 0.37064 2.403 1.5832 4.1288 2.6945 4.7844 3.0808 13.022 8.4932 15.153 9.9553 1.6767 1.1507 2.7501 0.67939 11.181-4.9095zm206.04-44.839 0.84677-0.73615-4e-3 -29.389c-4e-3 -28.548-0.0218-29.407-0.63858-30.024-0.62031-0.62047-1.6661-0.6344-45.672-0.60858l-45.037 0.0264-0.57803 0.71133c-0.54072 0.66542-0.57804 2.5841-0.57804 29.722 0 15.956 0.0966 29.263 0.21459 29.57 0.11802 0.30766 0.61732 0.72868 1.1096 0.93561 0.65124 0.2738 12.958 0.39677 45.192 0.45161l44.297 0.0753 0.84677-0.73611zm-20.491-82.496c0.53251-0.58857 0.58114-1.4193 0.52997-9.0561-0.0666-9.9439-0.59048-13.868-2.3431-17.553-2.7106-5.6992-6.4514-9.1089-12.874-11.735l-3.4682-1.4179-6.7712 6e-3c-7.1316 6e-3 -7.4434 0.0548-11.561 1.8028-6.1036 2.5909-10.679 7.3918-12.598 13.218-1.4873 4.5166-1.557 5.1511-1.635 14.89-0.0586 7.3132 0.0207 9.589 0.34793 9.9833 0.37538 0.45243 3.243 0.51077 25.105 0.51077 24.1 0 24.695-0.0153 25.267-0.64801z" fill="#5782a8"/>
   <path d="m173.5 421.24c-0.80126-0.16827-1.9904-0.65867-2.6424-1.0898-0.65209-0.4311-2.672-1.7539-4.4887-2.9394-1.8167-1.1856-5.9785-3.9036-9.2485-6.0399-3.27-2.1364-7.5062-4.901-9.4137-6.1437-1.9075-1.2426-3.9141-2.5674-4.4591-2.9438-0.545-0.37645-1.6598-1.1025-2.4773-1.6134-1.5773-0.98576-6.1317-3.9242-8.5571-5.521-4.2675-2.8096-5.3599-3.5139-7.6278-4.9179-1.3625-0.8435-2.8489-1.7998-3.303-2.125-0.80007-0.573-1.6904-1.1496-6.9364-4.4922-2.7617-1.7597-5.7192-3.67-9.9091-6.4004-2.2572-1.4708-8.3607-5.6889-14.533-10.044-0.45417-0.32042-1.6262-1.1366-2.6045-1.8137-0.97832-0.67711-2.187-1.5285-2.6861-1.8919-0.49903-0.36343-2.0666-1.4575-3.4834-2.4313-5.6548-3.8864-19.399-15.14-25.692-21.036-6.3188-5.9206-14.227-14.251-17.399-18.327-1.3432-1.7263-3.0587-3.8821-3.8121-4.7907-1.3064-1.5755-5.0482-7.1486-6.2111-9.251-0.30154-0.54515-1.1115-1.887-1.7999-2.9818-1.1647-1.8524-2.2866-4.0679-4.7638-9.4079-0.54795-1.1812-1.4231-3.0396-1.9448-4.1299-0.52167-1.0903-1.0878-2.7257-1.258-3.6343-0.17023-0.90858-0.6022-2.321-0.95994-3.1387-0.35774-0.81772-0.8302-2.3788-1.0499-3.4691-0.21972-1.0903-0.62305-2.4178-0.8963-2.9501-0.28313-0.5515-0.69158-3.0139-0.94965-5.7251-0.24906-2.6165-0.71021-5.6006-1.0248-6.6313-0.53607-1.7564-0.57819-8.1693-0.67145-102.24l-0.0995-100.36 1.0219-2.4555c1.4394-3.4586 4.0373-5.6604 7.4-6.2719 0.71822-0.1306 1.8652-0.52291 2.549-0.8718 0.6837-0.34889 2.0284-0.80083 2.9881-1.0043 0.95976-0.20347 2.2975-0.6495 2.9727-0.99118 0.67525-0.34167 2.013-0.7877 2.9727-0.99118 0.95976-0.20347 2.2799-0.64052 2.9336-0.9712 0.65372-0.33069 2.1803-0.83131 3.3924-1.1125s2.5467-0.73599 2.9659-1.0107 1.6424-0.66072 2.7183-0.8578c1.0759-0.19708 2.4229-0.64483 2.9934-0.99499 0.57046-0.35016 1.9035-0.79685 2.9623-0.99263 1.0588-0.19578 2.4823-0.6403 3.1633-0.98782 0.68102-0.34752 2.0235-0.79834 2.9832-1.0018 0.95976-0.20347 2.2977-0.64962 2.9733-0.99144 0.67553-0.34182 2.0918-0.82299 3.1471-1.0693 1.0554-0.24627 2.3904-0.69164 2.9666-0.98972 0.57625-0.29807 1.8355-0.70896 2.7983-0.9131 0.96283-0.20413 2.3031-0.6507 2.9783-0.99238 0.67525-0.34167 2.013-0.78788 2.9727-0.99157s2.4139-0.70555 3.2314-1.1153c0.8175-0.4097 2.1552-0.85506 2.9727-0.98968s2.0391-0.52494 2.7146-0.86737c0.67553-0.34243 2.134-0.83396 3.2411-1.0923 1.1071-0.25833 2.3721-0.70516 2.8112-0.99296 0.43912-0.2878 1.8047-0.75476 3.0347-1.0377 1.23-0.28293 2.5677-0.72896 2.9727-0.99118 0.40503-0.26222 1.7281-0.70681 2.9402-0.98798 1.2121-0.28118 2.7387-0.78179 3.3924-1.1125 0.65373-0.33069 1.9738-0.76773 2.9336-0.9712 0.95976-0.20347 2.2975-0.6495 2.9728-0.99118 0.67525-0.34167 2.013-0.7877 2.9727-0.99118s2.2975-0.6495 2.9727-0.99118c0.67526-0.34167 2.013-0.7877 2.9728-0.99118 0.95975-0.20347 2.2975-0.6495 2.9727-0.99118 0.67525-0.34167 2.013-0.7877 2.9727-0.99118 0.95976-0.20347 2.2975-0.6495 2.9728-0.99118 0.67525-0.34167 2.013-0.7877 2.9727-0.99118s2.2975-0.6495 2.9727-0.99118c0.67526-0.34167 2.013-0.7877 2.9728-0.99118 0.95975-0.20347 2.2975-0.6495 2.9727-0.99118 0.67525-0.34167 2.013-0.7877 2.9727-0.99118 0.95976-0.20347 2.2975-0.6495 2.9728-0.99118 0.67525-0.34167 2.013-0.7877 2.9727-0.99118s2.2975-0.6495 2.9727-0.99118c0.67525-0.34167 2.013-0.7877 2.9728-0.99118 0.95975-0.20347 2.2975-0.6495 2.9727-0.99118 0.67525-0.34167 2.013-0.78771 2.9727-0.99118 0.95976-0.20347 2.2975-0.65061 2.9728-0.99365 0.67525-0.34303 2.1196-0.80319 3.2096-1.0226 1.09-0.21939 2.3532-0.63596 2.8072-0.92572 0.45396-0.28975 1.866-0.78454 3.1379-1.0995 1.2719-0.31499 2.9071-0.80116 3.6337-1.0804 1.7966-0.69032 3.5821-0.65996 5.0503 0.085869 0.67401 0.3424 2.1173 0.8035 3.2073 1.0247 1.09 0.22117 2.4277 0.66934 2.9727 0.99593s1.8827 0.77477 2.9727 0.99593c1.09 0.22117 2.5343 0.68278 3.2096 1.0258 0.67525 0.34303 2.013 0.79017 2.9727 0.99365 0.95976 0.20347 2.2975 0.64951 2.9727 0.99118 0.67525 0.34167 2.013 0.78771 2.9728 0.99118 0.95975 0.20347 2.2975 0.6495 2.9727 0.99118 0.67525 0.34168 2.013 0.78771 2.9727 0.99118 0.95976 0.20347 2.2975 0.6495 2.9728 0.99118 0.67525 0.34168 2.013 0.78771 2.9727 0.99118s2.2975 0.6495 2.9727 0.99118c0.67525 0.34168 2.013 0.78771 2.9728 0.99118 0.95975 0.20347 2.2975 0.6495 2.9727 0.99118 0.67525 0.34168 2.013 0.78771 2.9727 0.99118 0.95976 0.20347 2.2975 0.6495 2.9728 0.99118 0.67525 0.34168 2.013 0.78771 2.9727 0.99118s2.2799 0.64052 2.9336 0.9712c0.65372 0.33069 2.1803 0.83131 3.3924 1.1125s2.5352 0.72577 2.9402 0.98798c0.40504 0.26222 1.7428 0.70825 2.9727 0.99118 1.23 0.28293 2.5677 0.72896 2.9728 0.99118 0.40503 0.26222 1.7428 0.70825 2.9727 0.99118 1.23 0.28293 2.5696 0.73289 2.977 0.9999s1.5563 0.65717 2.5531 0.86703 2.5556 0.7226 3.4639 1.1394 2.3204 0.86351 3.1379 0.99262c0.81751 0.12911 2.0809 0.57448 2.8076 0.9897s1.9901 0.86156 2.8076 0.99186c0.8175 0.1303 2.1801 0.58688 3.028 1.0146 0.84791 0.42775 2.1856 0.87687 2.9727 0.99803 0.7871 0.12117 2.1248 0.5672 2.9728 0.99118 0.8479 0.42399 2.1856 0.87002 2.9727 0.99118 0.7871 0.12117 2.1059 0.55762 2.9307 0.96989 0.82481 0.41228 2.3449 0.90589 3.378 1.0969 1.0331 0.19103 2.2169 0.56924 2.6308 0.84049 0.41386 0.27124 1.681 0.70985 2.8159 0.97467 1.1349 0.26483 2.7 0.78976 3.4781 1.1665 0.77806 0.37675 2.2183 0.83744 3.2004 1.0238 0.98218 0.18632 2.1259 0.56166 2.5416 0.83409 0.41567 0.27244 1.7279 0.72086 2.9161 0.99649 1.1882 0.27563 2.7183 0.79203 3.4002 1.1476 0.6819 0.35552 1.9979 0.7902 2.9244 0.96595 0.92651 0.17576 2.2642 0.62179 2.9728 0.99118 0.70851 0.3694 2.0462 0.81543 2.9727 0.99118 0.9265 0.17576 2.2642 0.62179 2.9727 0.99118 0.70851 0.3694 2.0462 0.81543 2.9728 0.99118 0.9265 0.17576 2.2642 0.62179 2.9727 0.99118 0.70851 0.3694 2.0462 0.81543 2.9727 0.99118 0.92651 0.17576 2.2642 0.62179 2.9728 0.99118 0.70851 0.3694 2.0666 0.81928 3.0179 0.99975 2.2453 0.42593 4.8918 2.3704 6.377 4.6855l1.1262 1.7555 0.091 72.364c0.0501 39.8 0.0106 72.696-0.0876 73.102-0.0999 0.41291-0.504 0.80891-0.91679 0.89842-8.967 1.9445-9.5496 2.1302-14.369 4.5797-1.7739 0.90165-2.1157 0.98126-2.3896 0.55656-0.20337-0.31534-0.32147-26.068-0.32469-70.803-6e-3 -76.851 0.12771-71.734-1.8887-72.528-0.50816-0.19993-1.5185-0.46034-2.2451-0.57868-0.72667-0.11835-1.8092-0.49398-2.4057-0.83473s-2.03-0.83891-3.1857-1.107c-1.1557-0.2681-2.6743-0.77792-3.3747-1.1329-0.70037-0.35502-1.9423-0.75047-2.7598-0.87878-0.8175-0.1283-2.1552-0.56899-2.9727-0.9793-0.8175-0.41032-2.1552-0.85635-2.9727-0.99118-0.81751-0.13483-2.1552-0.58086-2.9728-0.99118-0.8175-0.41032-2.1552-0.85635-2.9727-0.99118-0.8175-0.13483-2.1552-0.58086-2.9727-0.99118-0.81751-0.41032-2.1552-0.85618-2.9728-0.9908-0.8175-0.13462-2.0406-0.52571-2.718-0.86908-0.67738-0.34337-2.2167-0.85283-3.4206-1.1321-1.204-0.2793-2.5096-0.71787-2.9013-0.9746-0.39172-0.25674-1.7294-0.70277-2.9727-0.99118-1.2433-0.28842-2.581-0.73445-2.9727-0.99118-0.39173-0.25674-1.7295-0.70277-2.9728-0.99118-1.2433-0.28842-2.5792-0.73059-2.9687-0.98262-0.38948-0.25202-1.7468-0.69721-3.0162-0.9893s-2.6413-0.74946-3.0486-1.0164c-0.40727-0.26692-1.7468-0.71681-2.9768-0.99974-1.23-0.28293-2.5677-0.72896-2.9727-0.99118-0.40504-0.26222-1.7304-0.70733-2.9452-0.98914-1.2148-0.28181-2.6629-0.74729-3.218-1.0344-0.55506-0.28711-1.8727-0.72352-2.9281-0.96979-1.0554-0.24627-2.4716-0.72744-3.1472-1.0693-0.67553-0.34182-2.0135-0.78797-2.9732-0.99144-0.95976-0.20348-2.321-0.66388-3.025-1.0231s-1.9254-0.75253-2.7141-0.87396c-0.78877-0.12143-2.1278-0.56768-2.9758-0.99166-0.84791-0.42399-2.1856-0.87002-2.9728-0.99118-0.7871-0.12116-2.1-0.55293-2.9175-0.95948-0.8175-0.40654-2.1552-0.84511-2.9727-0.97459-0.81751-0.12948-2.2296-0.57647-3.1379-0.9933-0.90834-0.41683-2.4671-0.92957-3.4639-1.1394s-2.1457-0.60002-2.5531-0.86703c-0.4074-0.26701-1.7471-0.71848-2.977-1.0033-1.23-0.28479-2.6822-0.7875-3.2272-1.1171-0.545-0.32964-1.7762-0.76373-2.7359-0.96464s-2.2975-0.64485-2.9727-0.98652c-0.67526-0.34167-2.013-0.7877-2.9728-0.99118-0.95975-0.20347-2.3372-0.67216-3.061-1.0415s-2.0903-0.81845-3.0366-0.99796c-0.94632-0.17952-2.2555-0.60527-2.9092-0.94612-0.65377-0.34085-2.0693-0.79796-3.1457-1.0158-1.0764-0.21784-2.3145-0.62401-2.7514-0.9026-0.43693-0.27859-2.2198-0.85956-3.9618-1.291-2.9215-0.72362-3.2829-0.74788-4.6556-0.31246-0.81852 0.25963-2.0084 0.5729-2.6443 0.69616-0.63584 0.12326-1.602 0.49035-2.147 0.81576-0.545 0.32541-1.8827 0.77047-2.9727 0.98903-1.09 0.21855-2.4277 0.66677-2.9727 0.99604-0.545 0.32927-1.8084 0.74902-2.8076 0.93278s-2.6342 0.71556-3.6334 1.1818c-0.99917 0.46622-2.1634 0.84912-2.5871 0.8509-0.42372 0.0018-1.7614 0.43159-2.9727 0.95513s-2.7969 1.0564-3.5236 1.1841-1.7671 0.50566-2.3121 0.83987c-0.545 0.33421-1.9786 0.83633-3.1857 1.1158-1.2071 0.27949-2.7678 0.79864-3.4682 1.1537s-1.9423 0.75048-2.7598 0.87878c-0.8175 0.1283-2.1552 0.56899-2.9727 0.9793-0.81751 0.41032-2.1552 0.85635-2.9727 0.99118-0.81751 0.13483-2.1552 0.58086-2.9728 0.99118-0.8175 0.41032-2.1552 0.85635-2.9727 0.99118-0.81751 0.13483-2.1552 0.58086-2.9727 0.99118-0.81751 0.41032-2.1552 0.85635-2.9728 0.99118-0.8175 0.13483-2.1552 0.58086-2.9727 0.99118-0.81751 0.41032-2.1552 0.85635-2.9727 0.99118-0.81751 0.13483-2.1552 0.58086-2.9728 0.99118-0.8175 0.41032-2.1552 0.85635-2.9727 0.99118-0.81751 0.13483-2.1552 0.57915-2.9727 0.98736-0.81751 0.40821-2.1675 0.84162-2.9999 0.96313-0.83243 0.12151-2.0471 0.50696-2.6992 0.85657-0.65211 0.34961-2.1988 0.87067-3.437 1.1579-1.2382 0.28724-2.5846 0.74065-2.9918 1.0076-0.40727 0.26692-1.7468 0.71681-2.9768 0.99974-1.23 0.28293-2.5677 0.72896-2.9727 0.99118-0.40503 0.26222-1.7428 0.70825-2.9727 0.99118-1.23 0.28293-2.555 0.72063-2.9445 0.97265-0.38949 0.25202-1.6959 0.68737-2.9032 0.96743-1.2073 0.28007-2.6681 0.75389-3.2462 1.0529-0.57814 0.29905-1.9147 0.74522-2.9701 0.99149-1.0554 0.24627-2.4716 0.72744-3.1471 1.0693-0.67554 0.34182-2.0135 0.78797-2.9733 0.99144-0.95976 0.20348-2.2975 0.64951-2.9727 0.99118-0.67525 0.34168-2.013 0.78771-2.9727 0.99118-0.95976 0.20348-2.2975 0.64951-2.9727 0.99118-0.67525 0.34168-2.013 0.78771-2.9727 0.99118-0.95976 0.20348-2.321 0.66389-3.025 1.0231-0.704 0.35925-1.9253 0.75253-2.7141 0.87396-0.78876 0.12143-2.109 0.5581-2.9338 0.97037-0.82481 0.41228-2.3647 0.90954-3.4219 1.105-1.0573 0.1955-2.4066 0.65483-2.9984 1.0207-0.5919 0.36591-1.2918 0.66529-1.5553 0.66529-0.2635 0-1.2562 0.23084-2.206 0.51297-1.2994 0.38599-1.8863 0.77446-2.3708 1.5694-0.63449 1.0409-0.64394 2.4616-0.64287 96.705 0.0011 95.625 0.0013 95.65 0.68534 98.457 0.37634 1.5446 0.8143 4.2503 0.97323 6.0127 0.18992 2.106 0.52203 3.6613 0.96889 4.5375 0.37396 0.73321 0.8885 2.2648 1.1434 3.4035 0.7573 3.3826 4.873 12.684 7.1292 16.112 0.299 0.45429 1.0663 1.6437 1.7052 2.6431 6.3015 9.8586 13.535 18.322 23.89 27.951 7.0147 6.5229 19.221 16.493 25.599 20.909 1.9075 1.3208 5.0289 3.5072 6.9364 4.8586 1.9075 1.3514 4.6573 3.2761 6.1106 4.2771 1.4533 1.001 3.7694 2.5974 5.1469 3.5474 1.3774 0.94998 3.6813 2.4857 5.1197 3.4127 4.9718 3.2041 9.8857 6.4032 10.873 7.0785 0.54501 0.37282 1.7341 1.1432 2.6424 1.712 1.6846 1.055 7.1531 4.5851 8.8866 5.7367 1.706 1.1334 6.2624 4.0611 7.959 5.114 1.5271 0.94777 2.2688 1.44 4.9546 3.2885 0.545 0.3751 1.8827 1.2543 2.9727 1.9538 1.09 0.69951 3.3196 2.1306 4.9546 3.1801 1.635 1.0496 3.9905 2.5909 5.2344 3.4252 3.097 2.0771 3.2447 2.1751 6.9839 4.6335 4.0309 2.6502 5.072 2.7761 7.8316 0.94717 0.96259-0.63795 2.1218-1.4012 2.5759-1.696 1.6352-1.0616 5.8009-3.8375 6.7712-4.5122 0.99925-0.69476 5.4196-3.5773 10.9-7.108 1.635-1.0533 4.3848-2.8359 6.1106-3.9614s4.4756-2.912 6.1106-3.97c1.635-1.058 4.3848-2.8441 6.1106-3.9689 1.7258-1.1249 3.9554-2.5637 4.9546-3.1974s3.1544-2.0154 4.7894-3.0704 3.6416-2.3361 4.4591-2.847c0.8175-0.51089 1.9323-1.2408 2.4773-1.622 0.54501-0.38124 2.6259-1.7734 4.6243-3.0938 3.8307-2.531 5.8216-3.9017 10.405-7.1631 1.5442-1.0989 3.3278-2.3598 3.9637-2.802 7.6197-5.2998 12.592-9.0207 18.109-13.551 2.4205-1.9878 4.7467-3.8923 5.1693-4.2323 0.42262-0.33994 0.93188-0.51703 1.1317-0.39349 0.5515 0.34093 0.50425 21.682-0.0496 22.401-0.77997 1.0115-9.8646 7.9309-14.645 11.155-2.614 1.7627-5.3598 3.6406-11.532 7.8866-6.4141 4.4126-18.067 12.085-19.818 13.048-0.545 0.29983-1.3625 0.81855-1.8167 1.1527-0.45417 0.33416-1.4203 0.97426-2.147 1.4224-1.6145 0.99574-3.9186 2.4733-8.2576 5.2954-1.8167 1.1816-4.6408 3.0092-6.2758 4.0615-4.4342 2.8537-5.861 3.7771-10.57 6.8406-4.7268 3.0752-4.744 3.0865-7.9778 5.2578-7.3469 4.9331-14.071 9.2673-14.818 9.5514-1.2843 0.48842-5.0778 0.66885-6.7368 0.32045z" fill="#242020"/>
  </g>
 </g>
</svg>
