<?xml version="1.0" encoding="UTF-8"?>
<!-- Created with Inkscape (http://www.inkscape.org/) -->
<svg width="109.85mm" height="111.02mm" version="1.1" viewBox="0 0 109.85 111.02" xmlns="http://www.w3.org/2000/svg" xmlns:cc="http://creativecommons.org/ns#" xmlns:dc="http://purl.org/dc/elements/1.1/" xmlns:rdf="http://www.w3.org/1999/02/22-rdf-syntax-ns#">
 <metadata>
  <rdf:RDF>
   <cc:Work rdf:about="">
    <dc:format>image/svg+xml</dc:format>
    <dc:type rdf:resource="http://purl.org/dc/dcmitype/StillImage"/>
    <dc:title/>
   </cc:Work>
  </rdf:RDF>
 </metadata>
 <g transform="translate(-193.02 9.1575)">
  <g transform="matrix(.26458 0 0 .26458 191.34 -9.9157)" stroke-width=".33208">
   <path d="m41.538 422.26c-2.3332-0.21926-6.3105-1.1819-8.9696-2.171-7.8958-2.9368-14.897-8.3524-19.084-14.761-2.8625-4.3819-3.0955-4.7895-3.511-6.1412-0.22451-0.73031-0.69972-1.8109-1.056-2.4012s-0.85445-2.3829-1.107-3.9835c-0.25253-1.6006-0.69034-3.6434-0.97292-4.5397-0.46022-1.4597-0.51378-16.445-0.51378-143.77 0-125.73 0.057836-142.33 0.50087-143.77 0.27548-0.89626 0.71168-2.9057 0.96935-4.4654 0.26753-1.6194 0.83643-3.5273 1.3263-4.4479 0.47179-0.88665 0.8578-1.8331 0.8578-2.1032 0-0.599 1.5888-3.4226 3.6839-6.5471 2.105-3.1392 6.6556-7.6337 10.008-9.8844 2.8072-1.8848 7.3401-4.2238 8.1855-4.2238 0.25766 0 0.98664-0.32 1.62-0.71112 2.7617-1.7055 2.8936-1.7093 67.03-1.9175 32.706-0.10616 59.896-0.13591 60.422-0.06611 0.5849 0.07764 1.0192 0.36765 1.1184 0.7469 0.0892 0.34099 0.22699 0.61999 0.30611 0.61999 0.3883 0 2.0408-1.0175 2.4472-1.5069 0.25345-0.30516 1.2143-0.90842 2.1352-1.3406 0.92089-0.43215 2.4218-1.2188 3.3354-1.7481 2.9455-1.7065 9.5903-5.4345 11.129-6.2439 0.82222-0.43249 2.3919-1.2971 3.4882-1.9213 1.0963-0.62422 2.666-1.4971 3.4882-1.9398 2.8085-1.5121 10.795-5.9105 11.627-6.4034 0.45678-0.27058 1.6527-0.93707 2.6577-1.4811s2.0514-1.1302 2.3255-1.3026c0.27408-0.17241 1.9185-1.0885 3.6543-2.0357 1.7358-0.94722 3.8287-2.1009 4.6509-2.5638 0.82222-0.46286 2.2424-1.2449 3.156-1.7379 0.91358-0.49297 2.6328-1.461 3.8204-2.1512 1.1876-0.6902 2.9068-1.6558 3.8204-2.1459 2.8632-1.5358 5.2494-2.8498 7.1425-3.9332 1.0049-0.57509 2.6494-1.4967 3.6543-2.0479 1.0049-0.55127 2.6705-1.4854 3.7013-2.0758 1.0308-0.5904 4.2966-2.4179 7.2574-4.0611s6.2285-3.4571 7.2616-4.0308 2.5511-1.4095 3.3733-1.8573c1.5781-0.85938 15.309-8.482 16.444-9.1288 2.3689-1.3499 5.0554-2.2271 8.4713-2.7663 3.5205-0.55563 4.0812-0.56407 7.1425-0.10751 5.7974 0.86462 10.106 3.1211 14.297 7.4881 1.2857 1.3396 2.9812 3.5559 3.7677 4.9253s1.5587 2.7138 1.716 2.9876c0.15722 0.27386 1.6011 2.869 3.2087 5.767 1.6076 2.898 3.4309 6.1844 4.0519 7.3031 0.62097 1.1187 1.5386 2.7809 2.0392 3.6938 1.027 1.8729 6.9264 12.488 8.21 14.772 0.46164 0.8216 1.2429 2.2407 1.7362 3.1536 0.49325 0.91288 2.3412 4.2316 4.1067 7.3748 1.7654 3.1433 3.2099 5.8994 3.2099 6.1246 0 0.31855 0.0886 0.32104 0.39865 0.01122 0.29775-0.29752 4.0188-0.39814 14.7-0.39751 12.323 6.64e-4 14.899 0.08827 18.62 0.6327 2.8964 0.42377 4.9204 0.91438 6.1459 1.4897 1.0049 0.47182 2.0127 0.85933 2.2394 0.86111 0.63126 5e-3 4.9779 2.3659 7.3848 4.0112 5.2169 3.5661 11.313 10.702 12.842 15.034 0.25564 0.72405 0.61306 1.4949 0.79422 1.713 0.18115 0.21813 0.85666 2.0236 1.5011 4.0122 0.89693 2.7676 1.2448 4.5498 1.4831 7.5991 0.17229 2.2038 0.31593 24.497 0.32158 49.898 7e-3 29.718 0.12644 46.132 0.33982 46.53 0.62571 1.1682 2.275 1.3706 10.666 1.3083 7.4413-0.0552 8.0877-0.0138 8.4956 0.54365 0.3625 0.49536 0.44237 9.3456 0.44612 49.421 3e-3 26.85 0.0911 49.14 0.1968 49.534 0.12734 0.47431-0.0425 0.95082-0.50283 1.4108-0.67027 0.66975-1.009 0.69461-9.4619 0.69461-7.8638 0-8.8381 0.0598-9.4598 0.58093l-0.69302 0.58092-0.10103 43.652-0.10102 43.652-1.0699 3.2774c-0.58845 1.8026-1.0699 3.4609-1.0699 3.6851 0 0.22424-0.35496 1.0748-0.78883 1.8901-0.43383 0.81536-0.89949 1.8459-1.0348 2.2902-0.13528 0.44426-1.3874 2.5099-2.7824 4.5904-2.7434 4.0914-6.2093 7.5673-10.076 10.105-1.1735 0.77017-2.543 1.7221-3.0433 2.1153-0.50027 0.3932-1.3884 0.81807-1.9737 0.94412-0.58522 0.12604-1.662 0.56987-2.3929 0.98628s-1.8521 0.8593-2.4916 0.98422c-0.63951 0.12488-2.3587 0.62504-3.8204 1.1114l-2.6577 0.88431-161.95 0.0352c-89.074 0.0192-163.07-0.0702-164.44-0.19895zm324.46-14.946c4.5479-0.56984 9.725-3.3367 13.442-7.184 2.0372-2.1086 3.1662-3.757 4.8518-7.084 2.0765-4.0988 2.0618-3.7501 2.0864-49.524 0.0199-37.141-0.0299-41.264-0.50287-41.737-0.46908-0.46884-3.9659-0.54243-32.821-0.69073-29.964-0.154-32.403-0.20865-33.778-0.7572-0.81557-0.32517-2.856-0.79736-4.5344-1.0493-1.6784-0.25194-3.411-0.69339-3.8503-0.98102-0.43929-0.28761-1.6355-0.81062-2.6582-1.1622s-2.2107-0.86094-2.6399-1.1318c-0.4292-0.27091-1.1336-0.59822-1.5654-0.72737-0.43175-0.12915-2.3752-1.3003-4.3187-2.6026-4.7523-3.1842-9.949-8.2599-12.896-12.596-2.6784-3.9406-4.4239-6.9308-4.4257-7.5816-6.9e-4 -0.25164-0.44861-1.3538-0.99538-2.4493s-0.99469-2.1571-0.99538-2.3593c-6.6e-4 -0.20213-0.48646-1.9947-1.0795-3.9835l-1.0782-3.616-1e-3 -9.9587c-1e-3 -9.3033 0.0462-10.112 0.72281-12.282 0.39833-1.278 0.97146-3.2947 1.2736-4.4814s0.81771-2.6059 1.1457-3.1536 0.78369-1.5934 1.0127-2.3237c0.46022-1.4674 1.9725-4.1768 3.613-6.4732 0.58696-0.82159 1.5704-2.2407 2.1855-3.1536 1.1276-1.6735 6.6112-7.2146 8.1506-8.2359 0.45679-0.30306 2.3029-1.5442 4.1025-2.7581 1.7996-1.2139 4.0418-2.4994 4.9828-2.8567 0.94096-0.35726 2.0847-0.85481 2.5417-1.1057 1.2253-0.67261 5.5899-2.1588 7.309-2.4888 6.604-1.2678 7.8748-1.3104 39.028-1.3104h30.433l0.81544-0.8148c0.44849-0.44815 0.81777-1.1577 0.82066-1.5768 3e-3 -0.4191 7e-3 -17.927 9e-3 -38.906l4e-3 -38.144-0.73163-0.77818-0.73159-0.77817h-167.7c-153.36 0-167.82-0.0457-169.04-0.53425-1.4235-0.56916-3.8511-3.2684-4.2044-4.6749-0.10917-0.43464-0.13646-1.6472-0.06064-2.6947 0.18241-2.5199 1.7096-4.6733 4.0929-5.7712l1.6611-0.76515 24.75-0.16598c26.164-0.17546 26.577-0.2016 26.577-1.6814 0-0.54291 1.5065-1.5645 5.1492-3.4918 2.2364-1.1832 4.7472-2.5704 10.465-5.7814 3.0148-1.6932 6.2289-3.4886 7.1425-3.9897 0.91357-0.50115 2.558-1.404 3.6543-2.0064 1.0963-0.6024 2.5912-1.4074 3.3221-1.7889s2.0763-1.1819 2.9899-1.7788c0.91357-0.59683 1.9974-1.1701 2.4085-1.2739 0.41111-0.10384 0.74747-0.30257 0.74747-0.44162 0-0.96375-3.393-1.0293-48.336-0.93378-45.322 0.09632-45.52 0.09965-47.34 0.79404-1.0049 0.38352-2.4201 0.80715-3.1448 0.94139-0.72469 0.13424-1.7142 0.52629-2.199 0.87122-0.48477 0.34493-1.2616 0.77158-1.7263 0.94812-2.5039 0.95125-7.2501 5.5929-9.4681 9.2594-1.0641 1.7591-2.4717 5.3499-3.0826 7.8639-0.20689 0.85139-0.2909 52.485-0.23414 143.9l0.08852 142.58 1.1526 2.9876c1.4047 3.641 3.0867 6.2476 5.9655 9.2444 2.1671 2.2559 6.1215 5.1958 6.9888 5.1958 0.24858 0 1.0958 0.377 1.8826 0.83779 0.93909 0.54992 2.2618 0.93433 3.8496 1.1188 3.6049 0.41873 321.38 0.44714 324.72 0.0289zm39.055-121.51c0.68305-0.18955 1.3932-0.62704 1.578-0.9722 0.22039-0.41149 0.33613-12.299 0.33613-34.526 0-36.171 0.0337-35.391-1.5552-36-0.32071-0.12297-19-0.21202-41.511-0.19789-38.954 0.0245-41.014 0.0554-42.718 0.64131-0.98487 0.33859-2.6044 0.72235-3.5991 0.85279-0.99462 0.13045-2.3316 0.54042-2.9711 0.91105-0.6395 0.37064-1.7281 0.87448-2.4191 1.1196-1.9336 0.68608-6.8092 4.1687-9.2916 6.6371-3.0261 3.009-7.2253 8.8899-7.2253 10.119 0 0.29847-0.38995 1.2745-0.86656 2.1689-0.51292 0.96259-1.0484 2.7777-1.3122 4.4479-0.24513 1.5519-0.60178 3.7179-0.79257 4.8134-0.41836 2.4022-0.42223 6.3618-8e-3 8.6309 0.16648 0.91288 0.51935 3.0112 0.78416 4.6629 0.28909 1.8031 0.82395 3.6467 1.3386 4.6139 0.4714 0.88591 0.85709 1.8274 0.85709 2.0922 0 0.5545 1.9211 3.8 3.6846 6.2248 1.7792 2.4463 5.7451 6.3145 8.068 7.8692 4.4663 2.9893 10.733 5.4917 14.824 5.9191 3.6905 0.38559 81.403 0.35888 82.799-0.0285zm-76.487-18.694c-3.3778-1.3221-5.5257-2.7985-7.6408-5.2518-2.7695-3.2125-4.0157-6.3492-4.2244-10.633-0.12837-2.6357-0.0447-3.1526 0.94048-5.8093 1.8421-4.9675 4.2767-7.7238 8.7618-9.9192l2.9864-1.4618h8.6515l3.0108 1.4619c2.4579 1.1935 3.3948 1.8792 5.1025 3.7345 1.1504 1.2499 2.2797 2.7207 2.5094 3.2685 2.2682 5.4077 2.6806 7.2904 2.2127 10.101-0.27314 1.6411-0.69209 2.8711-2.2127 6.4966-0.22972 0.54773-1.3426 2.0007-2.4731 3.2288-1.5532 1.6874-2.7195 2.572-4.7738 3.6209l-2.7184 1.388-4.4848 0.11482c-3.2467 0.0831-4.8058-0.0108-5.6476-0.34029zm8.6374-163.94 1.1627-0.5721-0.99175 0.0742c-0.84442 0.0631-1.1018-0.12311-1.7326-1.2537-0.40744-0.73031-1.2318-2.2031-1.832-3.2728-0.60017-1.0698-1.5397-2.7542-2.0878-3.7432-0.54815-0.98898-2.1475-3.8586-3.5541-6.377-1.4066-2.5184-3.0739-5.5394-3.705-6.7135-0.63118-1.1741-1.7562-3.1803-2.5-4.4584s-1.5955-2.8401-1.8926-3.4713-1.1461-2.1997-1.8866-3.4856c-1.6692-2.8988-2.7593-4.84-3.9225-6.9854-0.49497-0.91288-1.9101-3.4524-3.1447-5.6433-3.1136-5.5254-3.9791-7.0741-4.9158-8.7969-0.44675-0.8216-1.3902-2.5119-2.0966-3.7562-0.70638-1.2443-1.674-2.9622-2.1504-3.8175-0.47632-0.85534-1.2445-2.2274-1.707-3.049-0.46252-0.8216-2.2567-4.0333-3.987-7.1371s-3.5489-6.3442-4.0413-7.2009c-0.65543-1.1404-1.5292-1.9629-3.2618-3.0706-3.697-2.3635-4.4774-2.2029-12.88 2.6512-1.1876 0.68612-2.8321 1.6075-3.6543 2.0475-0.82222 0.44001-2.2424 1.2192-3.156 1.7316-0.91358 0.51236-2.4833 1.3822-3.4882 1.933-1.8474 1.0125-3.3611 1.856-7.5142 4.1876-1.2573 0.70585-2.9587 1.6486-3.7809 2.095-0.82222 0.4464-2.2424 1.2309-3.156 1.7432-0.91357 0.51236-2.4833 1.3822-3.4882 1.933-1.8474 1.0125-3.3611 1.856-7.5142 4.1876-1.2573 0.70584-2.9587 1.6471-3.781 2.0916s-2.3919 1.3212-3.4882 1.9481c-1.0963 0.62695-2.5912 1.4517-3.3221 1.8327-1.4455 0.75361-2.445 1.3056-10.486 5.7906-2.9459 1.6432-6.2766 3.4943-7.4015 4.1136-3.89 2.1414-5.1997 2.8702-10.505 5.8452-2.9303 1.6432-6.1872 3.4539-7.2376 4.0239-3.2066 1.7399-5.2192 2.8561-9.1267 5.0617-2.0603 1.163-4.4188 2.4832-5.241 2.9339-0.82222 0.4507-2.3919 1.323-3.4882 1.9383-1.0963 0.61538-2.666 1.4452-3.4882 1.844-0.82222 0.39882-1.857 1.0069-2.2996 1.3512-0.44257 0.34437-1.4143 0.92549-2.1594 1.2914-0.74507 0.36589-2.1769 1.1259-3.1818 1.689-1.0049 0.56305-2.4999 1.3928-3.3221 1.844-0.82222 0.45115-2.3919 1.3237-3.4882 1.9389-1.0963 0.61527-2.7407 1.5057-3.6543 1.9787-0.91358 0.47301-2.6328 1.4393-3.8204 2.1473s-2.8321 1.6475-3.6543 2.0877c-3.3918 1.8161-4.8436 2.6509-5.3153 3.0566-0.27407 0.23567-0.87205 0.54045-1.3288 0.67729-0.45679 0.13684-1.235 0.53342-1.7294 0.88131-0.49439 0.34788-1.3914 0.79646-1.9933 0.99684-0.6019 0.20038-1.5428 0.78211-2.091 1.2927-0.54814 0.51062-1.428 1.0347-1.9552 1.1646l-0.95854 0.23621 0.79243 0.4398c0.65379 0.36286 18.52 0.42719 102.12 0.36769 95.146-0.0677 101.39-0.10701 102.49-0.64423zm47.98 0.21643c0.91195-0.91128 0.68561-3.9797-0.46416-6.2919-0.54243-1.0908-0.99092-2.1436-0.99663-2.3394-0.0206-0.70355-3.9155-5.6545-5.7937-7.3646-2.5404-2.313-6.1717-4.4056-8.834-5.0906-1.1876-0.30558-2.6078-0.75022-3.156-0.98809-0.72379-0.31409-3.8414-0.46971-11.388-0.56844-5.7152-0.07477-10.617-0.04934-10.893 0.05651-0.4927 0.18892 0.51393 2.3877 3.5884 7.8381 6.367 11.288 7.2314 12.937 7.2314 13.799 0 0.40342 0.31996 0.85952 0.74747 1.0656 0.49961 0.24077 5.5042 0.36767 15.092 0.38268 12.617 0.0198 14.407-0.0403 14.866-0.49918zm-33.031-0.47422c0-0.18258-0.2154-0.33196-0.47871-0.33196-0.26328 0-0.5711 0.14938-0.68402 0.33196-0.11292 0.18257 0.10249 0.33196 0.47871 0.33196 0.3762 0 0.68402-0.14939 0.68402-0.33196zm-7.0664-0.20056c-0.11039-0.11031-0.39692-0.1221-0.63675-0.0262-0.265 0.10597-0.1863 0.18463 0.20073 0.20055 0.35018 0.0144 0.54641-0.064 0.43602-0.17435z" fill="#5782a8"/>
   <path d="m39.544 421.47c-1.0049-0.21843-1.9974-0.50375-2.2055-0.63407-0.20811-0.13033-1.4114-0.45409-2.6741-0.71952-1.2626-0.2654-2.9611-0.86256-3.7742-1.327-0.81318-0.46448-1.7235-0.84626-2.0228-0.84849-1.0243-8e-3 -7.5558-4.698-10.325-7.4147-2.2628-2.22-6.2394-7.3523-6.2394-8.0528 0-0.0955-0.37374-0.7233-0.83052-1.395s-0.83052-1.4503-0.83052-1.7301-0.43461-1.4029-0.96581-2.4956c-0.53548-1.1015-1.0674-2.8743-1.1939-3.9786-0.12545-1.0955-0.51305-2.9411-0.86134-4.1014-0.6186-2.0609-0.63325-5.4039-0.63325-144.44 0-127.7 0.052923-142.48 0.51483-143.79 0.28316-0.7989 0.67482-2.6476 0.87035-4.1082 0.22292-1.6652 0.65043-3.1618 1.1462-4.0127 0.43488-0.74635 0.79069-1.5929 0.79069-1.8812 0-0.64664 2.1739-4.8174 2.9839-5.7247 0.32599-0.36515 0.85013-1.1723 1.1648-1.7937 0.93877-1.854 6.3359-7.1562 9.3353-9.1711 2.9355-1.9719 7.0539-4.1392 7.8657-4.1392 0.26247 0 1.1869-0.37706 2.0543-0.8379 1.0048-0.53385 2.62-0.97706 4.4513-1.2214 3.4186-0.45614 121.44-0.92879 122.41-0.49023 0.47967 0.21653 0.52226 0.3691 0.20847 0.7469-0.21688 0.26113-0.52347 0.47479-0.68131 0.47479s-1.5224 0.68962-3.0323 1.5325c-1.5099 0.84286-3.5675 1.9809-4.5724 2.5289-1.0049 0.54804-2.5746 1.4093-3.4882 1.9138-0.91357 0.50457-2.4856 1.3604-3.4933 1.9018-1.0078 0.54143-3.0259 1.7098-4.4848 2.5964-1.9036 1.1569-2.9808 1.6048-3.8153 1.5865-0.6395-0.01404-22.126-0.03884-47.748-0.05509-40.364-0.02559-46.772 0.03618-47.981 0.46249-0.76758 0.27061-2.2645 0.717-3.3265 0.99198-1.062 0.27498-2.4759 0.86957-3.1421 1.3213-0.6662 0.45175-1.3513 0.82137-1.5224 0.82137-0.62798 0-4.2737 3.0662-6.2262 5.2364-2.1078 2.3429-4.1963 5.5543-4.5615 7.014-0.11859 0.47406-0.60154 1.6835-1.0732 2.6877l-0.85758 1.8258v287.14l0.88348 2.1577c0.48592 1.1868 0.98864 2.5152 1.1172 2.9522 0.3849 1.3085 3.0497 5.2021 5.0037 7.3112 2.3604 2.5476 4.6523 4.1611 8.7755 6.1781 3.8951 1.9054-5.5832 1.8028 167.1 1.8088 107.65 4e-3 159.93-0.10559 161.95-0.33873 4.7921-0.55174 9.9319-3.1582 13.749-6.9721 3.5786-3.5758 6.4675-8.5769 7.0864-12.267 0.49044-2.9243 0.89424-84.676 0.42629-86.3-0.19706-0.68371-0.67009-1.3232-1.1627-1.5719-0.65136-0.32882-7.6146-0.42033-32.278-0.42417-30.615-5e-3 -31.503-0.0226-33.553-0.67473-1.1582-0.36841-3.2833-0.82357-4.7224-1.0115-1.4466-0.18888-3.3033-0.68651-4.1526-1.1129-0.84488-0.42423-1.9099-0.87546-2.3667-1.0027-0.70943-0.19768-4.3003-1.7911-5.548-2.4618-0.2193-0.1179-1.9045-1.231-3.7448-2.4735-3.8859-2.6235-9.4743-8.0565-11.537-11.216-0.7636-1.1696-1.674-2.4999-2.0231-2.9564-0.93136-1.2177-3.059-5.3304-3.059-5.9131 0-0.27595-0.35543-1.1124-0.78985-1.8587s-0.96109-2.1786-1.1704-3.1828c-0.20928-1.0042-0.71343-2.7968-1.1203-3.9835-0.70263-2.0492-0.73984-2.6753-0.73984-12.448s0.0372-10.399 0.73984-12.448c0.40691-1.1868 0.90818-2.9561 1.1139-3.9319 0.20576-0.97578 0.80717-2.5968 1.3365-3.6022s0.96335-2.0744 0.96455-2.3753c1e-3 -0.30097 0.30908-0.99536 0.68416-1.5431 0.37509-0.54773 0.81033-1.3095 0.9672-1.6928 0.80534-1.9678 5.2872-7.6207 8.5289-10.758 3.6958-3.5763 10.366-8.3705 12.259-8.8113 0.53851-0.12541 1.5771-0.56569 2.308-0.9784s1.8461-0.86195 2.4783-0.9983c0.63221-0.13635 1.8282-0.53906 2.6577-0.8949 0.83244-0.35711 3.6665-0.93254 6.3252-1.2843 4.446-0.5882 7.1374-0.63743 34.943-0.63914 18.337-1e-3 30.453-0.12597 30.961-0.319 1.9934-0.75731 1.88 1.6424 1.8766-39.719-3e-3 -20.794-5e-3 -38.36-7e-3 -39.034-3e-3 -0.81381-0.27344-1.5396-0.8055-2.1577l-0.80186-0.93139-337.22-0.33196-1.3722-1.3278c-1.8854-1.8244-2.3141-2.7843-2.3141-5.1817 0-1.8793 0.11361-2.2114 1.2881-3.7658 0.86302-1.1422 1.7126-1.8604 2.5746-2.1764 1.043-0.3824 6.035-0.52328 26.368-0.74415 13.795-0.14985 32.257-0.26589 41.028-0.25787 21.407 0.0196 219.72 0.0226 230.22 4e-3 4.5679-8e-3 15.144 0.0714 23.503 0.17716l15.198 0.19224 0.87384-0.87317c0.81272-0.81211 0.86258-1.0304 0.71279-3.1223-0.0996-1.3903-0.42769-2.7424-0.85932-3.541-0.38407-0.71054-0.91072-1.8272-1.1704-2.4814-0.8657-2.1813-4.0542-5.9823-7.3089-8.7129-1.9421-1.6293-5.8338-3.8684-6.7518-3.8847-0.33573-6e-3 -1.4326-0.32381-2.4376-0.70634-1.6743-0.63731-2.7617-0.7133-12.996-0.90821-8.3808-0.15962-11.298-0.31976-11.686-0.6416-0.28444-0.2359-0.80604-0.98003-1.1591-1.6536-1.3021-2.4844-4.5746-8.2298-5.1382-9.0211-0.67749-0.95124-0.76258-1.986-0.1661-2.0201 0.22839-0.01308 6.5445-0.01142 14.036 0.0036 12.522 0.02516 17.394 0.25897 20.929 1.0043 2.7626 0.58249 8.2023 3.0449 11.614 5.2573 5.0704 3.2881 11.897 11.026 13.345 15.126 0.25215 0.71417 0.74056 1.763 1.0854 2.3308 0.34477 0.56776 0.73701 1.5551 0.87165 2.1942s0.63661 2.2822 1.1155 3.6515l0.87072 2.4897 0.16611 49.66c0.1382 41.316 0.24238 49.752 0.62007 50.206 0.86258 1.0383 2.9223 1.2623 10.891 1.1841 4.5594-0.0447 7.9131 0.0537 8.0971 0.23763 0.38324 0.38295 0.46888 99.371 0.0863 99.749-0.14292 0.14142-4.3285 0.30308-9.3012 0.35923-8.154 0.0921-9.0996 0.16028-9.6341 0.69475-0.56103 0.56104-0.60176 2.943-0.76328 44.648l-0.17059 44.056-1.0752 3.061c-0.59133 1.6836-1.0752 3.2543-1.0752 3.4905 0 0.23619-0.31783 1.022-0.70631 1.7463-0.38846 0.72423-0.90856 1.8897-1.1558 2.5899s-0.7581 1.6739-1.1353 2.1638c-0.37716 0.4899-1.22 1.7123-1.873 2.7165-1.9696 3.0288-6.2748 7.1439-10.273 9.8189-2.025 1.355-3.8937 2.4682-4.1526 2.474-0.25892 6e-3 -1.3639 0.45385-2.4556 0.99587-1.0916 0.54199-2.2445 0.98545-2.562 0.98545-0.31746 0-1.7415 0.40957-3.1644 0.91019l-2.5873 0.91017-163.45 0.0591c-125.8 0.0454-163.87-0.0325-165.27-0.3381zm366.73-135.47c0.51582-0.26656 1.0296-0.82673 1.1417-1.2448 0.38991-1.4544 0.24035-68.136-0.15534-69.27-0.75149-2.1541 1.868-2.0312-43.288-2.0312-39.912 0-41.08 0.0177-42.788 0.64965-0.96611 0.35732-2.6994 0.79852-3.8518 0.98047s-2.5726 0.62493-3.156 0.9844c-0.58343 0.35948-1.6588 0.86239-2.3896 1.1176-3.2835 1.1465-10.39 7.0118-12.744 10.517-0.66496 0.99052-1.7645 2.6337-2.4433 3.6515-0.67887 1.0178-1.3289 2.2987-1.4445 2.8465-0.11557 0.54773-0.57215 1.625-1.0146 2.394-0.51073 0.88758-0.92415 2.3422-1.1322 3.9835-0.18023 1.422-0.51035 3.1082-0.7336 3.7472-0.53233 1.5237-0.52628 10.057 8e-3 11.619 0.21872 0.63902 0.54514 2.3253 0.72537 3.7472 0.20586 1.6242 0.6243 3.1052 1.1255 3.9835 0.43877 0.76895 0.88728 1.786 0.99669 2.26 0.21593 0.93554 1.5824 3.2848 3.7655 6.4738 1.5141 2.2116 6.65 7.2029 8.2398 8.0078 0.54814 0.2775 1.2209 0.69754 1.4949 0.93343 1.4226 1.2244 8.4045 4.1283 11.793 4.905 0.36543 0.0838 19.62 0.16962 42.788 0.19079 36.333 0.0332 42.253-0.0281 43.062-0.44613zm-79.57-20.415c-2.1604-1.0458-3.1506-1.7952-5.0329-3.8092-1.9983-2.1382-2.4728-2.8863-3.2234-5.082-1.8728-5.4788-1.8719-6.4711 0.011-11.858 0.81966-2.3449 1.2229-2.9548 3.5668-5.3943 1.4534-1.5128 2.8089-2.7508 3.0121-2.7512 0.20321-3.3e-4 1.2664-0.4761 2.3627-1.0571 1.951-1.034 2.0847-1.0561 6.312-1.042l4.3187 0.0144 2.6577 1.3583c3.7857 1.9348 6.8979 5.1241 8.0328 8.2321 0.45948 1.2582 1.0386 2.8106 1.2868 3.4496 0.60459 1.5564 0.57173 4.8358-0.0649 6.4732-0.28397 0.73031-0.82046 2.2072-1.1922 3.2819-1.0213 2.9525-4.5044 6.4845-8.0885 8.2019l-2.7057 1.2965-8.5635-0.012-2.6896-1.3019z" fill="#282424"/>
  </g>
 </g>
</svg>
