<?xml version="1.0" encoding="UTF-8"?>
<!-- Created with Inkscape (http://www.inkscape.org/) -->
<svg width="110.59mm" height="110.77mm" version="1.1" viewBox="0 0 110.59 110.77" xmlns="http://www.w3.org/2000/svg" xmlns:cc="http://creativecommons.org/ns#" xmlns:dc="http://purl.org/dc/elements/1.1/" xmlns:rdf="http://www.w3.org/1999/02/22-rdf-syntax-ns#">
 <metadata>
  <rdf:RDF>
   <cc:Work rdf:about="">
    <dc:format>image/svg+xml</dc:format>
    <dc:type rdf:resource="http://purl.org/dc/dcmitype/StillImage"/>
    <dc:title/>
   </cc:Work>
  </rdf:RDF>
 </metadata>
 <g transform="translate(-62.025 -83.545)">
  <g transform="matrix(.26458 0 0 .26458 61.326 82.757)" stroke-width=".33055">
   <path d="m32.216 421.1c-0.90867-0.26131-2.8903-0.75988-4.4037-1.108-2.3848-0.54844-4.0402-1.19-7.2262-2.8003-1.8877-0.95415-6.4033-4.3378-8.0844-6.0578-1.8598-1.903-6.2238-8.0786-6.2243-8.8082-1.434e-4 -0.20989-0.43581-1.303-0.96814-2.4291s-1.0669-2.763-1.1879-3.6375c-0.12104-0.8745-0.50317-2.5357-0.84919-3.6916-0.61422-2.0518-0.62913-5.3923-0.62913-141v-138.9l1.0374-1.6873c1.2908-2.0995 1.6817-2.3954 3.8083-2.8825 3.0794-0.7054 5.4725 0.29926 7.1528 3.0029l0.72283 1.163 0.33042 280.09 0.69945 1.1843c0.3847 0.65138 0.89002 1.7674 1.1229 2.4801 0.63812 1.9526 3.7776 5.9169 6.2481 7.8895 1.207 0.96381 3.3792 2.3298 4.827 3.0356l2.6325 1.2832 86.542 0.0852c80.294 0.079 86.586 0.0454 87.149-0.46461 0.55422-0.50198 0.60688-1.1849 0.60575-7.8562-1e-3 -8.2107-0.18069-8.9531-2.3553-9.7522-0.61213-0.22493-1.8564-0.71312-2.7651-1.0849s-2.4904-0.8818-3.5151-1.1335c-1.0246-0.25165-2.6602-0.82899-3.6347-1.283-0.97444-0.45396-2.1041-0.82687-2.5102-0.82862-0.4062-3e-3 -2.0812-0.44966-3.7222-0.99529s-3.4303-0.99205-3.9762-0.99205-2.0678-0.38177-3.3819-0.84837c-1.3652-0.48471-3.7412-0.98064-5.5432-1.157-1.7346-0.16974-4.4854-0.61017-6.1128-0.97875-5.1707-1.171-16.239-1.4957-35.341-1.0365-13.774 0.33114-17.126 0.50588-20.156 1.0509-1.9991 0.35958-6.1624 0.80733-9.2519 0.99502-3.0895 0.18767-7.9413 0.70876-10.782 1.1579-2.8406 0.44917-5.8418 0.81669-6.6695 0.81669-1.6015 0-5.4024 0.71481-6.9676 1.3104-0.51886 0.19741-2.4179 0.51037-4.22 0.69545-1.8021 0.18509-4.1993 0.62883-5.327 0.9861s-3.5373 0.80465-5.3546 0.99413c-1.8173 0.18952-4.322 0.64553-5.5658 1.0134-1.2439 0.36782-3.6229 0.80693-5.2868 0.97581-1.6639 0.16885-3.9917 0.59454-5.173 0.94595-1.1813 0.35145-3.1142 0.80406-4.2955 1.0058-1.1813 0.20178-2.8444 0.65842-3.6959 1.0148-3.4636 1.4496-6.8443 0.19878-8.5265-3.1549l-0.82937-1.6534v-310.18l0.71953-1.3453c1.0746-2.0091 3.0703-3.6646 4.7627-3.9508 0.78578-0.13286 2.3271-0.57971 3.4252-0.993s3.0374-0.86058 4.3095-0.99397c1.2721-0.1334 3.3538-0.52026 4.6259-0.8597s3.7694-0.77289 5.5494-0.96323 4.1591-0.63839 5.2868-0.99566 3.5068-0.8037 5.2868-0.99205 4.1591-0.63525 5.2868-0.9931 3.6073-0.81243 5.5102-1.0102c1.9029-0.19774 4.3563-0.64857 5.452-1.0018 1.2242-0.3947 3.7754-0.7672 6.6181-0.9663 2.5443-0.17819 7.1537-0.68494 10.243-1.1261 3.0895-0.44116 7.9963-0.95798 10.904-1.1485 2.9077-0.1905 7.5172-0.6006 10.243-0.91133 4.1153-0.4691 8.2926-0.56722 24.617-0.57822 17.567-0.01184 19.959 0.04908 22.469 0.57231 1.5447 0.32206 4.1468 0.74135 5.7824 0.93176s4.4607 0.71285 6.2781 1.161c1.8173 0.44814 4.423 0.93723 5.7903 1.0869 1.3673 0.14965 3.082 0.57636 3.8104 0.94824 0.72837 0.37188 2.1683 0.83229 3.1999 1.0231 1.0316 0.19085 2.4394 0.63248 3.1286 0.98141 0.68911 0.34893 2.0385 0.80104 2.9986 1.0047 0.96011 0.20365 2.3052 0.65598 2.9892 1.0052s1.8314 0.73896 2.5499 0.86614 2.1985 0.5733 3.2889 0.99139c1.0904 0.41808 2.4772 0.8616 3.0817 0.9856 1.8981 0.3893 6.1142 2.7117 7.4919 4.1269l1.3217 1.3576 0.16521 134.93c0.16296 133.08 0.17398 134.94 0.80661 135.4 0.95897 0.70178 1.3364 0.60687 4.2673-1.0729 2.5503-1.4617 4.0494-2.2917 8.0604-4.463 0.9541-0.51647 2.5154-1.3637 3.4694-1.8828s2.9986-1.615 4.5433-2.4354c2.7474-1.4592 6.9413-3.7012 10.574-5.6524 1.9496-1.0473 11.294-5.7776 12.596-6.376 0.43239-0.1988 1.2322-0.60183 1.7774-0.89561 0.5452-0.29379 1.4373-0.74112 1.9825-0.99408s1.4374-0.70497 1.9826-1.0045c0.5452-0.29951 1.5117-0.76538 2.1478-1.0353s1.3795-0.63292 1.6521-0.80673c0.86599-0.55216 10.085-4.9882 10.367-4.9882 0.14846 0 0.69521-0.30306 1.215-0.67346 0.51978-0.37041 1.4349-0.83557 2.0336-1.0337s1.9806-0.76625 3.071-1.2625c1.0904-0.49628 2.949-1.319 4.1303-1.8283s2.8966-1.2704 3.8118-1.6912c0.91522-0.42087 2.2562-0.97432 2.98-1.2299 0.72378-0.25557 1.8336-0.78047 2.4663-1.1664s1.3734-0.7028 1.646-0.70404c0.2726-1e-3 1.528-0.52263 2.7897-1.1586s2.5256-1.161 2.8086-1.1667c0.28302-6e-3 1.1093-0.37693 1.8363-0.82501 0.72693-0.44808 1.5426-0.81546 1.8126-0.81639 0.26999-9.9e-4 1.2365-0.36549 2.1478-0.81013 2.06-1.0052 5.4759-2.4101 7.4393-3.0598 0.8178-0.27061 2.3047-0.83566 3.3042-1.2557s2.3378-0.87091 2.9738-1.002 1.8244-0.59207 2.6408-1.0244c0.81638-0.43235 1.7829-0.78936 2.1478-0.79336 1.0477-0.0115 3.3962-1.1995 4.2996-2.1749l0.82467-0.89055v-134.89c0-92.352-0.10788-135.09-0.34205-135.53-0.44281-0.82807-1.853-0.83168-3.6968-0.0095-4.0856 1.8219-6.1228 2.6777-6.3959 2.687-0.16724 0.0057-1.1924 0.45213-2.2782 0.99205s-2.201 0.98223-2.4782 0.98291c-0.27722 6.95e-4 -0.96035 0.27971-1.518 0.62006-0.5577 0.34035-1.3755 0.72521-1.8173 0.85523-0.44183 0.13002-2.8107 1.2107-5.2641 2.4016-9.1317 4.4324-20.684 10.087-21.643 10.595-0.5452 0.28841-1.2143 0.64319-1.4869 0.7884s-1.016 0.48287-1.6521 0.75035c-0.63607 0.26748-1.5282 0.70148-1.9826 0.96446-0.45433 0.26297-2.1643 1.1446-3.7999 1.9591s-4.7581 2.4833-6.9389 3.7083-4.7829 2.6763-5.7824 3.2252c-2.2905 1.2577-3.6652 2.0245-10.239 5.7114-2.9186 1.6369-6.1179 3.4226-7.1096 3.9682-8.0017 4.4024-11.379 6.3138-12.75 7.217-3.1468 2.0718-4.0759 2.5946-5.7278 3.2229-2.1069 0.80141-3.3859 0.805-5.2011 0.01462-2.4612-1.0717-3.9099-3.1073-3.9099-5.4942 0-2.9617 1.7094-4.7157 8.7562-8.9849 2.5791-1.5625 4.6183-2.7217 8.8388-5.0245 1.045-0.57015 2.6806-1.4655 3.6347-1.9896 0.9541-0.52413 2.5525-1.4013 3.5521-1.9492 0.99953-0.54795 3.6016-2.0004 5.7824-3.2276s4.6342-2.5924 5.452-3.0337 2.379-1.3007 3.4694-1.9098c1.0904-0.60903 2.726-1.501 3.6347-1.9823 2.398-1.27 4.1836-2.2632 5.4743-3.045 0.98393-0.59604 4.5499-2.52 7.7427-4.1773 1.2038-0.62489 8.2598-3.9901 11.895-5.6732 1.4539-0.67308 3.0151-1.4419 3.4695-1.7084s1.3465-0.70778 1.9826-0.98054c0.63606-0.27275 3.0151-1.3949 5.2868-2.4936 6.5298-3.1582 7.2682-3.5004 10.243-4.7468 1.5447-0.64716 3.4034-1.4666 4.1303-1.821 0.72694-0.35439 1.9745-0.87136 2.7724-1.1488s1.9306-0.80132 2.5172-1.1641c0.58659-0.36282 1.287-0.65967 1.5566-0.65967 0.26951 0 1.1441-0.34786 1.9435-0.77303 0.79944-0.42517 2.261-1.0413 3.248-1.3692 0.98698-0.32788 2.2508-0.85844 2.8086-1.179 0.55775-0.32058 1.5345-0.69004 2.1706-0.82101 0.63607-0.13097 1.8999-0.61907 2.8086-1.0847 1.3122-0.67236 2.2699-0.87571 4.6548-0.9884 3.0014-0.14181 3.0033-0.1414 4.2298 0.93636 0.67489 0.59303 1.4425 1.4952 1.7058 2.0048 0.72026 1.3939 0.72472 291.52 5e-3 292.91-0.83029 1.6069-2.9507 3.2549-4.5264 3.518-0.79344 0.1325-2.144 0.59492-3.0012 1.0276-0.85718 0.43268-1.8237 0.79322-2.1478 0.80121-0.32404 8e-3 -1.184 0.24585-1.9109 0.52861-0.72693 0.28276-2.4369 0.92696-3.7999 1.4316-2.4958 0.92398-4.5826 1.7592-7.9302 3.1741-0.99953 0.42245-2.3378 0.92514-2.9738 1.1171-0.63607 0.19195-1.888 0.72075-2.782 1.1751s-1.8617 0.82611-2.1504 0.82611-1.1928 0.35076-2.0092 0.77947c-0.81635 0.42871-1.925 0.88595-2.4636 1.0161-0.90404 0.21844-2.7172 0.99681-6.9509 2.9839-0.90867 0.42649-2.6186 1.2199-3.7999 1.7631s-3.263 1.5075-4.626 2.1428c-1.363 0.63536-2.8499 1.2671-3.3042 1.4039s-1.1978 0.50727-1.6521 0.8233-1.1978 0.68374-1.6521 0.81714c-0.45434 0.1334-1.7926 0.69455-2.9738 1.247-2.4033 1.124-4.2209 1.9618-8.0954 3.7317-3.4634 1.5822-6.6208 3.1981-15.695 8.033-2.0899 1.1135-4.692 2.4753-5.7824 3.0261-1.0904 0.55089-3.6182 1.8887-5.6172 2.973-1.9991 1.0843-5.3446 2.8439-7.4345 3.9103s-5.4355 2.809-7.4346 3.8725c-6.7127 3.5711-7.9256 4.2088-8.9215 4.6902-0.5452 0.26356-1.2886 0.65294-1.6521 0.8653-0.36347 0.21237-1.4043 0.76854-2.313 1.236-1.8918 0.9732-2.8304 1.5197-6.3759 3.7126-3.111 1.9241-6.4939 3.5514-7.8575 3.7796-1.204 0.20152-4.0467-0.92317-5.0329-1.9912-0.36431-0.39454-0.89935-1.5256-1.189-2.5134-0.47815-1.6308-0.52674-14.432-0.52786-139.05-1e-3 -135.49-0.01-137.27-0.64543-138.31-0.47353-0.77723-1.0722-1.1845-2.2597-1.5375-0.88853-0.26407-2.1965-0.77261-2.9066-1.1301-0.71012-0.35747-1.8484-0.75114-2.5294-0.87482-0.68105-0.12368-2.0193-0.58877-2.9738-1.0335-0.95456-0.44476-2.0329-0.81324-2.3964-0.81885-0.36347-0.0056-1.7017-0.38074-2.9738-0.83362s-3.3383-0.98538-4.5914-1.1834c-1.2532-0.19797-3.1861-0.70138-4.2955-1.1187-1.1095-0.41731-3.2067-0.86452-4.6606-0.99381s-3.9073-0.52488-5.452-0.87909c-5.3923-1.2365-14.406-1.6976-28.747-1.4707-15.035 0.23791-23.435 0.63665-28.779 1.3661-2.0721 0.28282-7.0386 0.72585-11.037 0.98451-4.5705 0.2957-8.2507 0.71001-9.9127 1.116-1.4539 0.35512-4.4465 0.79834-6.6503 0.98494s-5.3263 0.63984-6.9389 1.0072-4.4932 0.82114-6.4014 1.0084c-1.9082 0.18724-4.4115 0.63928-5.563 1.0045-1.1514 0.36525-3.3695 0.80918-4.929 0.98652s-3.7399 0.61551-4.8454 0.97371-3.2738 0.80098-4.8186 0.98396c-2.9403 0.3483-6.8118 1.6887-7.5172 2.6027-0.63157 0.81836-0.6047 292.34 0.02703 293.21 0.59277 0.8113 2.9028 0.75197 5.144-0.13211 0.94004-0.37083 3.1366-0.83352 4.8813-1.0282 1.7447-0.19471 4.0812-0.64106 5.1923-0.99192 1.1111-0.35085 3.4158-0.79727 5.1216-0.99205 1.7058-0.19477 4.0105-0.64615 5.1216-1.0031 1.1469-0.36841 3.8771-0.79545 6.3157-0.98788 2.3625-0.18644 5.6337-0.63865 7.2693-1.0049 1.6356-0.36627 4.8272-0.80826 7.0925-0.9822s5.5365-0.6159 7.2693-0.98216c2.2332-0.47202 5.4599-0.76024 11.081-0.9898 4.3616-0.17811 9.8632-0.54764 12.226-0.82115 2.3625-0.27351 5.7376-0.65528 7.5002-0.8484 5.07-0.55552 32.753-0.17589 36.116 0.49523 1.4539 0.29014 4.1303 0.68408 5.9476 0.87538 1.8173 0.19134 4.7168 0.64903 6.4433 1.0171 1.7265 0.36809 4.3286 0.88319 5.7824 1.1447 1.4539 0.26154 3.3868 0.7688 4.2955 1.1273 0.90867 0.3585 2.6468 0.80568 3.8624 0.99374s2.8556 0.61877 3.6443 0.9571c0.78869 0.33835 2.2177 0.78338 3.1756 0.98897 0.95791 0.20558 2.2175 0.62324 2.799 0.92813 0.58155 0.30485 1.9495 0.80911 3.0399 1.1206 1.9248 0.54976 4.1251 1.3832 7.0304 2.6628 1.7009 0.7492 2.7662 0.78508 4.0215 0.13538 0.51762-0.26788 1.6442-0.64473 2.5035-0.83745 0.85931-0.19272 2.2176-0.64916 3.0185-1.0143s2.3014-0.82026 3.3346-1.0114 2.4189-0.62344 3.0793-0.96064c0.66044-0.3372 2.2264-0.7895 3.4799-1.0051 1.2535-0.21564 2.9962-0.67231 3.8725-1.0148 0.87634-0.34252 2.6606-0.77244 3.9651-0.95534s3.4869-0.68488 4.8499-1.1154c1.363-0.43058 3.9651-1.027 5.7824-1.3254 1.8173-0.29841 4.2707-0.75856 5.452-1.0225 1.1813-0.26398 2.9098-0.48306 3.8411-0.48686 0.93132-4e-3 3.4591-0.29954 5.6172-0.65724 6.9992-1.16 10.128-1.3339 23.819-1.3234 9.7261 8e-3 14.582 0.14467 17.443 0.49295 8.2539 1.0046 10.114 1.1615 17.512 1.4761 5.4214 0.23055 8.4095 0.5105 10.425 0.9767 1.5536 0.35945 4.6018 0.79972 6.7737 0.97839s5.2104 0.62866 6.7522 0.99999c1.5418 0.37129 4.1439 0.76474 5.7824 0.87429 1.6385 0.10956 4.2553 0.56236 5.8149 1.0062 1.5596 0.44387 4.013 0.94386 5.452 1.1111 1.4389 0.16719 3.5398 0.60191 4.6685 0.96599 1.1288 0.36412 2.9874 0.76547 4.1303 0.89192 1.1429 0.12642 3.168 0.58329 4.5001 1.0152 2.9833 0.96734 4.0614 0.66771 4.3585-1.2113 0.10045-0.63551 0.17717-66.383 0.1705-146.11l-0.0122-144.95-0.70489-0.57124c-0.63491-0.51451-4.6413-1.6764-9.2837-2.6924-1.9353-0.42354-3.3482-1.7327-4.421-4.0967-0.81348-1.7924-0.77994-2.4382 0.22611-4.3539 1.1789-2.2449 1.7983-2.79 3.7449-3.2953 1.4306-0.37138 2.2836-0.36133 5.5684 0.06557 2.1334 0.27727 5.2172 0.8536 6.8528 1.2807s3.7528 0.87564 4.7049 0.99669c3.1006 0.39419 4.8575 2.122 5.3752 5.2864 0.44524 2.7212 0.44524 307.46 0 310.18-0.40847 2.4965-1.0691 3.4071-3.3 4.5487-2.1881 1.1197-3.2492 1.136-5.7889 0.089-1.0904-0.44953-2.2981-0.82085-2.6838-0.82518-0.3857-4e-3 -1.8356-0.37844-3.2221-0.83137-1.3865-0.45294-3.8304-0.97201-5.431-1.1535-1.6006-0.18148-3.7476-0.61827-4.7711-0.97068s-3.2768-0.80994-5.0074-1.0167c-1.7305-0.20681-3.9325-0.65052-4.8933-0.98606-0.96077-0.33558-3.0999-0.77298-4.7537-0.97205-1.6537-0.19903-3.8591-0.65538-4.9008-1.0141-1.0417-0.35866-3.4797-0.81354-5.4178-1.0109-1.938-0.19729-5.187-0.64328-7.2199-0.99109-2.0329-0.34782-6.1225-0.78673-9.088-0.97539-2.9655-0.18862-6.507-0.56761-7.87-0.84221-3.6214-0.72952-10.374-1.0807-25.443-1.323-15.786-0.25387-26.339 0.14527-31.06 1.1748-1.7265 0.37648-4.7003 0.82247-6.6085 0.99109-2.0201 0.1785-4.5445 0.65548-6.0428 1.1417-1.4154 0.45932-3.0247 0.83514-3.5764 0.83514-0.55167 0-2.1444 0.3872-3.5395 0.86044-1.395 0.47327-3.5773 0.99337-4.8494 1.1558-1.2721 0.16247-3.0564 0.58981-3.9651 0.94966-0.90867 0.35988-2.5664 0.79632-3.6839 0.96986-1.1175 0.17357-2.6044 0.60667-3.3042 0.96242-0.69985 0.35578-2.1076 0.8193-3.1282 1.0301-2.5352 0.52353-4.5162 1.8551-4.9527 3.3292-0.2044 0.69017-0.30021 3.8122-0.23683 7.7173 0.0983 6.0539 0.15603 6.5945 0.7512 7.0295 0.55486 0.40555 12.717 0.45938 87.232 0.3861l86.587-0.0851 1.6495-0.90937c0.90725-0.50016 1.7917-0.90938 1.9655-0.90938 0.80666 0 4.9449-3.1971 6.5343-5.0483 2.5713-2.9947 3.6603-4.9838 4.8336-8.829l1.0423-3.417v-138.35c0-116.74 0.0711-138.52 0.45493-139.42 0.73232-1.7129 2.1957-2.8508 4.1943-3.2616 3.1453-0.64649 5.7612 0.54426 6.9499 3.1636 0.59268 1.306 0.61221 5.7354 0.61667 139.74 5e-3 150.54 0.0864 143.71-1.7596 147.41-0.42862 0.85848-0.88487 1.9983-1.0138 2.5329-0.45258 1.8762-3.445 6.417-6.3788 9.6798-1.9369 2.154-7.8348 6.6072-9.3124 7.0313-0.47369 0.13598-1.6034 0.62188-2.5104 1.0798-0.90698 0.45797-2.3182 0.94424-3.136 1.0806s-2.6655 0.60082-4.1059 1.0321l-2.619 0.78408-177.96-0.0225c-153.67-0.0191-178.18-0.08699-179.61-0.49726zm43.088-105.71c-1.592-1.2177-2.9186-3.5334-2.9324-5.1189-0.0117-1.3416 0.86682-3.6509 1.7757-4.6677 1.2396-1.3868 3.2456-2.2978 5.9429-2.6989 1.4335-0.21316 3.2921-0.59867 4.1303-0.85669 0.83816-0.25803 3.0616-0.68943 4.941-0.95867 1.8794-0.26923 4.1841-0.72135 5.1216-1.0047s4.0836-0.73561 6.9913-1.005c2.9077-0.26941 6.9967-0.77935 9.0867-1.1332 5.9489-1.0072 21.414-1.498 33.042-1.0487 7.6509 0.29562 10.905 0.58041 17.352 1.5184 9.7674 1.4213 12.66 2.3095 14.223 4.3676 2.9594 3.8964 0.76785 9.5132-3.9906 10.227-1.3488 0.20242-3.6188-0.10959-12.054-1.6568-9.9895-1.8323-39.756-1.7549-50.555 0.13152-2.0899 0.36507-5.5098 0.81451-7.5998 0.99877-2.0899 0.18426-4.8407 0.62151-6.1129 0.97169-1.2721 0.35017-3.5025 0.80882-4.9564 1.0192-1.4539 0.2104-3.9816 0.744-5.6172 1.1858-1.7499 0.47266-3.8812 0.80335-5.1785 0.80348-1.979 2.2e-4 -2.3485-0.10978-3.6098-1.0745zm169.54-26.938c-0.92322-0.34178-3.3738-2.5082-4.0004-3.5366-0.83404-1.3688-0.84147-4.3044-0.0143-5.6522 1.2649-2.0612 2.9294-3.2292 8.3102-5.8317 2.9986-1.4503 5.675-2.7806 5.9476-2.9562s1.016-0.54377 1.6521-0.81818c0.63607-0.2744 2.1973-1.004 3.4695-1.6212 1.2721-0.61729 3.9486-1.8918 5.9476-2.8322 1.9991-0.94041 4.8242-2.2773 6.2781-2.9708 1.4539-0.69357 3.6842-1.738 4.9564-2.3211 1.2721-0.58302 3.0564-1.4032 3.9651-1.8226 0.90866-0.4194 2.0139-0.86776 2.4561-0.99637 0.44219-0.1286 1.468-0.58717 2.2796-1.019s1.7148-0.7852 2.0073-0.7852 1.1996-0.35174 2.0159-0.78165 2.0783-0.97431 2.8043-1.2098c0.72603-0.23547 1.9749-0.77657 2.7752-1.2024 0.80034-0.42588 1.6528-0.77432 1.8943-0.77432 0.24151 0 1.223-0.3606 2.1812-0.80133 1.6548-0.76121 3.9572-1.5751 7.7329-2.7336 2.4153-0.74109 4.2924-0.39086 6.071 1.1328 2.6049 2.2314 3.2369 4.9125 1.857 7.8782-0.91172 1.9595-3.061 3.5328-5.6041 4.1022-0.87884 0.19679-2.1427 0.63376-2.8086 0.97105-0.6659 0.33728-1.7311 0.7234-2.3672 0.85804-0.63606 0.13464-1.9743 0.6733-2.9738 1.197-0.99953 0.52373-2.006 0.95256-2.2366 0.95295-0.2306 3.3e-4 -1.2552 0.44713-2.2769 0.99275-1.0217 0.54563-2.0569 0.99205-2.3005 0.99205-0.41868 0-2.3854 0.86096-6.8987 3.02-1.0904 0.52163-2.1837 0.94836-2.4295 0.94829-0.24582-8e-5 -1.138 0.36096-1.9826 0.80229-0.84458 0.44133-2.7995 1.3947-4.3442 2.1185-8.8385 4.1417-17.669 8.3818-24.626 11.824-5.2247 2.5853-6.5377 3.107-7.765 3.0853-0.81237-0.0144-1.7001-0.10867-1.9727-0.20959zm-167.61-13.967c-2.5319-0.80726-4.8753-3.9147-4.8753-6.4649 0-2.6629 2.4023-5.78 4.9564-6.4311 3.5841-0.91367 8.723-2.0348 10.739-2.3429 1.2721-0.19441 3.484-0.65144 4.9152-1.0156 1.4312-0.36417 4.3307-0.8095 6.4433-0.98962s5.551-0.62471 7.6409-0.98799c8.6609-1.5055 31.322-1.9893 45.151-0.96396 6.0606 0.44935 17.645 2.383 19.777 3.3012 3.067 1.3207 4.2447 3.0196 4.2447 6.1232 0 2.2644-0.58737 3.6383-2.1001 4.9122-2.0706 1.7437-5.4489 1.9018-10.86 0.50843-1.3857-0.35688-4.0064-0.79176-5.8238-0.9664-1.8173-0.17463-4.8655-0.48007-6.7737-0.67874-3.7073-0.38599-20.65-1.0151-21.478-0.79755-0.2726 0.0716-4.0642 0.36219-8.4258 0.64568-9.0847 0.59047-9.8692 0.66891-15.034 1.5034-2.0899 0.33767-5.3539 0.77573-7.2533 0.97347s-4.4271 0.64591-5.6172 0.99593-3.4075 0.80324-4.9276 1.0072c-1.5201 0.20391-3.6761 0.65691-4.7912 1.0066-2.5257 0.7922-4.7258 1.0385-5.9083 0.6615zm166.95-28.49c-2.8299-1.6978-3.9651-3.3934-3.9651-5.9227 0-1.8475 0.26585-2.5089 1.7568-4.371 0.9713-1.213 6.6158-4.1987 19.225-10.169 1.9991-0.94656 4.6755-2.2132 5.9476-2.8148 1.2721-0.60157 4.0229-1.9046 6.1128-2.8957 7.0398-3.3384 8.9884-4.2145 9.3737-4.2145 0.21099 0 0.97619-0.31815 1.7004-0.70701s2.1184-0.9833 3.0982-1.321c0.97976-0.33768 1.9624-0.76435 2.1837-0.94815 0.22129-0.18381 1.204-0.61312 2.1837-0.95403s2.2274-0.85845 2.7726-1.1501c1.3976-0.74757 5.0079-2.1652 6.8032-2.6714 0.83405-0.23515 2.495-0.81934 3.691-1.2982 1.5835-0.63398 2.77-0.87064 4.365-0.87064 2.4014 0 3.5048 0.42624 4.8459 1.8719 2.0865 2.2493 2.4391 4.4768 1.148 7.2518-0.87683 1.8845-2.9836 3.4429-5.543 4.1002-0.78776 0.20229-2.027 0.60408-2.754 0.89286-0.72693 0.28879-2.2138 0.85861-3.3042 1.2663-1.0904 0.40767-3.2464 1.294-4.7912 1.9695-1.5447 0.67556-3.6264 1.5722-4.6259 1.9924-0.99953 0.42027-3.0812 1.3131-4.6259 1.9841-1.5447 0.67099-3.6264 1.5543-4.6259 1.963-1.7897 0.73167-4.5738 2.0359-12.391 5.8046-2.1808 1.0514-5.0803 2.4334-6.4433 3.0711-1.363 0.63773-6.002 2.887-10.309 4.9982-8.6022 4.217-9.5978 4.4814-11.83 3.1424zm-167.73-14.021c-0.9135-0.45557-1.9609-1.1624-2.3276-1.5707-0.79839-0.88913-1.7585-3.2614-1.7585-4.3451 0-2.0258 1.7017-4.9477 3.426-5.8829 0.9641-0.52286 8.0334-2.2431 10.782-2.6237 1.363-0.18873 3.8164-0.6883 5.452-1.1102 1.6356-0.42184 4.312-0.87307 5.9476-1.0027 1.6356-0.12965 4.5351-0.52109 6.4433-0.86986 10.129-1.8513 33.872-2.6028 45.929-1.4537 10.508 1.0014 12.016 1.1821 13.864 1.6614 1.0245 0.26567 2.9424 0.63628 4.262 0.82359 3.4472 0.48929 6.1347 2.0092 7.2045 4.0747 0.66281 1.2796 0.75405 4.3144 0.17179 5.714-0.23312 0.5604-1.1218 1.602-1.9748 2.3148l-1.551 1.2959-3.1406-0.0121c-2.3044-9e-3 -3.7857-0.21173-5.5635-0.76188-1.6392-0.50725-4.2579-0.90043-8.0954-1.2155-3.1198-0.25612-6.4421-0.61418-7.3829-0.7957-0.94074-0.1815-5.4015-0.42751-9.9127-0.54666-6.9298-0.18303-9.4326-0.10726-16.132 0.4884-4.3616 0.38778-9.5016 0.84322-11.422 1.0121-1.9206 0.16888-5.2661 0.60187-7.4346 0.9622-2.1684 0.36034-4.909 0.75106-6.0903 0.86826-1.1813 0.11722-3.486 0.56519-5.1216 0.99551-1.6356 0.43031-4.1525 0.94275-5.5932 1.1388-1.4407 0.196-3.5752 0.65181-4.7434 1.0129-2.731 0.84417-3.2335 0.82769-5.2376-0.17178zm167.9-27.993c-1.6149-0.83568-3.0419-2.1291-3.6642-3.3212-0.56141-1.0755-0.61278-3.9961-0.0879-4.9984 1.4885-2.8425 2.9324-3.6943 20.273-11.959 2.1808-1.0394 5.6007-2.6732 7.5998-3.6307s4.9729-2.3688 6.6085-3.1363 3.5686-1.68 4.2955-2.028c0.72694-0.34794 2.0652-0.91543 2.9738-1.2611 0.90867-0.34565 2.916-1.1767 4.4607-1.8468 6.0884-2.6412 7.5022-3.2348 9.2519-3.8847 0.99954-0.37127 1.9904-0.81173 2.2018-0.97881 0.21148-0.16706 1.4754-0.65937 2.8086-1.094s3.2419-1.0919 4.2414-1.4605c2.4042-0.88667 6.0117-0.92575 7.6049-0.0824 0.69236 0.36649 1.5794 1.3164 2.2252 2.3828 1.3471 2.2246 1.4015 3.8256 0.21116 6.2162-0.98099 1.9701-2.9368 3.3253-6.0762 4.2102-0.99954 0.28175-2.6537 0.87478-3.676 1.3178s-2.0716 0.80556-2.3319 0.80556-1.5056 0.52037-2.7673 1.1564c-1.2617 0.636-2.5171 1.1615-2.7897 1.1677-0.2726 6e-3 -1.0904 0.37795-1.8173 0.82603s-1.5567 0.81545-1.8439 0.81639c-0.28723 9.9e-4 -1.2537 0.37344-2.1478 0.8278-0.89403 0.45437-2.1459 0.9917-2.782 1.1941-0.63607 0.20238-1.7512 0.70448-2.4782 1.1158s-1.6934 0.85843-2.1478 0.99364-2.6104 1.1014-4.7912 2.1472c-3.8422 1.8424-5.9315 2.8358-12.887 6.1272-1.8173 0.86002-5.9807 2.8726-9.2519 4.4723-10.441 5.1063-10.73 5.1917-13.217 3.9049zm-167.36-13.75c-0.2726-0.10517-1.0641-0.54859-1.7589-0.98538-1.407-0.88448-2.8606-3.5368-2.8606-5.2195 0-1.2819 1.3229-4.0822 2.3949-5.0695 1.045-0.96238 6.1383-2.4819 10.74-3.204 1.8911-0.29678 4.0419-0.75267 4.7794-1.0131 0.73751-0.26041 3.2149-0.70125 5.5054-0.97963s5.354-0.72554 6.8079-0.9937c2.6399-0.4869 7.6908-0.98803 20.156-1.9998 7.9322-0.64383 22.077-0.47234 27.59 0.33451 1.9082 0.27925 5.3827 0.65301 7.721 0.83059 2.3384 0.17757 5.9069 0.6963 7.9302 1.1527 2.0232 0.45643 4.2219 0.9142 4.8858 1.0173 1.5308 0.23763 4.3427 2.4486 4.9396 3.8839 0.64213 1.544 0.53766 4.6309-0.19457 5.7493-0.63658 0.9723-2.1357 2.3491-3.275 3.0078-1.0956 0.63338-4.8392 0.50709-7.1912-0.24259-1.152-0.36721-3.7302-0.82789-5.7293-1.0237-1.9991-0.19584-5.7163-0.64875-8.2606-1.0065-8.5234-1.1984-25.864-1.1552-34.695 0.0863-1.2721 0.17886-4.5433 0.53944-7.2693 0.80128-5.8846 0.56523-14.177 1.8689-18.999 2.9871-1.9082 0.44244-4.4694 0.95613-5.6915 1.1416-1.2221 0.18541-2.6072 0.48367-3.0779 0.66278-0.91498 0.34815-3.6283 0.39832-4.4476 0.0822zm168.68-27.874c-2.044-0.43522-4.1433-2.0278-5.0812-3.8548-0.48183-0.93856-0.47725-3.9128 7e-3 -4.8384 0.78772-1.5043 2.3759-3.2411 3.3753-3.6911 0.5707-0.25699 1.4094-0.69295 1.8637-0.96879s1.4208-0.77659 2.1478-1.1128c0.72693-0.33619 1.6191-0.77718 1.9826-0.97998 0.36346-0.2028 2.2593-1.1238 4.2129-2.0468 6.7864-3.206 10.677-5.0573 14.291-6.8011 1.9991-0.9645 4.8242-2.3001 6.2781-2.968s3.3344-1.576 4.179-2.0179c0.84459-0.44193 1.753-0.80352 2.0186-0.80352s1.319-0.44642 2.3406-0.99205c1.0217-0.54562 2.0582-0.99205 2.3035-0.99205 0.24524 0 1.1774-0.37175 2.0714-0.82611s2.1459-0.99332 2.782-1.1977c0.63607-0.20436 1.6769-0.64298 2.313-0.97471 2.5622-1.3363 9.5644-3.9907 13.547-5.1357 4.4306-1.2736 7.1295-0.4882 8.9337 2.5999 1.3077 2.2384 1.2439 4.352-0.20085 6.6553-0.79077 1.2606-1.4025 1.7502-3.3432 2.6755-1.3064 0.62289-3.1651 1.3514-4.1303 1.619-2.001 0.55461-5.2657 1.8326-7.7356 3.028-0.92683 0.44859-1.8003 0.81563-1.941 0.81563s-1.4641 0.52877-2.9408 1.1751c-4.2479 1.8591-6.1204 2.6722-9.1282 3.964-1.5447 0.66341-3.9981 1.7722-5.452 2.464-1.4539 0.69181-4.279 2.0312-6.2781 2.9765-1.9991 0.94529-5.2703 2.5047-7.2693 3.4654-1.9991 0.96067-4.8242 2.2954-6.2781 2.9661-2.7584 1.2725-3.1404 1.4632-6.9656 3.478-3.8395 2.0223-6.1347 2.6957-7.9035 2.3191zm-168.85-14.266c-0.5452-0.20322-1.4174-0.66827-1.9382-1.0335-1.1036-0.77387-2.5161-3.5968-2.5161-5.0287 0-1.2672 1.3188-4.0786 2.3647-5.0411 1.0646-0.97965 5.1093-2.3396 8.2024-2.758 1.363-0.18434 3.9651-0.69425 5.7824-1.1331 3.7325-0.9014 15.167-2.6764 19.165-2.9751 1.4539-0.1086 4.2046-0.40394 6.1128-0.65631 10.579-1.3991 29.844-1.5126 38.164-0.22487 2.3625 0.36569 5.7824 0.76054 7.5998 0.87745 1.8173 0.11691 4.3451 0.49024 5.6172 0.82963 1.2721 0.33938 3.3276 0.7938 4.5677 1.0098 4.0275 0.70157 6.2749 3.1 6.3077 6.7313 0.0227 2.52-0.67403 3.7798-2.9426 5.3205-2.0903 1.4196-3.4734 1.6577-5.785 0.99608-2.082-0.5959-5.5869-1.1916-12.887-2.1903-10.11-1.3831-32.147-1.4365-40.065-0.0972-1.5909 0.26911-5.2746 0.70803-8.186 0.97538-2.9114 0.26736-6.6652 0.77609-8.3419 1.1305-1.6766 0.35443-3.7919 0.73833-4.7006 0.85311s-2.7286 0.49333-4.0443 0.84123c-5.3547 1.4159-10.992 2.1266-12.477 1.573zm167.53-28.208c-0.72693-0.27294-1.3554-0.4985-1.3966-0.50124-0.0412-3e-3 -0.67314-0.76238-1.4043-1.6881-1.2024-1.5224-1.3294-1.8644-1.3294-3.5808 0-3.1213 1.7589-5.2584 6.0408-7.3397 0.76658-0.37261 1.7655-0.89669 2.2198-1.1646 0.45433-0.26793 1.3465-0.70928 1.9825-0.98078 0.63607-0.27149 2.7921-1.2921 4.7912-2.268 1.9991-0.97592 5.1216-2.4728 6.9389-3.3263 3.3173-1.5581 6.1409-2.9005 12.887-6.1266 1.9991-0.95607 4.4525-2.0737 5.452-2.4836 0.99953-0.40989 3.0812-1.2957 4.6259-1.9685 1.5447-0.67277 3.5521-1.5148 4.4607-1.8713 0.90866-0.35644 2.3876-1.0105 3.2865-1.4535s1.8479-0.80546 2.1088-0.80546 0.97892-0.31208 1.5956-0.6935c0.61667-0.38143 1.8238-0.88866 2.6824-1.1272 0.85864-0.23852 2.3046-0.7345 3.2133-1.1022 2.6944-1.0902 6.0496-2.0374 7.217-2.0374 0.59966 0 1.8976 0.40922 2.8843 0.90938 2.9666 1.5038 4.3549 4.9365 3.157 7.8057-1.1156 2.672-3.9425 4.4756-9.4362 6.0204-1.6861 0.47411-5.4388 2.0068-7.5389 3.079-0.75816 0.38708-1.5702 0.70373-1.8047 0.70366-0.2344-7e-5 -1.3183 0.42666-2.4087 0.94829-4.3708 2.0909-6.474 3.02-6.8364 3.02-0.20936 0-1.3589 0.46013-2.5545 1.0225s-3.066 1.4393-4.1564 1.9487-3.8412 1.8182-6.1128 2.9085c-7.264 3.4863-11.653 5.5772-14.704 7.0057-1.6356 0.76568-4.7703 2.2801-6.9661 3.3654-4.4952 2.2218-6.5996 2.6434-8.8943 1.7817z" fill="#5782a9"/>
   <path d="m31.525 420.33c-0.92538-0.33353-2.6983-0.78342-3.9398-0.99979-1.2415-0.21636-2.8634-0.74109-3.6043-1.1661-0.74085-0.42499-1.7044-0.87984-2.1412-1.0108-1.4746-0.44206-5.798-3.5726-8.3697-6.0605-3.7408-3.6188-6.0199-7.2369-8.3659-13.28-0.2471-0.63656-0.45772-1.6038-0.46804-2.1494-0.010322-0.54562-0.33742-1.9593-0.72689-3.1415l-0.70812-2.1494-0.057252-277.44 1.013-1.6534c1.2798-2.089 2.3492-2.6345 5.1371-2.6204 2.5373 0.0128 3.468 0.48642 4.6291 2.3555l0.78083 1.257 0.33042 280.09 0.69945 1.1843c0.3847 0.65138 0.88906 1.7593 1.1208 2.4621 1.2971 3.9332 6.4538 9.0346 11.727 11.601l2.6434 1.2866h173.7l0.63166-0.78068c0.57913-0.71573 0.63166-1.3854 0.63166-8.0518 0-5.9537-0.095-7.4714-0.5241-8.3764-0.61082-1.2882-1.5088-1.9508-3.1154-2.2988-0.6334-0.1372-1.8207-0.58461-2.6385-0.99426-0.8178-0.40969-2.2636-0.90974-3.2128-1.1113-0.94923-0.20155-2.2752-0.6611-2.9467-1.0212-0.67144-0.36015-1.9021-0.75621-2.7349-0.88015s-2.4433-0.57443-3.579-1.0011c-1.1357-0.42665-2.92-0.87436-3.9651-0.99486-1.0451-0.12054-2.8538-0.57615-4.0195-1.0126-1.3113-0.4909-3.39-0.90614-5.452-1.089-1.833-0.1626-4.5965-0.60482-6.1412-0.98272-2.0974-0.51309-4.7749-0.77479-10.574-1.0335-12.544-0.55968-41.266 0.18812-45.599 1.1872-1.1813 0.27241-4.7498 0.64334-7.9302 0.82436-3.1803 0.18101-8.2358 0.69691-11.234 1.1464s-6.871 0.96751-8.6054 1.1511c-1.7343 0.18359-3.816 0.56891-4.6259 0.85627-0.80992 0.2874-3.1825 0.72727-5.2725 0.97753s-4.469 0.69665-5.2868 0.99195-3.2712 0.75148-5.452 1.0137c-2.1808 0.26223-4.8572 0.75623-5.9476 1.0978-1.0904 0.34153-3.2335 0.72694-4.7625 0.85647s-3.6926 0.51762-4.8081 0.86242c-1.1155 0.34481-3.1501 0.84176-4.5213 1.1043-1.3712 0.26256-3.0545 0.71212-3.7407 0.99906-2.9856 1.2484-6.2448 0.07-7.5512-2.7303l-0.7198-1.5429-0.168-309.4 0.70397-1.6377c0.86836-2.0201 2.5183-3.5196 4.1655-3.7856 0.68539-0.11069 2.064-0.50653 3.0635-0.87964 0.99953-0.37311 2.7838-0.81776 3.9651-0.98811s3.709-0.6658 5.6172-1.101c1.9082-0.43519 4.8899-0.94691 6.6261-1.1372s3.967-0.62491 4.9573-0.96592c0.99039-0.34101 3.1385-0.73118 4.7735-0.86705 1.6351-0.13586 3.865-0.5325 4.9554-0.8814 1.0904-0.34891 3.7536-0.84948 5.9183-1.1124 2.1646-0.26291 4.8411-0.76776 5.9476-1.1219 1.3379-0.42818 3.8383-0.76351 7.4639-1.001 2.9986-0.19641 6.9389-0.6367 8.7562-0.97843 1.8173-0.34172 5.3859-0.72519 7.9302-0.85214s7.3024-0.5215 10.574-0.87678c7.9932-0.86812 24.378-1.396 35.615-1.1475 7.4908 0.16568 10.045 0.34925 13.878 0.99729 2.5834 0.43683 5.8124 0.89983 7.1754 1.0289 1.363 0.12906 3.3703 0.51244 4.4607 0.85196s3.3951 0.78519 5.1216 0.99038c1.7265 0.2052 3.6741 0.64352 4.328 0.97405 0.65396 0.33053 2.1812 0.83126 3.3939 1.1127 1.2127 0.28146 2.7593 0.79293 3.4369 1.1366 0.67762 0.34367 1.9012 0.73493 2.719 0.86946s2.0413 0.52579 2.719 0.86946c0.67762 0.34368 2.1831 0.84559 3.3454 1.1154 1.1624 0.26978 2.764 0.78593 3.5591 1.147 0.79514 0.36107 1.7362 0.65976 2.0913 0.66376 1.0632 0.01197 6.5529 2.8515 7.5589 3.9098 0.51433 0.54111 1.0689 1.5585 1.2324 2.2608 0.17348 0.7452 0.29806 57.042 0.29915 135.19 2e-3 115.96 0.0655 133.97 0.47656 134.39 0.7433 0.7439 2.9453 0.5897 4.1839-0.29292 0.59274-0.42242 1.685-1.0989 2.4273-1.5032 0.74225-0.40436 2.0187-1.1038 2.8365-1.5542 3.193-1.7586 5.5342-3.0284 7.4345-4.0323 1.0904-0.57602 3.6182-1.9216 5.6172-2.9901 1.9991-1.0686 4.4525-2.3762 5.452-2.9059 0.99953-0.52966 2.6726-1.4294 3.718-1.9995 2.4567-1.3397 14.931-7.615 16.438-8.2693 0.63606-0.27617 1.5282-0.72951 1.9825-1.0074 0.45434-0.27792 1.3465-0.72434 1.9826-0.99205 0.63607-0.26772 1.5282-0.70452 1.9825-0.97068 1.5655-0.91707 13.733-6.8272 14.056-6.8272 0.17775 0 0.99111-0.35174 1.8075-0.78165 0.81636-0.42991 2.0669-0.97055 2.7791-1.2014 0.71214-0.23088 1.753-0.68124 2.313-1.0008s1.6129-0.76682 2.3399-0.99391c0.72694-0.22709 1.7025-0.67996 2.1679-1.0064 0.46542-0.32641 1.2832-0.70002 1.8173-0.83024 0.53411-0.13022 1.7727-0.66094 2.7524-1.1794 0.97968-0.51843 1.9862-0.94261 2.2366-0.94261 0.25045 0 1.2913-0.44642 2.313-0.99205 1.0217-0.54562 2.0625-0.99204 2.313-0.99204 0.25045 0 1.2913-0.44643 2.313-0.99205 1.0217-0.54563 2.0969-0.99282 2.3893-0.99374 0.29245-1e-3 1.1265-0.36831 1.8534-0.81639 0.72693-0.44808 1.5447-0.81946 1.8173-0.82528 0.2726-6e-3 1.3878-0.4313 2.4782-0.94552 1.0904-0.51421 2.6803-1.1093 3.5332-1.3225s2.0424-0.67424 2.6434-1.0246 1.6875-0.7389 2.4145-0.86329c0.72693-0.1244 1.8148-0.50816 2.4176-0.85279 0.60273-0.34464 2.0896-0.87303 3.3042-1.1742 1.7714-0.43923 2.4862-0.82288 3.6127-1.9388l1.4043-1.3912v-135.26c0-128.33-0.0297-135.29-0.57824-135.96-0.31804-0.38528-0.97442-0.73078-1.4586-0.76778-0.84892-0.06487-1.3842 0.13438-6.3434 2.361-1.2471 0.55994-2.4366 1.0181-2.6434 1.0182-0.20676 4.2e-5 -1.1937 0.44056-2.1933 0.97893-0.99953 0.53837-2.1016 0.98476-2.4492 0.99197-0.3475 0.0072-1.2396 0.36614-1.9825 0.79762-0.7429 0.43147-1.7225 0.89095-2.1768 1.0211-0.85064 0.2436-6.0483 2.7536-21.003 10.143-4.7367 2.3404-8.7284 4.2552-8.8704 4.2552-0.14201 0-0.68348 0.30306-1.2033 0.67347-0.51978 0.37041-1.4349 0.84415-2.0336 1.0528-0.90676 0.31596-5.7456 2.9138-14.725 7.9056-0.85948 0.47778-2.3805 1.3177-3.38 1.8666-1.681 0.92304-7.7455 4.3139-11.234 6.2815-7.172 4.0448-9.0923 5.1169-10.574 5.9036-1.9962 1.0601-5.8127 3.3486-7.8853 4.7283-1.667 1.1097-4.1294 2.0111-5.4938 2.0111-3.2368 0-5.7856-2.4065-5.7856-5.4627 0-1.5244 0.15884-1.9256 1.36-3.4354 0.74802-0.9402 1.9004-2.007 2.5608-2.3708 1.7332-0.95452 3.3802-1.9493 4.4195-2.6693 0.49819-0.34511 1.6134-1.0173 2.4782-1.4937 0.86481-0.47644 2.3158-1.2863 3.2245-1.7997 0.90866-0.51341 2.3956-1.3229 3.3042-1.7988s2.4983-1.3366 3.5325-1.9127c4.869-2.712 9.7428-5.4442 11.445-6.4159 1.0306-0.5883 2.4687-1.3802 3.1956-1.7598 0.72693-0.37957 2.2138-1.1941 3.3042-1.81s2.726-1.5105 3.6347-1.9879c0.90867-0.47741 2.4943-1.3393 3.5237-1.9152 6.5804-3.682 11.127-6.1143 11.841-6.335 0.45434-0.14037 1.2208-0.53331 1.7031-0.8732 0.48239-0.33989 0.99261-0.61798 1.1338-0.61798 0.1412 0 1.9116-0.80837 3.9341-1.7964 2.0226-0.98801 4.3375-2.0527 5.1443-2.3661 0.80677-0.31333 1.6973-0.7659 1.9789-1.0057s1.1464-0.66002 1.9218-0.93379c0.77536-0.27377 1.8088-0.779 2.2966-1.1227 0.48776-0.34372 1.2586-0.7355 1.7129-0.87063 0.45433-0.13513 1.5876-0.67548 2.5184-1.2008 0.93079-0.5253 1.8999-0.95508 2.1537-0.95508 0.25373 0 0.97908-0.35101 1.6119-0.78002s1.5223-0.88242 1.9766-1.0076c0.93072-0.25639 3.642-1.4129 7.1664-3.0568 1.3064-0.60934 2.5359-1.1079 2.7322-1.1079 0.19638 0 1.193-0.44642 2.2146-0.99205s2.0625-0.99205 2.313-0.99205 1.2913-0.44642 2.313-0.99205 2.0969-0.99261 2.3894-0.99329c0.29242-6.944e-4 1.4239-0.44655 2.5143-0.9908 1.0904-0.54426 2.2261-0.99012 2.5237-0.9908 0.29765-6.945e-4 1.5121-0.45593 2.6987-1.0117 1.8253-0.85481 2.5529-1.0104 4.7249-1.0104 2.8852 0 3.7699 0.4289 4.9219 2.3861 0.65771 1.1175 0.66131 1.8047 0.75683 145.3 0.0528 79.298 4e-3 144.83-0.10927 145.63-0.3028 2.1366-2.5878 4.4993-4.8133 4.977-0.90117 0.19342-2.1912 0.63148-2.8667 0.97345-0.67551 0.34197-2.044 0.7949-3.0412 1.0065-0.99716 0.21161-2.1287 0.59176-2.5146 0.84477-0.38584 0.25301-1.503 0.69396-2.4825 0.97987-0.97954 0.28592-2.5124 0.89136-3.4065 1.3454-0.89402 0.45406-1.8605 0.83023-2.1478 0.83594-0.28723 6e-3 -1.4106 0.45213-2.4964 0.99205s-2.201 0.98223-2.4782 0.98291c-0.27722 6.7e-4 -1.3962 0.44655-2.4866 0.99081s-2.2056 0.99068-2.4782 0.99205c-0.2726 1e-3 -1.3878 0.44779-2.4782 0.99205-1.0904 0.54425-2.2056 0.99006-2.4782 0.99067-0.2726 6.6e-4 -1.4621 0.46347-2.6434 1.0286-2.3396 1.1192-4.2854 2.0205-7.5998 3.5202-1.1813 0.53449-3.2629 1.4977-4.6259 2.1404-1.363 0.64275-2.8499 1.2806-3.3042 1.4173-0.45433 0.13679-1.1978 0.50728-1.6521 0.8233-0.45434 0.31603-1.1978 0.68269-1.6521 0.81479-0.45434 0.13211-1.9412 0.75945-3.3042 1.3941-2.3704 1.1037-3.8441 1.7845-7.6824 3.5488-2.2261 1.0232-7.5117 3.6676-10.304 5.1549-1.195 0.63656-3.6961 1.9539-5.5581 2.9275-1.862 0.97356-4.4262 2.3314-5.6983 3.0174-2.8857 1.556-8.4567 4.4917-13.217 6.9649-1.9991 1.0386-5.3446 2.7943-7.4346 3.9015-3.99 2.1139-6.877 3.609-9.0867 4.7058-0.72693 0.36081-1.5447 0.80184-1.8173 0.98004-0.2726 0.17821-1.016 0.57817-1.6521 0.88881-0.63607 0.31065-3.3335 1.868-5.9943 3.4608-4.9287 2.9504-7.6606 4.24-8.9697 4.2342-0.40217-3e-3 -1.5177-0.36967-2.479-0.81751-1.3521-0.62995-1.8757-1.0971-2.313-2.0636-0.52959-1.1705-0.57562-9.9713-0.73042-139.64-0.1332-111.58-0.24714-138.53-0.58804-139.13-0.43892-0.7688-2.0102-1.7395-2.8158-1.7395-0.25455 0-1.1467-0.36388-1.9825-0.80862-0.83579-0.44474-2.0846-0.90886-2.7752-1.0314-0.69057-0.1225-2.247-0.65146-3.4587-1.1755s-2.5094-0.95274-2.8837-0.95274-1.6288-0.3572-2.7877-0.79377c-1.159-0.43657-3.1662-0.95821-4.4606-1.1592s-3.1375-0.67518-4.0958-1.0538-3.1549-0.83198-4.8814-1.0075c-1.7265-0.17557-4.2542-0.60185-5.6172-0.94729-3.0411-0.77075-14.654-1.652-21.775-1.6524-6.9862-3.31e-4 -24.911 0.589-30.597 1.006-2.5443 0.18661-6.0385 0.55997-7.765 0.8297s-5.9642 0.62981-9.4171 0.80018c-4.4398 0.21906-7.0521 0.51081-8.9215 0.99635-1.4539 0.37762-4.5541 0.84086-6.8893 1.0294-2.3353 0.18856-5.3834 0.63777-6.7737 0.99825-1.3903 0.36047-4.1996 0.79536-6.2429 0.9664-2.1112 0.17673-4.5363 0.60069-5.6172 0.98201-1.0462 0.36906-3.2782 0.82538-4.96 1.014s-3.9122 0.64142-4.9564 1.0061c-1.0441 0.36472-3.2002 0.80175-4.7911 0.97118-3.5807 0.38132-7.5761 1.9372-8.1368 3.1686-0.53883 1.1835-0.52921 292.19 0.0097 293.21 0.20894 0.39729 0.5435 0.83164 0.74345 0.96527 0.73256 0.48951 3.3967 0.23587 5.6504-0.53796 1.2721-0.4368 3.7255-0.95342 5.452-1.148 1.7265-0.19457 3.9568-0.63468 4.9564-0.97796 0.99953-0.34328 3.0712-0.73283 4.6038-0.86566 1.5326-0.13284 3.6886-0.53257 4.7912-0.88825 1.1094-0.3579 4.2182-0.8528 6.961-1.1081 2.726-0.25377 6.2202-0.75531 7.765-1.1145s4.4442-0.74973 6.4433-0.86775c1.9991-0.11805 5.0472-0.51087 6.7737-0.87297 3.2351-0.67846 3.9666-0.73878 15.695-1.2944 3.8164-0.18078 8.3515-0.57221 10.078-0.86986 2.5168-0.43392 6.3114-0.56894 19.143-0.68121 15.976-0.13977 18.509-0.0288 23.977 1.0513 1.2721 0.25122 3.6512 0.5533 5.2868 0.67125 1.6356 0.11796 4.3864 0.56266 6.1128 0.98825 1.7265 0.42562 3.9568 0.87611 4.9564 1.0011 0.99953 0.125 2.4617 0.5074 3.2494 0.84972 0.7876 0.34236 2.6462 0.83729 4.1303 1.0998 1.4841 0.26256 3.3674 0.77145 4.1852 1.1308 0.8178 0.35942 2.156 0.76067 2.9738 0.89168 0.8178 0.13105 2.156 0.57013 2.9738 0.97578 0.8178 0.40562 2.2018 0.91272 3.0754 1.1269 0.87368 0.21419 2.1354 0.68277 2.8037 1.0413s1.4555 0.65181 1.7491 0.65181 1.233 0.37202 2.0875 0.82671c1.8532 0.98616 3.1009 1.0413 4.7534 0.21005 0.67426-0.33915 1.8205-0.72486 2.5472-0.8571 0.72668-0.13228 2.1392-0.58207 3.139-0.99952 0.99978-0.41749 2.4869-0.86808 3.3047-1.0013 0.8178-0.13323 2.0575-0.53167 2.7549-0.8854 0.69738-0.35377 2.4073-0.8607 3.7999-1.1266 1.3926-0.26584 3.2754-0.75707 4.184-1.0916 0.90867-0.33455 2.6046-0.71262 3.7688-0.84017 1.1642-0.12754 3.0295-0.57575 4.1452-0.99601 1.1157-0.42027 2.9883-0.86758 4.1614-0.994s3.6942-0.58167 5.6024-1.0116c1.9082-0.42999 4.882-0.87803 6.6085-0.99568 1.7265-0.11766 3.8825-0.35612 4.7912-0.52989 5.7272-1.0954 9.1262-1.2817 23.274-1.2754 10.917 5e-3 15.272 0.12613 18.029 0.50175 5.6424 0.76887 9.959 1.1241 17.843 1.4683 5.1997 0.22701 7.987 0.49883 9.7901 0.95465 1.3864 0.35049 4.1372 0.74059 6.1128 0.86691 1.9756 0.12629 4.7073 0.51316 6.0703 0.85968 1.363 0.34656 4.2625 0.79652 6.4433 0.99995 2.1808 0.20344 5.1546 0.7194 6.6085 1.1466 1.4539 0.42721 3.9073 0.92207 5.452 1.0997 1.5447 0.17761 3.3722 0.55964 4.061 0.84899 0.6888 0.28931 2.715 0.73147 4.5026 0.98253 1.7877 0.25108 3.7073 0.69301 4.2658 0.98206 0.55855 0.28908 1.758 0.52559 2.6653 0.52559 1.3303 0 1.7494-0.14233 2.1642-0.73495 0.46365-0.66249 0.51437-15.134 0.51437-146.79 0-138.62-0.0294-146.09-0.57824-146.72-0.59487-0.6851-6.3955-2.455-9.3938-2.8663-1.9939-0.27348-2.9944-1.0882-4.0911-3.3316-1.0152-2.0767-0.96325-2.8393 0.35415-5.1955 0.78145-1.3975 1.0762-1.6273 2.6899-2.0968 1.459-0.42448 2.2105-0.46154 3.8549-0.1901 1.1234 0.18544 3.0091 0.43217 4.1904 0.5483s3.0399 0.49405 4.1303 0.83982 3.0078 0.78848 4.2608 0.98378c2.7084 0.42216 3.1051 0.61154 4.4198 2.1101 0.85762 0.97755 1.0376 1.5044 1.2185 3.5675 0.11674 1.3313 0.16756 71.69 0.11294 156.35-0.0946 146.63-0.12708 153.98-0.68514 155.01-0.70922 1.299-3.3493 2.7298-5.0368 2.7298-0.65113 0-1.6361-0.23406-2.1889-0.5201s-2.0055-0.72886-3.2284-0.98404c-1.2228-0.25516-2.7891-0.70052-3.4805-0.98964-0.69145-0.28912-2.8407-0.73392-4.7761-0.98838-1.9354-0.25449-4.1844-0.70068-4.9978-0.99152-0.81341-0.29083-3.0479-0.73782-4.9656-0.99327s-4.0551-0.7021-4.7497-0.99258c-0.69465-0.29047-2.8429-0.73633-4.7739-0.99076-1.931-0.25446-4.3645-0.75706-5.4078-1.1169-1.0434-0.35985-3.6109-0.81388-5.7056-1.009-2.0948-0.19507-4.7354-0.57483-5.868-0.84384-1.1326-0.26904-4.5871-0.64797-7.6766-0.84208s-7.3272-0.65558-9.4171-1.0255c-5.4177-0.95892-14.315-1.3242-33.042-1.3568-16.587-0.0288-20.983 0.1948-25.241 1.2839-1.0703 0.27381-3.598 0.63465-5.6172 0.80191-3.7068 0.307-4.707 0.51236-6.8102 1.3979-0.63606 0.26782-2.1112 0.5905-3.2781 0.71702s-2.8768 0.52416-3.7999 0.88361c-0.92306 0.35949-3.0542 0.86646-4.7358 1.1267-1.6816 0.26019-3.4844 0.69401-4.0062 0.96404-0.52177 0.27004-1.9568 0.65214-3.189 0.84916-1.2322 0.19699-2.998 0.71005-3.924 1.1401-0.92599 0.43005-2.2812 0.8772-3.0117 0.9937-1.649 0.26296-3.7024 1.4013-4.4994 2.4942-0.53753 0.73716-0.60641 1.6148-0.63587 8.1017-0.0182 4.0013 0.0639 7.5218 0.18247 7.8234 0.11854 0.30165 0.61374 0.71282 1.1004 0.91378 0.64003 0.26421 24.797 0.34123 87.291 0.27827l86.406-0.087 1.3217-0.78504c0.72693-0.43177 1.8744-0.98147 2.5498-1.2215 2.7796-0.98788 7.5386-5.4564 9.5407-8.9585 0.53786-0.94086 1.4565-3.0252 2.0414-4.632l1.0635-2.9213 0.16729-139.38c0.13263-110.53 0.25261-139.53 0.57963-140.1 1.2343-2.1583 4.7611-3.0135 7.4743-1.8124 1.262 0.55866 1.6792 0.96722 2.2068 2.161 0.64449 1.4582 0.64955 2.7936 0.53479 141.46-0.081 97.834-0.2229 140.64-0.47132 142.14-0.19551 1.1822-0.73936 2.8815-1.2085 3.7762-0.46916 0.89473-0.85596 1.862-0.85953 2.1494-7e-3 0.52939-1.4862 3.0882-3.6682 6.3436-2.1453 3.2006-9.2368 9.2201-11.834 10.045-0.43352 0.1377-1.6937 0.67906-2.8004 1.2031-1.1067 0.52397-2.4165 0.9528-2.9107 0.95293s-2.0372 0.37228-3.429 0.82697l-2.5306 0.82671-178.47-0.0119c-172.23-0.01162-178.53-0.03318-180.15-0.61836z" fill="#242121"/>
  </g>
 </g>
</svg>
