<?xml version="1.0" encoding="UTF-8"?>
<!-- Created with Inkscape (http://www.inkscape.org/) -->
<svg width="94.245mm" height="111.31mm" version="1.1" viewBox="0 0 94.245 111.31" xmlns="http://www.w3.org/2000/svg" xmlns:cc="http://creativecommons.org/ns#" xmlns:dc="http://purl.org/dc/elements/1.1/" xmlns:rdf="http://www.w3.org/1999/02/22-rdf-syntax-ns#">
 <metadata>
  <rdf:RDF>
   <cc:Work rdf:about="">
    <dc:format>image/svg+xml</dc:format>
    <dc:type rdf:resource="http://purl.org/dc/dcmitype/StillImage"/>
    <dc:title/>
   </cc:Work>
  </rdf:RDF>
 </metadata>
 <g transform="translate(-94.637 -19.597)">
  <g transform="matrix(.26458 0 0 .26458 15.983 74.192)">
   <g transform="translate(264.1 -208.83)" stroke-width=".355">
    <path d="m90.118 422.34c-2.0785-0.97557-3.6331-2.4293-4.3096-4.03-0.38768-0.91732-0.48279-5.0524-0.48279-20.99 0-18.546-0.10654-22.077-0.66561-22.06-0.12203 4e-3 -1.5984 1.3344-3.2809 2.9572-3.5742 3.4475-7.3585 6.2006-9.3656 6.8134-0.78098 0.2385-2.1388 0.81206-3.0174 1.2746-1.522 0.80133-1.9243 0.84103-8.5198 0.84103-6.7644 0-6.9628-0.0209-8.6973-0.92361-0.97623-0.50799-2.186-1.0232-2.6883-1.1448-1.3457-0.32587-5.9354-3.4625-7.8633-5.3738-1.881-1.8648-4.6882-5.7292-5.08-6.9931-0.14157-0.45665-0.63608-1.5838-1.0989-2.5048-0.46283-0.92098-0.8434-2.199-0.84572-2.8401-0.0023-0.64105-0.24004-2.0442-0.52827-3.1182-0.66833-2.4901-0.66833-5.6752 0-8.1653 0.28823-1.0739 0.52596-2.4667 0.52827-3.0951 0.0042-1.1516 1.8693-5.3107 3.7064-8.2653 1.1388-1.8315 47.703-48.637 48.387-48.637 0.27656 0 0.17634-0.2736-0.26006-0.71003-0.70763-0.70768-0.70998-1.1834-0.70998-143.77 0-129.86 0.05202-143.19 0.5637-144.47 0.59827-1.4953 1.8656-2.6378 4.3033-3.8794l1.4946-0.76125h291.01l2.1897 1.0943c1.5872 0.79319 2.5063 1.5502 3.3404 2.7514l1.1507 1.6571v340.52l-1.065 1.5435c-0.58573 0.8489-16.756 17.21-35.933 36.359-30.445 30.398-35.129 34.939-36.919 35.79l-2.0507 0.97519-221.51-8e-3 -1.775-0.83308zm214.04-15.925c0.48973-0.69924 0.55261-4.2553 0.55261-31.253v-30.464l0.86468-1.7065c1.0583-2.0886 2.9285-3.7872 4.7167-4.2838 0.88769-0.24653 11.681-0.37307 31.933-0.37438l30.592-2e-3 1.4715-1.8708v-158.25c0-155.28-0.0127-158.26-0.67861-159.09l-0.67861-0.83811-134.31-0.10304c-73.869-0.05667-134.98-0.0072-135.81 0.10987-0.82746 0.1171-1.746 0.45445-2.0412 0.74967-0.47704 0.47707-0.53612 15.012-0.53129 130.71 3e-3 80.516 0.13258 130.38 0.33874 130.7 0.26242 0.41506 3.3379-2.4634 14.46-13.534 13.393-13.33 14.21-14.076 15.725-14.344 2.1126-0.37386 5.296-0.2911 6.5065 0.16917 0.53458 0.20326 2.7638 2.1278 4.9538 4.2768s4.2172 3.9082 4.5049 3.9094c0.84377 4e-3 15.274-14.63 15.274-15.489 0-0.40664-1.1264-2.0798-2.5031-3.7182s-2.8963-3.6978-3.3769-4.5764c-0.48054-0.87866-1.9544-3.3567-3.2751-5.5068-3.4077-5.5475-4.9196-8.379-5.2232-9.7824-0.14506-0.6704-0.62374-1.9378-1.0637-2.8165s-0.91679-2.1567-1.0595-2.8401c-0.14274-0.6834-0.54381-1.7218-0.89126-2.3076-0.34745-0.58578-0.90479-2.0215-1.2385-3.1904-0.33374-1.169-0.84525-2.5865-1.1367-3.1501-0.29144-0.56361-0.65965-2.4029-0.81825-4.0873s-0.66349-4.101-1.122-5.3702c-0.82496-2.2836-0.83361-2.4623-0.83361-17.218 0-14.744 9e-3 -14.936 0.83146-17.215 0.45731-1.2676 0.95259-3.5042 1.1006-4.9702 0.15086-1.4938 0.58971-3.2932 0.99843-4.0938 0.4011-0.78561 0.84082-2.2234 0.97716-3.1951s0.61903-2.5707 1.0726-3.5533c0.4536-0.9826 0.94171-2.2526 1.0847-2.8223s0.71386-1.8987 1.2686-2.9534c0.55477-1.0547 1.0087-2.1854 1.0087-2.5126s0.22041-0.9101 0.48979-1.2952c0.2694-0.38515 1.3349-2.2978 2.3678-4.2504 2.8905-5.4642 7.1666-11.819 11.066-16.445 6.0205-7.143 13.963-14.309 21.14-19.073 2.2898-1.5199 4.5627-3.0316 5.0508-3.3593 0.48812-0.32769 1.6063-0.94067 2.4849-1.3622 0.87861-0.42151 2.9553-1.4803 4.6149-2.353 1.6596-0.87263 3.2745-1.5911 3.5887-1.5967 0.3142-0.0055 1.4693-0.48937 2.567-1.0751 1.0976-0.58577 2.2263-1.065 2.5081-1.065s1.7092-0.47927 3.172-1.065c1.4628-0.58577 3.0448-1.065 3.5155-1.065 0.47073 0 1.8342-0.39756 3.03-0.88347 1.246-0.50631 3.2801-0.97458 4.7648-1.0969 1.4249-0.11738 3.1066-0.37015 3.7371-0.5617 4.9829-1.5138 17.994-2.1168 26.114-1.2104 2.888 0.32241 5.6836 0.75741 6.2123 0.96668 0.52875 0.20927 2.3192 0.52165 3.9788 0.69419 2.795 0.29058 4.5238 0.74434 10.65 2.7953 1.2691 0.42488 3.1062 0.9986 4.0824 1.2749 0.97623 0.27632 2.5154 0.90271 3.4205 1.392 0.90502 0.48927 1.8635 0.89412 2.13 0.89968 0.26644 0.0055 1.8423 0.72407 3.5019 1.5967s3.7363 1.9315 4.6149 2.353c0.87861 0.42151 1.9968 1.0364 2.4849 1.3664 0.48811 0.32999 2.0856 1.3737 3.5499 2.3195 11.555 7.4622 21.066 16.8 28.512 27.992 3.5668 5.3608 7.6527 12.641 8.3946 14.957 0.24926 0.77827 0.73871 1.8943 1.0877 2.4801s0.82548 1.783 1.059 2.6606c0.23347 0.87756 0.72309 2.1809 1.088 2.8963 0.36494 0.71539 0.76031 1.9943 0.87858 2.8421 0.11828 0.84776 0.60206 2.4407 1.0751 3.5399 0.50953 1.184 0.98341 3.216 1.1628 4.986 0.16654 1.6431 0.49382 3.3445 0.72731 3.7808 0.83842 1.5667 1.4535 8.9639 1.4506 17.445-3e-3 9.1347-0.35807 13.515-1.3816 17.054-0.36707 1.2692-0.7577 3.3738-0.86805 4.6769-0.11036 1.3031-0.58595 3.3001-1.0569 4.4377s-0.95632 2.7293-1.0787 3.5372c-0.12233 0.80784-0.62121 2.3255-1.1086 3.3726-0.48741 1.0471-0.88777 2.1609-0.88967 2.4751-2e-3 0.31421-0.48271 1.4694-1.0684 2.5671-0.58573 1.0977-1.0654 2.1986-1.0658 2.4463-1e-3 0.52808-2.4272 5.3478-4.6052 9.1483-1.3894 2.4244-2.1301 3.5792-5.4651 8.5203-3.2651 4.8375-10.76 12.851-16.386 17.519-7.8135 6.4834-11.844 9.1921-18.505 12.437-1.0071 0.4906-1.9325 1.0561-2.0564 1.2567-0.12396 0.20058-1.0227 0.60149-1.9972 0.89091-0.97452 0.28942-2.2057 0.83459-2.7359 1.2115-0.53025 0.3769-1.5232 0.8515-2.2066 1.0547-0.68336 0.20316-2.201 0.77665-3.3724 1.2744-1.1715 0.49775-2.5746 0.9088-3.118 0.91343-0.54342 5e-3 -1.8078 0.42386-2.8097 0.9316-1.219 0.61774-2.7713 1.0217-4.6918 1.2211-1.5786 0.16385-3.8286 0.63817-5.0001 1.0541-4.7844 1.6985-28.864 1.6991-34.967 7.1e-4 -1.4643-0.40749-4.1276-0.88555-5.9183-1.0624-2.3086-0.22795-3.7769-0.58556-5.0468-1.2291-0.98503-0.49918-2.0491-0.9076-2.3645-0.9076s-1.6654-0.47927-3-1.065-2.7366-1.065-3.1157-1.065-1.5504-0.45539-2.6029-1.012-2.3434-1.1164-2.8686-1.244c-0.90672-0.22029-2.7944-1.2675-6.2945-3.4918-0.86327-0.54855-1.6826-0.99741-1.8207-0.99741-0.13811 0-1.189-0.55862-2.3353-1.2414-1.1463-0.68276-2.696-1.6014-3.4437-2.0413-0.74773-0.43997-2.4251-1.658-3.7274-2.7067-2.8203-2.271-3.6421-2.6895-4.7379-2.4128-0.4537 0.11454-3.9 3.2993-7.6585 7.0773-5.6544 5.6838-6.8336 7.0428-6.8336 7.8761 0 0.79531 0.73572 1.7612 3.4995 4.5944 4.8744 4.9969 5.3753 5.8218 5.3753 8.8526 0 1.5076-0.22388 2.9324-0.58672 3.734-0.64793 1.4314-67.768 68.926-68.543 68.926-0.58016 0-0.5515 0.36592 0.09569 1.2216 0.44542 0.58893 0.5212 3.9285 0.5212 22.967v22.278l0.78897 0.55265c0.70959 0.49705 10.941 0.55264 101.68 0.55264h100.9zm37.135-30.961c10.436-10.433 19.118-19.361 19.294-19.839 0.77822-2.1147 1.7079-2.0181-19.424-2.0181-19.171 0-19.308 5e-3 -19.979 0.74707-0.64471 0.71224-0.68081 1.6379-0.77389 19.847-0.0874 17.1-0.0383 19.159 0.4691 19.666 0.3117 0.31174 0.76313 0.56678 1.0032 0.56678 0.24005 0 8.9747-8.5362 19.41-18.969zm-275.89-6.2847c2.9169-1.628 82.048-80.661 82.048-81.946 0-1.2394-12.587-13.86-13.823-13.86-0.64691 0-10.129 9.2718-40.572 39.673-21.85 21.82-40.262 40.394-40.914 41.275-2.1507 2.9056-2.312 8.6023-0.32422 11.455 1.1608 1.6661 4.923 4.3754 6.4378 4.636 2.2554 0.38803 5.1314-0.10835 7.1476-1.2337zm186.96-106.65c1.6269-0.49627 4.1261-1.0383 5.5537-1.2045 1.4947-0.17401 3.4238-0.6933 4.5481-1.2243 1.0738-0.50717 2.3518-0.92362 2.8399-0.92545 0.48812-2e-3 1.9258-0.49831 3.1949-1.1033 1.2691-0.60497 3.2659-1.5557 4.4374-2.1127s2.5293-1.1176 3.0174-1.2457c0.48811-0.12811 4.0824-2.3656 7.9873-4.9723 6.6158-4.4163 7.4951-5.136 12.898-10.557 5.9183-5.9384 8.0068-8.6047 13.125-16.756 1.3485-2.1478 2.5626-4.3045 2.698-4.7927 0.13535-0.48815 0.70009-1.8461 1.255-3.0176 0.55489-1.1715 1.5055-3.1847 2.1124-4.4736 0.60697-1.289 1.1074-2.8066 1.112-3.3726 5e-3 -0.566 0.42542-1.9876 0.93509-3.1592 0.50966-1.1716 1.0398-3.1685 1.1781-4.4377s0.67599-4.3574 1.1948-6.8627c0.8257-3.9868 0.94338-5.3855 0.94338-11.212 0-5.7813-0.1205-7.2364-0.91644-11.065-0.50405-2.4249-1.0399-5.5272-1.1909-6.894-0.15093-1.3668-0.697-3.4804-1.2135-4.6969s-0.93909-2.6113-0.93909-3.0996c0-0.48832-0.4643-1.8894-1.0318-3.1134-0.94514-2.0387-3.2018-7.1625-3.7165-8.4383-0.4105-1.0176-2.9024-4.9769-6.079-9.6587-2.4298-3.5812-4.4989-6.0447-8.6399-10.287-2.9947-3.0677-6.2695-6.1948-7.2773-6.9492-4.2675-3.1942-10.158-7.24-11.95-8.208-3.5141-1.8981-4.0978-2.1741-4.6012-2.1753-0.3004-7.1e-4 -1.1053-0.3424-1.7886-0.75927-0.68336-0.41688-2.0412-1.0332-3.0174-1.3697s-2.4116-0.95334-3.1897-1.3708c-0.77809-0.41746-1.8455-0.75903-2.372-0.75903-0.52649 0-2.257-0.47927-3.8456-1.065-1.5886-0.58577-3.3966-1.0625-4.0179-1.0594-1.1323 6e-3 -5.7552-0.67379-11.069-1.6269-4.2927-0.76995-8.2123-0.62713-15.265 0.55622-3.491 0.58577-6.9513 1.065-7.6895 1.065-0.73826 0-2.6554 0.47927-4.2604 1.065-1.605 0.58577-3.2922 1.065-3.7494 1.065-0.45723 0-1.5848 0.37758-2.5057 0.83907-0.92093 0.46149-2.3134 1.0422-3.0944 1.2904s-2.073 0.8292-2.8711 1.291c-0.79814 0.46181-1.6767 0.84064-1.9525 0.84184-0.27571 1e-3 -0.98053 0.26495-1.5663 0.5861-0.58573 0.32115-1.819 0.99913-2.7406 1.5066s-4.0367 2.516-6.9223 4.4634c-4.2979 2.9004-6.2947 4.5696-11.042 9.2304-5.4685 5.3686-6.5764 6.7045-10.607 12.79-0.90527 1.3668-1.9224 2.8046-2.2602 3.1951-0.83297 0.96284-2.3373 3.5601-3.1872 5.5027-0.38441 0.87866-1.0968 2.3565-1.583 3.2841-0.48622 0.92758-0.88404 1.9036-0.88404 2.1689s-0.47924 1.3805-1.065 2.4782c-0.58574 1.0977-1.065 2.3147-1.065 2.7045 0 0.38975-0.41925 1.7906-0.93166 3.1131s-1.1436 3.7624-1.4026 5.4221-0.79823 4.4473-1.1983 6.1948c-0.62827 2.7442-0.72739 4.3773-0.72739 11.985 0 8.1938 0.0628 9.0732 0.90162 12.621 0.49589 2.0974 1.0018 4.772 1.1243 5.9436s0.59356 2.9692 1.0468 3.9949 0.92453 2.5433 1.0473 3.3726c0.12277 0.82929 0.58344 2.1468 1.0237 2.9279s0.90861 1.8194 1.0408 2.3076c0.23339 0.86198 1.5035 3.6509 3.3145 7.2778 0.48748 0.97629 2.7008 4.4909 4.9185 7.8103 3.6485 5.4609 4.5986 6.5971 9.9832 11.939 5.391 5.3487 6.5837 6.3298 12.676 10.426 3.6985 2.4872 7.2129 4.6728 7.8098 4.8569s1.884 0.71364 2.8602 1.1768c5.5496 2.6328 7.3166 3.3749 8.0542 3.3825 0.45134 5e-3 1.7791 0.42186 2.9506 0.92717 1.1715 0.5053 3.266 1.0573 4.6546 1.2267 1.3885 0.16941 3.7049 0.69497 5.1474 1.1679 2.5378 0.83205 2.9833 0.86104 13.754 0.89491 10.958 0.0345 11.177 0.021 14.089-0.8673zm-64.179-41.679c-0.91197-0.57839-2.1439-1.7223-2.7377-2.542-0.96193-1.328-1.0794-1.765-1.0782-4.011 2e-3 -3.6334 1.4362-5.7194 4.8152-7.0028 1.6798-0.638 3.6948-0.66496 49.719-0.66524 42.006-2.5e-4 48.158 0.0668 49.497 0.5392 3.6462 1.2866 5.1936 3.7418 4.8623 7.7154-0.24704 2.963-0.76512 3.9469-2.903 5.5133l-1.8016 1.3199-98.714 0.1848zm0.84445-32.413c-1.4021-0.55216-2.2698-1.2112-3.2837-2.494-1.3017-1.6469-1.378-1.8803-1.378-4.2143 0-2.8638 0.4493-3.9268 2.4074-5.696 2.903-2.6228-1.0356-2.4484 52.849-2.3398l48.334 0.0975 2.0716 1.424c1.1394 0.78321 2.2849 1.8691 2.5456 2.413 0.61175 1.2764 0.93418 4.4294 0.62275 6.0896-0.35093 1.8707-2.3534 3.92-4.6818 4.7912-1.9176 0.71753-2.4449 0.72497-49.76 0.70219-47.816-0.023-47.822-0.0231-49.727-0.7735zm-0.85021-33.978c-0.9088-0.57638-2.1382-1.7186-2.7319-2.5384-0.96481-1.332-1.0796-1.7621-1.0796-4.0465 0-2.2508 0.12099-2.7214 1.013-3.9406 1.4199-1.9407 2.1016-2.452 4.1633-3.1227 1.6062-0.5225 3.9983-0.57612 21.832-0.48938l20.028 0.0974 1.7726 0.88753c4.7493 2.378 5.5436 8.9193 1.4816 12.201-0.81355 0.65735-1.8281 1.3761-2.2546 1.5971-0.55156 0.28592-6.808 0.40195-21.674 0.40195h-20.898zm62.637-0.20383c-1.3919-0.94686-2.0768-1.7196-2.61-2.9448-1.2242-2.8132-1.2264-3.994-0.0122-6.589 0.95781-2.0469 1.2957-2.4204 2.9725-3.286 1.608-0.83007 2.433-0.99876 5.4987-1.1244 4.2617-0.17459 6.7214 0.45281 8.5939 2.1921 1.5823 1.4697 2.1765 2.9576 2.1758 5.4484-7.1e-4 2.5905-0.7355 4.0617-2.9631 5.9325l-1.7211 1.4455-10.047 0.20941-1.8871-1.2837z" fill="#5782a8"/>
    <path d="m90.118 421.7c-1.7506-0.9065-2.9343-1.9616-3.5689-3.181-0.39157-0.75249-0.49276-5.0413-0.52992-22.459l-0.04593-21.529 3.3835-3.6342c5.4157-5.817 9.3699-9.5886 9.7844-9.3325 0.26874 0.16611 0.38404 6.8806 0.38404 22.365 0 21.258 0.0267 22.161 0.67861 22.966l0.67861 0.83811 101.34 0.0906c99.473 0.0889 101.36 0.078 102.18-0.59099l0.84032-0.68159v-61.655l0.98138-1.8622c0.62154-1.1794 1.5231-2.2208 2.4588-2.8401l1.4774-0.97791 63.044-0.35501 0.80845-0.80864 0.80846-0.80864 0.0899-158.82c0.0883-156.01 0.0779-158.83-0.58986-159.66l-0.67979-0.83956-272.37-0.18024-0.87459 0.87465-0.8746 0.87465 0.0114 262.2-6.4717 6.4792c-3.5594 3.5636-6.5969 6.354-6.7499 6.201s-0.2377-64.842-0.18817-143.75l0.09003-143.48 1.1705-1.2077c0.64377-0.66424 1.8594-1.5518 2.7013-1.9723l1.5308-0.76458 291.37 0.01658 1.7458 0.96799c0.96017 0.5324 2.2381 1.5819 2.8399 2.3322l1.0942 1.3642 0.0898 169.87c0.0834 157.61 0.0473 169.97-0.49918 171.17-0.38056 0.83884-12.979 13.718-35.589 36.383-29.312 29.382-35.33 35.253-37.031 36.123l-2.0311 1.0384-222.07-0.0312-1.42-0.7353zm233.65-27.517c0.50905-0.66508 27.525-27.842 32.933-33.13 4.6442-4.5405 5.788-6.4246 4.6134-7.5993-0.50937-0.50941-2.6423-0.56993-20.085-0.56993h-19.515l-0.8429 0.84296c-0.50532 0.50535-0.93387 1.4651-1.07 2.3963-0.12491 0.85438-0.17764 9.6753-0.11718 19.602l0.10992 18.049 0.86504 0.70027c0.96539 0.78149 2.3899 0.64804 3.1089-0.29126zm-133.28-173.01c-1.6317-0.37804-3.4842-1.7192-4.6187-3.3439-0.80552-1.1535-0.97046-1.7668-0.97046-3.6083 0-1.8915 0.15799-2.4456 1.0716-3.758 0.58938-0.84667 1.7076-1.8589 2.4849-2.2494 1.393-0.6998 2.1211-0.71002 50.58-0.71002h49.166l1.42 0.8228c2.4372 1.4123 2.8399 2.2607 2.8399 5.9829 0 3.6325-0.20192 4.0235-3.1232 6.048l-1.431 0.99175-48.132 0.0459c-26.472 0.0253-48.652-0.0745-49.287-0.22181zm-1.4009-33.41c-5.6837-2.1852-5.686-9.8299-4e-3 -12.668l1.588-0.79312 97.53 0.185 1.8544 1.3579c2.1135 1.5476 2.5779 2.6512 2.581 6.1336 2e-3 2.8029-0.9002 4.2263-3.5232 5.5552l-1.927 0.97629-48.126-0.0185c-47.249-0.0182-48.16-0.0315-49.973-0.72843zm0.81999-33.141c-1.9161-0.69292-4.4041-3.2241-4.87-4.9546-0.55419-2.0582-0.10859-4.1737 1.2555-5.9603 2.12-2.7766 2.0551-2.7693 24.627-2.7693 18.652 0 19.657 0.033 21.446 0.7047 1.2437 0.46694 2.2363 1.1557 2.942 2.0413 0.98793 1.2399 1.065 1.5471 1.065 4.2458 0 2.8432-0.0282 2.9383-1.2425 4.1948-0.68336 0.70713-1.8016 1.6346-2.4849 2.061-1.235 0.77069-1.3633 0.77584-21.299 0.85573-16.501 0.0661-20.302-8e-3 -21.439-0.41923zm63.217 0.15569c-1.808-0.54278-3.9265-2.6045-4.5962-4.473-0.34185-0.95375-0.61919-2.1335-0.61632-2.6216 7e-3 -1.1313 1.4662-4.2581 2.3442-5.0219 1.234-1.0736 3.9412-1.7235 7.1626-1.7195 4.8502 6e-3 7.4932 1.0916 8.8074 3.6174 0.64618 1.242 0.64802 5.3558 3e-3 6.603-0.64742 1.2518-3.1368 3.2377-4.5761 3.6505-1.3924 0.39935-7.1606 0.37574-8.5284-0.0349z" fill="#282424"/>
   </g>
  </g>
 </g>
</svg>
