<?xml version="1.0" encoding="UTF-8"?>
<svg id="svg" width="400" height="281.41" version="1.1" viewBox="0 0 400 281.41" xmlns="http://www.w3.org/2000/svg" xmlns:cc="http://creativecommons.org/ns#" xmlns:dc="http://purl.org/dc/elements/1.1/" xmlns:rdf="http://www.w3.org/1999/02/22-rdf-syntax-ns#">
 <metadata>
  <rdf:RDF>
   <cc:Work rdf:about="">
    <dc:format>image/svg+xml</dc:format>
    <dc:type rdf:resource="http://purl.org/dc/dcmitype/StillImage"/>
    <dc:title/>
   </cc:Work>
  </rdf:RDF>
 </metadata>
 <g id="svgg" fill="#fff" fill-rule="evenodd">
  <path d="m60.099 0.371c-0.31 0.219-0.88 0.494-1.267 0.612s-0.894 0.385-1.126 0.595c-1.628 1.466-2.663 2.622-2.997 3.348-0.214 0.465-0.499 1.035-0.632 1.267-1.227 2.137-1.778 11.821-0.899 15.82 0.146 0.666 0.348 3.87 0.449 7.121 0.108 3.504 0.346 6.58 0.583 7.553 0.257 1.057 0.404 3.261 0.412 6.193 7e-3 2.503 0.136 5.501 0.288 6.663 0.152 1.161 0.397 4.011 0.544 6.333 0.149 2.351 0.453 4.722 0.685 5.348 0.229 0.62 0.422 1.447 0.429 1.838 6e-3 0.391 0.183 0.961 0.392 1.267 0.209 0.305 0.458 0.872 0.553 1.259s0.498 1.02 0.896 1.407 0.937 0.925 1.198 1.196c0.262 0.271 0.733 0.497 1.047 0.502s0.816 0.195 1.117 0.422c0.737 0.558 3.352 0.552 3.817-9e-3 0.192-0.232 0.62-0.422 0.949-0.422 1.299-1e-3 4.117-3.44 4.117-5.023 0-0.299 0.19-0.905 0.421-1.349 0.252-0.482 0.421-1.572 0.422-2.716 1e-3 -1.168 0.157-2.152 0.402-2.533 0.275-0.428 0.495-2.256 0.701-5.831 0.166-2.865 0.423-6.095 0.571-7.179 0.148-1.083 0.28-3.3 0.294-4.926 0.013-1.625 0.205-3.779 0.427-4.785 0.248-1.128 0.406-3.479 0.412-6.132 8e-3 -3.53 0.094-4.432 0.479-5.019 0.723-1.104 0.743-11.902 0.023-12.698-0.345-0.382-0.492-1.014-0.492-2.118 0-0.865-0.182-1.932-0.405-2.37-0.223-0.439-0.552-1.201-0.731-1.694-0.417-1.151-2.177-3.047-3.087-3.326-0.387-0.119-0.793-0.358-0.904-0.53-0.325-0.51-8.382-0.584-9.088-0.084m137.36 0.013c-0.306 0.212-0.872 0.481-1.259 0.599s-0.894 0.392-1.126 0.61c-0.232 0.217-0.748 0.676-1.145 1.02-1.229 1.061-2.509 2.915-2.695 3.904-0.098 0.518-0.383 1.178-0.632 1.467-0.645 0.744-0.585 13.711 0.081 17.562 0.256 1.483 0.456 4.269 0.464 6.474 8e-3 2.129 0.138 4.757 0.289 5.841 0.15 1.083 0.39 4.736 0.533 8.117s0.387 6.801 0.541 7.6c0.155 0.8 0.363 2.657 0.463 4.128 0.101 1.471 0.361 3.042 0.579 3.491 0.218 0.45 0.396 1.289 0.396 1.866s0.175 1.193 0.388 1.37c0.214 0.178 0.459 0.677 0.546 1.111 0.199 0.995 2.314 3.137 3.11 3.149 0.33 5e-3 0.846 0.195 1.147 0.422 0.705 0.534 2.987 0.534 3.692 0 0.301-0.227 0.804-0.417 1.118-0.422 1.296-0.02 4.074-3.77 4.074-5.499 0-0.397 0.189-1.012 0.421-1.367 0.287-0.437 0.48-1.766 0.602-4.142 0.099-1.924 0.314-3.667 0.478-3.875s0.382-2.536 0.486-5.207c0.104-2.657 0.33-5.338 0.501-5.957 0.172-0.619 0.316-2.848 0.32-4.953 4e-3 -2.677 0.124-4.073 0.398-4.645 0.252-0.525 0.46-2.422 0.584-5.308 0.106-2.47 0.314-4.72 0.464-4.999 0.774-1.447-0.185-15.688-1.12-16.622-0.176-0.176-0.32-0.551-0.32-0.833 0-1.309-1.92-3.491-4.034-4.583-1.63-0.842-8.261-1.068-9.344-0.319m137.45-0.19c-0.271 0.071-0.493 0.246-0.493 0.39 0 0.143-0.242 0.26-0.537 0.26-1.322 0-5.374 4.328-5.374 5.74 0 0.26-0.222 0.812-0.493 1.226-0.572 0.876-0.608 13.823-0.049 17.806 0.163 1.161 0.406 4.921 0.54 8.355 0.134 3.435 0.379 6.498 0.545 6.808s0.315 2.247 0.331 4.312c0.048 5.955 0.943 15.72 1.548 16.894 0.216 0.418 0.393 1.072 0.393 1.454 0 1.792 2.657 5.233 4.057 5.254 0.323 5e-3 0.833 0.195 1.134 0.422 0.705 0.534 2.987 0.534 3.693 0 0.3-0.227 0.748-0.417 0.995-0.422 0.849-0.017 3.009-2.073 3.262-3.105 0.095-0.387 0.344-0.954 0.553-1.259 0.209-0.306 0.381-0.992 0.381-1.526s0.202-1.195 0.45-1.469c0.328-0.363 0.516-1.441 0.69-3.963 0.132-1.906 0.366-4.352 0.52-5.436 0.155-1.083 0.288-3.433 0.296-5.221 9e-3 -2.021 0.134-3.372 0.332-3.569 0.198-0.199 0.368-2.047 0.45-4.913 0.082-2.836 0.285-5.058 0.53-5.808 1.098-3.36 1.102-24.416 5e-3 -25.628-0.252-0.279-0.459-0.799-0.459-1.155 0-1.526-2.022-3.951-4.124-4.945-1.42-0.672-7.296-0.993-9.176-0.502m-273.95 77.476c-0.088 0.143-0.561 0.348-1.052 0.456-4.735 1.04-8.834 9.605-6.595 13.781 0.249 0.465 0.453 1.02 0.454 1.234 5e-3 1.108 3.284 4.818 4.26 4.818 0.252 0 0.616 0.19 0.809 0.422 0.193 0.233 0.683 0.427 1.09 0.432s0.985 0.195 1.286 0.422c0.376 0.284 1.258 0.413 2.831 0.413 1.574 0 2.456-0.129 2.832-0.413 0.3-0.227 0.866-0.417 1.256-0.422 1.861-0.024 6.187-4.175 6.187-5.937 0-0.418 0.172-0.902 0.382-1.076 0.802-0.666 0.747-6.179-0.065-6.449-0.174-0.058-0.317-0.458-0.317-0.889s-0.253-1.105-0.563-1.499c-0.31-0.393-0.563-0.814-0.563-0.934 0-0.393-2.802-2.93-3.236-2.93-0.233 0-0.423-0.125-0.423-0.277 0-0.153-0.573-0.422-1.272-0.598s-1.34-0.431-1.424-0.567c-0.204-0.33-5.672-0.318-5.877 0.013m136.93 0.186c-0.387 0.215-0.91 0.392-1.162 0.395-0.252 2e-3 -0.616 0.194-0.809 0.426-0.192 0.232-0.493 0.426-0.667 0.431-0.741 0.021-4.118 3.852-4.118 4.671 0 0.224-0.222 0.745-0.493 1.159-0.681 1.042-0.714 6.371-0.044 7.404 0.246 0.38 0.531 1.028 0.632 1.44 0.22 0.891 3.37 4.177 4.005 4.177 0.244 0 0.634 0.19 0.866 0.422 0.233 0.233 0.778 0.423 1.212 0.423 0.435 0 0.948 0.19 1.141 0.422 0.49 0.591 5.008 0.598 5.787 9e-3 0.3-0.227 0.887-0.417 1.304-0.422 0.416-5e-3 0.837-0.138 0.934-0.295s0.58-0.455 1.072-0.662c1.682-0.707 3.831-3.457 4.261-5.453 0.108-0.501 0.314-0.984 0.457-1.072 0.426-0.264 0.294-4.958-0.163-5.757-0.221-0.388-0.407-0.963-0.412-1.28-6e-3 -0.317-0.2-0.824-0.432-1.126-0.231-0.303-0.81-1.054-1.286-1.669-1.042-1.348-3.502-3.107-4.72-3.375-0.487-0.107-0.957-0.311-1.045-0.454-0.258-0.417-5.511-0.263-6.32 0.186m137.09 0.025c-2.489 1.099-3.039 1.463-4.565 3.022-0.895 0.914-1.627 1.803-1.627 1.974 0 0.172-0.278 0.817-0.617 1.434-0.993 1.809-0.914 6.717 0.145 8.937 0.785 1.647 3.545 4.711 4.243 4.711 0.21 0 0.54 0.19 0.732 0.422 0.193 0.233 0.763 0.423 1.267 0.423s1.074 0.19 1.267 0.422c0.263 0.316 0.968 0.422 2.815 0.422s2.552-0.106 2.815-0.422c0.192-0.232 0.647-0.422 1.011-0.422 1.512 0 5.118-2.692 5.588-4.172 0.107-0.337 0.303-0.614 0.435-0.614 1.38 0 1.326-9.073-0.066-11.058-1.444-2.06-4.507-4.696-5.479-4.715-0.277-6e-3 -0.821-0.191-1.208-0.412-0.983-0.563-5.444-0.531-6.756 0.048m-6.714 52.158c-0.829 0.131-1.646 0.376-1.816 0.546s-0.921 0.309-1.669 0.309-1.815 0.19-2.37 0.422c-0.556 0.232-1.219 0.422-1.473 0.422-0.255 0-0.935 0.254-1.513 0.563-0.578 0.31-1.289 0.563-1.58 0.563s-0.687 0.19-0.88 0.422c-0.193 0.233-0.557 0.431-0.809 0.441-0.252 0.011-1.091 0.39-1.865 0.843-0.774 0.452-1.661 0.956-1.971 1.119-1.787 0.939-4.83 3.034-5.766 3.97-0.443 0.443-0.859 0.805-0.923 0.805-0.436 0-5.418 5.365-6.54 7.043-0.464 0.694-0.91 1.325-0.992 1.402-0.144 0.138-0.971 1.369-1.539 2.294-0.776 1.262-1.833 3.424-1.833 3.747 0 0.201-0.182 0.516-0.404 0.7s-0.492 0.738-0.599 1.231c-0.107 0.492-0.369 1.145-0.581 1.45-0.213 0.306-0.39 0.939-0.395 1.408s-0.195 1.098-0.423 1.399c-0.227 0.3-0.414 0.87-0.415 1.266s-0.203 1.101-0.45 1.565c-0.288 0.544-0.501 1.895-0.597 3.8-0.083 1.626-0.292 3.134-0.465 3.351-0.438 0.549-0.4 5.545 0.046 5.99 0.209 0.209 0.342 1.181 0.342 2.501 0 1.384 0.202 2.792 0.563 3.922 0.31 0.969 0.563 1.975 0.563 2.235 0 0.259 0.186 0.718 0.413 1.018 0.228 0.301 0.418 0.934 0.423 1.408 5e-3 0.473 0.195 1.107 0.422 1.407 0.227 0.301 0.417 0.762 0.422 1.026s0.538 1.467 1.185 2.674 1.421 2.67 1.719 3.251c0.298 0.58 0.655 1.055 0.794 1.055s0.252 0.175 0.252 0.389c0 0.416 3.433 4.989 5.067 6.748 2.36 2.543 8.42 6.963 11.606 8.465 0.887 0.418 1.68 0.869 1.762 1.002 0.083 0.134 0.56 0.332 1.061 0.441 0.502 0.109 1.162 0.372 1.467 0.585 0.306 0.212 0.876 0.39 1.267 0.395s0.957 0.195 1.258 0.422c0.3 0.227 0.845 0.413 1.21 0.413s1.014 0.181 1.442 0.402c1.45 0.75 10.017 1.538 13.41 1.232 6.357-0.571 8.816-1.04 10.93-2.085 0.438-0.216 1.075-0.393 1.415-0.393s0.869-0.174 1.174-0.386c0.305-0.213 0.965-0.476 1.467-0.585 0.501-0.109 0.979-0.307 1.061-0.441 0.082-0.133 0.939-0.621 1.903-1.083 1.712-0.822 5.282-3.013 6.109-3.749 0.227-0.202 1.05-0.856 1.829-1.453 1.425-1.092 5.779-5.487 5.779-5.834 0-0.102 0.38-0.615 0.844-1.139 1.263-1.426 3.097-4.153 3.097-4.605 0-0.218 0.123-0.472 0.272-0.565 0.35-0.216 1.699-2.893 1.699-3.372 0-0.2 0.19-0.522 0.422-0.715s0.422-0.636 0.422-0.985 0.187-0.79 0.415-0.979c0.228-0.19 0.493-0.807 0.588-1.372s0.352-1.426 0.57-1.914c0.219-0.488 0.402-1.438 0.407-2.111 5e-3 -0.674 0.195-1.47 0.422-1.771 0.291-0.384 0.416-1.303 0.423-3.096 7e-3 -1.678 0.148-2.791 0.412-3.254 0.516-0.901 0.512-2.921-8e-3 -4.363-0.227-0.63-0.412-2.181-0.42-3.519-9e-3 -1.534-0.158-2.645-0.416-3.096-0.221-0.387-0.407-1.185-0.412-1.774-6e-3 -0.588-0.183-1.411-0.395-1.829s-0.468-1.223-0.57-1.788c-0.103-0.565-0.373-1.182-0.601-1.371-0.228-0.19-0.415-0.597-0.415-0.905 0-0.309-0.443-1.508-0.985-2.665s-0.985-2.213-0.985-2.346c0-0.134-0.159-0.344-0.352-0.468-0.194-0.124-0.666-0.827-1.05-1.562-0.384-0.736-0.783-1.337-0.888-1.337s-0.542-0.602-0.972-1.337c-0.43-0.736-1.36-1.95-2.067-2.699-2.995-3.171-5.298-5.374-6.34-6.064-0.611-0.406-1.435-1.04-1.829-1.408-0.395-0.369-1.098-0.848-1.562-1.065-0.465-0.217-1.225-0.632-1.689-0.923-1.388-0.869-3.551-1.986-3.846-1.986-0.152 0-0.466-0.19-0.698-0.423-0.232-0.232-0.667-0.422-0.966-0.422s-1.017-0.253-1.595-0.563c-0.577-0.309-1.311-0.563-1.631-0.563s-0.715-0.134-0.879-0.297c-0.164-0.164-1.044-0.366-1.956-0.449-0.913-0.083-2.102-0.351-2.644-0.595-1.137-0.514-11.655-0.776-14.315-0.358m-132.5 2.244c-0.318 0.133-1.585 0.331-2.815 0.44-1.229 0.11-2.516 0.376-2.859 0.592-0.343 0.217-1.039 0.394-1.548 0.395s-1.264 0.179-1.68 0.396c-0.415 0.217-1.168 0.485-1.673 0.596s-1.092 0.376-1.306 0.589c-0.213 0.214-0.616 0.388-0.896 0.388s-0.666 0.19-0.859 0.422c-0.192 0.233-0.626 0.423-0.963 0.423s-0.747 0.133-0.91 0.297c-0.357 0.356-1.911 1.235-2.982 1.684-0.426 0.179-0.775 0.44-0.775 0.58 0 0.139-0.17 0.253-0.378 0.253s-0.608 0.254-0.888 0.563c-0.281 0.31-0.674 0.563-0.874 0.563-0.201 0-0.466 0.163-0.59 0.362s-0.829 0.85-1.568 1.446c-2.16 1.744-7.233 7.104-7.239 7.649-2e-3 0.17-0.257 0.538-0.567 0.818-0.309 0.28-0.563 0.68-0.563 0.888s-0.124 0.379-0.276 0.379-0.353 0.307-0.447 0.683c-0.095 0.375-0.414 0.902-0.709 1.169-0.296 0.268-0.538 0.705-0.538 0.972 0 0.266-0.19 0.642-0.422 0.835-0.233 0.193-0.423 0.588-0.423 0.879s-0.111 0.528-0.247 0.528-0.404 0.412-0.596 0.915-0.524 1.314-0.738 1.802-0.389 1.012-0.389 1.164c0 0.153-0.189 0.64-0.421 1.084-0.231 0.443-0.421 1.239-0.422 1.769s-0.206 1.189-0.455 1.464c-0.282 0.312-0.509 1.226-0.6 2.415-0.08 1.053-0.288 2.092-0.461 2.309-0.21 0.264-0.315 2.381-0.315 6.361s0.105 6.097 0.315 6.36c0.173 0.218 0.38 1.25 0.46 2.295s0.35 2.213 0.6 2.594c0.25 0.382 0.454 1.118 0.454 1.636 0 0.517 0.186 1.187 0.414 1.487 0.227 0.301 0.418 0.737 0.423 0.969 0.012 0.496 1.188 3.451 1.589 3.991 0.151 0.205 0.633 1.1 1.07 1.991 0.437 0.89 0.891 1.618 1.009 1.618s0.295 0.222 0.393 0.493c0.329 0.909 1.462 2.68 2.282 3.565 0.155 0.168 0.852 0.995 1.548 1.839 1.393 1.688 4.466 4.798 4.747 4.804 0.098 2e-3 0.748 0.524 1.445 1.16 0.696 0.636 1.678 1.333 2.181 1.548 0.503 0.216 0.915 0.487 0.915 0.603 0 0.209 0.258 0.374 1.851 1.186 0.453 0.23 0.99 0.578 1.195 0.774 0.205 0.195 0.616 0.355 0.915 0.355s0.543 0.096 0.543 0.213c0 0.211 2.533 1.467 2.995 1.485 0.133 6e-3 0.749 0.255 1.368 0.554s1.391 0.548 1.716 0.553 0.958 0.188 1.407 0.406c0.45 0.217 1.515 0.48 2.366 0.583 0.852 0.103 1.964 0.376 2.473 0.607 1.172 0.532 14.631 0.46 15.289-0.081 0.217-0.179 1.154-0.414 2.083-0.523 0.929-0.108 1.97-0.374 2.313-0.59s0.983-0.392 1.424-0.392c0.44 0 1.046-0.186 1.347-0.414 0.3-0.227 0.722-0.417 0.937-0.422 0.356-8e-3 2.365-0.855 3.409-1.437 0.232-0.129 1.214-0.631 2.182-1.116 0.967-0.484 1.759-0.982 1.759-1.106s0.222-0.305 0.493-0.403c0.809-0.293 1.742-0.895 2.714-1.753 0.504-0.445 1.413-1.154 2.021-1.575 1.689-1.171 6.757-6.608 7.129-7.648 0.061-0.172 0.283-0.413 0.492-0.537 0.21-0.124 0.381-0.347 0.381-0.496 0-0.148 0.444-0.901 0.985-1.672 0.542-0.771 0.986-1.585 0.986-1.81s0.126-0.487 0.28-0.582c0.155-0.095 0.613-0.895 1.018-1.776 0.406-0.881 0.913-1.939 1.127-2.349 0.214-0.411 0.394-0.918 0.399-1.126 5e-3 -0.209 0.254-0.886 0.554-1.505 0.299-0.62 0.548-1.397 0.553-1.727 5e-3 -0.331 0.199-0.964 0.43-1.408 0.231-0.443 0.421-1.457 0.422-2.252s0.191-1.808 0.422-2.252c0.613-1.173 0.613-11.98 0-13.153-0.231-0.444-0.421-1.457-0.422-2.252s-0.191-1.809-0.422-2.252c-0.231-0.444-0.42-1.109-0.42-1.479s-0.254-1.145-0.563-1.723c-0.31-0.578-0.563-1.322-0.563-1.654 0-0.331-0.19-0.76-0.423-0.953-0.232-0.193-0.422-0.643-0.422-1s-0.19-0.839-0.422-1.071-0.422-0.602-0.422-0.822c0-0.219-0.254-0.691-0.563-1.048-0.31-0.357-0.563-0.816-0.563-1.019 0-0.204-0.539-1.141-1.197-2.082-0.658-0.942-1.323-1.927-1.478-2.191-1.363-2.319-8.557-9.467-10.063-9.998-0.271-0.096-0.492-0.284-0.492-0.419 0-0.134-0.697-0.596-1.549-1.027-0.851-0.431-1.548-0.885-1.548-1.009s-0.371-0.307-0.825-0.407-0.976-0.363-1.16-0.585c-0.185-0.223-0.623-0.404-0.975-0.404-0.351 0-0.712-0.19-0.801-0.423-0.089-0.232-0.467-0.422-0.84-0.422s-0.825-0.177-1.004-0.393c-0.18-0.216-0.79-0.48-1.357-0.586-0.568-0.106-1.288-0.373-1.601-0.592-0.314-0.22-1.086-0.399-1.718-0.399-0.631 0-1.301-0.153-1.488-0.34-0.817-0.818-13.575-1.733-15.13-1.086m-135.12 0.994c-0.346 0.262-1.218 0.418-2.376 0.424-1.055 7e-3 -2.171 0.189-2.636 0.432-0.444 0.231-1.077 0.424-1.408 0.43-0.33 5e-3 -1.107 0.254-1.727 0.553-0.619 0.299-1.323 0.548-1.565 0.554-0.241 5e-3 -0.684 0.195-0.985 0.422-0.3 0.228-0.8 0.419-1.109 0.424-0.31 6e-3 -0.943 0.263-1.408 0.571-0.464 0.307-1.066 0.56-1.337 0.561s-0.492 0.131-0.492 0.29-0.337 0.416-0.748 0.573c-0.411 0.156-1.304 0.66-1.985 1.119-0.68 0.459-1.329 0.834-1.441 0.834-0.113 0-0.414 0.222-0.67 0.493-0.555 0.588-0.932 0.883-2.053 1.603-2.209 1.419-8.73 8.81-9.267 10.501-0.11 0.349-0.307 0.634-0.437 0.634-0.129 0-0.834 1.206-1.566 2.68s-1.43 2.742-1.553 2.818-0.308 0.525-0.412 0.998-0.366 1.2-0.583 1.615c-0.216 0.416-0.395 1.012-0.395 1.326-1e-3 0.314-0.174 0.821-0.384 1.126-0.21 0.306-0.471 1.249-0.581 2.097-0.11 0.847-0.35 1.722-0.533 1.943-0.463 0.557-0.475 16.944-0.014 17.514 0.177 0.217 0.41 1.092 0.52 1.943 0.109 0.852 0.377 1.829 0.594 2.172 0.218 0.343 0.396 0.945 0.396 1.338s0.253 1.187 0.563 1.765c0.309 0.578 0.563 1.258 0.563 1.513 0 0.254 0.19 0.62 0.422 0.812 0.232 0.193 0.422 0.538 0.422 0.766 0 0.377 2.953 5.654 3.352 5.99 0.301 0.254 1.434 1.943 1.434 2.138 0 0.105 0.285 0.47 0.633 0.811 0.348 0.342 1.532 1.56 2.63 2.707 3.499 3.654 10.226 8.7 11.6 8.7 0.148 0 0.426 0.19 0.619 0.423 0.192 0.232 0.558 0.422 0.812 0.422 0.255 0 0.935 0.253 1.513 0.563 0.578 0.309 1.289 0.563 1.58 0.563s0.673 0.172 0.848 0.383 0.972 0.461 1.772 0.556c0.8 0.094 1.548 0.322 1.661 0.506 0.114 0.184 0.947 0.387 1.851 0.453 0.905 0.065 2.162 0.307 2.794 0.538 1.504 0.549 13.389 0.452 13.953-0.114 0.194-0.194 1.052-0.356 1.914-0.361 0.95-6e-3 2.003-0.223 2.688-0.554 0.619-0.299 1.45-0.548 1.846-0.553 0.396-6e-3 0.966-0.196 1.267-0.423s0.78-0.417 1.066-0.422 0.856-0.194 1.267-0.419 1.444-0.74 2.295-1.145c0.852-0.404 2.055-1.036 2.674-1.405s1.38-0.79 1.689-0.935c0.31-0.146 0.885-0.564 1.277-0.93 0.393-0.365 1.027-0.81 1.408-0.988 2.515-1.172 10.583-10.169 11.363-12.669 0.104-0.334 0.374-0.679 0.6-0.766 0.227-0.086 0.412-0.395 0.412-0.686s0.253-0.821 0.563-1.178 0.567-0.852 0.572-1.099 0.195-0.695 0.422-0.996c0.227-0.3 0.413-0.823 0.413-1.162 0-0.338 0.187-0.77 0.415-0.959 0.228-0.19 0.5-0.795 0.603-1.346 0.103-0.55 0.359-1.329 0.569-1.731 0.209-0.401 0.381-1.273 0.382-1.936s0.184-1.487 0.406-1.83c1.08-1.667 1.068-16.802-0.014-18.347-0.215-0.307-0.391-1.068-0.392-1.691-1e-3 -0.624-0.186-1.488-0.412-1.92-0.225-0.432-0.491-1.219-0.59-1.749-0.1-0.53-0.358-1.11-0.574-1.29-0.216-0.179-0.393-0.512-0.393-0.74s-0.175-0.751-0.389-1.162c-0.215-0.411-0.753-1.491-1.197-2.399-1.162-2.38-1.558-3.081-1.98-3.503-0.206-0.206-0.374-0.501-0.374-0.656 0-1.088-6.903-8.674-9.571-10.518-0.852-0.588-1.65-1.24-1.774-1.449-0.123-0.208-0.334-0.379-0.468-0.379-0.133 0-0.916-0.443-1.738-0.985-0.823-0.542-1.721-0.985-1.995-0.985-0.275 0-0.5-0.109-0.5-0.242 0-0.309-2.717-1.726-3.333-1.737-0.257-5e-3 -0.713-0.195-1.013-0.423-0.301-0.227-0.744-0.417-0.985-0.422-0.242-6e-3 -0.946-0.255-1.565-0.554s-1.397-0.548-1.727-0.553c-0.331-6e-3 -0.964-0.199-1.408-0.43-0.443-0.232-1.52-0.422-2.392-0.423-0.873-1e-3 -1.95-0.191-2.393-0.422-1.165-0.607-11-0.616-11.801-0.011m279.36 9.727c1.143 0.148 2.233 0.397 2.421 0.554 0.188 0.156 0.93 0.364 1.648 0.463 0.718 0.098 1.449 0.352 1.624 0.563 0.176 0.211 0.684 0.384 1.129 0.384 0.446 0 0.811 0.115 0.811 0.256 0 0.14 0.731 0.615 1.626 1.055 3.805 1.873 11.322 8.64 11.322 10.194 0 0.159 0.158 0.391 0.352 0.515 0.425 0.272 2.463 4.16 2.463 4.7 0 0.21 0.19 0.54 0.422 0.733 0.233 0.193 0.423 0.691 0.423 1.106 0 0.416 0.186 1.003 0.413 1.303 0.227 0.301 0.417 0.939 0.422 1.419 0.011 1.071 0.536 2.646 0.881 2.646 0.142 0 0.254 2.243 0.254 5.067s-0.112 5.067-0.254 5.067c-0.345 0-0.87 1.575-0.881 2.646-5e-3 0.48-0.195 1.118-0.422 1.419-0.227 0.3-0.413 0.765-0.413 1.033 0 0.267-0.179 0.845-0.398 1.283-0.218 0.438-0.749 1.543-1.18 2.455-0.43 0.913-1.074 2.09-1.432 2.617-0.357 0.527-0.65 1.047-0.651 1.156-1e-3 0.189-0.754 1.063-3.083 3.577-2.455 2.651-6.192 5.532-8.246 6.358-0.426 0.172-0.774 0.426-0.774 0.566 0 0.139-0.222 0.258-0.493 0.263s-0.999 0.255-1.618 0.554-1.332 0.548-1.584 0.553-0.616 0.2-0.809 0.432c-0.202 0.243-0.816 0.422-1.451 0.422-0.605 0-1.555 0.19-2.111 0.422-1.245 0.521-10.766 0.62-11.268 0.117-0.168-0.168-1.079-0.375-2.025-0.461-0.945-0.086-1.862-0.328-2.037-0.539s-0.524-0.388-0.776-0.393-0.965-0.254-1.585-0.553c-0.619-0.299-1.347-0.549-1.618-0.554s-0.493-0.127-0.493-0.272c0-0.144-0.257-0.344-0.571-0.444-0.314-0.099-1.232-0.613-2.041-1.141-2.142-1.4-2.439-1.612-3.129-2.234-0.343-0.31-1.06-0.945-1.593-1.412-2.1-1.841-6.459-7.525-6.459-8.423 0-0.204-0.19-0.528-0.422-0.721s-0.422-0.558-0.422-0.813c0-0.254-0.254-0.935-0.563-1.512-0.31-0.578-0.564-1.273-0.565-1.544-1e-3 -0.272-0.17-0.817-0.376-1.212-0.206-0.394-0.46-1.529-0.563-2.521-0.104-0.992-0.315-1.929-0.468-2.083-0.356-0.356-0.371-7.634-0.018-8.295 0.145-0.27 0.384-1.306 0.532-2.304 0.265-1.787 0.606-2.968 1.335-4.628 0.204-0.464 0.657-1.541 1.006-2.393 0.349-0.851 0.717-1.611 0.818-1.689 0.1-0.077 0.36-0.468 0.578-0.869 1.422-2.621 5.551-7.371 7.562-8.701 0.351-0.233 1.162-0.806 1.803-1.274 0.64-0.468 1.895-1.213 2.788-1.655 0.894-0.442 1.693-0.914 1.776-1.049 0.083-0.134 0.432-0.245 0.776-0.245 0.343 0 0.874-0.172 1.18-0.382 0.305-0.21 1.062-0.475 1.681-0.588s1.259-0.316 1.421-0.45c0.862-0.712 9.36-1.059 13.325-0.544m-133.7 2.362c0.182 0.219 0.969 0.486 1.749 0.593 0.781 0.107 1.756 0.371 2.168 0.586 0.411 0.215 1.002 0.395 1.311 0.401 0.31 6e-3 0.809 0.197 1.11 0.424 0.3 0.227 0.775 0.413 1.055 0.413s0.509 0.118 0.509 0.261c0 0.144 0.716 0.6 1.591 1.014 0.874 0.413 1.729 0.864 1.9 1 0.17 0.137 1.26 1.002 2.421 1.923 3.85 3.055 6.673 6.601 8.725 10.961 0.485 1.029 1.063 2.23 1.286 2.668 0.222 0.439 0.404 1.11 0.404 1.492s0.189 1.06 0.419 1.506c1.088 2.104 1.073 14.046-0.02 15.606-0.22 0.314-0.399 0.912-0.399 1.329s-0.184 1.118-0.408 1.556-0.477 0.987-0.561 1.219c-0.085 0.232-0.26 0.612-0.389 0.845-0.13 0.232-0.425 0.802-0.655 1.266-1.018 2.056-1.814 3.395-2.139 3.603-0.194 0.124-0.352 0.333-0.352 0.464 0 0.837-5.747 6.413-8.062 7.823-0.702 0.427-1.614 0.991-2.026 1.252-1.061 0.671-2.878 1.549-3.705 1.789-0.387 0.113-0.954 0.378-1.259 0.589-0.305 0.212-0.879 0.385-1.275 0.385-0.395 0-0.969 0.171-1.274 0.38-0.305 0.21-1.66 0.457-3.01 0.549s-2.704 0.301-3.008 0.464c-0.779 0.417-2.54 0.367-4.435-0.127-0.891-0.232-2.323-0.426-3.18-0.431-0.923-5e-3 -1.783-0.178-2.106-0.422-0.301-0.227-0.874-0.413-1.275-0.413-0.4 0-0.984-0.18-1.297-0.399-0.314-0.22-1.034-0.486-1.601-0.593-0.567-0.106-1.178-0.37-1.357-0.586-0.18-0.216-0.506-0.393-0.725-0.393-0.22 0-0.743-0.239-1.162-0.531-0.42-0.293-1.491-1.002-2.382-1.576-0.89-0.574-1.618-1.158-1.618-1.298s-0.162-0.254-0.361-0.254c-0.298 0-4.437-4.126-5.415-5.398-0.51-0.664-2.291-3.457-2.481-3.892-0.101-0.232-0.297-0.612-0.434-0.844-0.477-0.805-1.443-3.019-1.443-3.306 0-0.159-0.189-0.652-0.42-1.095-0.232-0.444-0.422-1.098-0.423-1.454s-0.213-1.053-0.471-1.548c-0.698-1.338-0.696-12.733 2e-3 -13.73 0.257-0.367 0.468-0.987 0.469-1.379 1e-3 -0.391 0.191-1.074 0.423-1.517 0.231-0.444 0.42-0.952 0.42-1.13 0-0.179 0.253-0.797 0.563-1.375 0.31-0.577 0.563-1.191 0.563-1.362 0-0.172 0.38-0.875 0.845-1.564 0.464-0.688 0.844-1.305 0.844-1.371 0-0.899 5.419-6.945 7.319-8.166 0.542-0.348 1.238-0.868 1.548-1.156 0.31-0.287 1.26-0.879 2.111-1.314 0.852-0.436 1.738-0.89 1.971-1.009 1.811-0.928 2.358-1.155 2.775-1.155 0.262 0 0.727-0.173 1.033-0.384 0.305-0.211 1.184-0.476 1.952-0.589 0.769-0.113 1.652-0.384 1.963-0.602 0.825-0.578 11.199-0.576 11.679 2e-3m-133.52 1.035c0.17 0.141 0.931 0.338 1.689 0.439 0.758 0.1 1.629 0.354 1.934 0.563 0.306 0.209 0.829 0.38 1.162 0.38 0.334 0 0.765 0.19 0.957 0.422 0.193 0.233 0.493 0.425 0.668 0.427 0.175 3e-3 1.014 0.378 1.866 0.834 0.851 0.455 1.833 0.957 2.181 1.114 0.349 0.157 0.634 0.416 0.634 0.574 0 0.159 0.137 0.289 0.304 0.289 0.296 0 2.462 1.627 3.395 2.55 0.254 0.252 0.781 0.709 1.171 1.015 0.39 0.307 1.045 1.055 1.457 1.663 0.411 0.608 1.027 1.422 1.368 1.809 0.749 0.85 2.386 3.485 2.735 4.404 0.139 0.364 0.382 0.663 0.541 0.663 0.158 0 0.288 0.307 0.288 0.683s0.19 0.874 0.423 1.106c0.232 0.233 0.423 0.717 0.423 1.076 1e-3 0.359 0.175 0.984 0.385 1.388 0.211 0.403 0.472 1.44 0.579 2.302 0.108 0.863 0.378 1.72 0.601 1.904 0.582 0.483 0.572 9.451-0.011 10.221-0.218 0.288-0.484 1.225-0.591 2.081s-0.367 1.887-0.578 2.291c-0.21 0.404-0.384 0.945-0.385 1.204-1e-3 0.413-0.436 1.437-1.175 2.767-0.129 0.232-0.366 0.727-0.526 1.1-0.289 0.673-0.869 1.571-2.929 4.53-1.041 1.495-4.797 5.348-5.214 5.348-0.113 0-0.466 0.222-0.785 0.493s-0.859 0.682-1.201 0.915c-0.342 0.232-0.892 0.626-1.223 0.876-0.33 0.249-0.886 0.543-1.234 0.652s-0.633 0.317-0.633 0.461-0.197 0.263-0.437 0.263-0.905 0.235-1.478 0.523c-2.581 1.296-2.957 1.447-3.611 1.447-0.382 0-1.101 0.221-1.596 0.492-1.357 0.741-14.06 0.741-15.108 0-0.383-0.271-1.038-0.492-1.455-0.492-0.418 0-1.118-0.174-1.556-0.387-1.034-0.503-3.212-1.5-3.753-1.717-1.158-0.466-3.975-2.395-6.136-4.201-2.149-1.796-5.77-6.13-6.434-7.699-0.212-0.503-0.511-0.915-0.664-0.915s-0.278-0.18-0.278-0.399c0-0.22-0.19-0.79-0.422-1.267s-0.612-1.258-0.844-1.735c-0.233-0.477-0.423-1.083-0.423-1.348 0-0.264-0.253-0.977-0.563-1.585-0.309-0.607-0.568-1.615-0.575-2.241-7e-3 -0.625-0.195-1.643-0.418-2.262-0.548-1.521-0.548-6.925 0-8.445 0.223-0.62 0.411-1.791 0.418-2.604s0.134-1.478 0.283-1.478 0.41-0.538 0.58-1.196c0.169-0.658 0.491-1.596 0.714-2.084 0.223-0.487 0.406-1.016 0.406-1.174 0-0.299 2.73-5.01 3.233-5.581 0.157-0.178 0.666-0.811 1.13-1.407 2.819-3.619 9.637-8.815 11.577-8.824 0.175-1e-3 0.475-0.191 0.668-0.424 0.193-0.232 0.623-0.422 0.957-0.422s0.856-0.171 1.162-0.38c0.305-0.209 1.176-0.463 1.934-0.563 0.759-0.101 1.524-0.304 1.701-0.45 0.684-0.568 12.021-0.558 12.712 0.011m243.18 82.168c-0.31 0.135-1.957 0.254-3.66 0.266-2.163 0.015-3.339 0.148-3.902 0.442-0.444 0.231-1.374 0.42-2.068 0.42s-1.598 0.183-2.009 0.406-1.209 0.479-1.774 0.57-1.183 0.352-1.372 0.58-0.693 0.415-1.12 0.415c-0.426 0-0.933 0.19-1.126 0.422-0.192 0.232-0.632 0.422-0.976 0.422-0.345 0-0.919 0.254-1.276 0.563-0.357 0.31-0.804 0.563-0.993 0.563-0.19 0-0.503 0.19-0.695 0.423-0.193 0.232-0.58 0.422-0.859 0.422-0.28 0-0.682 0.173-0.894 0.385s-0.677 0.478-1.033 0.591-0.88 0.414-1.163 0.67c-0.951 0.859-1.299 1.099-1.844 1.272-0.297 0.095-1.199 0.775-2.003 1.512-0.805 0.737-1.828 1.622-2.274 1.966-4.132 3.191-10.156 11.281-12.004 16.123-0.088 0.232-0.284 0.612-0.434 0.845-0.51 0.785-1.419 3.062-1.428 3.573-5e-3 0.28-0.195 0.754-0.422 1.055-0.228 0.3-0.414 0.845-0.414 1.21s-0.187 1.027-0.417 1.47c-0.229 0.444-0.493 1.546-0.587 2.449-0.093 0.904-0.349 2.121-0.568 2.704-0.611 1.628-0.559 8.448 0.067 8.968 0.798 0.662 11.001 0.551 11.495-0.125 0.478-0.654 1.271-4.952 1.27-6.887 0-0.818 0.19-1.942 0.422-2.497 0.232-0.556 0.422-1.423 0.422-1.927s0.178-1.064 0.395-1.244 0.475-0.671 0.573-1.09c0.098-0.42 0.351-1.143 0.562-1.607 1.137-2.496 1.458-3.122 1.778-3.464 0.193-0.207 0.352-0.509 0.352-0.671 0-1.469 7.225-9.458 10.536-11.65 0.918-0.608 1.995-1.325 2.393-1.593 0.398-0.269 0.976-0.617 1.286-0.774 0.31-0.156 0.753-0.404 0.985-0.549 0.233-0.146 1.056-0.538 1.83-0.872s1.766-0.786 2.204-1.003c0.439-0.218 1.072-0.396 1.408-0.397s0.934-0.171 1.33-0.377c0.395-0.207 1.463-0.463 2.374-0.57 0.91-0.107 1.841-0.349 2.068-0.538 0.61-0.506 43.686-0.498 44.296 9e-3 0.233 0.193 1.235 0.434 2.225 0.534s2.051 0.354 2.356 0.563c0.306 0.209 0.971 0.381 1.478 0.381s0.923 0.121 0.923 0.27 0.488 0.402 1.084 0.563c0.597 0.161 1.895 0.742 2.886 1.292 0.99 0.549 2.148 1.147 2.574 1.328s0.774 0.416 0.774 0.522c0 0.107 0.583 0.535 1.296 0.953 0.712 0.417 1.513 0.967 1.78 1.223 0.266 0.255 0.982 0.921 1.59 1.481 3.852 3.545 6.425 6.854 8.29 10.664 1.675 3.424 1.922 3.989 2.126 4.859 0.1 0.427 0.294 0.846 0.432 0.931 0.137 0.085 0.25 0.54 0.25 1.011 0 0.47 0.19 1.256 0.422 1.745 0.232 0.49 0.538 2.092 0.679 3.561 0.411 4.262 0.951 5.927 2.022 6.226 0.882 0.247 8.084 0.299 9.245 0.066l0.898-0.179-0.088-6.704c-0.065-4.887-0.184-6.798-0.441-7.054-0.193-0.194-0.356-0.738-0.361-1.21s-0.254-1.366-0.553-1.985c-0.3-0.619-0.549-1.296-0.554-1.505-5e-3 -0.208-0.18-0.715-0.389-1.126-0.491-0.966-1.216-2.529-1.588-3.421-0.161-0.387-0.542-1.084-0.847-1.548-0.305-0.465-0.688-1.149-0.85-1.522-0.3-0.687-0.98-1.733-2.944-4.53-2.655-3.781-10.647-11.541-11.886-11.541-0.201 0-0.365-0.13-0.365-0.289 0-0.158-0.317-0.409-0.704-0.556s-0.704-0.397-0.704-0.556c0-0.158-0.173-0.288-0.384-0.288s-0.706-0.254-1.1-0.563c-0.394-0.31-0.967-0.563-1.275-0.563-0.307 0-0.631-0.19-0.721-0.422-0.089-0.233-0.367-0.423-0.619-0.423-0.251 0-0.779-0.253-1.172-0.563-0.394-0.309-0.921-0.567-1.171-0.572s-0.7-0.195-1.001-0.422c-0.3-0.227-0.823-0.413-1.162-0.413-0.338 0-0.768-0.184-0.954-0.409-0.187-0.224-0.93-0.495-1.653-0.601-0.723-0.107-1.564-0.366-1.869-0.577-0.306-0.211-1.169-0.384-1.919-0.384s-1.64-0.158-1.978-0.351c-1.28-0.733-43.234-1.459-44.809-0.777m-137.71 2.223c-0.809 0.103-1.626 0.342-1.816 0.531-0.202 0.203-1.113 0.345-2.205 0.345-1.2 0-2.054 0.147-2.407 0.413-0.3 0.227-0.863 0.422-1.25 0.432s-1.21 0.263-1.83 0.562c-0.619 0.299-1.395 0.548-1.724 0.554-0.33 5e-3 -0.757 0.199-0.95 0.432-0.193 0.232-0.6 0.422-0.906 0.422-0.305 0-0.891 0.175-1.302 0.39s-1.064 0.534-1.451 0.71c-0.387 0.175-1.464 0.752-2.393 1.281s-2.1 1.154-2.604 1.387c-0.503 0.234-0.914 0.559-0.914 0.721 0 0.163-0.128 0.296-0.285 0.296-0.404 0-3.018 1.874-3.965 2.843-0.439 0.449-0.907 0.817-1.039 0.817-0.272 0-4.113 3.969-5.83 6.024-0.62 0.741-1.348 1.554-1.619 1.806s-0.493 0.562-0.493 0.688c0 0.226-1.102 1.9-1.434 2.178-0.212 0.178-0.651 1.008-2.183 4.124-2.362 4.804-3.138 6.635-3.138 7.399 0 0.331-0.177 0.882-0.392 1.225-0.216 0.343-0.481 1.256-0.589 2.031-0.109 0.774-0.325 1.561-0.479 1.749-0.155 0.187-0.389 1.707-0.521 3.377s-0.368 3.607-0.525 4.304c-0.798 3.546-0.6 3.659 6.403 3.659 6.781 0 6.518 0.139 6.518-3.435 0-1.419 0.173-2.897 0.422-3.602 0.232-0.659 0.422-1.736 0.422-2.394 0-0.72 0.168-1.336 0.422-1.547 0.233-0.193 0.423-0.664 0.423-1.047s0.185-1.032 0.41-1.443c0.226-0.411 0.676-1.381 1-2.155 0.764-1.825 1.578-3.365 2.574-4.87 0.441-0.665 0.801-1.286 0.801-1.378 0-0.9 7.928-8.802 9.252-9.222 0.33-0.105 0.6-0.302 0.6-0.438 0-0.259 1.012-0.878 2.323-1.42 0.425-0.176 0.774-0.434 0.774-0.574s0.236-0.254 0.525-0.254 0.827-0.234 1.196-0.52 1.02-0.605 1.446-0.709c0.425-0.104 0.774-0.314 0.774-0.465 0-0.152 0.351-0.277 0.781-0.277s1.032-0.171 1.338-0.38c0.305-0.21 1.119-0.469 1.808-0.576s1.39-0.309 1.559-0.449c1.819-1.51 46.982-1.367 49.904 0.157 0.422 0.22 1.147 0.405 1.612 0.411 0.464 6e-3 1.09 0.197 1.391 0.424 0.3 0.227 0.823 0.413 1.161 0.413 0.339 0 0.774 0.19 0.966 0.423 0.193 0.232 0.627 0.422 0.964 0.422s0.766 0.153 0.953 0.34c0.187 0.188 1.095 0.726 2.016 1.197 4.178 2.134 9.752 7.053 12.184 10.752 0.646 0.982 1.274 1.786 1.396 1.786s0.221 0.144 0.221 0.32c0 0.177 0.377 0.933 0.838 1.682 0.46 0.748 0.916 1.675 1.012 2.06 0.097 0.385 0.354 0.847 0.571 1.027s0.394 0.605 0.394 0.943c0 0.339 0.186 0.862 0.414 1.162 0.227 0.301 0.417 0.867 0.422 1.258s0.18 0.961 0.389 1.267c0.21 0.305 0.463 1.369 0.564 2.363 0.101 0.995 0.373 2.018 0.605 2.274 0.312 0.345 0.421 1.16 0.421 3.132 0 3.551-0.397 3.342 6.346 3.342 6.937 0 6.708 0.12 6.523-3.424-0.158-3.007-0.928-7.83-1.313-8.215-0.163-0.163-0.296-0.813-0.296-1.444s-0.173-1.398-0.384-1.703c-0.21-0.306-0.47-1.147-0.576-1.869-0.107-0.723-0.377-1.467-0.602-1.654-0.225-0.186-0.409-0.624-0.409-0.973s-0.19-0.793-0.422-0.986c-0.232-0.192-0.43-0.619-0.441-0.949-0.01-0.329-0.389-1.232-0.842-2.006s-0.937-1.661-1.076-1.971c-0.341-0.76-2.146-3.419-2.691-3.964-0.241-0.241-0.439-0.57-0.439-0.73 0-1.007-8.249-9.351-11.189-11.319-1.123-0.751-2.041-1.449-2.041-1.552 0-0.102-0.348-0.336-0.774-0.519s-0.964-0.455-1.196-0.604c-0.233-0.15-0.613-0.346-0.845-0.436s-0.802-0.415-1.267-0.721c-0.464-0.306-1.161-0.699-1.548-0.873s-1.04-0.492-1.451-0.707-1.062-0.39-1.447-0.39c-0.386 0-0.767-0.172-0.848-0.383-0.08-0.21-0.68-0.467-1.332-0.572-0.652-0.104-1.452-0.375-1.776-0.602-0.324-0.228-0.973-0.418-1.442-0.423s-1.098-0.195-1.399-0.422c-0.35-0.265-1.202-0.413-2.37-0.413-1.343 0-1.968-0.13-2.369-0.493-0.567-0.514-42.24-0.861-46.009-0.383m-136.47 1.258c-0.306 0.209-1.315 0.451-2.244 0.535-0.929 0.085-2.069 0.356-2.534 0.602-0.464 0.246-1.177 0.449-1.584 0.45s-0.897 0.191-1.09 0.424c-0.193 0.232-0.727 0.422-1.187 0.422-0.461 0-1.174 0.176-1.584 0.392-0.411 0.216-1.888 0.936-3.281 1.601s-2.576 1.312-2.627 1.437c-0.052 0.126-0.338 0.229-0.636 0.229-0.299 0-0.76 0.253-1.025 0.563s-0.592 0.563-0.727 0.563c-0.134 0-0.535 0.222-0.89 0.493s-0.93 0.682-1.278 0.915c-4.702 3.135-10.256 8.872-12.945 13.37-0.37 0.62-0.772 1.196-0.894 1.281-0.265 0.184-1.635 2.842-1.637 3.173-1e-3 0.127-0.191 0.421-0.423 0.654-0.233 0.232-0.423 0.729-0.423 1.105s-0.107 0.684-0.239 0.684c-0.306 0-1.73 3.338-1.741 4.082-4e-3 0.309-0.194 0.808-0.421 1.109-0.228 0.301-0.414 0.924-0.414 1.385 0 0.462-0.18 1.039-0.401 1.284-0.221 0.244-0.543 1.331-0.716 2.414-0.173 1.084-0.425 2.668-0.56 3.519-0.135 0.852-0.256 2.72-0.269 4.152l-0.024 2.604h6.297 6.296l0.319-2.482c0.175-1.365 0.318-2.997 0.318-3.625 0-0.629 0.19-1.598 0.422-2.154 0.233-0.555 0.423-1.369 0.423-1.807 0-0.439 0.113-0.918 0.252-1.065 0.14-0.147 0.592-1.154 1.005-2.238 0.767-2.011 1.329-3.177 2.371-4.926 0.323-0.542 0.702-1.244 0.843-1.56 0.14-0.316 0.459-0.743 0.707-0.949s0.451-0.549 0.451-0.763c0-0.213 0.106-0.387 0.234-0.387 0.129 0 0.625-0.545 1.103-1.21 1.152-1.605 3.232-3.742 5.138-5.28 0.851-0.687 1.691-1.376 1.865-1.532 0.175-0.155 0.601-0.472 0.948-0.705 0.346-0.232 0.9-0.626 1.231-0.876 0.33-0.249 0.885-0.543 1.234-0.652 0.348-0.109 0.633-0.317 0.633-0.461 0-0.145 0.244-0.263 0.543-0.263s0.733-0.19 0.965-0.422 0.628-0.422 0.879-0.422c0.252 0 0.926-0.235 1.498-0.523 0.573-0.288 1.463-0.731 1.979-0.985 0.516-0.255 1.298-0.463 1.739-0.463s0.992-0.19 1.224-0.422c0.283-0.283 1.009-0.426 2.202-0.434 0.978-7e-3 2.286-0.195 2.905-0.418 1.443-0.52 39.791-0.623 40.306-0.109 0.168 0.169 1.365 0.377 2.66 0.463s2.604 0.328 2.909 0.539c0.306 0.21 0.897 0.381 1.315 0.381 0.417 0 1.117 0.178 1.556 0.396 1.942 0.964 3.424 1.575 3.819 1.575 0.235 0 0.585 0.19 0.778 0.422 0.192 0.232 0.572 0.422 0.844 0.422s0.652 0.19 0.845 0.423c0.192 0.232 0.466 0.422 0.608 0.422 0.237 0 1.876 1.056 2.207 1.422 0.077 0.086 0.647 0.529 1.266 0.985 1.68 1.238 1.705 1.26 3.595 3.093 3.84 3.724 8.932 11.594 8.932 13.806 0 0.305 0.178 0.809 0.396 1.12 0.217 0.311 0.484 1.158 0.593 1.883s0.374 1.464 0.589 1.643c0.257 0.213 0.393 0.922 0.394 2.05 1e-3 0.979 0.183 2.073 0.422 2.531 0.231 0.444 0.421 1.425 0.421 2.182v1.375h6.234 6.235l-0.157-3.951c-0.116-2.933-0.271-4.126-0.604-4.634-0.252-0.384-0.45-1.276-0.451-2.032 0-0.74-0.19-1.709-0.422-2.153-0.231-0.443-0.42-1.051-0.42-1.351 0-0.299-0.179-0.891-0.398-1.314-0.219-0.424-0.486-1.236-0.593-1.806s-0.371-1.183-0.587-1.362-0.393-0.542-0.393-0.805c0-0.472-1.339-3.157-3.886-7.791-0.202-0.368-0.487-0.669-0.633-0.669s-0.266-0.14-0.266-0.311-0.285-0.665-0.633-1.098c-0.349-0.433-0.911-1.148-1.25-1.589s-1.127-1.372-1.752-2.069c-0.624-0.696-1.138-1.361-1.142-1.477-5e-3 -0.117-0.112-0.212-0.24-0.212-0.127 0-1.045-0.798-2.04-1.774-1.676-1.644-3.794-3.402-5.322-4.418-0.349-0.233-0.925-0.644-1.28-0.915s-0.755-0.493-0.89-0.493-0.462-0.253-0.727-0.563-0.729-0.563-1.031-0.563-0.62-0.114-0.706-0.253c-0.217-0.351-4.662-2.562-5.15-2.562-0.218 0-0.587-0.19-0.819-0.422s-0.865-0.422-1.407-0.422-1.158-0.173-1.369-0.383c-0.211-0.211-0.926-0.471-1.59-0.577s-1.286-0.32-1.382-0.477c-0.097-0.156-0.924-0.352-1.838-0.435-0.915-0.083-2.062-0.329-2.55-0.547-1.296-0.579-48.385-0.592-49.226-0.014"/>
  <path d="m60.099 0.371c-13.979 8.996-4.2044 28.886-5.477 42.509-1.8915 9.2792 2.4931 36.278 15.571 22.234 3.8822-16.505 3.5035-33.771 5.1124-50.544 0.12139-9.2635-4.474-17.65-15.207-14.198zm137.36 0.013c-14.336 8.9533-3.9668 29.36-5.6125 43.052-1.7064 9.4642 3.3772 35.896 15.722 21.344 3.4799-15.59 3.351-31.831 4.9406-47.688 0.83575-9.463-3.2643-20.593-15.05-16.708zm137.45-0.19c-13.479 7.6495-4.9804 25.966-6.1455 38.353 2.3778 9.4789-3.171 32.586 12.436 30.146 10.201-11.127 4.557-29.496 8.1726-43.458 0.13836-10.707 2.7686-29.058-14.463-25.041zm-273.95 77.476c-15.947 4.3273-5.1359 29.091 8.9228 20.453 11.054-6.4635 3.3546-23.925-8.9228-20.453zm136.93 0.186c-15.935 4.7293-3.9375 29.36 9.66 20 10.924-6.7147 2.2705-24.116-9.66-20zm137.09 0.025c-18.742 6.664 2.0393 33.03 13.074 16.751 5.5842-8.5271-3.2342-20.21-13.074-16.751zm-6.714 52.158c-26.422 3.1071-45.195 33.148-35.518 58.155 7.8036 26.646 42.974 38.692 65.68 23.027 24.231-14.285 27.266-51.939 5.8852-70.029-9.5533-9.1377-23.096-12.605-36.048-11.154zm-132.5 2.244c-26.707 1.9728-46.251 31.558-37.563 56.957 6.9002 26.361 40.504 39.611 63.829 25.809 24.693-12.561 30.239-49.153 10.899-68.719-9.1901-10.413-23.453-15.397-37.165-14.047zm-135.12 0.994c-23.516 2.375-41.759 26.235-37.922 49.636 2.1611 26.645 32.188 45.243 57.237 36.379 25.467-7.1622 38.52-39.346 25.702-62.323-7.8692-16.451-27.029-26.408-45.017-23.692zm279.36 9.727c21.027 3.0901 33.777 29.845 21.231 47.478-10.576 18.632-40.171 19.831-51.973 1.8519-13.863-17.166-2.4299-45.874 19.305-49.244 3.7968-0.38972 7.6354-0.4689 11.437-0.0862zm-133.7 2.362c20.841 3.4719 32.812 29.855 20.887 47.558-10.72 18.431-39.389 19.702-51.695 2.3825-13.576-16.672-4.016-44.789 17.166-49.34 4.3241-1.5057 9.1833-1.2371 13.642-0.6zm-133.52 1.035c20.221 3.6034 32.26 29.134 20.695 46.677-10.765 20.033-43.202 20.405-53.983 0.0962-12.591-18.59 2.4023-46.827 24.717-47.18 2.8557 5e-3 5.7535-0.17245 8.5715 0.40716zm243.18 82.168c-25.976-0.079-49.879 24.649-47.248 50.707 19.153 5.9215 10.027-22.218 24.762-28.624 15.106-14.432 37.363-8.3229 56.124-9.4889 20.504-1.4998 38.29 16.73 39.021 36.767 12.078 9.0324 13.976-6.6344 9.9585-15.439-7.0677-21.589-29.414-36.442-52.134-33.893-10.154-0.14034-20.342-0.63835-30.484-0.0292zm-137.71 2.223c-23.4 2.8147-43.29 23.192-44.244 47.041 2.7514 9.313 18.239 2.2473 14.61-8.366 5.3564-18.045 24.796-28.527 42.98-26.146 18.13 0.47676 39.972-3.3938 52.99 12.614 11.464 6.5846 3.1041 30.238 19.907 25.52 6.548-7.7064-2.5711-23.631-8.2746-31.768-11.559-15.352-31.255-20.712-49.691-19.036-9.4242-0.0457-18.859-0.26991-28.277 0.14063zm-136.47 1.258c-23.422 3.6836-42.415 25.605-41.794 49.442 6.7461-0.29638 16.304 2.7196 13.652-8.261 4.0454-18.791 23.424-31.357 42.256-29.122 18.345 0.23329 41.006-3.6498 54.31 12.365 10.71 4.7039 4.3604 25.57 15.153 25.018 10.622 3.3225 7.6429-7.3434 5.5231-14.121-6.2448-22.918-30.223-38.416-53.705-35.702-11.795 0.01062-23.616-0.27464-35.395 0.38144z"/>
 </g>
</svg>
