<?xml version="1.0" encoding="UTF-8"?>
<!-- Created with Inkscape (http://www.inkscape.org/) -->
<svg width="77.131mm" height="112.54mm" version="1.1" viewBox="0 0 77.131 112.54" xmlns="http://www.w3.org/2000/svg" xmlns:cc="http://creativecommons.org/ns#" xmlns:dc="http://purl.org/dc/elements/1.1/" xmlns:rdf="http://www.w3.org/1999/02/22-rdf-syntax-ns#">
 <metadata>
  <rdf:RDF>
   <cc:Work rdf:about="">
    <dc:format>image/svg+xml</dc:format>
    <dc:type rdf:resource="http://purl.org/dc/dcmitype/StillImage"/>
    <dc:title/>
   </cc:Work>
  </rdf:RDF>
 </metadata>
 <g transform="translate(393.86 172.77)">
  <g transform="matrix(.26458 0 0 .26458 -411.56 -172.77)" stroke-width=".31714">
   <path d="m109.35 422.39c-1.8075-0.92665-2.1187-1.2361-3.0594-3.0423-0.91599-1.7586-1.0482-2.3157-1.0548-4.4438-0.0105-3.4142-0.46967-8.9804-1.2262-14.866-0.35523-2.7635-0.7872-7.6669-0.95994-10.897s-0.59144-7.8718-0.93043-10.316c-0.339-2.4441-0.70858-6.7291-0.82128-9.5223-0.1127-2.7932-0.53946-7.5782-0.94836-10.633-0.40889-3.0551-0.83666-7.8401-0.9506-10.633-0.11394-2.7932-0.55665-7.6263-0.98382-10.74-0.42716-3.1139-0.77892-6.7562-0.78168-8.094-0.0067-3.249-0.49752-9.0289-1.2443-14.653-0.33613-2.5314-0.70208-6.8788-0.81321-9.6609-0.11113-2.7821-0.48207-6.9244-0.8243-9.2049-0.34223-2.2806-0.76256-6.9318-0.93406-10.336-0.1715-3.4042-0.44862-7.2608-0.61582-8.5701-1.2552-9.8298-1.2847-9.989-1.9502-10.554-0.58559-0.49705-1.496-0.55547-8.6556-0.55547h-8.0012l-1.7026-0.91128c-1.1235-0.60136-2.0545-1.4228-2.7372-2.4152l-1.0347-1.504v-56.984l1.1883-1.6178c1.2511-1.7033 1.8295-2.0522 4.286-2.5846 1.0119-0.21933 20.951-0.3248 60.173-0.31827 53.212 9e-3 58.711-0.0371 59.217-0.49554 0.84372-0.76487 1.8133-3.2704 2.1973-5.678 0.18895-1.1848 0.62391-2.7046 0.96658-3.3775 0.34268-0.67285 0.78121-1.978 0.97451-2.9003 0.1933-0.92229 0.67056-2.3911 1.0606-3.2639 0.39001-0.87289 0.8055-2.2072 0.92331-2.9652s0.48072-1.9014 0.80647-2.5411c0.32576-0.63962 0.76443-1.8034 0.97484-2.5861s0.72435-2.0663 1.1421-2.8524c0.41775-0.78609 0.75954-1.613 0.75954-1.8376s0.42778-1.2572 0.95061-2.2947 0.9506-2.0677 0.9506-2.2894c0-0.39829 1.827-4.4271 2.7043-5.9633 0.24923-0.43644 0.67316-1.2934 0.94207-1.9045 0.2689-0.61102 0.65559-1.3966 0.85931-1.7458 0.20371-0.34915 1.0993-2.0632 1.9901-3.8089 2.3196-4.5456 5.8765-10.394 9.653-15.871 0.36112-0.52373 1.1763-1.7378 1.8114-2.698 0.63516-0.96017 2.3794-3.1854 3.876-4.945 1.4966-1.7596 3.9116-4.6506 5.3665-6.4244 3.4329-4.1852 11.403-11.605 17-15.826 7.1532-5.3942 11.422-7.6873 13.54-7.2734 1.7329 0.33866 4.0774 1.8564 5.1192 3.3139 0.86832 1.2148 0.98655 1.6345 0.98655 3.5018 0 1.9259-0.1042 2.2668-1.13 3.6974-0.77271 1.0776-2.0752 2.1965-4.1193 3.5386-4.6638 3.0622-5.5601 3.7598-11.505 8.9549-7.3746 6.4448-13.953 13.894-19.465 22.044-4.1685 6.1629-4.8444 7.2519-7.4201 11.954-0.5259 0.96017-1.3863 2.5314-1.912 3.4915-1.6099 2.9403-3.702 7.1257-3.7124 7.427-9e-3 0.26336-0.35459 1.0219-2.9058 6.3804-0.4987 1.0475-0.90668 2.0878-0.90661 2.3118 7e-5 0.22403-0.33879 1.081-0.75301 1.9045s-0.8571 1.9971-0.98417 2.6081-0.64371 2.0633-1.1481 3.2273c-0.50437 1.164-0.91704 2.3792-0.91704 2.7005s-0.35258 1.2476-0.7835 2.0585c-0.43093 0.81088-0.87763 2.0953-0.99267 2.8542s-0.55478 2.216-0.9772 3.2381c-0.78257 1.8934-0.78057 3.42 5e-3 3.9309 0.20446 0.13293 29.532 0.31311 65.171 0.4004l64.8 0.15871 1.5676 0.79352c1.2749 0.64536 1.7624 1.1491 2.6104 2.698l1.0428 1.9045 8e-3 54.793-0.79179 1.6766c-0.8864 1.8769-1.2731 2.2777-3.3553 3.4774l-1.4537 0.83758h-7.6664c-8.9232 0-9.6241 0.14627-10.152 2.1185-0.17863 0.66786-0.47908 4.2138-0.66765 7.8799s-0.6273 8.6539-0.97495 11.084c-0.34765 2.4301-0.77094 7.2151-0.94065 10.633-0.1697 3.4182-0.59222 8.1963-0.93893 10.618s-0.77675 7.2067-0.95564 10.633c-0.17889 3.4266-0.61146 8.3013-0.96127 10.833-0.3498 2.5314-0.77746 7.3877-0.95035 10.792-0.17288 3.4042-0.59661 8.176-0.94161 10.604s-0.77744 7.2844-0.96099 10.792-0.61101 8.2868-0.94992 10.62-0.76617 7.1186-0.94947 10.633c-0.1833 3.5147-0.61553 8.39-0.9605 10.834-0.34498 2.4441-0.76601 7.229-0.93563 10.633-0.29671 5.955-0.93628 11.633-1.5731 13.966-0.57226 2.0965-1.4843 3.1564-3.5639 4.1419l-1.9755 0.93614-191.13 5.1e-4zm185.38-13.569c0.34855-0.34915 0.63431-0.74195 0.63501-0.87288 6.3e-4 -0.13093 0.20864-1.5236 0.46208-3.0948 0.55551-3.4438 1.121-10.178 1.121-13.35 0-1.2688 0.34875-4.8546 0.775-7.9685 0.42626-3.1139 0.86352-7.8756 0.97169-10.582 0.10818-2.7059 0.46294-6.991 0.78837-9.5223 0.9402-7.3134 0.95541-7.4776 1.2638-13.649 0.16137-3.2297 0.57994-7.8718 0.93015-10.316 0.35021-2.4441 0.72263-6.6577 0.8276-9.3636s0.46401-6.991 0.79785-9.5223c0.79648-6.0392 1.2439-11.266 1.2498-14.601 3e-3 -1.4839 0.28292-4.5623 0.62286-6.8408 0.71431-4.788 1.2768-11.232 1.284-14.71 3e-3 -1.3276 0.29324-4.4135 0.64559-6.8576s0.72617-5.874 0.83071-7.6222c0.16802-2.8094 0.1242-3.2332-0.37742-3.6502-0.49949-0.41525-12.541-0.4718-100.48-0.4718-91.945 0-99.953 0.0413-100.43 0.51758-0.46695 0.46776-0.48367 1.1445-0.17369 7.0304 0.18865 3.582 0.6234 8.4912 0.9661 10.909s0.76996 7.2654 0.94945 10.772c0.1795 3.5065 0.60676 8.2915 0.94948 10.633 0.34271 2.3418 0.77061 7.1291 0.95087 10.638 0.18027 3.5094 0.61233 8.4372 0.96014 10.951 0.34782 2.5135 0.77251 7.2839 0.94377 10.601 0.17125 3.3169 0.5931 8.0305 0.93745 10.475 0.34435 2.4441 0.77576 7.3136 0.95868 10.821 0.18293 3.5076 0.61486 8.364 0.95986 10.792 0.345 2.428 0.76953 7.1998 0.94339 10.604 0.17387 3.4042 0.59972 8.1892 0.94634 10.633 0.34662 2.4441 0.7717 7.2053 0.94463 10.58 0.32302 6.3047 0.45002 6.8355 1.7629 7.3686 0.35461 0.14398 39.75 0.27085 87.546 0.2819 86.492 0.02 86.904 0.0171 87.535-0.6147zm35.806-157.75c0.61889-0.61994 0.63374-1.058 0.63374-18.692 0-16.728-0.0408-18.107-0.55452-18.733l-0.55452-0.67597-122.84 5e-3c-67.561 3e-3 -123.07 0.0938-123.35 0.20204-1.2444 0.47834-1.2836 1.0044-1.3827 18.532-0.05279 9.3398-0.01092 17.444 0.09304 18.01 0.12412 0.67555 0.48341 1.1888 1.0466 1.495 0.74994 0.40777 16.258 0.46789 123.56 0.479 122.29 0.0127 122.71 0.0106 123.34-0.6221zm-13.408-97.133c-1.573-0.47297-2.9892-1.8385-3.9925-3.8498l-0.97755-1.9596v-6.3856c0-7.4285 0.0213-7.3656-2.9708-8.7691-3.6216-1.6989-5.9639-3.2953-9.0246-6.151-1.7365-1.6201-4.5-5.0418-5.4061-6.6937-0.38005-0.69283-0.8948-1.6168-1.1439-2.0532-1.2981-2.2744-2.3918-5.6728-3.1619-9.8249-0.94154-5.0765-0.89906-6.1779 0.33209-8.6117 0.99313-1.9632 3.5585-3.7805 5.6738-4.0194 1.8806-0.21234 4.554 1.1018 6.1093 3.003 1.0344 1.2645 1.1366 1.5959 1.5216 4.9289 0.29996 2.5975 0.6824 4.2179 1.4004 5.9338 1.4068 3.3616 1.8894 4.0411 5.0013 7.0421 2.346 2.2624 3.2209 2.8745 5.6296 3.9385 2.8455 1.257 2.8609 1.2598 6.9711 1.2598 4.0745 0 4.1521-0.0136 7.1296-1.2502 2.8102-1.1672 3.222-1.4624 6.1974-4.4438 2.9738-2.9797 3.2708-3.3954 4.4362-6.2089 1.2269-2.9621 1.249-3.0855 1.249-6.983 0-3.9093-0.0185-4.012-1.2616-6.983-1.1095-2.6519-1.582-3.3492-3.9188-5.7844-2.9762-3.1014-4.2425-3.9484-7.9516-5.3183-2.1879-0.80808-3.2783-0.99232-7.392-1.2489-4.0104-0.25015-5.3607-0.47158-7.9942-1.3109-5.2799-1.6828-9.9194-4.4028-13.719-8.0433-2.0383-1.9529-5.5966-6.9602-6.5673-9.2417-0.29709-0.6983-0.86969-1.9838-1.2724-2.8567-0.66512-1.4415-1.2162-3.864-2.0938-9.2049-0.66697-4.0587 0.81313-11.855 3.1705-16.7 3.539-7.2739 8.3143-12.116 15.571-15.787 1.4814-0.74952 2.8716-1.594 3.0895-1.8767 0.27831-0.36113 0.39608-1.9977 0.39608-5.5041v-4.9902l1.0298-1.971c1.3868-2.6542 3.0632-3.8683 5.5945-4.0517 2.4125-0.1748 3.8022 0.30814 5.4243 1.885 2.144 2.0842 2.5123 3.2634 2.5204 8.0685 5e-3 2.8101 0.13452 4.3168 0.40305 4.6783 0.21784 0.29332 1.1165 0.66865 1.9969 0.83406 0.88046 0.16542 2.3473 0.59549 3.2596 0.95571 0.91233 0.36022 1.8959 0.65495 2.1856 0.65495 0.89639 0 6.2236 2.8433 8.4339 4.5014 2.7196 2.0402 5.9233 5.3084 7.3904 7.5392 0.63906 0.97174 1.4308 2.1649 1.7594 2.6514 2.05 3.0351 4.3887 11.229 4.4323 15.529 0.0486 4.7893-2.7565 7.8689-7.1674 7.8689-2.2178 0-3.2268-0.39333-4.7307-1.844-1.7684-1.7058-2.1614-2.6852-2.4364-6.0708-0.18467-2.274-0.50284-3.673-1.268-5.5751-1.2695-3.156-1.7475-3.8664-4.5556-6.7702-2.7002-2.7922-5.4685-4.3235-9.3632-5.1793-3.3724-0.74099-4.4294-0.73674-7.8619 0.03164-3.6473 0.81645-6.0658 2.1488-8.8923 4.8988-2.9467 2.867-3.3782 3.4774-4.6963 6.6437-1.9932 4.7883-2.0315 8.9122-0.1271 13.685 1.2446 3.1194 1.7557 3.8764 4.5774 6.7797 1.745 1.7954 2.8299 2.5942 4.8354 3.5602 2.6667 1.2845 4.2874 1.6493 9.7722 2.1997 4.6128 0.4629 8.7338 1.2563 9.8255 1.8918 0.52426 0.30514 1.6176 0.78157 2.4296 1.0587 0.81205 0.27717 2.7359 1.3289 4.2751 2.3372 6.2632 4.1027 10.867 9.9604 13.571 17.268 0.22614 0.61102 0.72367 2.6125 1.1056 4.4478 1.2321 5.9203 0.42726 13.992-1.9185 19.24-0.53616 1.1996-1.1056 2.3953-1.2655 2.6572-0.15987 0.26187-0.57235 0.99626-0.91663 1.632-1.2209 2.2545-5.1403 6.6297-7.7117 8.6085-4.6879 3.6077-8.3962 5.4174-13.214 6.4487-4.1678 0.8922-4.1202 0.80394-4.1286 7.6577-8e-3 6.3966-0.21695 7.2235-2.4082 9.5249-1.7145 1.8007-4.5621 2.4632-7.1907 1.6729zm-134.25-12.396c-1.1328-0.33664-2.9865-0.81219-4.1193-1.0568-5.3335-1.1516-16.07-6.8332-21.857-11.567-8.2728-6.7666-13.738-12.881-16.628-18.604-0.93866-1.8589-1.8594-3.5642-2.0461-3.7896-0.40488-0.48868-1.7893-4.4101-2.4212-6.8584-0.24784-0.96017-0.8014-2.8884-1.2301-4.2851-0.4601-1.4988-0.93903-4.23-1.1688-6.6656-0.49489-5.2448-0.82175-17.233-0.53223-19.521 0.12154-0.96017 0.38318-3.7455 0.58144-6.1895 0.63278-7.8008 1.9406-10.795 5.4614-12.502 1.2908-0.62592 1.894-0.67052 9.0689-0.67052 7.0398 0 7.9712 0.06576 11.076 0.78199 1.8644 0.43009 4.8128 0.87741 6.5521 0.99404 2.173 0.14571 3.7076 0.43772 4.9052 0.93334 0.95853 0.39671 2.4557 0.82659 3.3271 0.95529s2.6062 0.64232 3.8552 1.1414c1.249 0.49905 2.44 0.90737 2.6467 0.90737s1.0385 0.34676 1.8484 0.77057c0.80993 0.42381 2.7408 1.3637 4.2909 2.0886 1.55 0.72491 3.935 2.1279 5.2998 3.1177 1.3648 0.98983 3.268 2.3594 4.2292 3.0434 1.6505 1.1746 4.9765 4.6294 7.5115 7.8025 1.8043 2.2585 7.1256 10.267 7.392 11.125 0.13281 0.42773 0.51317 1.1642 0.84525 1.6365 0.33206 0.47236 0.76434 1.3294 0.9606 1.9045 0.19627 0.5751 0.69012 1.543 1.0974 2.1509 0.40732 0.6079 0.74398 1.3221 0.74811 1.5871 4e-3 0.26498 0.37094 1.3388 0.81512 2.3863 0.44418 1.0475 1.0112 2.7329 1.2599 3.7453 0.24879 1.0125 0.67427 2.2707 0.9455 2.7961 0.85987 1.6656 1.4992 9.04 1.2766 14.725-0.30732 7.8488-1.7313 12.21-5.8625 17.955-1.2664 1.7612-5.1089 5.1219-6.9968 6.1196-0.78472 0.4147-1.8545 0.97901-2.3774 1.254s-2.3479 0.93753-4.0557 1.4722c-3.0035 0.94037-3.2938 0.97144-8.8723 0.94956-4.7255-0.0185-6.1392-0.13316-7.8268-0.63469zm12.418-13.592c1.4272-0.33904 3.1132-1.0135 4.0685-1.6276 5.5388-3.5603 7.7468-12.786 5.2404-21.895-0.45634-1.6585-0.98795-3.4439-1.1814-3.9676-0.19341-0.52373-0.66076-1.8092-1.0386-2.8567s-0.84074-2.1901-1.0288-2.5393c-0.18801-0.34915-1.057-1.9918-1.931-3.6502-3.6286-6.8852-8.3735-13.004-12.937-16.681-2.9587-2.3847-9.7497-6.1932-11.85-6.6455-0.60997-0.1314-1.6244-0.50014-2.2542-0.81943-0.62986-0.31929-2.4268-0.78718-3.9932-1.0398-1.5664-0.25257-3.3207-0.70412-3.8986-1.0034-0.72465-0.37537-2.3367-0.62724-5.196-0.81181-2.28-0.14717-5.6476-0.36499-7.4835-0.48404-3.2623-0.21154-3.3593-0.19818-4.2719 0.58816l-0.93381 0.80461-0.23965 6.3014c-0.273 7.1786 0.14488 15.565 0.88429 17.746 0.26796 0.79061 0.68356 2.5562 0.92356 3.9236 0.23999 1.3674 0.73131 3.0374 1.0918 3.7112 0.36051 0.67378 0.65547 1.4533 0.65547 1.7323 0 0.6057 2.2393 4.9511 3.5873 6.9614 3.6198 5.3979 11.69 12.789 18.277 16.739 3.2166 1.929 9.3064 4.6652 11.566 5.1965 1.2338 0.29017 6.1668 0.79733 8.397 0.86331 0.60997 0.018 2.2058-0.22771 3.5462-0.54612z" fill="#5883a9"/>
   <path d="m109.68 421.9c-1.3683-0.67431-1.9404-1.203-2.7143-2.5081-0.96912-1.6344-0.98475-1.7306-1.3405-8.2527-0.19797-3.6294-0.64148-8.4559-0.98557-10.725-0.34408-2.2695-0.77822-7.1259-0.96474-10.792s-0.61232-8.4511-0.94624-10.633c-0.33391-2.1822-0.69796-6.253-0.809-9.0462-0.19388-4.877-0.96107-12.657-1.3028-13.21-0.0902-0.14617-0.3687-3.8755-0.61891-8.2873-0.25022-4.4118-0.67645-9.3785-0.94719-11.037s-0.69767-6.5149-0.94874-10.792c-0.25106-4.2771-0.6781-9.0621-0.94898-10.633-0.27087-1.5712-0.69268-6.2847-0.93735-10.475-0.24467-4.1898-0.72629-9.4747-1.0703-11.744-0.34398-2.2695-0.71672-6.4117-0.8283-9.2049-0.34313-8.5895-1.6484-18.107-2.5765-18.786-0.42964-0.3147-2.3603-0.42029-7.8758-0.43073-4.0186-8e-3 -7.8928-0.12761-8.6091-0.26669-1.6394-0.31827-3.8491-1.788-4.7891-3.1852l-0.7211-1.0719v-56.949l1.0966-1.4386c0.60311-0.79123 1.5656-1.6331 2.1389-1.8708 0.86446-0.35844 11.223-0.44543 60.711-0.50986 42.31-0.0551 59.856-0.1783 60.313-0.42356 0.93398-0.50071 2.4232-3.9227 2.7656-6.355 0.16223-1.1523 0.5774-2.6521 0.92262-3.3328 0.34522-0.68076 0.79975-2.0729 1.0101-3.0937 0.21032-1.0208 0.64377-2.3063 0.9632-2.8567 0.31945-0.55041 0.72348-1.7863 0.89785-2.7465 0.17438-0.96017 0.68289-2.5314 1.13-3.4915 0.44713-0.96017 0.81489-2.0314 0.81725-2.3806 2e-3 -0.34915 0.30737-1.1329 0.67782-1.7416 0.37045-0.60873 0.92551-1.8228 1.2335-2.698 1.0754-3.056 3.1968-8.0162 4.346-10.161 0.28056-0.52373 0.78161-1.5236 1.1134-2.2219 0.33184-0.6983 0.73081-1.4839 0.88661-1.7458s1.0265-1.9759 1.9349-3.8089c0.90841-1.833 2.0078-3.9042 2.4431-4.6025 2.073-3.3258 6.773-10.617 9.1311-14.165 0.42073-0.63307 3.4-4.2754 6.6205-8.094 4.1985-4.9782 7.0858-8.0525 10.203-10.864 10.293-9.2825 18.482-14.925 21.705-14.957 1.4388-0.014 4.4083 1.7038 5.2985 3.0651 0.6397 0.97825 0.79217 1.6085 0.79217 3.2746 0 1.7735-0.12966 2.2435-0.92338 3.3476-1.01 1.4049-1.4293 1.737-5.9231 4.692-3.5449 2.331-10.54 8.242-14.885 12.578-4.188 4.1794-10.44 11.613-13.254 15.759-4.6205 6.8078-5.9776 8.8748-6.721 10.237-0.41489 0.76006-1.206 2.1884-1.758 3.1741-0.552 0.98569-1.3764 2.5064-1.832 3.3792s-1.4008 2.6583-2.1004 3.9676c-0.69959 1.3093-1.4694 3.0011-1.7107 3.7596-0.24131 0.75846-0.64451 1.6155-0.89599 1.9045s-0.63471 1.0787-0.85162 1.7548-0.8053 2.0119-1.3075 2.9683c-0.50224 0.9564-0.91316 1.9434-0.91316 2.1933s-0.33703 1.1282-0.74896 1.9516-0.85016 2.0685-0.97384 2.7668c-0.12368 0.6983-0.49641 1.7366-0.82828 2.3073-0.33187 0.57072-0.82909 1.9101-1.1049 2.9765-0.27584 1.0663-0.71006 2.2576-0.96493 2.6472-0.25486 0.38964-0.65549 1.6282-0.89028 2.7522s-0.68234 2.5368-0.99456 3.1394c-0.82966 1.6013-0.75765 3.7411 0.15071 4.4779 0.69588 0.56446 3.0092 0.58586 64.773 0.59919 35.228 8e-3 64.673 0.13408 65.433 0.28107 1.8399 0.35605 2.8783 1.1748 3.919 3.0902l0.86377 1.5897 0.1052 54.54-0.81398 1.7817c-0.69186 1.5144-1.0908 1.943-2.6591 2.8567l-1.8451 1.075-8.5048 0.15871c-8.3031 0.15494-8.5183 0.17537-9.0723 0.86141-0.75422 0.93401-0.90966 2.1879-1.2758 10.292-0.1707 3.7776-0.37813 7.0628-0.46096 7.3004-0.4723 1.3553-1.1606 8.0345-1.4456 14.027-0.18019 3.789-0.52656 7.9935-0.76972 9.3434-0.69324 3.8484-0.79377 4.8994-1.1152 11.659-0.16602 3.4915-0.59391 8.2765-0.95085 10.633-0.35695 2.3568-0.78785 7.3726-0.95758 11.146-0.16971 3.7737-0.37757 7.0589-0.4619 7.3005-0.47387 1.3576-1.176 8.1028-1.4411 13.845-0.16739 3.6253-0.58952 8.3805-0.93808 10.567-0.34855 2.1866-0.77225 6.9716-0.94155 10.633-0.1693 3.6617-0.59828 8.443-0.95331 10.625s-0.78246 6.9672-0.94985 10.633c-0.28373 6.2142-0.86828 11.274-1.6503 14.284-0.41284 1.589-1.2826 2.5484-3.1937 3.523l-1.4946 0.7621-191.25-0.0368-1.7338-0.85441zm184.65-12.143c0.57247-0.1999 1.1056-0.68624 1.3049-1.1903 0.70618-1.7864 1.3507-7.0507 1.7877-14.602 0.24937-4.3087 0.66454-9.0481 0.92259-10.532 0.25806-1.4839 0.63103-5.769 0.82883-9.5223 0.1978-3.7534 0.63408-8.6098 0.96952-10.792 0.33544-2.1822 0.76258-6.9672 0.94918-10.633 0.18661-3.6661 0.62075-8.5939 0.96477-10.951 0.34402-2.3568 0.82605-7.7131 1.0712-11.903 0.24514-4.1898 0.66805-8.9034 0.93979-10.475 0.27175-1.5712 0.69728-6.3562 0.94563-10.633s0.6732-9.0621 0.94411-10.633c0.27092-1.5712 0.70101-6.4276 0.95577-10.792 0.25476-4.3644 0.68121-9.2208 0.94768-10.792 0.26647-1.5712 0.57673-4.3719 0.68946-6.2239 0.19253-3.163 0.16382-3.4084-0.47369-4.047l-0.67865-0.67981h-100.1c-55.057 0-100.34 0.0909-100.63 0.20199-0.28902 0.1111-0.64698 0.52207-0.79546 0.91327-0.40838 1.076 0.24568 13.059 0.97863 17.929 0.35467 2.3568 0.78213 7.2118 0.94993 10.789s0.59512 8.3621 0.94961 10.633c0.35449 2.2712 0.78186 7.0576 0.94971 10.636 0.16786 3.5788 0.52231 7.9353 0.78767 9.681 0.80301 5.2827 1.0848 8.1199 1.0876 10.951 3e-3 3.342 0.50037 8.8092 1.1255 12.379 0.25984 1.4839 0.6161 5.7663 0.7917 9.5164 0.17559 3.7502 0.60908 8.678 0.96331 10.951 0.35423 2.2727 0.77737 7.0279 0.94031 10.567 0.16294 3.5391 0.59074 8.3241 0.95066 10.633 0.35992 2.3092 0.78508 7.0391 0.94479 10.511 0.31554 6.8592 0.52346 7.6386 2.1324 7.9939 0.47706 0.10532 1.01 0.23917 1.1842 0.29739 0.17427 0.0582 39.116 0.11715 86.537 0.13096 60.227 0.0175 86.512-0.0768 87.188-0.31297zm35.661-157.75c0.83868-0.23329 1.2985-0.58537 1.5173-1.1618 0.19805-0.5218 0.2802-7.5545 0.22257-19.054l-0.0914-18.227-0.74805-0.6066c-0.73359-0.59485-3.1265-0.60659-123.64-0.60659-77.041 0-123.19 0.11275-123.68 0.30222-1.6292 0.62047-1.6174 0.488-1.7186 19.354-0.0665 12.403 0.0098 17.845 0.25855 18.447 0.34981 0.84596 1.1495 1.4122 2.3707 1.6786 0.34856 0.076 55.46 0.15402 122.47 0.1733 84.558 0.0243 122.2-0.0674 123.04-0.29969zm-144.27-110.43c-1.1328-0.14864-2.4874-0.43779-3.0102-0.64254-0.52283-0.20476-2.0913-0.62923-3.4856-0.94328-3.0051-0.6769-4.6935-1.3432-9.9814-3.9388-9.2946-4.5625-19.538-13.15-26.172-21.941-0.52693-0.6983-1.5822-2.5552-2.3451-4.1263-0.76289-1.5712-1.6309-3.2151-1.929-3.6531-0.29803-0.43804-0.71409-1.4371-0.92457-2.2201s-0.63465-1.9244-0.9426-2.5364-0.72252-2.0625-0.92127-3.2233c-0.19875-1.1608-0.63473-2.732-0.96884-3.4915-0.38757-0.88101-0.74682-2.8747-0.99239-5.5072-0.56502-6.0571-0.74162-18.437-0.32148-22.536 0.19683-1.9203 0.47627-4.8623 0.62098-6.5376 0.18082-2.0935 0.54233-3.759 1.156-5.3258 0.81404-2.0784 1.0481-2.377 2.6513-3.3815l1.7584-1.1018h8.0911c7.1116 0 8.3564 0.07602 10.283 0.62793 1.2056 0.34537 4.057 0.79328 6.3364 0.99537 2.8949 0.25667 4.6697 0.58298 5.8871 1.0824 0.95853 0.39322 2.5123 0.8186 3.4529 0.94529 0.94055 0.12669 2.4378 0.56975 3.3271 0.98457 0.88937 0.41483 1.8309 0.75557 2.0923 0.75721 0.26142 0.0016 1.3308 0.42057 2.3765 0.93097 1.0457 0.51039 3.1132 1.507 4.5946 2.2147 1.4814 0.7077 3.3488 1.7542 4.15 2.3256 0.80113 0.57138 2.3696 1.6724 3.4856 2.4467 3.4583 2.3997 8.4187 7.5649 10.841 11.289 0.45422 0.6983 1.8204 2.7382 3.0361 4.5331 1.2156 1.7949 2.3697 3.7474 2.5646 4.339 0.1949 0.59157 0.55314 1.2408 0.7961 1.4428 0.24294 0.20198 0.67124 1.0594 0.95176 1.9054 0.28051 0.84601 0.71754 1.7107 0.97117 1.9216 0.25362 0.21085 0.69166 1.186 0.97341 2.167 0.28176 0.98098 0.76011 2.2835 1.063 2.8945 0.3029 0.61102 0.65441 1.6821 0.78113 2.3801 0.12673 0.69806 0.55732 2.055 0.95688 3.0154 1.0097 2.427 1.5851 9.1556 1.3178 15.41-0.20261 4.7416-0.43824 6.0152-1.847 9.9829-1.1171 3.1462-3.8702 7.4209-6.1664 9.5746-1.3619 1.2774-4.3247 3.4393-4.7133 3.4393-0.18868 0-0.82393 0.35539-1.4117 0.78975-0.58774 0.43437-1.5779 0.88416-2.2004 0.99954-0.6225 0.11538-2.0393 0.55049-3.1484 0.96691-1.6829 0.63182-2.7578 0.77849-6.4958 0.88625-2.4636 0.071-5.4061 8e-3 -6.5389-0.14113zm9.0308-12.891c3.4355-0.78095 4.5902-1.395 6.8127-3.6226 1.7029-1.7068 2.246-2.5275 3.1352-4.7376 1.7831-4.4316 2.083-11.143 0.67686-15.15-0.33158-0.94503-0.7686-2.5179-0.97116-3.4953-0.20256-0.9774-0.71075-2.4223-1.1293-3.2108-0.41856-0.78856-0.7619-1.6624-0.76297-1.9419-9.5e-4 -0.27951-0.19616-0.86528-0.43352-1.3017-0.23737-0.43644-1.1522-2.1659-2.0328-3.8433-3.6226-6.8994-8.7008-13.397-13.521-17.301-2.6965-2.1837-10.379-6.4821-11.578-6.4783-0.26142 9.52e-4 -1.2207-0.34617-2.1318-0.77107-0.91108-0.4249-2.7464-0.9244-4.0784-1.11-1.3321-0.18559-3.082-0.63391-3.8887-0.99626-1.1502-0.51662-2.6294-0.73516-6.8535-1.0125-2.9627-0.1945-6.5044-0.36127-7.8704-0.37061-2.3224-0.01587-2.5319 0.03932-3.2276 0.84997-0.40918 0.47682-0.83941 1.5045-0.95606 2.2837-0.11665 0.7792-0.15137 5.8882-0.0771 11.353 0.12474 9.1853 0.18667 10.081 0.81901 11.841 0.37624 1.0475 0.8191 2.8704 0.98413 4.0511 0.16503 1.1806 0.58036 2.609 0.92294 3.1741s0.72595 1.5274 0.85194 2.1384c0.25349 1.2293 1.7424 4.066 3.9152 7.4592 2.797 4.368 11.499 12.277 17.889 16.259 2.1564 1.3438 7.3032 3.8963 7.8593 3.8978 0.24033 6.4e-4 0.88805 0.2767 1.4394 0.61345 1.1661 0.71224 3.5479 1.2096 7.5531 1.5771 4.2439 0.38947 4.2606 0.38908 6.6542-0.15504z" fill="#242020"/>
  </g>
 </g>
</svg>
